<?xml version="1.0" encoding="utf-8"?>

<!DOCTYPE svg PUBLIC "-//W3C//DTD SVG 1.1//EN" "http://www.w3.org/Graphics/SVG/1.1/DTD/svg11.dtd">
<svg version="1.1" id="Layer_1" xmlns="http://www.w3.org/2000/svg" xmlns:xlink="http://www.w3.org/1999/xlink" x="0px" y="0px"
	 width="600px" height="400px" viewBox="0 0 600 400" enable-background="new 0 0 600 400" xml:space="preserve" >

	<style>
		.line {
            stroke-dasharray: 1000;
            stroke-dashoffset: 0;
            animation: draw 3s ease-in infinite;            
        }

        .line1 {
            stroke-dasharray: 1000;
            stroke-dashoffset: 0;
            animation: draw 5s ease-in infinite;            
        }
        @keyframes draw { 
            from {
                stroke-dashoffset: 1400;
            }
            to {
                stroke-dashoffset: 2800;
            }            
        }
               
    </style>

	<path fill="none" stroke="#FFFFFF" stroke-miterlimit="10" d="M201.468,151.512h82.585c0.965,0,1.748,0.783,1.748,1.748v168.233
		c0,0.965-0.783,1.748-1.748,1.748H9.636c-0.965,0-1.748-0.783-1.748-1.748V153.26c0-0.965,0.783-1.748,1.748-1.748H92.22
		M7.888,303.548H285.8 M146.844,112.658c-21.459,0-38.855,17.396-38.855,38.854c0,21.458,17.396,38.854,38.855,38.854
		c21.458,0,38.854-17.396,38.854-38.854C185.699,130.053,168.303,112.658,146.844,112.658z M285.8,19.688H168.632V94.85h52.845
		l-19.519,29.424L246.24,94.85H285.8V19.688z M203.216,372.184c0-0.966-0.783-1.748-1.748-1.748H92.22
		c-0.965,0-1.748,0.782-1.748,1.748v6.396c0,0.966,0.783,1.748,1.748,1.748h109.248c0.965,0,1.748-0.782,1.748-1.748V372.184z
		M159.425,323.241h-25.054v47.194h25.054V323.241z M203.216,303.146V209.63c0-0.966-0.783-1.748-1.748-1.748H92.22
		c-0.965,0-1.748,0.782-1.748,1.748v93.517 M398.114,151.512h-82.585c-0.965,0-1.748,0.783-1.748,1.748v168.233
		c0,0.965,0.783,1.748,1.748,1.748h274.417c0.966,0,1.748-0.783,1.748-1.748V153.26c0-0.965-0.782-1.748-1.748-1.748h-82.584
		M591.694,303.548H313.781 M413.883,151.512c0,21.458,17.396,38.854,38.855,38.854c21.458,0,38.854-17.396,38.854-38.854
		c0-21.459-17.396-38.854-38.854-38.854C431.279,112.658,413.883,130.053,413.883,151.512z M313.781,94.85h39.561l44.281,29.424
		L378.104,94.85h52.846V19.688H313.781V94.85z M396.366,378.58c0,0.966,0.782,1.748,1.748,1.748h109.248
		c0.965,0,1.747-0.782,1.747-1.748v-6.396c0-0.966-0.782-1.748-1.747-1.748H398.114c-0.966,0-1.748,0.782-1.748,1.748V378.58z
		M440.157,370.436h25.054v-47.194h-25.054V370.436z M509.109,303.146V209.63c0-0.966-0.782-1.748-1.747-1.748H398.114
		c-0.966,0-1.748,0.782-1.748,1.748v93.517"
    />
	
    <path class="line1" fill="none" stroke="#fff" stroke-width="1" d="M 372.37,81.30 C 372.37,81.30 372.37,77.30 372.37,77.30M 372.37,73.55     C 372.37,73.55 372.37,54.46 372.37,54.46 377.80,54.46 382.19,50.06 382.19,44.63 382.19,39.21 377.80,34.80 372.37,34.80 366.94,34.80      362.54,39.21 362.54,44.63" />
	
	<path class="line" fill="none" stroke="#fff" stroke-width="1" d="M 227.37,81.30 C 227.37,81.30 227.37,77.30 227.37,77.30M 227.37,73.55 C    227.37,73.55 227.37,54.46 227.37,54.46 232.80,54.46 237.20,50.06 237.20,44.63 237.20,39.21 232.80,34.80 227.37,34.80 221.94,34.80           217.54,39.21 217.54,44.63" />
	
</svg>

