<svg version="1.1" id="Layer_1" xmlns="http://www.w3.org/2000/svg" xmlns:xlink="http://www.w3.org/1999/xlink" x="0px" y="0px"
	width="530.77px" height="532.051px" viewBox="0 0 530.77 532.051" enable-background="new 0 0 530.77 532.051" xml:space="preserve" style="background: black;">
	<g>
		<path fill="#FFFFFF" d="M274.793,507.417c0,0-4.533,0.096-13.032,0.274c-8.489-0.188-20.994-0.49-36.683-2.963
			c-15.664-2.46-34.483-7.167-54.934-15.581c-10.151-4.356-20.756-9.489-31.383-15.887c-10.589-6.444-21.268-13.979-31.659-22.756
			c-10.38-8.78-20.511-18.77-29.857-30.075c-9.358-11.288-18.017-23.812-25.558-37.451C36.584,355.74,26.063,323.885,22.809,290
			c-1.645-16.923-1.554-34.307,0.474-51.686c2.021-17.377,5.975-34.744,11.848-51.599l1.075-3.171
			c0.384-1.048,0.813-2.081,1.218-3.123c0.821-2.08,1.642-4.161,2.464-6.245c0.774-2.104,1.782-4.11,2.684-6.165l2.774-6.137
			l3.066-6.008l1.538-3.006l0.77-1.503l0.84-1.466l3.369-5.864l1.692-2.931l1.826-2.852c9.615-15.29,20.954-29.577,33.718-42.462
			c12.847-12.802,27.108-24.174,42.379-33.82l2.85-1.829c0.955-0.601,1.95-1.136,2.922-1.707l5.862-3.373
			c1.928-1.169,3.974-2.118,5.966-3.164l6.003-3.075l6.133-2.783l3.065-1.385c1.019-0.469,2.04-0.928,3.091-1.318
			c2.084-0.82,4.166-1.64,6.246-2.458l3.119-1.228c1.047-0.388,2.113-0.722,3.167-1.085
			c33.706-11.827,69.432-15.744,103.267-12.532c16.924,1.602,33.398,4.948,49.007,9.864c15.613,4.907,30.372,11.308,44.021,18.826
			c13.654,7.517,26.197,16.146,37.511,25.476c11.319,9.329,21.345,19.422,30.15,29.781c8.805,10.367,16.365,21.027,22.836,31.6
			c6.396,10.626,11.566,21.211,15.947,31.353c8.433,20.444,13.143,39.262,15.627,54.92c0.16,0.979,0.376,1.935,0.473,2.896
			c0.018,0.142,0.035,0.283,0.053,0.421l0.013,0.106c0.009,0.069,0.017,0.133,0.024,0.193c0.015,0.12,0.027,0.222,0.038,0.305
			c0.021,0.166,0.032,0.254,0.032,0.254l-11.453,1.63c2.588,3.259,5.303,6.608,7.835,10.079c2.454,3.479,4.919,7.058,7.39,10.738
			c1.909-3.894,3.813-7.889,5.705-11.984c1.813-4.088,3.421-8.259,5.116-12.54l-11.452,1.629c0,0-0.011-0.089-0.032-0.257
			c-0.011-0.084-0.023-0.187-0.038-0.309c-0.008-0.061-0.017-0.126-0.025-0.196l-0.014-0.108c-0.018-0.14-0.035-0.282-0.053-0.427
			c-0.099-0.974-0.316-1.943-0.478-2.935c-2.519-15.864-7.289-34.932-15.835-55.646c-4.438-10.277-9.677-21.001-16.158-31.768
			c-6.555-10.713-14.215-21.512-23.135-32.016c-8.921-10.495-19.078-20.719-30.546-30.17c-11.46-9.452-24.167-18.194-38.001-25.81
			c-13.828-7.617-28.783-14.102-44.603-19.074c-15.815-4.981-32.508-8.372-49.655-9.995c-34.278-3.253-70.461,0.712-104.618,12.697
			c-1.068,0.368-2.148,0.708-3.209,1.101l-3.161,1.244c-2.108,0.83-4.217,1.66-6.329,2.491c-1.064,0.396-2.1,0.861-3.131,1.335
			l-3.106,1.403l-6.214,2.82l-6.083,3.115c-2.018,1.06-4.09,2.023-6.044,3.207l-5.939,3.417c-0.985,0.579-1.992,1.121-2.96,1.729
			l-2.887,1.853c-15.472,9.772-29.92,21.293-42.934,34.263c-12.931,13.053-24.418,27.526-34.159,43.017l-1.85,2.89l-1.715,2.969
			l-3.413,5.941l-0.851,1.485l-0.78,1.523l-1.559,3.045l-3.106,6.088l-2.812,6.218c-0.914,2.081-1.933,4.115-2.718,6.246
			c-0.833,2.11-1.666,4.22-2.497,6.327c-0.41,1.056-0.844,2.102-1.233,3.164l-1.09,3.213c-5.951,17.078-9.958,34.675-12.004,52.281
			c-2.055,17.608-2.146,35.217-0.48,52.358c3.297,34.325,13.957,66.608,29.259,94.205c7.64,13.82,16.413,26.508,25.894,37.943
			c9.469,11.454,19.731,21.574,30.247,30.47c10.527,8.892,21.346,16.524,32.074,23.052c10.766,6.481,21.511,11.684,31.796,16.097
			c20.72,8.526,39.79,13.294,55.661,15.787c15.896,2.506,28.564,2.813,37.164,3.002c4.304-0.038,7.605-0.16,9.829-0.199
			c2.225-0.052,3.372-0.079,3.372-0.079L274.793,507.417z">
			<animateTransform
				attributeName="transform"
				begin="0s"
				dur="3.5s"
				type="rotate"
				from="0 268 268"
				to="360 268 268"					
				fill="freeze"
				repeatCount="infinite"
			/>
		</path>
	</g>

	<g>
		<path fill="#FFFFFF" d="M273.976,468.991c0,0-3.063,0.139-8.807,0.4c-1.437,0.033-3.042,0.008-4.809,0.015
			c-1.766-0.022-3.696,0.045-5.778-0.05c-2.082-0.097-4.319-0.2-6.707-0.311c-1.195-0.033-2.421-0.151-3.685-0.273
			c-1.264-0.117-2.563-0.238-3.899-0.362c-10.668-1.078-23.58-3.246-37.9-7.557c-1.81-0.471-3.582-1.165-5.416-1.756
			c-1.821-0.632-3.692-1.21-5.549-1.911c-1.849-0.724-3.724-1.458-5.624-2.202c-0.947-0.381-1.916-0.727-2.862-1.144
			c-0.944-0.423-1.895-0.849-2.851-1.276c-1.909-0.866-3.861-1.703-5.802-2.623c-1.917-0.971-3.858-1.954-5.821-2.948
			c-1.984-0.955-3.906-2.081-5.862-3.194c-0.979-0.557-1.962-1.115-2.952-1.678c-0.992-0.558-1.988-1.119-2.948-1.754
			c-1.942-1.232-3.904-2.477-5.886-3.734c-1.004-0.607-1.957-1.304-2.927-1.985c-0.968-0.683-1.942-1.368-2.92-2.058
			c-0.978-0.688-1.96-1.381-2.948-2.076c-0.971-0.717-1.914-1.482-2.879-2.226c-1.91-1.514-3.887-2.979-5.79-4.567
			c-7.629-6.343-15.029-13.469-22.091-21.294c-7.024-7.861-13.521-16.565-19.458-25.898c-5.905-9.353-11.245-19.371-15.587-30.022
			c-8.769-21.251-14.119-44.772-15.04-68.91c-0.949-24.12,2.499-48.832,10.5-72.03c7.929-23.224,20.303-44.856,35.77-63.396
			c7.698-9.305,16.248-17.771,25.344-25.334c9.093-7.571,18.743-14.239,28.72-19.95c19.933-11.517,41.269-18.794,61.946-22.76
			c2.597-0.446,5.176-0.89,7.737-1.331c2.579-0.318,5.139-0.634,7.68-0.948l1.902-0.233l1.904-0.143
			c1.267-0.095,2.529-0.189,3.786-0.284s2.508-0.188,3.755-0.282c1.25-0.035,2.494-0.069,3.733-0.104s2.474-0.067,3.702-0.101
			c1.229-0.038,2.452-0.078,3.67-0.029c2.436,0.05,4.851,0.1,7.243,0.149c2.391,0.082,4.752,0.304,7.095,0.446
			c1.17,0.083,2.335,0.165,3.494,0.247c1.153,0.135,2.302,0.27,3.443,0.404c9.16,0.909,17.814,2.699,25.97,4.613
			c4.039,1.122,8.024,2.042,11.777,3.346c1.891,0.607,3.753,1.207,5.588,1.796c1.805,0.677,3.582,1.343,5.332,2
			c13.98,5.306,25.513,11.514,34.6,17.202c1.699,1.065,2.67,1.675,2.67,1.675l-6.287,9.711c2.122-0.012,4.185,0.123,6.284,0.259
			l6.379,0.451c4.254,0.405,8.501,1.026,12.901,1.644c-1.621-4.009-3.276-8.176-5.142-12.266l-2.953-6.083
			c-1.009-2.047-2.033-4.125-3.172-6.089l-6.286,9.71c0,0-0.986-0.619-2.713-1.702c-9.23-5.778-20.948-12.086-35.153-17.477
			c-1.777-0.667-3.584-1.344-5.417-2.031c-1.865-0.6-3.758-1.208-5.678-1.826c-3.814-1.324-7.862-2.262-11.966-3.399
			c-8.286-1.946-17.079-3.762-26.384-4.687c-1.16-0.136-2.326-0.272-3.499-0.41c-1.177-0.083-2.36-0.167-3.549-0.251
			c-2.38-0.145-4.779-0.37-7.208-0.453c-2.43-0.05-4.882-0.101-7.357-0.152c-1.237-0.049-2.48-0.008-3.728,0.03
			c-1.249,0.034-2.502,0.068-3.761,0.102c-1.259,0.035-2.523,0.071-3.792,0.106c-1.267,0.095-2.538,0.19-3.814,0.286
			c-1.277,0.096-2.559,0.192-3.846,0.289l-1.934,0.146l-1.933,0.236c-2.581,0.319-5.182,0.64-7.802,0.964
			c-2.602,0.447-5.222,0.897-7.86,1.351c-21.005,4.027-42.679,11.422-62.933,23.123c-10.137,5.802-19.942,12.578-29.18,20.27
			c-9.242,7.685-17.927,16.285-25.746,25.735c-15.708,18.827-28.283,40.809-36.338,64.405
			c-8.13,23.571-11.632,48.675-10.668,73.176c0.935,24.52,6.369,48.413,15.279,70.003c4.413,10.821,9.836,21.001,15.836,30.503
			c6.032,9.483,12.634,18.326,19.771,26.313c7.173,7.95,14.691,15.188,22.439,21.63c1.934,1.613,3.94,3.104,5.88,4.64
			c0.98,0.755,1.938,1.531,2.924,2.26c1.003,0.706,2.001,1.409,2.994,2.109s1.982,1.396,2.966,2.09
			c0.985,0.692,1.953,1.398,2.973,2.018c2.013,1.276,4.006,2.541,5.979,3.793c0.975,0.645,1.987,1.215,2.995,1.782
			c1.005,0.571,2.004,1.14,2.999,1.705c1.988,1.131,3.94,2.273,5.956,3.245c1.995,1.01,3.967,2.008,5.915,2.995
			c1.973,0.935,3.956,1.785,5.895,2.665c0.972,0.435,1.938,0.867,2.897,1.296c0.961,0.424,1.946,0.775,2.908,1.162
			c1.931,0.757,3.836,1.503,5.715,2.238c1.887,0.711,3.788,1.3,5.637,1.941c1.864,0.602,3.665,1.305,5.502,1.784
			c14.55,4.38,27.667,6.583,38.505,7.678c1.357,0.126,2.678,0.248,3.961,0.367c1.283,0.124,2.529,0.244,3.744,0.277
			c2.425,0.113,4.698,0.219,6.813,0.316c2.115,0.096,4.076,0.028,5.87,0.051c1.794-0.007,3.425,0.019,4.885-0.016
			c5.835-0.266,8.946-0.407,8.946-0.407L273.976,468.991z">
			<animateTransform
				attributeName="transform"
				begin="0s"
				dur="2s"
				type="rotate"
				from="0 268 268"
				to="360 268 268"					
				fill="freeze"
				repeatCount="infinite"
			/>
		</path>
	</g>

	<g>
		<path fill="#FFFFFF" d="M278.795,417.997c0,0-0.652,0.062-1.914,0.182c-0.632,0.061-1.415,0.135-2.347,0.224
			c-0.931,0.096-2.01,0.198-3.236,0.248c-4.894,0.351-12.111,0.543-21.252-0.118c-2.285-0.156-4.682-0.453-7.199-0.713
			c-2.501-0.388-5.139-0.665-7.847-1.214c-5.444-0.926-11.262-2.333-17.371-4.172c-12.218-3.654-25.562-9.456-38.741-18.02
			c-13.15-8.558-26.149-19.918-37.117-34.212c-10.982-14.243-19.992-31.322-25.496-50.183c-5.541-18.828-7.464-39.427-5.04-59.911
			c2.349-20.487,9.141-40.772,19.732-58.84c10.556-18.092,24.934-33.92,41.642-46.001c16.693-12.114,35.621-20.493,54.734-24.932
			c19.134-4.467,38.438-4.917,56.225-2.257c8.901,1.32,17.438,3.396,25.483,6.037c8.038,2.672,15.558,5.96,22.522,9.584
			c3.512,1.764,6.789,3.779,10.028,5.685c3.133,2.076,6.25,4.021,9.099,6.194c2.938,2.048,5.598,4.309,8.248,6.422
			c1.297,1.091,2.522,2.228,3.759,3.313c0.615,0.547,1.226,1.089,1.831,1.628c0.604,0.541,1.158,1.124,1.733,1.677
			c9.192,8.863,16.088,17.681,21.133,25.319c0.476,0.701,0.899,1.327,1.269,1.872c0.063,0.103,0.116,0.19,0.159,0.261
			c0.086,0.142,0.132,0.218,0.132,0.218l-9.758,6.213c7.412,3.511,14.701,7.868,21.877,12.986
			c0.835-8.686,1.034-17.789,0.314-27.116l-9.757,6.212c0,0-0.047-0.077-0.136-0.222c-0.043-0.072-0.098-0.162-0.162-0.267
			c-0.376-0.556-0.81-1.195-1.295-1.911c-5.15-7.799-12.192-16.805-21.579-25.854c-0.587-0.564-1.154-1.159-1.771-1.711
			c-0.618-0.55-1.24-1.104-1.868-1.663c-1.263-1.109-2.515-2.269-3.839-3.383c-2.705-2.159-5.423-4.466-8.422-6.558
			c-2.909-2.216-6.09-4.205-9.289-6.323c-3.306-1.948-6.653-4.002-10.238-5.805c-7.109-3.7-14.786-7.055-22.992-9.783
			c-8.214-2.697-16.928-4.816-26.016-6.164c-18.16-2.717-37.873-2.256-57.411,2.305c-19.519,4.534-38.827,13.082-55.876,25.453
			c-17.061,12.336-31.743,28.5-42.52,46.97c-10.812,18.446-17.744,39.153-20.144,60.069c-2.476,20.914-0.512,41.951,5.146,61.175
			c5.62,19.255,14.813,36.682,26.029,51.229c11.201,14.595,24.474,26.196,37.899,34.933c13.455,8.744,27.077,14.665,39.55,18.396
			c6.236,1.878,12.175,3.313,17.733,4.26c2.765,0.559,5.458,0.844,8.011,1.238c2.57,0.267,5.018,0.568,7.351,0.728
			c9.333,0.676,16.703,0.479,21.7,0.121c1.252-0.052,2.354-0.156,3.305-0.253c0.951-0.091,1.752-0.167,2.396-0.229
			c1.289-0.123,1.955-0.187,1.955-0.187L278.795,417.997z">
			<animateTransform
				attributeName="transform"
				begin="0s"
				dur="2.5s"
				type="rotate"
				from="0 268 268"
				to="360 268 268"					
				fill="freeze"
				repeatCount="infinite"
			/>
		</path>
	</g>

	<g>
		<path fill="#FFFFFF" d="M288.184,367.392c0,0-1.858,0.411-5.343,1.181c-3.513,0.598-8.679,1.542-15.34,1.819
			c-6.647,0.313-14.782-0.026-23.9-1.753c-0.57-0.104-1.145-0.209-1.724-0.314c-0.574-0.134-1.151-0.27-1.734-0.405
			c-1.163-0.28-2.352-0.53-3.542-0.847c-2.37-0.675-4.817-1.339-7.266-2.222c-4.91-1.706-9.992-3.783-15.021-6.492
			c-10.068-5.357-20.157-12.832-28.896-22.583c-8.744-9.718-16.076-21.717-20.739-35.216c-4.688-13.476-6.733-28.404-5.413-43.336
			c0.654-7.459,2.096-14.917,4.384-22.146c2.296-7.225,5.385-14.228,9.185-20.822c7.557-13.225,18.15-24.654,30.41-33.254
			c6.129-4.306,12.676-7.911,19.447-10.753c6.774-2.836,13.77-4.907,20.777-6.257c14.025-2.712,28.081-2.371,40.875,0.321
			c12.821,2.675,24.337,7.694,34,13.746c4.844,3.02,9.245,6.302,13.146,9.745c3.909,3.429,7.423,6.915,10.418,10.458
			c6.109,6.992,10.379,13.932,13.465,19.82c0.662,1.302,1.04,2.045,1.04,2.045l-10.374,5.118
			c6.878,4.012,13.534,9.216,19.629,15.53c2.416-8.425,3.82-17.567,3.965-27.168l-10.374,5.117c0,0-0.39-0.767-1.072-2.108
			c-3.18-6.068-7.582-13.222-13.878-20.428c-3.087-3.649-6.707-7.243-10.734-10.776c-4.021-3.546-8.555-6.928-13.545-10.04
			c-9.955-6.236-21.82-11.406-35.033-14.163c-13.185-2.774-27.677-3.125-42.125-0.331c-7.217,1.39-14.422,3.522-21.403,6.446
			c-6.978,2.929-13.727,6.644-20.044,11.082c-12.637,8.864-23.55,20.642-31.336,34.266c-3.916,6.793-7.098,14.009-9.463,21.454
			c-2.357,7.449-3.844,15.136-4.518,22.824c-1.361,15.393,0.748,30.774,5.576,44.652c4.804,13.908,12.364,26.279,21.375,36.294
			c9.005,10.049,19.399,17.75,29.772,23.269c5.182,2.789,10.417,4.932,15.477,6.689c2.524,0.908,5.045,1.595,7.487,2.289
			c1.227,0.325,2.452,0.584,3.65,0.873c0.6,0.14,1.196,0.278,1.787,0.417c0.597,0.109,1.189,0.218,1.777,0.325
			c9.397,1.779,17.783,2.127,24.633,1.806c6.865-0.286,12.188-1.257,15.806-1.875c3.589-0.793,5.503-1.216,5.503-1.216
			L288.184,367.392z">
			<animateTransform
				attributeName="transform"
				begin="0s"
				dur="4s"
				type="rotate"
				from="0 268 268"
				to="360 268 268"					
				fill="freeze"
				repeatCount="infinite"
			/>
		</path>
	</g>

</svg>
