<svg version="1.1" id="Layer_1" xmlns="http://www.w3.org/2000/svg" xmlns:xlink="http://www.w3.org/1999/xlink" x="0px" y="0px"
	 width="675px" height="245.5px" viewBox="0 0 675 245.5" enable-background="new 0 0 675 245.5" xml:space="preserve" style="background:#000;">
	<path id="double-wave" fill="none" stroke="#FFFFFF" stroke-miterlimit="10" d="M594.125,123.095c-28.003,0-26.355-31.32-54.358-31.32
		s-28.003,140.641-56.006,140.641c-27.999,0-27.999-145.641-55.998-145.641c-28,0-28,105.641-56,105.641
		c-27.999,0-27.999-160.641-55.998-160.641c-27.998,0-27.998,180.641-55.996,180.641c-28,0-28-120.641-56-120.641
		c-27.998,0-27.998,80.641-55.997,80.641s-27.438-49.321-55.438-49.321"
	/>	
	<path fill="none" stroke="#FFFFFF" stroke-miterlimit="10" d="M91.772,123.095c28,0,28,38,55.999,38s27.999-108,55.997-108
		c28,0,28,128,56,128c27.998,0,27.998-58,55.996-58c27.999,0,27.999,118,55.998,118c28,0,28-118,56-118c27.999,0,27.999,58,55.998,58
		c28.003,0,28.003-58,56.006-58s24.236,0,52.239,0"
	/>
	<path fill="none" stroke="#FFFFFF" stroke-miterlimit="10" d="M594.125,123.095c-22.912,0-21.265-76.6-44.176-76.6
		s-22.911,161.2-45.823,161.2c-22.908,0-22.908-141.2-45.817-141.2s-22.909,161.2-45.819,161.2c-22.908,0-22.908-211.2-45.816-211.2
		s-22.908,201.2-45.815,201.2c-22.909,0-22.909-171.2-45.818-171.2s-22.909,171.2-45.817,171.2s-22.908-211.2-45.817-211.2
		s-22.909,191.2-45.817,191.2c-22.907,0-22.346-74.6-45.253-74.6"
	/>
	<path fill="none" stroke="#FFFFFF" stroke-miterlimit="10" d="M92.333,123.095c12.598,0,12.037,30.12,24.635,30.12
		s12.599-30.24,25.196-30.24c12.599,0,12.599,30.24,25.197,30.24c12.6,0,12.6-30.24,25.198-30.24c12.601,0,12.601,30.24,25.2,30.24
		s12.6-90.24,25.198-90.24c12.6,0,12.6,90.24,25.199,90.24s12.6-30.24,25.199-30.24s12.6,30.24,25.199,30.24s12.6-30.24,25.199-30.24
		c12.601,0,12.601,40.24,25.2,40.24c12.598,0,12.598-40.24,25.196-40.24s12.599,30.24,25.198,30.24s12.6-30.24,25.199-30.24
		c12.601,0,12.601,30.24,25.201,30.24c12.602,0,12.602-30.24,25.203-30.24c12.601,0,12.601,30.24,25.201,30.24
		c12.602,0,12.602-30.24,25.203-30.24c12.604,0,12.604,30.24,25.207,30.24s9.706-30.12,22.31-30.12"
	/>
	<line fill="none" stroke="#FFFFFF" stroke-miterlimit="10" x1="11.772" y1="123.095" x2="665.833" y2="123.095"/>
	
</svg>


  