<svg class="dis-dev" version="1.1" xmlns="http://www.w3.org/2000/svg" xmlns:xlink="http://www.w3.org/1999/xlink" x="0px" y="0px" width="150px" height="150px" viewBox="0 0 150 150" enable-background="new 0 0 150 150" xml:space="preserve">
    <style>
		.dis-dev:hover {
			stroke-dasharray: 1000;
			stroke-dashoffset: 1000;
			animation: dda 12s forwards ;		
		}


		@keyframes dda {
			from {
				stroke-dashoffset: 1000;
			}
			to {
				stroke-dashoffset: 0;
			}
		}
	</style>
    
      
    <g >
    <path 
            fill="none" stroke="#000" stroke-width="1"
            d="M 121.40,60.00
                C 121.40,60.00 121.40,29.20 121.40,29.20
                121.40,29.20 31.00,29.20 31.00,29.20
                31.00,29.20 31.00,72.20 31.00,72.20" />
        <path 
            fill="none" stroke="#000" stroke-width="1"
            d="M 35.40,76.40
                C 35.40,76.40 108.30,76.40 108.30,76.40" />
    <path fill="none" stroke="#000" stroke-linecap="round" stroke-miterlimit="10" d="M27.3,72.2V28.9c0-1.6,1.3-2.9,2.9-2.9h91.9
        c1.6,0,2.9,1.3,2.9,2.9v31.2"/>
    <path fill="none" stroke="#000" stroke-linecap="round" stroke-miterlimit="10" d="M108.4,79.5H35.1"/>
    <path 
            fill="none" stroke="#000" stroke-width="1"
            d="M 66.30,110.20
                C 66.30,110.20 66.30,79.50 66.30,79.50" />
    <path 
            fill="none" stroke="#000" stroke-width="1"
            d="M 86.00,110.20
                C 86.00,110.20 86.00,79.50 86.00,79.50" />
    <path fill="none" stroke="#000" stroke-linecap="round" stroke-miterlimit="10" d="M98.2,113.8c0,1.9-1.5,3.4-3.4,3.4H57.6
        c-1.9,0-3.4-1.5-3.4-3.4l0,0c0-1.9,1.5-3.4,3.4-3.4h37.3C96.7,110.4,98.2,111.9,98.2,113.8L98.2,113.8z"/>
    <path fill="none" stroke="#000" stroke-linecap="round" stroke-miterlimit="10" d="M145,114.2c0,1.6-1.3,2.9-2.9,2.9h-30.7
        c-1.6,0-2.9-1.3-2.9-2.9V63.6c0-1.6,1.3-2.9,2.9-2.9h30.7c1.6,0,2.9,1.3,2.9,2.9V114.2z"/>
    <path 
            fill="none" stroke="#000" stroke-width="1"
            d="M 111.40,65.40
                C 111.40,65.40 111.40,110.60 111.40,110.60
                111.40,110.60 142.40,110.60 142.40,110.60
                142.40,110.60 142.40,65.40 142.40,65.40
                142.40,65.40 111.40,65.40 111.40,65.40 Z" />
    <path 
            fill="none" stroke="#000" stroke-width="1"
            d="M 131.70,62.90
                C 131.70,62.90 121.70,62.90 121.70,62.90" />
    
        <path 
            fill="none" stroke="#000" stroke-width="1"
            d="M 126.90,112.10
                C 125.91,112.10 125.10,112.91 125.10,113.90
                125.10,114.89 125.91,115.70 126.90,115.70
                127.89,115.70 128.70,114.89 128.70,113.90
                128.70,112.91 127.89,112.10 126.90,112.10 Z" />
    <path fill="none" stroke="#000" stroke-linecap="round" stroke-miterlimit="10" d="M35.2,114.2c0,1.6-1.3,3-3,3H19.1
        c-1.6,0-3-1.3-3-3V75.7c0-1.6,1.3-3,3-3h13.1c1.6,0,3,1.3,3,3V114.2z"/>
    <path 
            fill="none" stroke="#000" stroke-width="1"
            d="M 35.10,77.20
                C 35.10,77.20 16.10,77.20 16.10,77.20" />
        <path 
            fill="none" stroke="#000" stroke-width="1"
            d="M 35.10,110.60
                C 35.10,110.60 16.10,110.60 16.10,110.60" />
    
        <path 
            fill="none" stroke="#000" stroke-width="1"
            d="M 25.60,112.30
                C 24.72,112.30 24.00,113.02 24.00,113.90
                24.00,114.78 24.72,115.50 25.60,115.50
                26.48,115.50 27.20,114.78 27.20,113.90
                27.20,113.02 26.48,112.30 25.60,112.30 Z" />
    
        <path 
            fill="none" stroke="#000" stroke-width="1"
            d="M 29.30,74.80
                C 29.30,74.80 22.00,74.80 22.00,74.80" />
        <path 
            fill="none" stroke="#000" stroke-width="1"
            d="M 35.10,93.20
                C 35.10,93.20 66.30,93.20 66.30,93.20" />
    <path 
            fill="none" stroke="#000" stroke-width="1"
            d="M 9.80,93.20
                C 9.80,93.20 16.10,93.20 16.10,93.20" />
    <path fill="none" stroke="#000" stroke-linecap="round" stroke-miterlimit="10" d="M7.2,130.9c-1.6,0-2.9-1.3-2.9-2.9V96.2
        c0-1.6,1.3-2.9,2.9-2.9h7.5"/>
    <path 
            fill="none" stroke="#000" stroke-width="1"
            d="M 138.40,130.90
                C 138.40,130.90 7.20,130.90 7.20,130.90" />
    <path fill="none" stroke="#000" stroke-linecap="round" stroke-miterlimit="10" d="M139,130.9c3.7,0,6.8,3,6.8,6.8
        c0,3.7-3,6.8-6.8,6.8"/>
    <path 
            fill="none" stroke="#000" stroke-width="1"
            d="M 31.00,144.40
                C 31.00,144.40 139.00,144.40 139.00,144.40" />
    <path 
            fill="none" stroke="#000" stroke-width="1"
            d="M 76.20,5.60
                C 72.22,5.60 69.00,8.82 69.00,12.80
                69.00,16.78 72.22,20.00 76.20,20.00
                80.18,20.00 83.40,16.78 83.40,12.80
                83.40,8.82 80.18,5.60 76.20,5.60 Z" />
    <path 
            fill="none" stroke="#000" stroke-width="1"
            d="M 76.20,9.50
                C 74.38,9.50 72.90,10.98 72.90,12.80
                72.90,14.62 74.38,16.10 76.20,16.10
                78.02,16.10 79.50,14.62 79.50,12.80
                79.50,10.98 78.02,9.50 76.20,9.50 Z" />
    <path 
            fill="none" stroke="#000" stroke-width="1"
            d="M 76.20,26.00
                C 76.20,26.00 76.20,20.00 76.20,20.00" />
    </g>
</svg>