<?xml version="1.0" encoding="utf-8"?>
<!-- Generator: Adobe Illustrator 16.0.0, SVG Export Plug-In . SVG Version: 6.00 Build 0)  -->
<!DOCTYPE svg PUBLIC "-//W3C//DTD SVG 1.1//EN" "http://www.w3.org/Graphics/SVG/1.1/DTD/svg11.dtd">
<svg version="1.1" id="Layer_1" xmlns="http://www.w3.org/2000/svg" xmlns:xlink="http://www.w3.org/1999/xlink" x="0px" y="0px"
	 width="527.586px" height="414px" viewBox="0 0 527.586 214" enable-background="new 0 82.983 527.586 214"
	 xml:space="preserve">

	<style> 
.text-1 {
  -webkit-animation: hideshow 10s ease infinite;
          animation: hideshow 10s ease infinite;
}

.text-2 {
opacity:0;
  -webkit-animation: hideshow 10s 2s ease infinite;
          animation: hideshow 10s 2s ease infinite;
}

.text-3 {
 opacity:0;
  -webkit-animation: hideshow 10s 4s ease infinite;
          animation: hideshow 10s 4s ease infinite;
}

.text-4 {
 opacity:0;
  -webkit-animation: hideshow 10s 6s ease infinite;
          animation: hideshow 10s 6s ease infinite;
}

.text-5 {
 opacity:0;
  -webkit-animation: hideshow 10s 8s ease infinite;
          animation: hideshow 10s 8s ease infinite;
}

.text-6 {
  opacity:0;
  -webkit-animation: hideshow 10s 10s ease infinite;
          animation: hideshow 10s 10s ease infinite;
}

@-webkit-keyframes hideshow {
  0% {
    opacity: 0.5;
  }
  10% {
    opacity: 1;
  }
  15% {
    opacity: 0;
  }
  
  100% {
    opacity: 0;
  }
}

@keyframes hideshow {
  0% {
    opacity: 0.5;
  }
  10% {
    opacity: 1;
  }
  15% {
    opacity: 0;
  }
  100% {
    opacity: 0;
  }
}

</style>
<path fill="#181924" class="text-1" d="M490.456,129.88c0,0-22.243-1.192-45.492-4.98c-23.611-3.843-37.076-6.594-61.921-5.842
	c-24.854,0.771-27.905,2.306-38.604,3.078c-10.694,0.756-47.386,10.795-56.563,12.33c-9.168,1.526-24.087,2.278-24.087,2.278
	s-14.899-0.752-24.081-2.278c-9.179-1.535-45.862-11.574-56.567-12.33c-10.701-0.772-13.751-2.307-38.596-3.078
	c-24.852-0.752-38.311,1.999-61.925,5.842c-23.242,3.788-45.495,4.98-45.495,4.98s-7.259,21.01-5.349,24.832
	c1.914,3.826,11.48,7.656,16.443,14.533c4.965,6.884,8.41,26.745,9.936,36.295c1.533,9.563,12.234,38.608,19.88,45.877
	c7.642,7.262,28.667,20.637,66.126,18.354c37.445-2.3,57.712-9.569,71.848-26.763c14.155-17.202,26.377-32.104,34.403-70.321
	c0,0,1.146-4.973,13.378-4.973c12.234,0,13.382,4.973,13.382,4.973c8.023,38.222,20.259,53.124,34.394,70.321
	c14.146,17.193,34.402,24.463,71.863,26.763c37.465,2.282,58.483-11.095,66.131-18.354c7.638-7.269,18.341-36.313,19.869-45.877
	c1.528-9.551,4.974-29.412,9.936-36.295c4.965-6.877,14.533-10.708,16.443-14.533C497.716,150.891,490.456,129.88,490.456,129.88z
	 M56.574,145.563c-3.232,0-10.493-1.95-10.493-4.343c0-2.392,6.653-4.956,10.493-4.248c0,0,7.662,0.369,7.662,4.402
	C64.236,145.385,59.832,145.563,56.574,145.563z M233.988,178.792c-3.066,17.585-11.462,44.345-28.289,61.936
	c-16.819,17.569-37.849,22.926-66.89,22.926c-29.053,0-46.247-6.497-55.806-19.113c-4.645-6.123-29.813-60.771-12.223-90.962
	c17.579-30.192,93.261-22.943,93.261-22.943C233.601,137.514,237.032,161.229,233.988,178.792z M444.579,244.536
	c-9.551,12.615-26.749,19.115-55.788,19.115c-29.063,0-50.072-5.356-66.898-22.928c-16.822-17.589-25.224-44.352-28.281-61.932
	c-3.054-17.565,0.373-41.277,69.938-48.164c0,0,75.695-7.251,93.263,22.94C474.401,183.765,449.24,238.417,444.579,244.536z
	 M471.016,145.563c-3.249,0-7.653-0.178-7.653-4.188c0-4.028,7.653-4.397,7.653-4.397c3.848-0.71,10.505,1.851,10.505,4.246
	C481.521,143.613,474.254,145.563,471.016,145.563z"/>
<path fill="#181924" class="text-2" d="M479.065,135.879c0,0-21.611-5.595-70.837-9.202c-49.203-3.6-100.432,5.208-100.432,5.208
	c-36.774,11.187-43.996,9.612-44.013,9.603c0,0.009-7.218,1.584-44.01-9.603c0,0-51.227-8.808-100.436-5.208
	c-49.221,3.609-70.816,9.202-70.816,9.202s-2.006,16.411,0,22.811c1.99,6.408,8.589,34.514,10.4,42.411
	c4.396,19.313,18.405,46.016,25.604,48.419c7.201,2.409,37.608,13.207,63.229,13.609c25.605,0.396,58.414-4.31,70.816-19.612
	c12.253-15.131,24.408-35.611,28.417-78.023l1.991-12.806c0,0,8.4,1.6,14.802,1.6c6.422,0,14.817-1.6,14.817-1.6l1.996,12.806
	c3.995,42.41,16.151,62.892,28.416,78.023c12.404,15.303,45.211,20.008,70.816,19.612c25.605-0.404,56.013-11.202,63.213-13.609
	c7.198-2.403,21.208-29.108,25.61-48.419c1.807-7.896,8.402-36.003,10.415-42.411C481.068,152.29,479.065,135.879,479.065,135.879z
	 M209.769,241.517c-11.206,8.495-35.612,14.005-60.427,14.405c-24.799,0.397-43.607-8.008-52.814-12.805
	c-9.199-4.8-17.195-18.803-24.003-34.014c-6.806-15.211-11.195-42.822,0-54.418c11.195-11.599,76.817-10.807,76.817-10.807
	c44.826,0.402,76.836,4.8,86.032,21.615C244.582,182.299,225.792,229.363,209.769,241.517z M455.045,209.104
	c-6.79,15.211-14.797,29.216-24.003,34.016c-9.19,4.795-28.013,13.203-52.813,12.803s-49.224-5.91-60.419-14.403
	c-16.011-12.156-34.82-59.217-25.605-76.023c9.206-16.813,41.216-21.21,86.024-21.615c0,0,65.621-0.795,76.816,10.806
	C466.258,166.285,461.852,193.897,455.045,209.104z"/>
<path fill="#181924" class="text-3" d="M469.23,161.508c-3.228-9.997-8.762-19.607-17.418-28.26c-10.109-10.091-23.464-17.757-39.22-22.74
	c-13.873-4.378-29.564-6.694-46.567-6.694H161.549c-17,0-32.69,2.315-46.548,6.694c-15.758,4.982-29.132,12.649-39.222,22.74
	c-8.658,8.653-14.206,18.263-17.426,28.26c-12.166,37.731,9.113,81.073,25.208,100.079c1.057,1.251,2.779,3.144,5.096,5.305
	c7.963,7.451,23.112,18.26,44.193,18.26c16.714,0,33.336-6.8,49.406-20.234c13.247-11.074,24.656-21.953,34.174-32.502
	c21.285-23.636,33.021-45.692,34.334-64.957c0.161-2.423,0.211-4.721,0.211-6.943c0.943-5.549,1.297-8.79,1.297-8.79
	s8.021-2.437,11.176-2.469v-0.033h0.626v0.033c3.113,0,11.248,2.469,11.248,2.469s0.339,3.238,1.273,8.79
	c0,2.225,0.053,4.521,0.216,6.943c1.313,19.265,13.073,41.321,34.354,64.957c9.521,10.549,20.923,21.428,34.176,32.502
	c16.065,13.435,32.677,20.234,49.393,20.234c21.081,0,36.256-10.813,44.195-18.26c2.309-2.161,4.034-4.054,5.099-5.305
	C460.117,242.581,481.402,199.239,469.23,161.508z M239.986,167.893c-1.734,25.386-24.818,56.567-63.512,88.896
	c-38.672,32.329-71.135,13.882-84.853-2.298c-18.218-21.505-43.735-78.098-7.935-113.872
	c35.781-35.802,108.396-29.154,138.981-14.299C232.786,131.241,241.719,142.5,239.986,167.893z M264.125,137.411
	c-0.152,0-0.495,0-0.657,0c-4.371,0.153-15.996,1.081-15.996,1.081c-2.124-5.8-5.057-10.305-8.331-13.772
	c-3.362-3.548-7.084-6.018-10.624-7.745c-2.197-1.065-4.567-2.056-7.049-3.01c-0.176-0.077-0.411-0.201-0.565-0.262
	c0,0,32.149-1.68,42.9-1.68c10.722,0,42.886,1.68,42.886,1.68c-0.153,0.061-0.394,0.185-0.573,0.262
	c-2.47,0.954-4.853,1.945-7.04,3.01c-3.54,1.727-7.263,4.196-10.64,7.745c-3.263,3.47-6.198,7.973-8.311,13.772
	C280.125,138.491,268.5,137.579,264.125,137.411z M435.967,254.494c-13.722,16.182-46.178,34.626-84.863,2.295
	c-38.672-32.329-61.767-63.506-63.506-88.894c-1.715-25.392,7.209-36.651,17.334-41.573
	c30.579-14.854,103.194-21.503,138.977,14.299C479.696,176.393,454.176,232.986,435.967,254.494z"/>
<path fill="#181924" class="text-4" d="M485.415,135.116c-1.509-2.603-38.884-5.674-57.392-6.811c-18.502-1.132-60.298,0.536-78.533,3.779
	c-19.245,3.419-64.113,10.569-85.695,10.569c-21.582,0-66.447-7.15-85.699-10.569c-18.236-3.239-60.023-4.914-78.531-3.779
	c-18.502,1.139-55.876,4.208-57.394,6.811c-1.508,2.617-1.508,22.624,0,25.267c1.517,2.647,6.053,11.701,6.422,15.111
	c0.387,3.397,4.536,19.313,6.796,29.294c2.265,9.969,14.342,43.199,21.153,46.591c6.789,3.406,33.604,10.947,71.733,9.439
	c38.129-1.52,49.786-8.223,61.531-19.256c6.722-6.311,17.026-21.944,21.149-30.201c4.268-8.563,11.712-29.076,15.098-35.115
	c3.395-6.044,13.225-7.166,17.746-7.166c4.533,0,14.342,1.122,17.743,7.166c3.395,6.04,10.828,26.552,15.106,35.115
	c4.114,8.257,14.417,23.891,21.146,30.201c11.734,11.028,23.396,17.736,61.532,19.256c38.133,1.508,64.938-6.035,71.734-9.439
	c6.79-3.396,18.869-36.622,21.139-46.591c2.265-9.983,6.418-25.897,6.8-29.294c0.378-3.41,4.914-12.464,6.423-15.111
	C486.923,157.74,486.923,137.733,485.415,135.116z M224.529,205.483c-7.165,21.149-21.894,34.132-32.094,39.803
	c-10.193,5.674-35.866,10.946-64.937,9.438c-29.07-1.509-43.421-9.438-47.955-15.479c-3.144-4.188-11.316-18.875-13.209-55.128
	c-1.887-36.249,8.674-37.126,20.764-40.521c12.086-3.397,36.999-5.187,56.637-5.151c9.797,0.018,21.903,0,38.131,3.007
	c16.233,3.017,24.542,5.29,40.4,15.116C238.126,166.381,231.706,184.349,224.529,205.483z M461.252,184.118
	c-1.887,36.255-10.07,50.939-13.212,55.128c-4.538,6.04-18.889,13.97-47.957,15.479c-29.066,1.508-54.742-3.765-64.938-9.438
	c-10.199-5.671-24.917-18.653-32.094-39.803c-7.167-21.134-13.587-39.102,2.271-48.917c15.851-9.824,24.156-12.099,40.394-15.116
	c16.229-3.008,28.339-2.99,38.14-3.008c19.63-0.033,44.541,1.757,56.627,5.151C452.569,146.989,463.143,147.869,461.252,184.118z"/>
<path fill="#181924" class="text-5" d="M506.854,130.718c0,0-7.467-0.323-10.057,0.653c-2.585,0.967-49.322-23.695-105.14-23.695
	c-55.806,0-93.432,34.721-93.432,34.721h-34.424h-34.435c0,0-37.608-34.721-93.434-34.721c-55.806,0-102.525,24.664-105.122,23.695
	c-2.605-0.974-10.072-0.653-10.072-0.653l-1.623,15.905c0,0,17.866,14.916,19.159,23.031c0.792,4.903,5.417,29.4,7.854,39.055
	c2.838,11.153,8.038,26.718,21.208,40.895c19.467,20.978,42.39,31.686,66.023,31.686c26.359,0,54.186-4.227,75.601-25.962
	c21.421-21.733,40.316-63.183,37.317-73.978c-1.15-4.136-8.761-10.074-5.514-16.229c3.241-6.171,23.036-5.848,23.036-5.848
	s19.801-0.326,23.039,5.848c3.257,6.154-4.361,12.093-5.521,16.229c-2.99,10.795,15.903,52.245,37.324,73.978
	c21.415,21.735,49.241,25.962,75.607,25.962c23.627,0,46.55-10.706,66.017-31.686c13.179-14.177,18.372-29.741,21.21-40.895
	c2.443-9.656,7.063-34.152,7.852-39.055c1.293-8.115,19.142-23.031,19.142-23.031L506.854,130.718z M222.661,215.759
	c-14.271,48.039-55.813,60.577-87.385,60.577c-31.588,0-63.185-27.688-72.265-43.27c-9.087-15.579-24.194-60.269-8.643-90.426
	c15.536-30.152,91.717-34.967,137.152-12.967C231.62,149.059,236.945,167.746,222.661,215.759z M464.591,233.07
	c-9.084,15.579-40.657,43.27-72.256,43.27c-31.588,0-73.116-12.539-87.395-60.577c-14.275-48.017-8.95-66.701,31.159-86.086
	c45.429-22,121.612-17.185,137.144,12.968C488.794,172.802,473.679,217.49,464.591,233.07z"/>
<path fill="#181924" class="text-6" d="M413.286,117.139c-11.666,0-62.233,0-87.619,7.113c-24.174,6.767-58.499,8.694-61.755,8.868v-0.234
	c0,0-36.603-1.79-62.004-8.894c-25.39-7.107-75.944-7.107-87.619-7.107c-11.694,0-77.221,8.879-79.501,9.899l3.298,30.74
	c0,0,11.169-1.272,14.729,18.026c3.564,19.305,18.928,59.366,30.467,72.896c11.96,13.981,37.102,23.376,61.98,23.376
	c24.891,0,41.908-3.056,57.151-13.465c15.241-10.421,28.462-30.982,36.064-55.115c7.585-24.009,7.946-33.945,25.192-34.037v0.248
	c17.479,0,17.798,9.908,25.425,34.044c7.604,24.124,20.823,44.701,36.069,55.113c15.238,10.415,32.247,13.47,57.143,13.47
	c24.885,0,50.035-9.396,61.967-23.379c11.559-13.517,26.925-53.594,30.486-72.893c3.558-19.303,14.727-18.031,14.727-18.031
	l3.312-30.737C490.509,126.021,424.974,117.139,413.286,117.139z M219.686,223.057c-11.932,34.281-44.697,41.392-73.138,41.392
	c-28.453,0-48.115-10.569-58.944-23.622c-8.625-10.413-16.749-38.851-18.277-51.808c-1.532-12.967-4.834-42.683,12.181-52.079
	c17.035-9.39,65.041-6.849,65.041-6.849c15.995,0.309,35.292,3.551,54.091,8.122c18.809,4.574,29.73,12.704,31.504,22.871
	C233.909,171.237,231.631,188.768,219.686,223.057z M458.259,189.268c-1.536,12.959-9.649,41.392-18.304,51.813
	c-10.806,13.051-30.476,23.624-58.926,23.624c-28.441,0-61.206-7.107-73.138-41.396c-11.943-34.29-14.229-51.821-12.449-61.978
	c1.774-10.16,12.697-18.295,31.498-22.858c18.787-4.57,38.094-7.824,54.089-8.129c0,0,48.017-2.547,65.032,6.857
	C463.076,146.599,459.776,176.316,458.259,189.268z"/>
</svg>
