<?xml version="1.0" encoding="utf-8"?>
<!-- Generator: Adobe Illustrator 16.0.0, SVG Export Plug-In . SVG Version: 6.00 Build 0)  -->
<!DOCTYPE svg PUBLIC "-//W3C//DTD SVG 1.1//EN" "http://www.w3.org/Graphics/SVG/1.1/DTD/svg11.dtd">
<svg version="1.1" xmlns="http://www.w3.org/2000/svg" xmlns:xlink="http://www.w3.org/1999/xlink" x="0px" y="0px"
	 width="701.965px" height="466.477px" viewBox="0 0 701.965 466.477" enable-background="new 0 0 701.965 466.477"
	 xml:space="preserve">
<g id="Comp">
	<g>
		<path fill="#414143" stroke="#434244" stroke-miterlimit="10" d="M455.443,174.704c0,5.523-4.477,10-10,10h-224
			c-5.523,0-10-4.477-10-10v-140c0-5.523,4.477-10,10-10h224c5.523,0,10,4.477,10,10V174.704z"/>
		<path fill="#59595C" d="M437.143,167.204c0,4.695-3.806,8.5-8.5,8.5h-190.4c-4.694,0-8.5-3.805-8.5-8.5v-119
			c0-4.694,3.806-8.5,8.5-8.5h190.4c4.694,0,8.5,3.806,8.5,8.5V167.204z"/>
		<path fill="#FFFFFF" stroke="#434244" stroke-miterlimit="10" d="M455.443,159.371v15.333c0,5.523-4.477,10-10,10h-224
			c-5.523,0-10-4.477-10-10v-15.666L455.443,159.371z"/>
	</g>
</g>
<g id="Table">
	<g>
		<polygon fill="#F3C27C" stroke="#434244" stroke-miterlimit="10" points="77.429,260.371 62.763,435.038 70.096,435.038 
			104.096,260.371 		"/>
		<polygon fill="#F3C27C" stroke="#434244" stroke-miterlimit="10" points="629.429,260.371 644.096,435.038 636.762,435.038 
			602.762,260.371 		"/>
		<path fill="#F3C27C" stroke="#434244" stroke-miterlimit="10" d="M234.096,262.144c0,1.282-1.04,2.321-2.321,2.321H43.75
			c-1.282,0-2.321-1.039-2.321-2.321v-44.878c0-1.282,1.039-2.321,2.321-2.321h188.024c1.281,0,2.321,1.039,2.321,2.321V262.144z"/>
		<path fill="#F3C27C" stroke="#434244" stroke-miterlimit="10" d="M220.763,253.038c0,1.104-0.896,2-2,2h-162c-1.105,0-2-0.896-2-2
			v-38.667c0-1.104,0.895-2,2-2h162c1.104,0,2,0.896,2,2V253.038z"/>
		<path fill="#F3C27C" stroke="#434244" stroke-miterlimit="10" d="M165.096,231.704c0,1.105-0.896,2-2,2h-50.667
			c-1.104,0-2-0.895-2-2v-2c0-1.104,0.896-2,2-2h50.667c1.104,0,2,0.896,2,2V231.704z"/>
		<path fill="#F3C27C" stroke="#434244" stroke-miterlimit="10" d="M654.096,262.144c0,1.282-1.039,2.321-2.321,2.321H463.75
			c-1.281,0-2.321-1.039-2.321-2.321v-44.878c0-1.282,1.04-2.321,2.321-2.321h188.024c1.282,0,2.321,1.039,2.321,2.321V262.144z"/>
		<path fill="#F3C27C" stroke="#434244" stroke-miterlimit="10" d="M640.762,253.038c0,1.104-0.895,2-2,2h-162c-1.104,0-2-0.896-2-2
			v-38.667c0-1.104,0.896-2,2-2h162c1.105,0,2,0.896,2,2V253.038z"/>
		<path fill="#F3C27C" stroke="#434244" stroke-miterlimit="10" d="M585.096,231.704c0,1.105-0.896,2-2,2h-50.667
			c-1.104,0-2-0.895-2-2v-2c0-1.104,0.896-2,2-2h50.667c1.104,0,2,0.896,2,2V231.704z"/>
		<path fill="#F3C27C" stroke="#434244" stroke-miterlimit="10" d="M684.762,206.371c0,5.522-4.478,10-10,10H22.096
			c-5.522,0-10-4.478-10-10v-0.667c0-5.522,4.478-10,10-10h652.666c5.522,0,10,4.478,10,10V206.371z"/>
	</g>
	<line fill="none" stroke="#FFFFFF" stroke-width="3" stroke-miterlimit="10" x1="17.65" y1="435.038" x2="664.096" y2="435.038"/>
</g>
<g id="Chair">
	<g>
		
			<line fill="none" stroke="#434244" stroke-width="3" stroke-miterlimit="10" x1="275.649" y1="395.023" x2="391.238" y2="326.356"/>
		
			<line fill="none" stroke="#434244" stroke-width="3" stroke-miterlimit="10" x1="289.238" y1="331.023" x2="405.649" y2="395.023"/>
		<polygon fill="#F3C27C" stroke="#434244" stroke-miterlimit="10" points="276.238,316.023 250.061,453.023 263.149,453.023 
			301.238,316.023 		"/>
		<polygon fill="#F3C27C" stroke="#434244" stroke-miterlimit="10" points="405.06,316.023 431.238,453.023 418.149,453.023 
			380.06,316.023 		"/>
		<path fill="#FFFFFF" stroke="#434244" stroke-miterlimit="10" d="M338.766,147.188c-9.598-0.278-27.954-6.32-37.528-8.164
			c-8.686-1.673-20-8-26,24s-25,121-25,121s-4,26,26,32s124,8,136,0s18-18,14-43s-23-115.666-23-115.666s-7.659-24.277-24-19.223
			C362.905,143.187,349.129,147.489,338.766,147.188z"/>
		<circle fill="none" stroke="#434244" stroke-width="3" stroke-miterlimit="10" cx="278.815" cy="357.857" r="5.167"/>
		<circle fill="none" stroke="#434244" stroke-width="3" stroke-miterlimit="10" cx="266.815" cy="408.857" r="4.198"/>
		<circle fill="none" stroke="#434244" stroke-width="3" stroke-miterlimit="10" cx="413.815" cy="408.857" r="4.198"/>
		<circle fill="none" stroke="#434244" stroke-width="3" stroke-miterlimit="10" cx="401.815" cy="357.857" r="5.167"/>
	</g>
</g>
<g id="Headphone">
	<g>
		<path fill="none" stroke="#58595B" stroke-width="2" stroke-linecap="round" stroke-miterlimit="10" d="M31.495,157.696
			c0-22.616,16.677-40.949,37.25-40.949s37.25,18.333,37.25,40.949"/>
		<circle fill="#58595B" stroke="#F1F2F2" stroke-miterlimit="10" cx="37.495" cy="157.621" r="7"/>
		<path fill="#58595B" stroke="#F1F2F2" stroke-miterlimit="10" d="M45.495,169.121c0,1.104-0.896,2-2,2h-4c-1.104,0-2-0.896-2-2
			v-23c0-1.104,0.896-2,2-2h4c1.104,0,2,0.896,2,2V169.121z"/>
		<circle fill="#58595B" stroke="#F1F2F2" stroke-miterlimit="10" cx="99.495" cy="157.621" r="7"/>
		<path fill="#58595B" stroke="#F1F2F2" stroke-miterlimit="10" d="M91.495,169.121c0,1.104,0.896,2,2,2h4c1.104,0,2-0.896,2-2v-23
			c0-1.104-0.896-2-2-2h-4c-1.104,0-2,0.896-2,2V169.121z"/>
		
			<line stroke="#414042" stroke-width="2" stroke-linecap="round" stroke-miterlimit="10" x1="67.995" y1="119.722" x2="67.995" y2="187.121"/>
		<circle stroke="#414042" stroke-width="2" stroke-linecap="round" stroke-miterlimit="10" cx="67.995" cy="121.222" r="3.5"/>
		<path fill="#FFFFFF" stroke="#414042" stroke-width="2" stroke-linecap="round" stroke-miterlimit="10" d="M84.995,193.621
			c0,1.104-0.896,2-2,2h-30.5c-1.104,0-2-0.896-2-2v-4.5c0-1.104,0.896-2,2-2h30.5c1.104,0,2,0.896,2,2V193.621z"/>
	</g>
</g>
<g id="Mouce">
	<path fill="#FFFFFF" stroke="#414042" stroke-width="2" stroke-linecap="round" stroke-miterlimit="10" d="M510.035,193.621
		c0-6.075-6.492-11-14.5-11s-14.5,4.925-14.5,11H510.035z"/>
</g>
</svg>
