<?xml version="1.0" encoding="utf-8"?>
    <!-- Generator: Adobe Illustrator 16.0.0, SVG Export Plug-In . SVG Version: 6.00 Build 0)  -->
    <!DOCTYPE svg PUBLIC "-//W3C//DTD SVG 1.1//EN" "http://www.w3.org/Graphics/SVG/1.1/DTD/svg11.dtd">
    <svg version="1.1" id="Layer_1" xmlns="http://www.w3.org/2000/svg" xmlns:xlink="http://www.w3.org/1999/xlink" x="0px" y="0px" width="527.586px" height="388.966px" viewBox="0 0 527.586 388.966" enable-background="new 0 0 527.586 388.966" xml:space="preserve">
	 <style>



.text-1 {
  -webkit-animation: hideshow 10s ease infinite;
          animation: hideshow 10s ease infinite;
}

.text-2 {
opacity:0;
  -webkit-animation: hideshow 10s 1s ease infinite;
          animation: hideshow 10s 1s ease infinite;
}

.text-3 {
 opacity:0;
  -webkit-animation: hideshow 10s 2s ease infinite;
          animation: hideshow 10s 2s ease infinite;
}

.text-4 {
 opacity:0;
  -webkit-animation: hideshow 10s 3s ease infinite;
          animation: hideshow 10s 3s ease infinite;
}

.text-5 {
 opacity:0;
  -webkit-animation: hideshow 10s 4s ease infinite;
          animation: hideshow 10s 4s ease infinite;
}

.text-6 {
  opacity:0;
  -webkit-animation: hideshow 10s 5s ease infinite;
          animation: hideshow 10s 5s ease infinite;
}

@-webkit-keyframes hideshow {
  0% {
    opacity: 1;
  }
  10% {
    opacity: 1;
  }
  15% {
    opacity: 0;
  }
  100% {
    opacity: 1;
  }
}

@keyframes hideshow {
  0% {
    opacity: 1;
  }
  10% {
    opacity: 1;
  }
  15% {
    opacity: 0;
  }
  100% {
    opacity: 1;
  }
}
</style>
<path fill="#181924" class="text-3" d="M228.434,311.061c0,0-9.88-0.529-20.206-2.212c-10.487-1.707-16.468-2.928-27.503-2.594
	c-11.039,0.342-12.394,1.024-17.146,1.366c-4.751,0.336-21.048,4.796-25.123,5.477c-4.073,0.678-10.699,1.012-10.699,1.012
	s-6.618-0.334-10.696-1.012c-4.077-0.681-20.37-5.141-25.125-5.477c-4.753-0.342-6.108-1.024-17.143-1.366
	c-11.038-0.334-17.016,0.887-27.505,2.594c-10.323,1.683-20.207,2.212-20.207,2.212s-3.224,9.332-2.376,11.03
	c0.85,1.699,5.099,3.4,7.304,6.454c2.205,3.058,3.735,11.879,4.413,16.121c0.681,4.249,5.434,17.149,8.83,20.377
	c3.394,3.226,12.733,9.166,29.371,8.153c16.632-1.021,25.634-4.25,31.912-11.887c6.287-7.64,11.716-14.259,15.281-31.234
	c0,0,0.509-2.209,5.942-2.209c5.434,0,5.944,2.209,5.944,2.209c3.563,16.976,8.998,23.595,15.276,31.234
	c6.283,7.637,15.28,10.866,31.919,11.887c16.64,1.013,25.976-4.928,29.373-8.153c3.392-3.228,8.147-16.128,8.825-20.377
	c0.679-4.242,2.209-13.063,4.414-16.121c2.204-3.054,6.454-4.755,7.303-6.454C231.659,320.393,228.434,311.061,228.434,311.061z
	 M35.719,318.027c-1.436,0-4.661-0.867-4.661-1.929c0-1.063,2.955-2.201,4.661-1.886c0,0,3.403,0.164,3.403,1.954
	C39.122,317.948,37.166,318.027,35.719,318.027z M114.52,332.786c-1.362,7.81-5.091,19.696-12.565,27.509
	c-7.47,7.804-16.811,10.183-29.71,10.183c-12.904,0-20.541-2.886-24.787-8.49c-2.063-2.719-13.242-26.992-5.429-40.402
	c7.808-13.41,41.423-10.19,41.423-10.19C114.348,314.452,115.872,324.985,114.52,332.786z M208.057,361.987
	c-4.242,5.604-11.88,8.49-24.779,8.49c-12.908,0-22.24-2.379-29.714-10.183c-7.472-7.813-11.203-19.699-12.562-27.509
	c-1.356-7.801,0.167-18.334,31.065-21.392c0,0,33.621-3.22,41.423,10.19C221.303,334.995,210.127,359.269,208.057,361.987z
	 M219.799,318.027c-1.443,0-3.399-0.079-3.399-1.86c0-1.79,3.399-1.954,3.399-1.954c1.709-0.315,4.667,0.822,4.667,1.886
	C224.466,317.16,221.238,318.027,219.799,318.027z"/>
<path fill="#181924" class="text-1" d="M223.375,181.063c0,0-9.599-2.485-31.463-4.087c-21.855-1.599-44.609,2.313-44.609,2.313
	c-16.334,4.969-19.541,4.269-19.548,4.265c0,0.004-3.206,0.704-19.548-4.265c0,0-22.753-3.912-44.61-2.313
	c-21.862,1.603-31.454,4.087-31.454,4.087s-0.891,7.289,0,10.132c0.884,2.846,3.815,15.33,4.619,18.836
	c1.953,8.579,8.175,20.439,11.373,21.507c3.198,1.07,16.704,5.866,28.084,6.044c11.373,0.177,25.945-1.914,31.454-8.71
	c5.442-6.721,10.841-15.818,12.622-34.655l0.884-5.688c0,0,3.731,0.71,6.575,0.71c2.853,0,6.581-0.71,6.581-0.71l0.887,5.688
	c1.774,18.836,7.173,27.934,12.621,34.655c5.51,6.796,20.081,8.887,31.454,8.71c11.373-0.179,24.879-4.975,28.077-6.044
	c3.198-1.068,9.42-12.929,11.375-21.507c0.803-3.506,3.733-15.99,4.626-18.836C224.265,188.352,223.375,181.063,223.375,181.063z
	 M103.763,227.983c-4.977,3.773-15.817,6.22-26.839,6.398c-11.015,0.177-19.369-3.556-23.458-5.687
	c-4.086-2.132-7.638-8.352-10.662-15.108c-3.023-6.755-4.972-19.019,0-24.17c4.973-5.152,34.12-4.8,34.12-4.8
	c19.91,0.179,34.128,2.132,38.212,9.601C119.226,201.681,110.88,222.584,103.763,227.983z M212.706,213.587
	c-3.016,6.756-6.572,12.976-10.661,15.108c-4.082,2.13-12.443,5.864-23.458,5.687c-11.016-0.179-21.864-2.625-26.836-6.398
	c-7.112-5.399-15.466-26.302-11.373-33.766c4.089-7.468,18.307-9.421,38.209-9.601c0,0,29.146-0.353,34.119,4.8
	C217.686,194.568,215.729,206.832,212.706,213.587z"/>
<path fill="#181924" class="text-2" d="M493.233,204.424c-1.433-4.44-3.891-8.708-7.736-12.552c-4.49-4.482-10.422-7.887-17.42-10.1
	c-6.162-1.945-13.132-2.973-20.683-2.973h-90.822c-7.551,0-14.519,1.028-20.675,2.973c-6.999,2.213-12.939,5.618-17.42,10.1
	c-3.846,3.844-6.31,8.112-7.741,12.552c-5.403,16.759,4.048,36.01,11.197,44.451c0.469,0.556,1.234,1.397,2.263,2.357
	c3.537,3.309,10.266,8.111,19.629,8.111c7.424,0,14.807-3.021,21.945-8.988c5.883-4.919,10.951-9.751,15.178-14.437
	c9.454-10.497,14.667-20.294,15.25-28.851c0.072-1.076,0.094-2.097,0.094-3.084c0.419-2.465,0.576-3.905,0.576-3.905
	s3.563-1.082,4.964-1.096v-0.014h0.278v0.014c1.383,0,4.996,1.096,4.996,1.096s0.151,1.439,0.566,3.905
	c0,0.988,0.023,2.008,0.096,3.084c0.583,8.557,5.806,18.354,15.258,28.851c4.229,4.686,9.293,9.518,15.18,14.437
	c7.136,5.967,14.514,8.988,21.939,8.988c9.363,0,16.103-4.803,19.629-8.111c1.026-0.96,1.792-1.801,2.265-2.357
	C489.186,240.434,498.64,221.183,493.233,204.424z M391.411,207.26c-0.77,11.276-11.023,25.125-28.21,39.484
	c-17.177,14.36-31.596,6.167-37.688-1.02c-8.092-9.551-19.426-34.689-3.525-50.578c15.893-15.902,48.146-12.949,61.731-6.351
	C388.213,190.981,392.181,195.982,391.411,207.26z M402.133,193.721c-0.068,0-0.22,0-0.292,0c-1.942,0.068-7.105,0.48-7.105,0.48
	c-0.943-2.576-2.246-4.577-3.7-6.117c-1.493-1.576-3.146-2.673-4.719-3.44c-0.975-0.473-2.028-0.913-3.13-1.337
	c-0.079-0.034-0.183-0.089-0.251-0.116c0,0,14.279-0.746,19.054-0.746c4.763,0,19.049,0.746,19.049,0.746
	c-0.068,0.027-0.175,0.082-0.255,0.116c-1.097,0.424-2.155,0.864-3.127,1.337c-1.572,0.767-3.225,1.864-4.725,3.44
	c-1.45,1.541-2.753,3.541-3.692,6.117C409.239,194.201,404.076,193.796,402.133,193.721z M478.459,245.725
	c-6.095,7.187-20.511,15.38-37.693,1.02c-17.177-14.36-27.435-28.208-28.207-39.484c-0.762-11.278,3.202-16.279,7.699-18.465
	c13.582-6.598,45.835-9.551,61.728,6.351C497.882,211.036,486.547,236.173,478.459,245.725z"/>
<path fill="#181924" class="text-4" d="M500.426,318.915c-0.67-1.157-17.271-2.521-25.491-3.026c-8.218-0.503-26.783,0.239-34.882,1.679
	c-8.548,1.519-28.477,4.694-38.063,4.694s-29.513-3.176-38.064-4.694c-8.1-1.439-26.66-2.182-34.881-1.679
	c-8.218,0.506-24.818,1.869-25.492,3.026c-0.67,1.162-0.67,10.048,0,11.222c0.674,1.176,2.688,5.197,2.852,6.712
	c0.172,1.509,2.015,8.578,3.019,13.011c1.006,4.428,6.37,19.187,9.395,20.694c3.016,1.513,14.926,4.862,31.862,4.192
	c16.935-0.674,22.113-3.652,27.33-8.552c2.985-2.803,7.562-9.747,9.393-13.414c1.896-3.804,5.202-12.915,6.706-15.597
	c1.508-2.685,5.874-3.182,7.882-3.182c2.014,0,6.37,0.497,7.881,3.182c1.508,2.682,4.81,11.793,6.71,15.597
	c1.827,3.667,6.403,10.611,9.393,13.414c5.212,4.899,10.391,7.878,27.33,8.552c16.937,0.67,28.843-2.68,31.862-4.192
	c3.016-1.508,8.381-16.267,9.389-20.694c1.006-4.433,2.85-11.502,3.02-13.011c0.168-1.515,2.183-5.536,2.853-6.712
	C501.096,328.963,501.096,320.077,500.426,318.915z M384.55,350.168c-3.183,9.394-9.725,15.161-14.255,17.679
	c-4.527,2.521-15.931,4.862-28.843,4.192s-19.286-4.192-21.3-6.874c-1.396-1.861-5.026-8.384-5.867-24.486
	c-0.838-16.101,3.853-16.49,9.223-17.998c5.368-1.508,16.433-2.303,25.156-2.288c4.352,0.008,9.729,0,16.937,1.336
	c7.21,1.34,10.9,2.35,17.944,6.714C390.589,332.801,387.737,340.782,384.55,350.168z M489.693,340.679
	c-0.838,16.103-4.472,22.625-5.868,24.486c-2.015,2.682-8.389,6.204-21.301,6.874c-12.91,0.67-24.314-1.672-28.842-4.192
	c-4.531-2.518-11.068-8.285-14.255-17.679c-3.184-9.386-6.035-17.367,1.009-21.726c7.04-4.364,10.729-5.374,17.941-6.714
	c7.208-1.336,12.587-1.328,16.94-1.336c8.719-0.015,19.784,0.78,25.152,2.288S490.533,324.578,489.693,340.679z"/>
<path fill="#181924" class="text-5" d="M509.944,54.403c0,0-3.316-0.143-4.466,0.29c-1.149,0.43-21.908-10.524-46.7-10.524
	c-24.787,0-41.499,15.422-41.499,15.422h-15.29h-15.295c0,0-16.704-15.422-41.5-15.422c-24.787,0-45.538,10.955-46.691,10.524
	c-1.157-0.432-4.474-0.29-4.474-0.29l-0.721,7.065c0,0,7.936,6.625,8.511,10.229c0.351,2.178,2.406,13.059,3.487,17.347
	c1.261,4.954,3.571,11.867,9.421,18.164c8.646,9.317,18.828,14.073,29.325,14.073c11.708,0,24.067-1.877,33.579-11.531
	c9.515-9.654,17.907-28.064,16.575-32.859c-0.511-1.837-3.892-4.474-2.449-7.208c1.439-2.741,10.231-2.597,10.231-2.597
	s8.795-0.145,10.234,2.597c1.446,2.734-1.938,5.371-2.452,7.208c-1.329,4.795,7.063,23.205,16.578,32.859
	c9.511,9.654,21.871,11.531,33.582,11.531c10.494,0,20.676-4.755,29.322-14.073c5.854-6.297,8.16-13.21,9.421-18.164
	c1.085-4.289,3.137-15.169,3.487-17.347c0.574-3.604,8.502-10.229,8.502-10.229L509.944,54.403z M383.716,92.176
	c-6.339,21.336-24.79,26.906-38.814,26.906c-14.03,0-28.064-12.298-32.097-19.219c-4.036-6.92-10.746-26.769-3.839-40.164
	c6.9-13.393,40.737-15.531,60.918-5.76C387.695,62.55,390.061,70.849,383.716,92.176z M491.173,99.864
	c-4.035,6.92-18.059,19.219-32.094,19.219c-14.03,0-32.475-5.57-38.817-26.906c-6.341-21.328-3.976-29.626,13.84-38.237
	c20.177-9.771,54.015-7.633,60.914,5.76C501.923,73.095,495.209,92.944,491.173,99.864z"/>
<path fill="#181924" class="text-6" d="M194.158,40.296c-5.182,0-27.642,0-38.917,3.159c-10.737,3.006-25.983,3.862-27.43,3.939v-0.104
	c0,0-16.258-0.795-27.54-3.95c-11.277-3.157-33.731-3.157-38.917-3.157c-5.194,0-34.299,3.944-35.311,4.397l1.465,13.654
	c0,0,4.961-0.565,6.542,8.006c1.583,8.575,8.407,26.368,13.532,32.378c5.312,6.21,16.479,10.383,27.529,10.383
	c11.056,0,18.614-1.357,25.385-5.981c6.769-4.628,12.641-13.761,16.018-24.48c3.37-10.664,3.53-15.077,11.19-15.118v0.11
	c7.764,0,7.905,4.401,11.293,15.122c3.377,10.714,9.249,19.854,16.02,24.479c6.769,4.626,14.324,5.982,25.381,5.982
	c11.053,0,22.224-4.173,27.524-10.384c5.133-6.004,11.959-23.804,13.541-32.376c1.58-8.574,6.541-8.009,6.541-8.009l1.47-13.652
	C228.458,44.241,199.349,40.296,194.158,40.296z M108.168,87.341c-5.3,15.226-19.853,18.384-32.486,18.384
	c-12.637,0-21.371-4.694-26.18-10.492c-3.831-4.625-7.44-17.256-8.118-23.011c-0.681-5.759-2.148-18.958,5.41-23.131
	c7.566-4.171,28.888-3.042,28.888-3.042c7.105,0.137,15.676,1.577,24.026,3.607c8.354,2.032,13.205,5.643,13.993,10.159
	C114.485,64.324,113.473,72.111,108.168,87.341z M214.134,72.333c-0.683,5.756-4.287,18.385-8.13,23.013
	c-4.8,5.797-13.536,10.494-26.173,10.494c-12.633,0-27.186-3.158-32.486-18.387c-5.304-15.23-6.32-23.017-5.529-27.528
	c0.788-4.513,5.64-8.126,13.99-10.153c8.345-2.03,16.92-3.475,24.025-3.611c0,0,21.327-1.131,28.885,3.046
	C216.273,53.381,214.807,66.58,214.134,72.333z"/>
</svg>
