<?xml version="1.0" encoding="utf-8"?>
    <!-- Generator: Adobe Illustrator 16.0.0, SVG Export Plug-In . SVG Version: 6.00 Build 0)  -->
    <!DOCTYPE svg PUBLIC "-//W3C//DTD SVG 1.1//EN" "http://www.w3.org/Graphics/SVG/1.1/DTD/svg11.dtd">
    <svg version="1.1" id="Layer_1" xmlns="http://www.w3.org/2000/svg" xmlns:xlink="http://www.w3.org/1999/xlink" x="0px" y="0px" width="527.586px" height="388.966px" viewBox="150 0 527.586 388.966" enable-background="new 0 0 527.586 388.966" xml:space="preserve">
	 <style>





.text-2 {
opacity:0;
  -webkit-animation: hideshow 10s 1s ease infinite;
          animation: hideshow 10s 1s ease infinite;
}



@-webkit-keyframes hideshow {
  0% {
    opacity: 1;
  }
  10% {
    opacity: 1;
  }
  15% {
    opacity: 0;
  }
  100% {
    opacity: 1;
  }
}

@keyframes hideshow {
  0% {
    opacity: 1;
  }
  10% {
    opacity: 1;
  }
  15% {
    opacity: 0;
  }
  100% {
    opacity: 1;
  }
}
</style>

<path fill="#181924" class="text-2" d="M493.233,204.424c-1.433-4.44-3.891-8.708-7.736-12.552c-4.49-4.482-10.422-7.887-17.42-10.1
	c-6.162-1.945-13.132-2.973-20.683-2.973h-90.822c-7.551,0-14.519,1.028-20.675,2.973c-6.999,2.213-12.939,5.618-17.42,10.1
	c-3.846,3.844-6.31,8.112-7.741,12.552c-5.403,16.759,4.048,36.01,11.197,44.451c0.469,0.556,1.234,1.397,2.263,2.357
	c3.537,3.309,10.266,8.111,19.629,8.111c7.424,0,14.807-3.021,21.945-8.988c5.883-4.919,10.951-9.751,15.178-14.437
	c9.454-10.497,14.667-20.294,15.25-28.851c0.072-1.076,0.094-2.097,0.094-3.084c0.419-2.465,0.576-3.905,0.576-3.905
	s3.563-1.082,4.964-1.096v-0.014h0.278v0.014c1.383,0,4.996,1.096,4.996,1.096s0.151,1.439,0.566,3.905
	c0,0.988,0.023,2.008,0.096,3.084c0.583,8.557,5.806,18.354,15.258,28.851c4.229,4.686,9.293,9.518,15.18,14.437
	c7.136,5.967,14.514,8.988,21.939,8.988c9.363,0,16.103-4.803,19.629-8.111c1.026-0.96,1.792-1.801,2.265-2.357
	C489.186,240.434,498.64,221.183,493.233,204.424z M391.411,207.26c-0.77,11.276-11.023,25.125-28.21,39.484
	c-17.177,14.36-31.596,6.167-37.688-1.02c-8.092-9.551-19.426-34.689-3.525-50.578c15.893-15.902,48.146-12.949,61.731-6.351
	C388.213,190.981,392.181,195.982,391.411,207.26z M402.133,193.721c-0.068,0-0.22,0-0.292,0c-1.942,0.068-7.105,0.48-7.105,0.48
	c-0.943-2.576-2.246-4.577-3.7-6.117c-1.493-1.576-3.146-2.673-4.719-3.44c-0.975-0.473-2.028-0.913-3.13-1.337
	c-0.079-0.034-0.183-0.089-0.251-0.116c0,0,14.279-0.746,19.054-0.746c4.763,0,19.049,0.746,19.049,0.746
	c-0.068,0.027-0.175,0.082-0.255,0.116c-1.097,0.424-2.155,0.864-3.127,1.337c-1.572,0.767-3.225,1.864-4.725,3.44
	c-1.45,1.541-2.753,3.541-3.692,6.117C409.239,194.201,404.076,193.796,402.133,193.721z M478.459,245.725
	c-6.095,7.187-20.511,15.38-37.693,1.02c-17.177-14.36-27.435-28.208-28.207-39.484c-0.762-11.278,3.202-16.279,7.699-18.465
	c13.582-6.598,45.835-9.551,61.728,6.351C497.882,211.036,486.547,236.173,478.459,245.725z"/>

</svg>
