 <svg version="1.1" id="Layer_1" xmlns="http://www.w3.org/2000/svg" xmlns:xlink="http://www.w3.org/1999/xlink" x="0px" y="0px"
                        width="150px" height="150px" viewBox="0 0 150 150" enable-background="new 0 0 150 150" xml:space="preserve">
   
		<g class="paths">
			<ellipse fill="none" stroke="#fff" stroke-miterlimit="10" cx="46.5" cy="88.2" rx="25" ry="4.3"/>
			<path fill="none" stroke="#fff" stroke-linecap="round" stroke-miterlimit="10" d="M71.5,98.2c0,2.4-11.2,4.3-25,4.3
				s-25-1.9-25-4.3"/>
			<line fill="none" stroke="#fff" stroke-linecap="round" stroke-miterlimit="10" x1="21.5" y1="98.2" x2="21.5" y2="88.2"/>
			<line fill="none" stroke="#fff" stroke-linecap="round" stroke-miterlimit="10" x1="71.5" y1="98.2" x2="71.5" y2="88.2"/>
			<path fill="none" stroke="#fff" stroke-linecap="round" stroke-miterlimit="10" d="M71.5,109.2c0,2.4-11.2,4.3-25,4.3
				s-25-1.9-25-4.3"/>
			<line fill="none" stroke="#fff" stroke-linecap="round" stroke-miterlimit="10" x1="21.5" y1="109.2" x2="21.5" y2="99.2"/>
			<line fill="none" stroke="#fff" stroke-linecap="round" stroke-miterlimit="10" x1="71.5" y1="109.2" x2="71.5" y2="99.2"/>
			<path fill="none" stroke="#fff" stroke-linecap="round" stroke-miterlimit="10" d="M71.5,120.2c0,2.4-11.2,4.3-25,4.3
				s-25-1.9-25-4.3"/>
			<line fill="none" stroke="#fff" stroke-linecap="round" stroke-miterlimit="10" x1="21.5" y1="120.2" x2="21.5" y2="110.2"/>
			<line fill="none" stroke="#fff" stroke-linecap="round" stroke-miterlimit="10" x1="71.5" y1="120.2" x2="71.5" y2="110.2"/>
			<path fill="none" stroke="#fff" stroke-linecap="round" stroke-miterlimit="10" d="M71.5,131.2c0,2.4-11.2,4.3-25,4.3
				s-25-1.9-25-4.3"/>
			<line fill="none" stroke="#fff" stroke-linecap="round" stroke-miterlimit="10" x1="21.5" y1="131.2" x2="21.5" y2="121.2"/>
			<line fill="none" stroke="#fff" stroke-linecap="round" stroke-miterlimit="10" x1="71.5" y1="131.2" x2="71.5" y2="121.2"/>
			<path fill="none" stroke="#fff" stroke-linecap="round" stroke-miterlimit="10" d="M71.5,142.2c0,2.4-11.2,4.3-25,4.3
				s-25-1.9-25-4.3"/>
			<line fill="none" stroke="#fff" stroke-linecap="round" stroke-miterlimit="10" x1="21.5" y1="142.2" x2="21.5" y2="132.2"/>
			<line fill="none" stroke="#fff" stroke-linecap="round" stroke-miterlimit="10" x1="71.5" y1="142.2" x2="71.5" y2="132.2"/>
			<ellipse fill="none" stroke="#fff" stroke-miterlimit="10" cx="116.5" cy="44.4" rx="25" ry="4.3"/>
			<path fill="none" stroke="#fff" stroke-linecap="round" stroke-miterlimit="10" d="M141.5,54.4c0,2.4-11.2,4.3-25,4.3
				s-25-1.9-25-4.3"/>
			<line fill="none" stroke="#fff" stroke-linecap="round" stroke-miterlimit="10" x1="91.5" y1="54.4" x2="91.5" y2="44.4"/>
			<line fill="none" stroke="#fff" stroke-linecap="round" stroke-miterlimit="10" x1="141.5" y1="54.4" x2="141.5" y2="44.4"/>
			<path fill="none" stroke="#fff" stroke-linecap="round" stroke-miterlimit="10" d="M141.5,65.4c0,2.4-11.2,4.3-25,4.3
				s-25-1.9-25-4.3"/>
			<line fill="none" stroke="#fff" stroke-linecap="round" stroke-miterlimit="10" x1="91.5" y1="65.4" x2="91.5" y2="55.4"/>
			<line fill="none" stroke="#fff" stroke-linecap="round" stroke-miterlimit="10" x1="141.5" y1="65.4" x2="141.5" y2="55.4"/>
			<path fill="none" stroke="#fff" stroke-linecap="round" stroke-miterlimit="10" d="M141.5,76.4c0,2.4-11.2,4.3-25,4.3
				s-25-1.9-25-4.3"/>
			<line fill="none" stroke="#fff" stroke-linecap="round" stroke-miterlimit="10" x1="91.5" y1="76.4" x2="91.5" y2="66.4"/>
			<line fill="none" stroke="#fff" stroke-linecap="round" stroke-miterlimit="10" x1="141.5" y1="76.4" x2="141.5" y2="66.4"/>
			<path fill="none" stroke="#fff" stroke-linecap="round" stroke-miterlimit="10" d="M141.5,87.4c0,2.4-11.2,4.3-25,4.3
				s-25-1.9-25-4.3"/>
			<line fill="none" stroke="#fff" stroke-linecap="round" stroke-miterlimit="10" x1="91.5" y1="87.4" x2="91.5" y2="77.4"/>
			<line fill="none" stroke="#fff" stroke-linecap="round" stroke-miterlimit="10" x1="141.5" y1="87.4" x2="141.5" y2="77.4"/>
			<path fill="none" stroke="#fff" stroke-linecap="round" stroke-miterlimit="10" d="M141.5,98.4c0,2.4-11.2,4.3-25,4.3
				s-25-1.9-25-4.3"/>
			<line fill="none" stroke="#fff" stroke-linecap="round" stroke-miterlimit="10" x1="91.5" y1="98.4" x2="91.5" y2="88.4"/>
			<line fill="none" stroke="#fff" stroke-linecap="round" stroke-miterlimit="10" x1="141.5" y1="98.4" x2="141.5" y2="88.4"/>
			<path fill="none" stroke="#fff" stroke-linecap="round" stroke-miterlimit="10" d="M141.5,109.4c0,2.4-11.2,4.3-25,4.3
				s-25-1.9-25-4.3"/>
			<line fill="none" stroke="#fff" stroke-linecap="round" stroke-miterlimit="10" x1="91.5" y1="109.4" x2="91.5" y2="99.4"/>
			<line fill="none" stroke="#fff" stroke-linecap="round" stroke-miterlimit="10" x1="141.5" y1="109.4" x2="141.5" y2="99.4"/>
			<path fill="none" stroke="#fff" stroke-linecap="round" stroke-miterlimit="10" d="M141.5,120.4c0,2.4-11.2,4.3-25,4.3
				s-25-1.9-25-4.3"/>
			<line fill="none" stroke="#fff" stroke-linecap="round" stroke-miterlimit="10" x1="91.5" y1="120.4" x2="91.5" y2="110.4"/>
			<line fill="none" stroke="#fff" stroke-linecap="round" stroke-miterlimit="10" x1="141.5" y1="120.4" x2="141.5" y2="110.4"/>
			<path fill="none" stroke="#fff" stroke-linecap="round" stroke-miterlimit="10" d="M141.5,131.4c0,2.4-11.2,4.3-25,4.3
				s-25-1.9-25-4.3"/>
			<line fill="none" stroke="#fff" stroke-linecap="round" stroke-miterlimit="10" x1="91.5" y1="131.4" x2="91.5" y2="121.4"/>
			<line fill="none" stroke="#fff" stroke-linecap="round" stroke-miterlimit="10" x1="141.5" y1="131.4" x2="141.5" y2="121.4"/>
			<path fill="none" stroke="#fff" stroke-linecap="round" stroke-miterlimit="10" d="M141.5,142.4c0,2.4-11.2,4.3-25,4.3
				s-25-1.9-25-4.3"/>
			<line fill="none" stroke="#fff" stroke-linecap="round" stroke-miterlimit="10" x1="91.5" y1="142.4" x2="91.5" y2="132.4"/>
			<line fill="none" stroke="#fff" stroke-linecap="round" stroke-miterlimit="10" x1="141.5" y1="142.4" x2="141.5" y2="132.4"/>
			<path fill="none" stroke="#fff" stroke-linecap="round" stroke-miterlimit="10" d="M91.5,6h20c2.8,0,5,2.2,5,5v33.3"/>
			<path fill="none" stroke="#fff" stroke-linecap="round" stroke-miterlimit="10" d="M46.5,48.4V11c0-2.8,2.2-5,5-5h20"/>
			<path fill="none" stroke="#fff" stroke-linecap="round" stroke-miterlimit="10" d="M39.2,33.7h37.3c2.8,0,5-2.2,5-5V8.8"/>
			<path fill="none" stroke="#fff" stroke-linecap="round" stroke-miterlimit="10" d="M91.5,6c0,1.5-1.2,2.8-2.8,2.8H74.3
				c-1.5,0-2.8-1.2-2.8-2.8l0,0c0-1.5,1.2-2.8,2.8-2.8h14.5C90.3,3.3,91.5,4.5,91.5,6L91.5,6z"/>
			<path fill="none" stroke="#fff" stroke-linecap="round" stroke-miterlimit="10" d="M49.4,61.6c0,1.6-1.3,2.9-2.9,2.9l0,0
				c-1.6,0-2.9-1.3-2.9-2.9V51.5c0-1.6,1.3-2.9,2.9-2.9l0,0c1.6,0,2.9,1.3,2.9,2.9V61.6z"/>
			<line fill="none" stroke="#fff" stroke-linecap="round" stroke-miterlimit="10" x1="46.5" y1="64.5" x2="46.5" y2="88.2"/>
			<line fill="none" stroke="#fff" stroke-linecap="round" stroke-miterlimit="10" x1="43.6" y1="56.5" x2="14.2" y2="56.5"/>
			<path fill="none" stroke="#fff" stroke-linecap="round" stroke-miterlimit="10" d="M47.2,33.7H13.5c-2.8,0-5,2.2-5,5v12.8
				c0,2.8,2.2,5,5,5h22.7"/>
		</g>
	</svg>