<?xml version="1.0" encoding="utf-8"?>
<!-- Generator: Adobe Illustrator 16.0.0, SVG Export Plug-In . SVG Version: 6.00 Build 0)  -->
<!DOCTYPE svg PUBLIC "-//W3C//DTD SVG 1.1//EN" "http://www.w3.org/Graphics/SVG/1.1/DTD/svg11.dtd">
<svg version="1.1" class="two" xmlns="http://www.w3.org/2000/svg" xmlns:xlink="http://www.w3.org/1999/xlink" x="0px" y="0px"
	 width="150px" height="150px" viewBox="0 0 150 150" enable-background="new 0 0 150 150" xml:space="preserve">

<g>
	<path fill="none" stroke="#FFFFFF" stroke-linecap="round" stroke-miterlimit="10" d="M41.3,74.7h55.8c3.2,0,5.8-2.6,5.8-5.8V21.6
		c0-3.2-2.6-5.8-5.8-5.8H11.3c-3.2,0-5.8,2.6-5.8,5.8v47.2c0,3.2,2.6,5.8,5.8,5.8h14.9L5.5,105.2L41.3,74.7z"/>
	<path fill="none" stroke="#FFFFFF" stroke-linecap="round" stroke-miterlimit="10" d="M108.7,103.6H52.9c-3.2,0-5.8-2.6-5.8-5.8
		V50.6c0-3.2,2.6-5.8,5.8-5.8h85.8c3.2,0,5.8,2.6,5.8,5.8v47.2c0,3.2-2.6,5.8-5.8,5.8h-14.9l20.7,30.5L108.7,103.6z"/>
	<path fill="none" stroke="#FFFFFF" stroke-linecap="round" stroke-miterlimit="10"  d="M55.8,59.4a5.2,5.2 0 1,0 10.4,0a5.2,5.2 0 1,0 -10.4,0"/>
  	<path fill="none" stroke="#FFFFFF" stroke-linecap="round" stroke-miterlimit="10"  d="M69.8,59.4a5.2,5.2 0 1,0 10.4,0a5.2,5.2 0 1,0 -10.4,0"/>
	
	<path fill="none" stroke="#FFFFFF" stroke-linecap="round" stroke-miterlimit="10"  d="M83.7,59.4a5.2,5.2 0 1,0 10.4,0a5.2,5.2 0 1,0 -10.4,0"/>
</g>
</svg>
