<svg version="1.1" id="Layer_2" xmlns="http://www.w3.org/2000/svg" xmlns:xlink="http://www.w3.org/1999/xlink" x="0px" y="0px" width="752.6px" height="773.1px" viewBox="0 0 752.6 773.1" enable-background="new 0 0 752.6 773.1" xml:space="preserve" class="" style="">
<g>
	<path fill="none" stroke="#FFFFFF" stroke-width="2" stroke-linecap="round" stroke-miterlimit="10" d="M628.7,773.1V577.6
		c0-2.8,2.3-5,5-5h71.9c2.8,0,5-2.3,5-5v-67.1c0-2.8-2.3-5-5-5h-73.1c-2.8,0-5-2.3-5-5V283.8c0-2.8,2.3-5,5-5h93.5c2.8,0,5-2.3,5-5
		V37c0-2.8-2.3-5-5-5h-297c-2.8,0-5,2.3-5,5v171.6c0,2.8,0,7.3,0,10v59c0,2.8,0,7.3,0,10v81.3c0,2.8,1.4,3.2,3,1l125.2-167
		c1.7-2.2,3-1.7,3,1v20.6c0,2.8,0,7.3,0,10v46c0,2.8,0,7.3,0,10v147c0,2.8-2.3,5-5,5h-58c-2.8,0-5,2.3-5,5v74.3c0,2.8,2.3,5,5,5
		h55.6c2.8,0,5,2.3,5,5v241.2" class="QbiLzHDC_0">
	</path>
</g>
<path fill="none" stroke="#FFFFFF" stroke-width="2" stroke-linecap="round" stroke-miterlimit="10" d="M445.2,95.2A42.1,42.1 0,1,1 529.4,95.2A42.1,42.1 0,1,1 445.2,95.2" class="QbiLzHDC_1"></path>
<path fill="#FFFFFF" d="M520.4,121.2c14.4-18.3,11.2-44.8-7.1-59.2c-18.3-14.4-44.8-11.2-59.2,7.1L520.4,121.2z" class="QbiLzHDC_2"></path>
<g>
	<path fill="none" stroke="#FFFFFF" stroke-width="2" stroke-linecap="round" stroke-miterlimit="10" d="M714.6,32c0,17-8,17-8,34
		c0,17,8,17,8,34c0,17-8,17-8,34c0,17,8,17,8,34s-8,17-8,34" class="QbiLzHDC_3"></path>
</g>
<g>
	<path fill="none" stroke="#FFFFFF" stroke-width="2" stroke-linecap="round" stroke-miterlimit="10" d="M693.5,32
		c0,14.9-8,14.9-8,29.7c0,14.9,8,14.9,8,29.7c0,14.9-8,14.9-8,29.7c0,14.9,8,14.9,8,29.7s-8,14.9-8,29.7" class="QbiLzHDC_4"></path>
</g>
<g>
	<path fill="none" stroke="#FFFFFF" stroke-width="2" stroke-linecap="round" stroke-miterlimit="10" d="M672.5,32
		c0,12.8-8,12.8-8,25.5s8,12.8,8,25.5c0,12.8-8,12.8-8,25.5c0,12.8,8,12.8,8,25.5s-8,12.8-8,25.5" class="QbiLzHDC_5"></path>
</g>
<g>
	<path fill="none" stroke="#FFFFFF" stroke-width="2" stroke-linecap="round" stroke-miterlimit="10" d="M651.4,32
		c0,10.7-8,10.7-8,21.3c0,10.7,8,10.7,8,21.3s-8,10.7-8,21.3c0,10.7,8,10.7,8,21.3s-8,10.7-8,21.3" class="QbiLzHDC_6"></path>
</g>
<g>
	<path fill="none" stroke="#FFFFFF" stroke-width="2" stroke-linecap="round" stroke-miterlimit="10" d="M630.3,32
		c0,8.5-8,8.5-8,17.1c0,8.5,8,8.5,8,17.1c0,8.5-8,8.5-8,17.1c0,8.6,8,8.6,8,17.1s-8,8.6-8,17.1" class="QbiLzHDC_7"></path>
</g>
<path fill="none" stroke="#FFFFFF" stroke-width="2" stroke-linecap="round" stroke-miterlimit="10" d="M14.599999999999998,95.8A24.7,84.7 0,1,1 64,95.8A24.7,84.7 0,1,1 14.599999999999998,95.8" class="QbiLzHDC_8"></path>
<path fill="#FFFFFF" d="M25.599999999999998,95.8A13.7,47.1 0,1,1 53,95.8A13.7,47.1 0,1,1 25.599999999999998,95.8" class="QbiLzHDC_9"></path>
<path fill="none" stroke="#FFFFFF" stroke-width="2" stroke-linecap="round" stroke-miterlimit="10" d="M149.5,39.6
	c9.1,0,16.4,25.1,16.4,56.1s-7.3,56.1-16.4,56.1" class="QbiLzHDC_10"></path>
<path fill="none" stroke="#FFFFFF" stroke-width="2" stroke-linecap="round" stroke-miterlimit="10" d="M259.3,67.2
	c4.6,0,8.4,12.8,8.4,28.6s-3.7,28.6-8.4,28.6" class="QbiLzHDC_11"></path>
<path fill="none" stroke="#FFFFFF" stroke-width="2" stroke-linecap="round" stroke-miterlimit="10" d="M39.3,11.1L376,95.8" class="QbiLzHDC_12"></path>
<path fill="none" stroke="#FFFFFF" stroke-width="2" stroke-linecap="round" stroke-miterlimit="10" d="M39.3,180.5L376,95.8" class="QbiLzHDC_13"></path>
<path fill="none" stroke="#FFFFFF" stroke-width="2" stroke-linecap="round" stroke-miterlimit="10" d="M194.7,141.2L101.6,773.1" class="QbiLzHDC_14"></path>
<path fill="none" stroke="#FFFFFF" stroke-width="2" stroke-linecap="round" stroke-miterlimit="10" d="M194.5,141.2L288.7,773.1" class="QbiLzHDC_15"></path>
<path fill="none" stroke="#FFFFFF" stroke-width="2" stroke-linecap="round" stroke-miterlimit="10" d="M148.6,460.9L194.5,515.5" class="QbiLzHDC_16"></path>
<path fill="none" stroke="#FFFFFF" stroke-width="2" stroke-linecap="round" stroke-miterlimit="10" d="M240.5,460.9L194.6,515.5" class="QbiLzHDC_17"></path>
<path fill="none" stroke="#FFFFFF" stroke-width="2" stroke-linecap="round" stroke-miterlimit="10" d="M51.5,22.2L158.4,48.7" class="QbiLzHDC_18"></path>
<path fill="none" stroke="#FFFFFF" stroke-width="2" stroke-linecap="round" stroke-miterlimit="10" d="M55.6,32L161.4,57.1" class="QbiLzHDC_19"></path>
<path fill="none" stroke="#FFFFFF" stroke-width="2" stroke-linecap="round" stroke-miterlimit="10" d="M158.7,142.4L264.7,115.7" class="QbiLzHDC_20"></path>
<path fill="none" stroke="#FFFFFF" stroke-width="2" stroke-linecap="round" stroke-miterlimit="10" d="M161.4,134.5L266.7,108.8" class="QbiLzHDC_21"></path>
<style>
.QbiLzHDC_0 {
    stroke-dasharray: 2550 2552;
    stroke-dashoffset: 2551;
    animation: QbiLzHDC_draw 3000ms linear 0ms forwards;
}

.QbiLzHDC_1 {
    stroke-dasharray: 265 267;
    stroke-dashoffset: 266;
    animation: QbiLzHDC_draw 3000ms linear 0ms forwards;
}

.QbiLzHDC_2 {
    stroke-dasharray: 217 219;
    stroke-dashoffset: 218;
    animation: QbiLzHDC_draw 3000ms linear 0ms forwards;
}

.QbiLzHDC_3 {
    stroke-dasharray: 177 179;
    stroke-dashoffset: 178;
    animation: QbiLzHDC_draw 3000ms linear 0ms forwards;
}

.QbiLzHDC_4 {
    stroke-dasharray: 156 158;
    stroke-dashoffset: 157;
    animation: QbiLzHDC_draw 3000ms linear 0ms forwards;
}

.QbiLzHDC_5 {
    stroke-dasharray: 136 138;
    stroke-dashoffset: 137;
    animation: QbiLzHDC_draw 3000ms linear 0ms forwards;
}

.QbiLzHDC_6 {
    stroke-dasharray: 117 119;
    stroke-dashoffset: 118;
    animation: QbiLzHDC_draw 3000ms linear 0ms forwards;
}

.QbiLzHDC_7 {
    stroke-dasharray: 98 100;
    stroke-dashoffset: 99;
    animation: QbiLzHDC_draw 3000ms linear 0ms forwards;
}

.QbiLzHDC_8 {
    stroke-dasharray: 371 373;
    stroke-dashoffset: 372;
    animation: QbiLzHDC_draw 3000ms linear 0ms forwards;
}

.QbiLzHDC_9 {
    stroke-dasharray: 206 208;
    stroke-dashoffset: 207;
    animation: QbiLzHDC_draw 3000ms linear 0ms forwards;
}

.QbiLzHDC_10 {
    stroke-dasharray: 123 125;
    stroke-dashoffset: 124;
    animation: QbiLzHDC_draw 3000ms linear 0ms forwards;
}

.QbiLzHDC_11 {
    stroke-dasharray: 63 65;
    stroke-dashoffset: 64;
    animation: QbiLzHDC_draw 3000ms linear 0ms forwards;
}

.QbiLzHDC_12 {
    stroke-dasharray: 348 350;
    stroke-dashoffset: 349;
    animation: QbiLzHDC_draw 3000ms linear 0ms forwards;
}

.QbiLzHDC_13 {
    stroke-dasharray: 348 350;
    stroke-dashoffset: 349;
    animation: QbiLzHDC_draw 3000ms linear 0ms forwards;
}

.QbiLzHDC_14 {
    stroke-dasharray: 639 641;
    stroke-dashoffset: 640;
    animation: QbiLzHDC_draw 3000ms linear 0ms forwards;
}

.QbiLzHDC_15 {
    stroke-dasharray: 639 641;
    stroke-dashoffset: 640;
    animation: QbiLzHDC_draw 3000ms linear 0ms forwards;
}

.QbiLzHDC_16 {
    stroke-dasharray: 72 74;
    stroke-dashoffset: 73;
    animation: QbiLzHDC_draw 3000ms linear 0ms forwards;
}

.QbiLzHDC_17 {
    stroke-dasharray: 72 74;
    stroke-dashoffset: 73;
    animation: QbiLzHDC_draw 3000ms linear 0ms forwards;
}

.QbiLzHDC_18 {
    stroke-dasharray: 111 113;
    stroke-dashoffset: 112;
    animation: QbiLzHDC_draw 3000ms linear 0ms forwards;
}

.QbiLzHDC_19 {
    stroke-dasharray: 109 111;
    stroke-dashoffset: 110;
    animation: QbiLzHDC_draw 3000ms linear 0ms forwards;
}

.QbiLzHDC_20 {
    stroke-dasharray: 110 112;
    stroke-dashoffset: 111;
    animation: QbiLzHDC_draw 3000ms linear 0ms forwards;
}

.QbiLzHDC_21 {
    stroke-dasharray: 109 111;
    stroke-dashoffset: 110;
    animation: QbiLzHDC_draw 3000ms linear 0ms forwards;
}

@keyframes QbiLzHDC_draw {
    100% {
        stroke-dashoffset: 0;
    }
}

@keyframes QbiLzHDC_fade {
    0% {
        stroke-opacity: 1;
    }
    96.72131147540983% {
        stroke-opacity: 1;
    }
    100% {
        stroke-opacity: 0;
    }
}
</style>
</svg>
