<?xml version="1.0" encoding="utf-8"?>
<!-- Generator: Adobe Illustrator 16.0.0, SVG Export Plug-In . SVG Version: 6.00 Build 0)  -->
<!DOCTYPE svg PUBLIC "-//W3C//DTD SVG 1.1//EN" "http://www.w3.org/Graphics/SVG/1.1/DTD/svg11.dtd">
<svg version="1.1" id="Layer_1" xmlns="http://www.w3.org/2000/svg" xmlns:xlink="http://www.w3.org/1999/xlink" x="0px" y="0px"
	 width="150px" height="150px" viewBox="0 0 150 150" enable-background="new 0 0 150 150" xml:space="preserve">

<g class="ms">
	<path fill="none"  stroke="#fff" stroke-linecap="round" stroke-miterlimit="10" d="M103,89.2v-39c0-2.8-2.2-5-5-5H56.5
		c-2.8,0-5,2.2-5,5v39H103z"/>
	<path fill="none"  stroke="#fff" stroke-linecap="round" stroke-miterlimit="10" d="M109,93.4L109,93.4c0-2.3-1.9-4.3-4.3-4.3
		h-55c-2.3,0-4.3,1.9-4.3,4.3l0,0H109z"/>
	<path fill="none"  stroke="#fff" stroke-linecap="round" stroke-miterlimit="10" d="M60.099999999999994,67.1a17.2,17.2 0 1,0 34.4,0a17.2,17.2 0 1,0 -34.4,0"/>

	<path fill="none"  stroke="#fff" stroke-linecap="round" stroke-miterlimit="10" d="M71.3,67.1a6,6 0 1,0 12,0a6,6 0 1,0 -12,0"/>

	<path fill="none"  stroke="#fff" stroke-linecap="round" stroke-miterlimit="10" d="M75,55.9a2.3,2.3 0 1,0 4.6,0a2.3,2.3 0 1,0 -4.6,0"/>

	<path fill="none"  stroke="#fff" stroke-linecap="round" stroke-miterlimit="10" d="M75,78.9a2.3,2.3 0 1,0 4.6,0a2.3,2.3 0 1,0 -4.6,0"/>
	
	<path fill="none"  stroke="#fff" stroke-linecap="round" stroke-miterlimit="10" d="M81.7,58.1a2.3,2.3 0 1,0 4.6,0a2.3,2.3 0 1,0 -4.6,0"/>
	
	<path fill="none"  stroke="#fff" stroke-linecap="round" stroke-miterlimit="10" d="M68.2,76.7a2.3,2.3 0 1,0 4.6,0a2.3,2.3 0 1,0 -4.6,0"/>
	
	<path fill="none"  stroke="#fff" stroke-linecap="round" stroke-miterlimit="10" d="M85.9,63.8a2.3,2.3 0 1,0 4.6,0a2.3,2.3 0 1,0 -4.6,0"/>

	<path fill="none"  stroke="#fff" stroke-linecap="round" stroke-miterlimit="10" d="M64,71a2.3,2.3 0 1,0 4.6,0a2.3,2.3 0 1,0 -4.6,0"/>

	<path fill="none"  stroke="#fff" stroke-linecap="round" stroke-miterlimit="10" d="M85.9,71a2.3,2.3 0 1,0 4.6,0a2.3,2.3 0 1,0 -4.6,0"/>

	<path fill="none"  stroke="#fff" stroke-linecap="round" stroke-miterlimit="10" d="M64,63.8a2.3,2.3 0 1,0 4.6,0a2.3,2.3 0 1,0 -4.6,0"/>
	
	<path fill="none"  stroke="#fff" stroke-linecap="round" stroke-miterlimit="10" d="M81.7,76.7a2.3,2.3 0 1,0 4.6,0a2.3,2.3 0 1,0 -4.6,0"/>
	
	<path fill="none"  stroke="#fff" stroke-linecap="round" stroke-miterlimit="10" d="M68.2,58.1a2.3,2.3 0 1,0 4.6,0a2.3,2.3 0 1,0 -4.6,0"/>
	
	<path fill="none"  stroke="#fff" stroke-linecap="round" stroke-miterlimit="10" d="M65.9,45.2c0-6.3,5.1-11.4,11.4-11.4
		c6.3,0,11.4,5.1,11.4,11.4"/>
	<line fill="none"  stroke="#fff" stroke-linecap="round" stroke-miterlimit="10" x1="77.3" y1="33.8" x2="77.3" y2="27.9"/>

	<path fill="none"  stroke="#fff" stroke-linecap="round" stroke-miterlimit="10" d="M73.89999999999999,24.1a3.4,3.4 0 1,0 6.8,0a3.4,3.4 0 1,0 -6.8,0"/>
	
	<line fill="none"  stroke="#fff" stroke-linecap="round" stroke-miterlimit="10" x1="73.9" y1="24.1" x2="51.5" y2="24.1"/>
	<line fill="none"  stroke="#fff" stroke-linecap="round" stroke-miterlimit="10" x1="80.7" y1="24.1" x2="103" y2="24.1"/>
	<line fill="none"  stroke="#fff" stroke-linecap="round" stroke-miterlimit="10" x1="51.5" y1="24.1" x2="51.5" y2="17.8"/>
	<line fill="none"  stroke="#fff" stroke-linecap="round" stroke-miterlimit="10" x1="103" y1="24.1" x2="103" y2="17.8"/>
	<path fill="none"  stroke="#fff" stroke-linecap="round" stroke-miterlimit="10" d="M53.5,15.8c0,1.1-0.9,2-2,2l0,0
		c-1.1,0-2-0.9-2-2v-4.5c0-1.1,0.9-2,2-2l0,0c1.1,0,2,0.9,2,2V15.8z"/>
	<path fill="none"  stroke="#fff" stroke-linecap="round" stroke-miterlimit="10" d="M105,15.8c0,1.1-0.9,2-2,2l0,0
		c-1.1,0-2-0.9-2-2v-4.5c0-1.1,0.9-2,2-2l0,0c1.1,0,2,0.9,2,2V15.8z"/>
	<line fill="none"  stroke="#fff" stroke-linecap="round" stroke-miterlimit="10" x1="53.5" y1="13.6" x2="59.2" y2="13.6"/>
	<line fill="none"  stroke="#fff" stroke-linecap="round" stroke-miterlimit="10" x1="95.4" y1="13.6" x2="101" y2="13.6"/>
	<path fill="none"  stroke="#fff" stroke-linecap="round" stroke-miterlimit="10" d="M95.4,13.6c0,1.1-0.9,2-2,2H61.2
		c-1.1,0-2-0.9-2-2l0,0c0-1.1,0.9-2,2-2h32.2C94.5,11.6,95.4,12.5,95.4,13.6L95.4,13.6z"/>

	<path fill="none"  stroke="#fff" stroke-linecap="round" stroke-miterlimit="10" d="M45.8,13.6a1.7,1.7 0 1,0 3.4,0a1.7,1.7 0 1,0 -3.4,0"/>	
	
	<path fill="none"  stroke="#fff" stroke-linecap="round" stroke-miterlimit="10" d="M105,13.6a1.7,1.7 0 1,0 3.4,0a1.7,1.7 0 1,0 -3.4,0"/>	
	

	<line fill="none"  stroke="#fff" stroke-linecap="round" stroke-miterlimit="10" x1="20" y1="13.6" x2="45.9" y2="13.6"/>
	<path fill="none"  stroke="#fff" stroke-linecap="round" stroke-miterlimit="10" d="M19.2,21.9v-13c0-1.4,1.1-2.5,2.5-2.5l0,0
		c1.4,0,2.5,1.1,2.5,2.5v13"/>
	<path fill="none"  stroke="#fff" stroke-linecap="round" stroke-miterlimit="10" d="M19.2,22.1c0,3.6-3,6.6-6.6,6.6"/>
	<path fill="none"  stroke="#fff" stroke-linecap="round" stroke-miterlimit="10" d="M24.2,22.1c0,3.6,3,6.6,6.6,6.6"/>
	<path fill="none"  stroke="#fff" stroke-linecap="round" stroke-miterlimit="10" d="M34.9,31.4c0,1.5-1.2,2.7-2.7,2.7H11.7
		c-1.5,0-2.7-1.2-2.7-2.7l0,0c0-1.5,1.2-2.7,2.7-2.7h20.5C33.6,28.7,34.9,29.9,34.9,31.4L34.9,31.4z"/>
	<path fill="none"  stroke="#fff" stroke-linecap="round" stroke-miterlimit="10" d="M26.9,34.9c0,2.8-2.2,5-5,5c-2.8,0-5-2.2-5-5
		"/>
	<line fill="none"  stroke="#fff" stroke-linecap="round" stroke-miterlimit="10" x1="108.4" y1="13.6" x2="134.2" y2="13.6"/>
	<path fill="none"  stroke="#fff" stroke-linecap="round" stroke-miterlimit="10" d="M129.8,21.9v-13c0-1.4,1.1-2.5,2.5-2.5l0,0
		c1.4,0,2.5,1.1,2.5,2.5v13"/>
	<path fill="none"  stroke="#fff" stroke-linecap="round" stroke-miterlimit="10" d="M129.8,22.1c0,3.6-3,6.6-6.6,6.6"/>
	<path fill="none"  stroke="#fff" stroke-linecap="round" stroke-miterlimit="10" d="M134.7,22.1c0,3.6,3,6.6,6.6,6.6"/>
	<path fill="none"  stroke="#fff" stroke-linecap="round" stroke-miterlimit="10" d="M145.4,31.4c0,1.5-1.2,2.7-2.7,2.7h-20.5
		c-1.5,0-2.7-1.2-2.7-2.7l0,0c0-1.5,1.2-2.7,2.7-2.7h20.5C144.2,28.7,145.4,29.9,145.4,31.4L145.4,31.4z"/>
	<path fill="none"  stroke="#fff" stroke-linecap="round" stroke-miterlimit="10" d="M137.5,34.9c0,2.8-2.2,5-5,5
		c-2.8,0-5-2.2-5-5"/>
	<path fill="none"  stroke="#fff" stroke-linecap="round" stroke-miterlimit="10" d="M13.5,108.2c-4.9,0-8.8,4-8.8,8.8
		s4,8.8,8.8,8.8"/>
	<path fill="none"  stroke="#fff" stroke-linecap="round" stroke-miterlimit="10" d="M98.6,125.9c4.9,0,8.8,4,8.8,8.8
		c0,4.9-4,8.8-8.8,8.8"/>
	<path fill="none"  stroke="#fff" stroke-linecap="round" stroke-miterlimit="10" d="M103.4,71.4h37.5c1.9,0,3.5,1.6,3.5,3.5v29.8
		c0,1.9-1.6,3.5-3.5,3.5H13.3"/>
	<line fill="none"  stroke="#fff" stroke-linecap="round" stroke-miterlimit="10" x1="13.5" y1="125.9" x2="98.2" y2="125.9"/>
	<line fill="none"  stroke="#fff" stroke-linecap="round" stroke-miterlimit="10" x1="98.6" y1="143.6" x2="24.8" y2="143.6"/>
</g>
</svg>
