<?xml version="1.0" encoding="utf-8"?>
<!-- Generator: Adobe Illustrator 16.0.0, SVG Export Plug-In . SVG Version: 6.00 Build 0)  -->
<!DOCTYPE svg PUBLIC "-//W3C//DTD SVG 1.1//EN" "http://www.w3.org/Graphics/SVG/1.1/DTD/svg11.dtd">
<svg version="1.1" id="Layer_1" xmlns="http://www.w3.org/2000/svg" xmlns:xlink="http://www.w3.org/1999/xlink" x="0px" y="0px"
	 width="474.193px" height="407.258px" viewBox="0 0 474.193 407.258" enable-background="new 0 0 474.193 407.258"
	 xml:space="preserve">
<rect x="36.474" y="83.678" fill="#FFFFFF" stroke="#FFFFFF" stroke-width="2" stroke-linecap="round" stroke-miterlimit="10" width="50" height="25"/>
<rect x="86.474" y="83.678" fill="#FFFFFF" stroke="#FFFFFF" stroke-width="2" stroke-linecap="round" stroke-miterlimit="10" width="50" height="25"/>
<rect x="136.474" y="83.678" fill="#FFFFFF" stroke="#FFFFFF" stroke-width="2" stroke-linecap="round" stroke-miterlimit="10" width="50" height="25"/>
<rect x="186.474" y="83.678" fill="#FFFFFF" stroke="#FFFFFF" stroke-width="2" stroke-linecap="round" stroke-miterlimit="10" width="50" height="25"/>
<rect x="236.474" y="83.678" fill="#FFFFFF" stroke="#FFFFFF" stroke-width="2" stroke-linecap="round" stroke-miterlimit="10" width="50" height="25"/>
<rect x="286.474" y="83.678" fill="#FFFFFF" stroke="#FFFFFF" stroke-width="2" stroke-linecap="round" stroke-miterlimit="10" width="50" height="25"/>
<rect x="36.474" y="108.678" fill="none" stroke="#FFFFFF" stroke-width="2" stroke-linecap="round" stroke-miterlimit="10" width="50" height="25"/>
<rect x="86.474" y="108.678" fill="none" stroke="#FFFFFF" stroke-width="2" stroke-linecap="round" stroke-miterlimit="10" width="50" height="25"/>
<rect x="136.474" y="108.678" fill="none" stroke="#FFFFFF" stroke-width="2" stroke-linecap="round" stroke-miterlimit="10" width="50" height="25"/>
<rect x="186.474" y="108.678" fill="none" stroke="#FFFFFF" stroke-width="2" stroke-linecap="round" stroke-miterlimit="10" width="50" height="25"/>
<rect x="236.474" y="108.678" fill="none" stroke="#FFFFFF" stroke-width="2" stroke-linecap="round" stroke-miterlimit="10" width="50" height="25"/>
<rect x="286.474" y="108.678" fill="none" stroke="#FFFFFF" stroke-width="2" stroke-linecap="round" stroke-miterlimit="10" width="50" height="25"/>
<rect x="36.474" y="133.678" fill="none" stroke="#FFFFFF" stroke-width="2" stroke-linecap="round" stroke-miterlimit="10" width="50" height="25"/>
<rect x="86.474" y="133.678" fill="none" stroke="#FFFFFF" stroke-width="2" stroke-linecap="round" stroke-miterlimit="10" width="50" height="25"/>
<rect x="136.474" y="133.678" fill="none" stroke="#FFFFFF" stroke-width="2" stroke-linecap="round" stroke-miterlimit="10" width="50" height="25"/>
<rect x="186.474" y="133.678" fill="none" stroke="#FFFFFF" stroke-width="2" stroke-linecap="round" stroke-miterlimit="10" width="50" height="25"/>
<rect x="236.474" y="133.678" fill="none" stroke="#FFFFFF" stroke-width="2" stroke-linecap="round" stroke-miterlimit="10" width="50" height="25"/>
<rect x="286.474" y="133.678" fill="none" stroke="#FFFFFF" stroke-width="2" stroke-linecap="round" stroke-miterlimit="10" width="50" height="25"/>
<rect x="36.474" y="158.678" fill="none" stroke="#FFFFFF" stroke-width="2" stroke-linecap="round" stroke-miterlimit="10" width="50" height="25"/>
<rect x="86.474" y="158.678" fill="none" stroke="#FFFFFF" stroke-width="2" stroke-linecap="round" stroke-miterlimit="10" width="50" height="25"/>
<rect x="136.474" y="158.678" fill="none" stroke="#FFFFFF" stroke-width="2" stroke-linecap="round" stroke-miterlimit="10" width="50" height="25"/>
<rect x="186.474" y="158.678" fill="none" stroke="#FFFFFF" stroke-width="2" stroke-linecap="round" stroke-miterlimit="10" width="50" height="25"/>
<rect x="236.474" y="158.678" fill="none" stroke="#FFFFFF" stroke-width="2" stroke-linecap="round" stroke-miterlimit="10" width="50" height="25"/>
<rect x="286.474" y="158.678" fill="none" stroke="#FFFFFF" stroke-width="2" stroke-linecap="round" stroke-miterlimit="10" width="50" height="25"/>
<rect x="36.474" y="183.678" fill="none" stroke="#FFFFFF" stroke-width="2" stroke-linecap="round" stroke-miterlimit="10" width="50" height="25"/>
<rect x="86.474" y="183.678" fill="none" stroke="#FFFFFF" stroke-width="2" stroke-linecap="round" stroke-miterlimit="10" width="50" height="25"/>
<rect x="136.474" y="183.678" fill="none" stroke="#FFFFFF" stroke-width="2" stroke-linecap="round" stroke-miterlimit="10" width="50" height="25"/>
<rect x="186.474" y="183.678" fill="none" stroke="#FFFFFF" stroke-width="2" stroke-linecap="round" stroke-miterlimit="10" width="50" height="25"/>
<rect x="236.474" y="183.678" fill="none" stroke="#FFFFFF" stroke-width="2" stroke-linecap="round" stroke-miterlimit="10" width="50" height="25"/>
<rect x="286.474" y="183.678" fill="none" stroke="#FFFFFF" stroke-width="2" stroke-linecap="round" stroke-miterlimit="10" width="50" height="25"/>
<rect x="36.474" y="208.678" fill="none" stroke="#FFFFFF" stroke-width="2" stroke-linecap="round" stroke-miterlimit="10" width="50" height="25"/>
<rect x="86.474" y="208.678" fill="none" stroke="#FFFFFF" stroke-width="2" stroke-linecap="round" stroke-miterlimit="10" width="50" height="25"/>
<rect x="136.474" y="208.678" fill="none" stroke="#FFFFFF" stroke-width="2" stroke-linecap="round" stroke-miterlimit="10" width="50" height="25"/>
<rect x="186.474" y="208.678" fill="none" stroke="#FFFFFF" stroke-width="2" stroke-linecap="round" stroke-miterlimit="10" width="50" height="25"/>
<rect x="236.474" y="208.678" fill="none" stroke="#FFFFFF" stroke-width="2" stroke-linecap="round" stroke-miterlimit="10" width="50" height="25"/>
<rect x="286.474" y="208.678" fill="none" stroke="#FFFFFF" stroke-width="2" stroke-linecap="round" stroke-miterlimit="10" width="50" height="25"/>
<rect x="36.474" y="233.678" fill="none" stroke="#FFFFFF" stroke-width="2" stroke-linecap="round" stroke-miterlimit="10" width="50" height="25"/>
<rect x="86.474" y="233.678" fill="none" stroke="#FFFFFF" stroke-width="2" stroke-linecap="round" stroke-miterlimit="10" width="50" height="25"/>
<rect x="136.474" y="233.678" fill="none" stroke="#FFFFFF" stroke-width="2" stroke-linecap="round" stroke-miterlimit="10" width="50" height="25"/>
<rect x="186.474" y="233.678" fill="none" stroke="#FFFFFF" stroke-width="2" stroke-linecap="round" stroke-miterlimit="10" width="50" height="25"/>
<rect x="236.474" y="233.678" fill="none" stroke="#FFFFFF" stroke-width="2" stroke-linecap="round" stroke-miterlimit="10" width="50" height="25"/>
<rect x="286.474" y="233.678" fill="none" stroke="#FFFFFF" stroke-width="2" stroke-linecap="round" stroke-miterlimit="10" width="50" height="25"/>
<rect x="36.474" y="258.678" fill="none" stroke="#FFFFFF" stroke-width="2" stroke-linecap="round" stroke-miterlimit="10" width="50" height="25"/>
<rect x="86.474" y="258.678" fill="none" stroke="#FFFFFF" stroke-width="2" stroke-linecap="round" stroke-miterlimit="10" width="50" height="25"/>
<rect x="136.474" y="258.678" fill="none" stroke="#FFFFFF" stroke-width="2" stroke-linecap="round" stroke-miterlimit="10" width="50" height="25"/>
<rect x="186.474" y="258.678" fill="none" stroke="#FFFFFF" stroke-width="2" stroke-linecap="round" stroke-miterlimit="10" width="50" height="25"/>
<rect x="236.474" y="258.678" fill="none" stroke="#FFFFFF" stroke-width="2" stroke-linecap="round" stroke-miterlimit="10" width="50" height="25"/>
<rect x="286.474" y="258.678" fill="none" stroke="#FFFFFF" stroke-width="2" stroke-linecap="round" stroke-miterlimit="10" width="50" height="25"/>
<rect x="336.474" y="83.678" fill="#FFFFFF" stroke="#FFFFFF" stroke-width="2" stroke-linecap="round" stroke-miterlimit="10" width="50" height="25"/>
<rect x="336.474" y="108.678" fill="none" stroke="#FFFFFF" stroke-width="2" stroke-linecap="round" stroke-miterlimit="10" width="50" height="25"/>
<rect x="336.474" y="133.678" fill="none" stroke="#FFFFFF" stroke-width="2" stroke-linecap="round" stroke-miterlimit="10" width="50" height="25"/>
<rect x="336.474" y="158.678" fill="none" stroke="#FFFFFF" stroke-width="2" stroke-linecap="round" stroke-miterlimit="10" width="50" height="25"/>
<rect x="336.474" y="183.678" fill="none" stroke="#FFFFFF" stroke-width="2" stroke-linecap="round" stroke-miterlimit="10" width="50" height="25"/>
<rect x="336.474" y="208.678" fill="none" stroke="#FFFFFF" stroke-width="2" stroke-linecap="round" stroke-miterlimit="10" width="50" height="25"/>
<rect x="336.474" y="233.678" fill="none" stroke="#FFFFFF" stroke-width="2" stroke-linecap="round" stroke-miterlimit="10" width="50" height="25"/>
<rect x="336.474" y="258.678" fill="none" stroke="#FFFFFF" stroke-width="2" stroke-linecap="round" stroke-miterlimit="10" width="50" height="25"/>
<rect x="386.474" y="83.678" fill="#FFFFFF" stroke="#FFFFFF" stroke-width="2" stroke-linecap="round" stroke-miterlimit="10" width="50" height="25"/>
<rect x="386.474" y="108.678" fill="none" stroke="#FFFFFF" stroke-width="2" stroke-linecap="round" stroke-miterlimit="10" width="50" height="25"/>
<rect x="386.474" y="133.678" fill="none" stroke="#FFFFFF" stroke-width="2" stroke-linecap="round" stroke-miterlimit="10" width="50" height="25"/>
<rect x="386.474" y="158.678" fill="none" stroke="#FFFFFF" stroke-width="2" stroke-linecap="round" stroke-miterlimit="10" width="50" height="25"/>
<rect x="386.474" y="183.678" fill="none" stroke="#FFFFFF" stroke-width="2" stroke-linecap="round" stroke-miterlimit="10" width="50" height="25"/>
<rect x="386.474" y="208.678" fill="none" stroke="#FFFFFF" stroke-width="2" stroke-linecap="round" stroke-miterlimit="10" width="50" height="25"/>
<rect x="386.474" y="233.678" fill="none" stroke="#FFFFFF" stroke-width="2" stroke-linecap="round" stroke-miterlimit="10" width="50" height="25"/>
<rect x="386.474" y="258.678" fill="none" stroke="#FFFFFF" stroke-width="2" stroke-linecap="round" stroke-miterlimit="10" width="50" height="25"/>
<rect x="36.474" y="32.678" fill="none" stroke="#FFFFFF" stroke-width="2" stroke-linecap="round" stroke-miterlimit="10" width="400" height="51"/>
<rect x="21.143" y="19.678" fill="none" stroke="#FFFFFF" stroke-width="2" stroke-linecap="round" stroke-miterlimit="10" width="432.666" height="278.667"/>
<path fill="none" stroke="#FFFFFF" stroke-width="2" stroke-linecap="round" stroke-miterlimit="10" d="M464.392,304.011
	c0,2.762-2.238,5-5,5h-444c-2.762,0-5-2.238-5-5V16.678c0-2.761,2.238-5,5-5h444c2.762,0,5,2.239,5,5V304.011z"/>
<path fill="none" stroke="#FFFFFF" stroke-width="2" stroke-linecap="round" stroke-miterlimit="10" d="M332.558,378.677
	c0,10.493-8.507,19-19,19H161.225c-10.493,0-19-8.507-19-19l0,0c0-10.493,8.507-19,19-19h152.333
	C324.051,359.677,332.558,368.184,332.558,378.677L332.558,378.677z"/>
<line fill="none" stroke="#FFFFFF" stroke-width="2" stroke-linecap="round" stroke-miterlimit="10" x1="217.476" y1="359.677" x2="217.476" y2="309.011"/>
<line fill="none" stroke="#FFFFFF" stroke-width="2" stroke-linecap="round" stroke-miterlimit="10" x1="257.476" y1="359.677" x2="257.476" y2="309.011"/>
<circle fill="none" stroke="#FFFFFF" stroke-width="2" stroke-linecap="round" stroke-miterlimit="10" cx="273.474" cy="378.677" r="8.333"/>
<circle fill="none" stroke="#FFFFFF" stroke-width="2" stroke-linecap="round" stroke-miterlimit="10" cx="303.474" cy="378.677" r="8.333"/>
<circle fill="none" stroke="#FFFFFF" stroke-width="2" stroke-linecap="round" stroke-miterlimit="10" cx="243.474" cy="378.677" r="8.333"/>
<path fill="none" stroke="#FFFFFF" stroke-width="2" stroke-linecap="round" stroke-miterlimit="10" d="M214.476,385.01
	c0,1.104-0.896,2-2,2h-47.669c-1.104,0-2-0.896-2-2v-12.666c0-1.104,0.896-2,2-2h47.669c1.104,0,2,0.896,2,2V385.01z"/>
<line fill="none" stroke="#FFFFFF" stroke-width="2" stroke-linecap="round" stroke-miterlimit="10" x1="170.807" y1="378.677" x2="206.807" y2="378.677"/>
<path fill="none" stroke="#FFFFFF" stroke-width="2" stroke-linecap="round" stroke-miterlimit="10" d="M87.611,71.866
	c0,1.049-0.852,1.901-1.902,1.901H53.707c-1.049,0-1.9-0.852-1.9-1.901V44.3c0-1.049,0.852-1.901,1.9-1.901h32.002
	c1.051,0,1.902,0.852,1.902,1.901V71.866z"/>
<path fill="none" stroke="#FFFFFF" stroke-width="2" stroke-linecap="round" stroke-miterlimit="10" d="M135.137,71.866
	c0,1.049-0.852,1.901-1.9,1.901h-32.001c-1.051,0-1.901-0.852-1.901-1.901V44.3c0-1.049,0.851-1.901,1.901-1.901h32.001
	c1.049,0,1.9,0.852,1.9,1.901V71.866z"/>
<path fill="none" stroke="#FFFFFF" stroke-width="2" stroke-linecap="round" stroke-miterlimit="10" d="M182.664,71.866
	c0,1.049-0.851,1.901-1.901,1.901h-32.002c-1.05,0-1.9-0.852-1.9-1.901V44.3c0-1.049,0.851-1.901,1.9-1.901h32.002
	c1.051,0,1.901,0.852,1.901,1.901V71.866z"/>
<path fill="none" stroke="#FFFFFF" stroke-width="2" stroke-linecap="round" stroke-miterlimit="10" d="M230.191,71.866
	c0,1.049-0.851,1.901-1.902,1.901h-32.001c-1.05,0-1.9-0.852-1.9-1.901V44.3c0-1.049,0.851-1.901,1.9-1.901h32.001
	c1.052,0,1.902,0.852,1.902,1.901V71.866z"/>
<path fill="none" stroke="#FFFFFF" stroke-width="2" stroke-linecap="round" stroke-miterlimit="10" d="M277.718,71.866
	c0,1.049-0.852,1.901-1.9,1.901h-32.002c-1.051,0-1.902-0.852-1.902-1.901V44.3c0-1.049,0.852-1.901,1.902-1.901h32.002
	c1.049,0,1.9,0.852,1.9,1.901V71.866z"/>
<path fill="none" stroke="#FFFFFF" stroke-width="2" stroke-linecap="round" stroke-miterlimit="10" d="M325.245,71.866
	c0,1.049-0.851,1.901-1.902,1.901h-32.001c-1.05,0-1.9-0.852-1.9-1.901V44.3c0-1.049,0.851-1.901,1.9-1.901h32.001
	c1.052,0,1.902,0.852,1.902,1.901V71.866z"/>
<path fill="none" stroke="#FFFFFF" stroke-width="2" stroke-linecap="round" stroke-miterlimit="10" d="M372.771,71.866
	c0,1.049-0.852,1.901-1.901,1.901h-32.002c-1.049,0-1.9-0.852-1.9-1.901V44.3c0-1.049,0.852-1.901,1.9-1.901h32.002
	c1.05,0,1.901,0.852,1.901,1.901V71.866z"/>
<path fill="none" stroke="#FFFFFF" stroke-width="2" stroke-linecap="round" stroke-miterlimit="10" d="M420.299,71.866
	c0,1.049-0.852,1.901-1.9,1.901h-32.002c-1.051,0-1.902-0.852-1.902-1.901V44.3c0-1.049,0.852-1.901,1.902-1.901h32.002
	c1.049,0,1.9,0.852,1.9,1.901V71.866z"/>
<path fill="none" stroke="#FFFFFF" stroke-width="2" stroke-linecap="round" stroke-miterlimit="10" d="M240.913,348.677
	c0,1.104-0.896,2-2,2h-2.772c-1.104,0-2-0.896-2-2v-28c0-1.104,0.896-2,2-2h2.772c1.104,0,2,0.896,2,2V348.677z"/>
</svg>
