<?xml version="1.0" encoding="utf-8"?>
<!-- Generator: Adobe Illustrator 16.0.0, SVG Export Plug-In . SVG Version: 6.00 Build 0)  -->
<!DOCTYPE svg PUBLIC "-//W3C//DTD SVG 1.1//EN" "http://www.w3.org/Graphics/SVG/1.1/DTD/svg11.dtd">
<svg version="1.1" id="Layer_1" xmlns="http://www.w3.org/2000/svg" xmlns:xlink="http://www.w3.org/1999/xlink" x="0px" y="0px"
	 width="1200px" height="630px" viewBox="0 0 1200 630" enable-background="new 0 0 1200 630" xml:space="preserve">
<path fill="none" stroke="#FFFFFF" stroke-width="2" stroke-linecap="round" stroke-miterlimit="10" d="M559.597,122.596
	c-11.699-10.923-19.012-26.483-19.012-43.751c0-33.052,26.793-59.845,59.845-59.845c33.052,0,59.845,26.793,59.845,59.845
	c0,17.342-7.377,32.961-19.164,43.891 M228.823,224.876c-10.923-11.698-26.483-19.012-43.751-19.012
	c-33.052,0-59.845,26.793-59.845,59.845c0,33.052,26.793,59.845,59.845,59.845c17.342,0,32.961-7.378,43.891-19.164
	 M971.037,306.391c10.93,11.786,26.55,19.164,43.892,19.164c33.052,0,59.845-26.793,59.845-59.845
	c0-33.052-26.793-59.845-59.845-59.845c-17.269,0-32.828,7.314-43.751,19.012 M640.326,199.008V91.639
	c0-22.034-17.862-39.896-39.897-39.896l0,0c-22.034,0-39.896,17.862-39.896,39.896v107.369 M675.831,224.542L675.831,224.542
	c0-14.211-11.521-25.731-25.731-25.731H550.76c-14.211,0-25.732,11.52-25.732,25.731l0,0 M820.455,170.172
	c6.414-5.948,10.428-14.447,10.428-23.884c0-17.985-14.579-32.566-32.565-32.566c-17.985,0-32.566,14.581-32.566,32.566
	c0,9.397,3.98,17.864,10.347,23.808 M820.028,211.677V153.25c0-11.99-9.721-21.71-21.711-21.71l0,0
	c-11.99,0-21.711,9.72-21.711,21.71v58.426 M839.349,225.572L839.349,225.572c0-7.733-6.27-14.002-14.003-14.002h-54.058
	c-7.732,0-14.002,6.269-14.002,14.002l0,0 M426.275,170.172c6.414-5.948,10.428-14.447,10.428-23.884
	c0-17.985-14.579-32.566-32.565-32.566c-17.986,0-32.566,14.581-32.566,32.566c0,9.397,3.98,17.864,10.346,23.808 M425.849,211.677
	V153.25c0-11.99-9.72-21.71-21.711-21.71l0,0c-11.99,0-21.71,9.72-21.71,21.71v58.426 M445.169,225.572L445.169,225.572
	c0-7.733-6.27-14.002-14.003-14.002h-54.057c-7.733,0-14.002,6.269-14.002,14.002l0,0 M1055.682,265.709
	c0-21.968-17.809-39.777-39.777-39.777h-830.95c-21.968,0-39.777,17.809-39.777,39.777l0,0c0,21.968,17.809,39.776,39.777,39.776
	h830.95C1037.873,305.486,1055.682,287.677,1055.682,265.709L1055.682,265.709z M839.81,496.165L839.81,496.165
	c11.017,0,19.948-8.932,19.948-19.948V316.63 M799.913,455.47L799.913,455.47c11.017,0,19.948-8.932,19.948-19.948V316.63
	 M839.81,496.165H707.353 M796.722,305.872L796.722,305.872c0,5.941,4.816,10.758,10.758,10.758h64.66
	c5.941,0,10.759-4.817,10.759-10.758l0,0 M707.843,455.022c-9.762-49.91-53.732-87.571-106.499-87.572
	c-53.152,0.001-97.38,38.215-106.708,88.668 M494.76,496.475c6.898,36.071,31.651,65.802,64.71,79.641 M640.326,577.276
	c34.676-13.351,60.766-43.993,67.708-81.361 M799.913,455.47h-91.677 M341.101,316.63v159.587c0,11.017,8.932,19.948,19.948,19.948
	l0,0 M380.998,316.63v118.892c0,11.017,8.932,19.948,19.948,19.948l0,0 M361.049,496.165h133.655 M317.96,305.872L317.96,305.872
	c0,5.941,4.817,10.758,10.758,10.758h64.661c5.941,0,10.758-4.817,10.758-10.758l0,0 M400.946,455.47h93.814 M599.898,600.162
	c-22.328,0-40.428,2.5-40.428,5.585s18.1,5.586,40.428,5.586c22.328,0,40.428-2.501,40.428-5.586S622.226,600.162,599.898,600.162z
	 M559.47,576.115v29.632 M640.326,577.276v28.471 M754.074,347.401c-19.389,0-35.107,15.719-35.107,35.107
	s15.719,35.107,35.107,35.107c19.39,0,35.108-15.719,35.108-35.107S773.464,347.401,754.074,347.401z M754.074,353.864
	c-15.819,0-28.645,12.825-28.645,28.645s12.825,28.646,28.645,28.646s28.646-12.826,28.646-28.646S769.894,353.864,754.074,353.864z
	 M754.074,377.088c-2.993,0-5.421,2.428-5.421,5.421c0,2.994,2.428,5.421,5.421,5.421c2.994,0,5.422-2.427,5.422-5.421
	C759.496,379.516,757.068,377.088,754.074,377.088z M754.074,353.864v3.842 M754.074,407.326v3.842 M725.423,382.517h3.842
	 M778.885,382.517h3.842 M733.814,402.776l2.717-2.716 M771.618,364.973l2.717-2.716 M774.335,402.776l-2.717-2.716
	 M736.531,364.973l-2.717-2.716 M754.074,382.509l8.676-18.894 M746.095,417.616v37.704 M762.054,417.616v37.704 M145.177,265.709
	h539.036 M708.757,265.709h55.249 M1051.943,248.86H694.586 M1054.437,255.796H827.043 M145.177,272.743h116.928 M276.598,272.743
	h64.502 M600.429,385.096c-50.325,0-91.121,40.796-91.121,91.121c0,50.324,40.796,91.121,91.121,91.121
	c50.325,0,91.122-40.797,91.122-91.121C691.551,425.892,650.754,385.096,600.429,385.096z M600.429,444.94
	c-17.273,0-31.276,14.003-31.276,31.276c0,17.272,14.003,31.275,31.276,31.275s31.276-14.003,31.276-31.275
	C631.705,458.943,617.702,444.94,600.429,444.94z M600.429,467.566c-4.777,0-8.65,3.872-8.65,8.65c0,4.777,3.873,8.649,8.65,8.649
	c4.778,0,8.65-3.872,8.65-8.649C609.079,471.438,605.207,467.566,600.429,467.566z M600.429,507.492v59.846 M600.429,444.94v-59.845
	 M608.524,506.428l15.488,57.805 M576.845,388.2l15.489,57.806 M616.067,503.303l29.922,51.826 M584.792,449.131l-29.923-51.827
	 M622.544,498.333l42.317,42.315 M535.997,411.785l42.317,42.316 M627.516,491.855l51.827,29.922 M573.344,460.579l-51.828-29.923
	 M630.641,484.313l57.804,15.488 M570.22,468.122l-57.808-15.489 M631.706,476.218l59.843-0.001 M569.154,476.217h-59.847
	 M630.641,468.122l57.803-15.488 M570.219,484.312l-57.807,15.489 M679.341,430.658l-51.825,29.921 M573.343,491.854l-51.829,29.923
	 M622.545,454.101l42.315-42.314 M535.995,540.649l42.318-42.318 M616.067,449.13l29.922-51.825 M584.79,503.301l-29.923,51.83
	 M624.012,388.202l-15.488,57.804 M592.333,506.426l-15.489,57.809 M347.484,316.63v89.768 M352.272,316.63v19.15 M849.784,316.63
	v114.028 M841.805,316.63v60.458"/>
</svg>
