<svg xmlns="http://www.w3.org/2000/svg" xmlns:xlink="http://www.w3.org/1999/xlink"  version="1.1" id="Layer_1" x="0px" y="0px" width="1200px" height="416.936px" viewBox="0 0 1200 416.936" enable-background="new 0 0 1200 416.936" xml:space="preserve">



	<rect x="383.336" y="25.323" fill="none" stroke="#fff" stroke-width="2" stroke-linecap="round" stroke-miterlimit="10" width="432.666" height="278.667"/>
	<path fill="none" stroke="#fff" stroke-width="2" stroke-linecap="round" stroke-miterlimit="10" d="M826.585,309.657  c0,2.762-2.238,5-5,5h-444c-2.762,0-5-2.238-5-5V22.323c0-2.761,2.238-5,5-5h444c2.762,0,5,2.239,5,5V309.657z"/>
	<path fill="none" stroke="#fff" stroke-width="2" stroke-linecap="round" stroke-miterlimit="10" d="M694.751,384.323  c0,10.493-8.507,19-19,19H523.418c-10.493,0-19-8.507-19-19l0,0c0-10.493,8.507-19,19-19h152.333  C686.244,365.323,694.751,373.83,694.751,384.323L694.751,384.323z"/>
	<line fill="none" stroke="#fff" stroke-width="2" stroke-linecap="round" stroke-miterlimit="10" x1="579.669" y1="365.323" x2="579.669" y2="314.657"/>
	<line fill="none" stroke="#fff" stroke-width="2" stroke-linecap="round" stroke-miterlimit="10" x1="619.669" y1="365.323" x2="619.669" y2="314.657"/>
	<circle fill="none" stroke="#fff" stroke-width="2" stroke-linecap="round" stroke-miterlimit="10" cx="635.667" cy="384.323" r="8.333"/>
	<circle fill="none" stroke="#fff" stroke-width="2" stroke-linecap="round" stroke-miterlimit="10" cx="665.667" cy="384.323" r="8.333"/>
	<circle fill="none" stroke="#fff" stroke-width="2" stroke-linecap="round" stroke-miterlimit="10" cx="605.667" cy="384.323" r="8.333"/>
	<path fill="none" stroke="#fff" stroke-width="2" stroke-linecap="round" stroke-miterlimit="10" d="M576.669,390.656  c0,1.104-0.896,2-2,2H527c-1.104,0-2-0.896-2-2V377.99c0-1.104,0.896-2,2-2h47.669c1.104,0,2,0.896,2,2V390.656z"/>
	<line fill="none" stroke="#fff" stroke-width="2" stroke-linecap="round" stroke-miterlimit="10" x1="533" y1="384.323" x2="569" y2="384.323"/>
	<path fill="none" stroke="#fff" stroke-width="2" stroke-linecap="round" stroke-miterlimit="10" d="M603.106,354.323  c0,1.104-0.896,2-2,2h-2.772c-1.104,0-2-0.896-2-2v-28c0-1.104,0.896-2,2-2h2.772c1.104,0,2,0.896,2,2V354.323z"/>
	<path fill="none" stroke="#fff" stroke-width="2" stroke-linecap="round" stroke-miterlimit="10" d="M135.289,97.334  C121.6,82.674,102.1,73.508,80.459,73.508c-41.422,0-75,33.578-75,75c0,41.422,33.578,75,75,75c21.733,0,41.309-9.246,55.006-24.018  "/>
	<path fill="none" stroke="#fff" stroke-width="2" stroke-linecap="round" stroke-miterlimit="10" d="M1065.459,199.491  c13.697,14.771,33.272,24.018,55.006,24.018c41.422,0,75-33.578,75-75c0-41.422-33.578-75-75-75  c-21.641,0-41.141,9.166-54.83,23.826"/>
	<path fill="none" stroke="#fff" stroke-width="2" stroke-linecap="round" stroke-miterlimit="10" d="M826,198.357h295.688  c27.531,0,49.85-22.318,49.85-49.849l0,0c0-27.531-22.318-49.85-49.85-49.85H828.333"/>
	<path fill="none" stroke="#fff" stroke-width="2" stroke-linecap="round" stroke-miterlimit="10" d="M371.667,98.658H80.312  c-27.531,0-49.85,22.318-49.85,49.85l0,0c0,27.531,22.318,49.849,49.85,49.849h291.355"/>
	<line fill="none" stroke="#fff" stroke-width="2" stroke-linecap="round" stroke-miterlimit="10" x1="30.462" y1="148.508" x2="371" y2="148.508"/>
	<line fill="none" stroke="#fff" stroke-width="2" stroke-linecap="round" stroke-miterlimit="10" x1="826.76" y1="148.508" x2="896" y2="148.508"/>
	<line fill="none" stroke="#fff" stroke-width="2" stroke-linecap="round" stroke-miterlimit="10" x1="1166.854" y1="127.391" x2="959" y2="127.391"/>
	<line fill="none" stroke="#fff" stroke-width="2" stroke-linecap="round" stroke-miterlimit="10" x1="1169.978" y1="136.084" x2="885" y2="136.084"/>
	<line fill="none" stroke="#fff" stroke-width="2" stroke-linecap="round" stroke-miterlimit="10" x1="30.462" y1="157.323" x2="177" y2="157.323"/>
	<line fill="none" stroke="#fff" stroke-width="2" stroke-linecap="round" stroke-miterlimit="10" x1="195.163" y1="157.323" x2="276" y2="157.323"/>
	<g >
		<path fill="none" stroke="#fff" stroke-width="2" stroke-linecap="round" stroke-miterlimit="10" d="M605.334,150.99  c0,6.779-37.9,5.965-40.345,11.861c-2.534,6.111,24.74,32.325,20.134,36.93c-4.605,4.605-30.817-22.67-36.929-20.136  c-5.895,2.445-5.081,40.345-11.86,40.345s-5.965-37.899-11.86-40.345c-6.111-2.534-32.325,24.74-36.93,20.135  s22.669-30.818,20.135-36.93c-2.445-5.895-40.345-5.081-40.345-11.86s37.9-5.965,40.345-11.861  c2.534-6.111-24.741-32.324-20.135-36.93s30.819,22.669,36.93,20.135c5.895-2.445,5.081-40.345,11.86-40.345  s5.966,37.9,11.861,40.345c6.111,2.534,32.324-24.74,36.93-20.134c4.605,4.605-22.67,30.818-20.136,36.929  C567.434,145.024,605.334,144.21,605.334,150.99z">
			<animateTransform
				attributeName="transform"
				begin="0s"
				dur="8s"
				type="rotate"
				from="0 536.334 150.99"
				to="360 536.334 150.99"
				repeatCount="indefinite"
			/>
		</path>
		<circle fill="none" stroke="#fff" stroke-width="2" stroke-linecap="round" stroke-miterlimit="10" cx="536.334" cy="150.99" r="20.068"/>
		
	</g>
	<g >
		<path fill="none" stroke="#fff" stroke-width="2" stroke-linecap="round" stroke-miterlimit="10" d="M725.334,180.99  c0,6.779-37.9,5.966-40.345,11.86c-2.534,6.111,24.74,32.325,20.134,36.931c-4.605,4.605-30.817-22.67-36.929-20.136  c-5.896,2.444-5.081,40.345-11.86,40.345s-5.965-37.9-11.86-40.345c-6.111-2.534-32.325,24.741-36.931,20.136  s22.67-30.819,20.136-36.931c-2.444-5.895-40.345-5.081-40.345-11.86s37.9-5.966,40.345-11.861  c2.534-6.111-24.741-32.324-20.136-36.93s30.819,22.669,36.931,20.135c5.896-2.445,5.081-40.345,11.86-40.345  s5.966,37.9,11.861,40.345c6.111,2.534,32.324-24.74,36.93-20.134c4.605,4.605-22.67,30.818-20.136,36.929  C687.434,175.024,725.334,174.21,725.334,180.99z">
			<animateTransform
				attributeName="transform"
				begin="0s"
				dur="8s"
				type="rotate"
				from="360 656.334 180.99"
				to="0 656.334 180.99"
				repeatCount="indefinite"
			/>
		</path>
		<circle fill="none" stroke="#fff" stroke-width="2" stroke-linecap="round" stroke-miterlimit="10" cx="656.334" cy="180.99" r="20.068"/>	
	</g>
</svg>