<?xml version="1.0" encoding="utf-8"?>
<!-- Generator: Adobe Illustrator 16.0.0, SVG Export Plug-In . SVG Version: 6.00 Build 0)  -->
<!DOCTYPE svg PUBLIC "-//W3C//DTD SVG 1.1//EN" "http://www.w3.org/Graphics/SVG/1.1/DTD/svg11.dtd">
<svg version="1.1" id="Layer_1" xmlns="http://www.w3.org/2000/svg" xmlns:xlink="http://www.w3.org/1999/xlink" x="0px" y="0px"
	 width="1424.928px" height="630px" viewBox="0 0 1424.928 630" style="background:#fff;" enable-background="new 0 0 1424.928 630" xml:space="preserve">

<!--Outer square -->	 
<path fill="none" stroke="#000" stroke-width="2" stroke-linecap="round" stroke-miterlimit="10" d="M176.994,90.334v128
	c0,2.761-2.238,5-5,5h-140c-2.761,0-5-2.239-5-5v-190c0-2.761,2.239-5,5-5h140c2.762,0,5,2.239,5,5V59.5"/>
<!--/Outer square -->

<!--Inner lines of square -->
<line fill="none" stroke="#000" stroke-width="2" stroke-linecap="round" stroke-miterlimit="10" x1="40.994" y1="50.333" x2="114.994" y2="50.333"/>
<line fill="none" stroke="#000" stroke-width="2" stroke-linecap="round" stroke-miterlimit="10" x1="40.994" y1="60.333" x2="114.994" y2="60.333"/>
<line fill="none" stroke="#000" stroke-width="2" stroke-linecap="round" stroke-miterlimit="10" x1="41.827" y1="80.333" x2="162.161" y2="80.333"/>
<line fill="none" stroke="#000" stroke-width="2" stroke-linecap="round" stroke-miterlimit="10" x1="41.827" y1="90.333" x2="162.161" y2="90.333"/>
<line fill="none" stroke="#000" stroke-width="2" stroke-linecap="round" stroke-miterlimit="10" x1="41.827" y1="100.333" x2="162.161" y2="100.333"/>
<line fill="none" stroke="#000" stroke-width="2" stroke-linecap="round" stroke-miterlimit="10" x1="41.827" y1="110.333" x2="162.161" y2="110.333"/>
<line fill="none" stroke="#000" stroke-width="2" stroke-linecap="round" stroke-miterlimit="10" x1="41.827" y1="120.333" x2="162.161" y2="120.333"/>
<line fill="none" stroke="#000" stroke-width="2" stroke-linecap="round" stroke-miterlimit="10" x1="41.827" y1="130.333" x2="162.161" y2="130.333"/>
<line fill="none" stroke="#000" stroke-width="2" stroke-linecap="round" stroke-miterlimit="10" x1="41.827" y1="140.333" x2="162.161" y2="140.333"/>
<line fill="none" stroke="#000" stroke-width="2" stroke-linecap="round" stroke-miterlimit="10" x1="41.827" y1="150.333" x2="162.161" y2="150.333"/>
<line fill="none" stroke="#000" stroke-width="2" stroke-linecap="round" stroke-miterlimit="10" x1="41.827" y1="160.333" x2="162.161" y2="160.333"/>
<line fill="none" stroke="#000" stroke-width="2" stroke-linecap="round" stroke-miterlimit="10" x1="46.161" y1="180.333" x2="109.827" y2="180.333"/>
<line fill="none" stroke="#000" stroke-width="2" stroke-linecap="round" stroke-miterlimit="10" x1="46.161" y1="190.333" x2="109.827" y2="190.333"/>
<!--/Inner lines of square -->

<!-- Connecting to circle -->
<line fill="none" stroke="#000" stroke-width="2" stroke-linecap="round" stroke-miterlimit="10" x1="176.994" y1="60.333" x2="304.874" y2="60.333"/>
<line fill="none" stroke="#000" stroke-width="2" stroke-linecap="round" stroke-miterlimit="10" x1="176.994" y1="90.333" x2="304.874" y2="90.333"/>
<!-- /Connecting to circle -->


<!-- Outer circle -->
<path fill="none" stroke="#000" stroke-width="2" stroke-linecap="round" stroke-miterlimit="10" d="M340.801,125.113
	c-17.026-4.73-30.526-17.933-35.673-34.78"/>
<path fill="none" stroke="#000" stroke-width="2" stroke-linecap="round" stroke-miterlimit="10" d="M305.028,60.332
	c6.38-21.398,26.208-36.999,49.679-36.999c28.626,0,51.833,23.207,51.833,51.833c0,23.867-16.13,43.965-38.085,49.99"/>
<!-- /Outer circle -->

<!--Inner Circle -->
<g>	
	<circle fill="none" stroke="#000" stroke-width="2" stroke-linecap="round" stroke-miterlimit="10" stroke-dasharray="4.0655,8.131" cx="354.707" cy="75.167" r="38.833"/>
</g>
<circle fill="none" stroke="#000" stroke-width="2" stroke-linecap="round" stroke-miterlimit="10" stroke-dasharray="4,8" cx="354.707" cy="75.167" r="24.5"/>
<circle fill="none" stroke="#000" stroke-width="2" stroke-linecap="round" stroke-miterlimit="10" cx="354.707" cy="75.167" r="12.5"/>
<!--/Inner Circle -->

<!-- Outer square second -->
<path fill="none" stroke="#000" stroke-width="2" stroke-linecap="round" stroke-miterlimit="10" d="M487.784,329.5V433
	c0,2.762-2.239,5-5,5h-254c-2.761,0-5-2.238-5-5V159.333c0-2.761,2.239-5,5-5h112.423"/>
<path fill="none" stroke="#000" stroke-width="2" stroke-linecap="round" stroke-miterlimit="10" d="M367.206,154.333h115.578
	c2.761,0,5,2.239,5,5v151"/>
<!-- /Outer square second -->

<!-- fame1 of buttons inside square -->
<path fill="none" stroke="#000" stroke-width="2" stroke-linecap="round" stroke-miterlimit="10" d="M340.45,280
	c0,2.762-2.239,5-5,5h-91.512c-2.761,0-5-2.238-5-5v-94.667c0-2.761,2.239-5,5-5h91.512c2.761,0,5,2.239,5,5V280z"/>
<!-- /fame1 of buttons inside square -->
	
<!-- Lines connecting from circle to square -->
<line fill="none" stroke="#000" stroke-width="2" stroke-linecap="round" stroke-miterlimit="10" x1="341.207" y1="154.333" x2="341.207" y2="125.006"/>
<line fill="none" stroke="#000" stroke-width="2" stroke-linecap="round" stroke-miterlimit="10" x1="367.206" y1="154.333" x2="367.206" y2="125.479"/>
<!-- /Lines connecting from circle to square -->

<!-- Lines connecting inner frames -->
<path fill="none" stroke="#000" stroke-width="2" stroke-linecap="round" stroke-miterlimit="10" d="M305.117,360.834h-26
	c-2.761,0-5-2.239-5-5v-70"/>
<path fill="none" stroke="#000" stroke-width="2" stroke-linecap="round" stroke-miterlimit="10" d="M408.117,360.834h26
	c2.761,0,5-2.239,5-5v-70"/>
<!-- /Lines connecting inner frames -->

<!-- Lines connecting from square to phone -->
<path fill="none" stroke="#000" stroke-width="2" stroke-linecap="round" stroke-miterlimit="10" d="M488.117,310.834h16
	c2.761,0,5-2.239,5-5v-190"/>
<path fill="none" stroke="#000" stroke-width="2" stroke-linecap="round" stroke-miterlimit="10" d="M488.117,329.834h36
	c2.761,0,5-2.239,5-5v-180"/>
<path fill="none" stroke="#000" stroke-width="2" stroke-linecap="round" stroke-miterlimit="10" d="M509.117,147.833v-36
	c0-2.761,2.239-5,5-5h36"/>
<path fill="none" stroke="#000" stroke-width="2" stroke-linecap="round" stroke-miterlimit="10" d="M529.117,167.833v-36
	c0-2.761,2.239-5,5-5h16"/>
<!-- /Lines connecting from square to phone -->



<!-- Phone -->
<!-- Phone receiver -->
<path fill="#000" d="M598.336,131.492c0,7.008-5.682,12.688-12.688,12.688l0,0c-7.007,0-12.688-5.681-12.688-12.688v-76.13
	c0-7.008,5.682-12.688,12.688-12.688l0,0c7.006,0,12.688,5.681,12.688,12.688V131.492z"/>
<!--/Phone receiver -->

<!-- Phone frame -->
<path fill="none" stroke="#000" stroke-width="2" stroke-linecap="round" stroke-miterlimit="10" d="M550.117,127.334v42.379
	c0,3.996,3.239,7.236,7.236,7.236h136.994c3.995,0,7.234-3.24,7.234-7.236V58.286c0-3.996-3.239-7.236-7.234-7.236h-87.732v82.666
	c0,11.49-9.314,20.802-20.803,20.802c-11.487,0-20.802-9.313-20.802-20.802V51.05h-7.657c-3.998,0-7.236,3.24-7.236,7.236v48.048"/>
<!-- /Phone frame -->

<!-- Phone Buttons -->
<path fill="none" stroke="#000" stroke-width="2" stroke-linecap="round" stroke-miterlimit="10" d="M631.433,82.247
	c0,1.599-1.296,2.894-2.895,2.894h-8.441c-1.599,0-2.894-1.295-2.894-2.894v-8.442c0-1.598,1.295-2.895,2.894-2.895h8.441
	c1.599,0,2.895,1.297,2.895,2.895V82.247z"/>
<path fill="none" stroke="#000" stroke-width="2" stroke-linecap="round" stroke-miterlimit="10" d="M660.375,82.247
	c0,1.599-1.296,2.894-2.895,2.894h-8.443c-1.596,0-2.892-1.295-2.892-2.894v-8.442c0-1.598,1.296-2.895,2.892-2.895h8.443
	c1.599,0,2.895,1.297,2.895,2.895V82.247z"/>
<path fill="none" stroke="#000" stroke-width="2" stroke-linecap="round" stroke-miterlimit="10" d="M689.318,82.247
	c0,1.599-1.296,2.894-2.895,2.894h-8.443c-1.597,0-2.892-1.295-2.892-2.894v-8.442c0-1.598,1.295-2.895,2.892-2.895h8.443
	c1.599,0,2.895,1.297,2.895,2.895V82.247z"/>
<path fill="none" stroke="#000" stroke-width="2" stroke-linecap="round" stroke-miterlimit="10" d="M631.433,111.189
	c0,1.599-1.296,2.894-2.895,2.894h-8.441c-1.599,0-2.894-1.295-2.894-2.894v-8.442c0-1.598,1.295-2.895,2.894-2.895h8.441
	c1.599,0,2.895,1.297,2.895,2.895V111.189z"/>
<path fill="none" stroke="#000" stroke-width="2" stroke-linecap="round" stroke-miterlimit="10" d="M660.375,111.189
	c0,1.599-1.296,2.894-2.895,2.894h-8.443c-1.596,0-2.892-1.295-2.892-2.894v-8.442c0-1.598,1.296-2.895,2.892-2.895h8.443
	c1.599,0,2.895,1.297,2.895,2.895V111.189z"/>
<path fill="none" stroke="#000" stroke-width="2" stroke-linecap="round" stroke-miterlimit="10" d="M689.318,111.189
	c0,1.599-1.296,2.894-2.895,2.894h-8.443c-1.597,0-2.892-1.295-2.892-2.894v-8.442c0-1.598,1.295-2.895,2.892-2.895h8.443
	c1.599,0,2.895,1.297,2.895,2.895V111.189z"/>
<path fill="none" stroke="#000" stroke-width="2" stroke-linecap="round" stroke-miterlimit="10" d="M631.433,140.131
	c0,1.598-1.296,2.894-2.895,2.894h-8.441c-1.599,0-2.894-1.296-2.894-2.894v-8.442c0-1.599,1.295-2.894,2.894-2.894h8.441
	c1.599,0,2.895,1.295,2.895,2.894V140.131z"/>
<path fill="none" stroke="#000" stroke-width="2" stroke-linecap="round" stroke-miterlimit="10" d="M660.375,140.131
	c0,1.598-1.296,2.894-2.895,2.894h-8.443c-1.596,0-2.892-1.296-2.892-2.894v-8.442c0-1.599,1.296-2.894,2.892-2.894h8.443
	c1.599,0,2.895,1.295,2.895,2.894V140.131z"/>
<path fill="none" stroke="#000" stroke-width="2" stroke-linecap="round" stroke-miterlimit="10" d="M689.318,140.131
	c0,1.598-1.296,2.894-2.895,2.894h-8.443c-1.597,0-2.892-1.296-2.892-2.894v-8.442c0-1.599,1.295-2.894,2.892-2.894h8.443
	c1.599,0,2.895,1.295,2.895,2.894V140.131z"/>
<!-- /Phone Buttons -->


<!-- Rejected conveyor belt -->
<path fill="none" stroke="#000" stroke-width="2" id="rcb" stroke-linecap="round" stroke-miterlimit="10" stroke-dasharray="8,8" d="M821.117,240.833h-217c-2.761,0-5-2.239-5-5v-58"/>
<!-- /Rejected conveyor belt -->

<!-- Rejected person1 -->
<g>
	<circle fill="none" stroke="#000" stroke-width="2" stroke-linecap="round" stroke-miterlimit="10" cx="664.874" cy="325.404" r="12.436"/>
	<path fill="none" stroke="#000" stroke-width="2" stroke-linecap="round" stroke-miterlimit="10" d="M694.647,367.84
		c0-16.443-13.33-29.773-29.773-29.773S635.1,351.396,635.1,367.84H694.647z"/>
	<path fill="none" stroke="#000" stroke-width="2" stroke-linecap="round" stroke-miterlimit="10" d="M707.929,375.84
		c0,1.104-0.896,2-2,2h-82.111c-1.104,0-2-0.896-2-2v-73.502c0-1.104,0.896-2,2-2h82.111c1.104,0,2,0.896,2,2V375.84z"/>
	<line fill="none" stroke="#000" stroke-width="2" stroke-linecap="round" stroke-miterlimit="10" x1="664.874" y1="291.5" x2="664.874" y2="251.5"/>
	<path fill="none" stroke="#000" stroke-width="2" stroke-linecap="round" stroke-miterlimit="10" d="M684.874,240.833
		L684.874,240.833c0,5.522-4.478,10-10,10h-20c-5.522,0-10-4.478-10-10l0,0"/>
	<path fill="none" stroke="#000" stroke-width="2" stroke-linecap="round" stroke-miterlimit="10" d="M681.542,300L681.542,300
		c0-4.604-3.731-8.334-8.334-8.334H656.54c-4.603,0-8.334,3.73-8.334,8.334l0,0"/>
	<animateMotion path="M821.117,240.833h-217c-2.761,0-5-2.239-5-5v-58"
		begin= "0s" dur="2s" repeatCount="indefinite"  fill="freeze" keyPoints="0;1" keyTimes="0;1" />
</g>
<!-- /Rejected Person1 -->

<!-- Rejected person2 -->
<circle fill="none" stroke="#000" stroke-width="2" stroke-linecap="round" stroke-miterlimit="10" cx="784.874" cy="325.404" r="12.436"/>
<path fill="none" stroke="#000" stroke-width="2" stroke-linecap="round" stroke-miterlimit="10" d="M814.647,367.84
	c0-16.443-13.33-29.773-29.773-29.773S755.1,351.396,755.1,367.84H814.647z"/>
<path fill="none" stroke="#000" stroke-width="2" stroke-linecap="round" stroke-miterlimit="10" d="M827.929,375.84
	c0,1.104-0.896,2-2,2h-82.111c-1.104,0-2-0.896-2-2v-73.502c0-1.104,0.896-2,2-2h82.111c1.104,0,2,0.896,2,2V375.84z"/>
<line fill="none" stroke="#000" stroke-width="2" stroke-linecap="round" stroke-miterlimit="10" x1="784.874" y1="291.5" x2="784.874" y2="251.5"/>
<path fill="none" stroke="#000" stroke-width="2" stroke-linecap="round" stroke-miterlimit="10" d="M804.874,240.833
	L804.874,240.833c0,5.522-4.478,10-10,10h-20c-5.522,0-10-4.478-10-10l0,0"/>
<path fill="none" stroke="#000" stroke-width="2" stroke-linecap="round" stroke-miterlimit="10" d="M801.542,300L801.542,300
	c0-4.604-3.731-8.334-8.334-8.334H776.54c-4.603,0-8.334,3.73-8.334,8.334l0,0"/>
<!-- /Rejected Person2 -->

<!-- Lead 1 -->
<g>
<circle fill="#000" cx="774.874" cy="147.404" r="12.436"/>
<path fill="none" stroke="#000" stroke-width="2" stroke-linecap="round" stroke-miterlimit="10" d="M804.647,189.84
	c0-16.443-13.33-29.773-29.773-29.773S745.1,173.396,745.1,189.84H804.647z"/>
<path fill="none" stroke="#000" stroke-width="2" stroke-linecap="round" stroke-miterlimit="10" d="M817.929,197.84
	c0,1.104-0.896,2-2,2h-82.111c-1.104,0-2-0.896-2-2v-73.502c0-1.104,0.896-2,2-2h82.111c1.104,0,2,0.896,2,2V197.84z"/>
<line fill="none" stroke="#000" stroke-width="2" stroke-linecap="round" stroke-miterlimit="10" x1="774.874" y1="113.5" x2="774.874" y2="73.5"/>
<path fill="none" stroke="#000" stroke-width="2" stroke-linecap="round" stroke-miterlimit="10" d="M794.874,62.833
	L794.874,62.833c0,5.523-4.478,10-10,10h-20c-5.522,0-10-4.477-10-10l0,0"/>
<path fill="none" stroke="#000" stroke-width="2" stroke-linecap="round" stroke-miterlimit="10" d="M791.542,122L791.542,122
	c0-4.603-3.731-8.334-8.334-8.334H766.54c-4.603,0-8.334,3.731-8.334,8.334l0,0"/>
	<animateMotion path="M821.117,240.833h-217c-2.761,0-5-2.239-5-5v-58"
			begin= "0s" dur="2s" repeatCount="indefinite"  fill="freeze" keyPoints="0;1" keyTimes="0;1" />
</g>
<!-- /Lead 1 -->
	
<!--/ Lead2 -->
<circle fill="#000" cx="894.874" cy="147.404" r="12.436"/>
<path fill="none" stroke="#000" stroke-width="2" stroke-linecap="round" stroke-miterlimit="10" d="M924.647,189.84
	c0-16.443-13.33-29.773-29.773-29.773S865.1,173.396,865.1,189.84H924.647z"/>
<path fill="none" stroke="#000" stroke-width="2" stroke-linecap="round" stroke-miterlimit="10" d="M937.929,197.84
	c0,1.104-0.896,2-2,2h-82.111c-1.104,0-2-0.896-2-2v-73.502c0-1.104,0.896-2,2-2h82.111c1.104,0,2,0.896,2,2V197.84z"/>
<line fill="none" stroke="#000" stroke-width="2" stroke-linecap="round" stroke-miterlimit="10" x1="894.874" y1="113.5" x2="894.874" y2="73.5"/>
<path fill="none" stroke="#000" stroke-width="2" stroke-linecap="round" stroke-miterlimit="10" d="M914.874,62.833
	L914.874,62.833c0,5.523-4.478,10-10,10h-20c-5.522,0-10-4.477-10-10l0,0"/>
<path fill="none" stroke="#000" stroke-width="2" stroke-linecap="round" stroke-miterlimit="10" d="M911.542,122L911.542,122
	c0-4.603-3.731-8.334-8.334-8.334H886.54c-4.603,0-8.334,3.731-8.334,8.334l0,0"/>

<!--/ Lead2-->

<!-- Lead3 -->
<circle fill="#000" cx="1014.874" cy="147.404" r="12.436"/>
<path fill="none" stroke="#000" stroke-width="2" stroke-linecap="round" stroke-miterlimit="10" d="M1044.647,189.84
	c0-16.443-13.33-29.773-29.773-29.773S985.1,173.396,985.1,189.84H1044.647z"/>
<path fill="none" stroke="#000" stroke-width="2" stroke-linecap="round" stroke-miterlimit="10" d="M1057.929,197.84
	c0,1.104-0.896,2-2,2h-82.111c-1.104,0-2-0.896-2-2v-73.502c0-1.104,0.896-2,2-2h82.111c1.104,0,2,0.896,2,2V197.84z"/>
<line fill="none" stroke="#000" stroke-width="2" stroke-linecap="round" stroke-miterlimit="10" x1="1014.874" y1="113.5" x2="1014.874" y2="73.5"/>
<path fill="none" stroke="#000" stroke-width="2" stroke-linecap="round" stroke-miterlimit="10" d="M1034.874,62.833
	L1034.874,62.833c0,5.523-4.478,10-10,10h-20c-5.522,0-10-4.477-10-10l0,0"/>
<path fill="none" stroke="#000" stroke-width="2" stroke-linecap="round" stroke-miterlimit="10" d="M1031.542,122L1031.542,122
	c0-4.603-3.731-8.334-8.334-8.334h-16.668c-4.603,0-8.334,3.731-8.334,8.334l0,0"/>
<!-- /Lead3 -->

<!-- Lead4 -->
<circle fill="#000" cx="1134.874" cy="147.404" r="12.436"/>
<path fill="none" stroke="#000" stroke-width="2" stroke-linecap="round" stroke-miterlimit="10" d="M1164.647,189.84
	c0-16.443-13.33-29.773-29.773-29.773s-29.773,13.33-29.773,29.773H1164.647z"/>
<path fill="none" stroke="#000" stroke-width="2" stroke-linecap="round" stroke-miterlimit="10" d="M1177.929,197.84
	c0,1.104-0.896,2-2,2h-82.111c-1.104,0-2-0.896-2-2v-73.502c0-1.104,0.896-2,2-2h82.111c1.104,0,2,0.896,2,2V197.84z"/>
<line fill="none" stroke="#000" stroke-width="2" stroke-linecap="round" stroke-miterlimit="10" x1="1134.874" y1="113.5" x2="1134.874" y2="73.5"/>
<path fill="none" stroke="#000" stroke-width="2" stroke-linecap="round" stroke-miterlimit="10" d="M1154.874,62.833
	L1154.874,62.833c0,5.523-4.478,10-10,10h-20c-5.522,0-10-4.477-10-10l0,0"/>
<path fill="none" stroke="#000" stroke-width="2" stroke-linecap="round" stroke-miterlimit="10" d="M1151.542,122L1151.542,122
	c0-4.603-3.731-8.334-8.334-8.334h-16.668c-4.603,0-8.334,3.731-8.334,8.334l0,0"/>
<!-- Lead4-->


<!-- Rejeceted Arcs -->
<path fill="none" stroke="#000" stroke-width="2" stroke-linecap="round" stroke-miterlimit="10" d="M868.874,428.65
	c0,3.69-36.936,6.683-82.5,6.683s-82.5-2.992-82.5-6.683"/>
<path fill="none" stroke="#000" stroke-width="2" stroke-linecap="round" stroke-miterlimit="10" d="M868.874,428.333
	c0-3.69-36.936-6.683-82.5-6.683s-82.5,2.992-82.5,6.683"/>
<!-- Rejected Arcs -->

<!-- Rejected Conveyor Endline -->
<line fill="none" stroke="#000" stroke-width="2" stroke-linecap="round" stroke-miterlimit="10" x1="821.117" y1="234.833" x2="821.117" y2="247.334"/>

<!--/Rejected Conveyor Endline -->


<!-- Accepted conveyor belt -->
<line fill="none" stroke="#000" stroke-width="2" stroke-linecap="round" stroke-miterlimit="10" stroke-dasharray="8,8" x1="701.582" y1="62.667" x2="1339.874" y2="62.667"/>
<!-- /Accepted conveyor belt -->

<!-- Accepted Arcs -->
<path fill="none" stroke="#000" stroke-width="2" stroke-linecap="round" stroke-miterlimit="10" d="M1231.354,110.987
	c3.416,0,6.187,22.431,6.187,50.102s-2.771,50.102-6.187,50.102"/>
<path fill="none" stroke="#000" stroke-width="2" stroke-linecap="round" stroke-miterlimit="10" d="M1230.542,110.987
	c-3.416,0-6.187,22.431-6.187,50.102s2.771,50.102,6.187,50.102"/>
<!--/ Accepted Arcs -->


<!-- Accepted Pipe -->
<g style="position:absolute; z-index: 9999;">
<path fill="none" stroke="#000" stroke-width="2" stroke-linecap="round" stroke-miterlimit="10" d="M1230.167,110.987H1377.5
	c5.522,0,10,4.477,10,10v246.134"/>
<path fill="none" stroke="#000" stroke-width="2" stroke-linecap="round" stroke-miterlimit="10" d="M1231.167,210.987h47.334
	c5.522,0,10,4.477,10,10v146.134"/>

<line fill="none" stroke="#000" stroke-width="2" stroke-linecap="round" stroke-miterlimit="10" x1="1339.874" y1="62.667" x2="1339.874" y2="110.987"/>
<path fill="none" stroke="#000" stroke-width="2" stroke-linecap="round" stroke-miterlimit="10" d="M1387.5,365.34v5.16
	c0,27.338-22.162,49.5-49.5,49.5l0,0c-27.338,0-49.5-22.162-49.5-49.5v-5.16"/>
<path fill="none" stroke="#000" stroke-width="2" stroke-linecap="round" stroke-miterlimit="10" d="M1389.057,340.364
	c7.716,10.493,12.273,23.452,12.273,37.476c0,34.977-28.354,63.33-63.33,63.33s-63.33-28.354-63.33-63.33
	c0-14.941,5.174-28.674,13.828-39.504"/>
	</g>
<!-- /Accepted Pipe -->



<!-- Frame1 squares -->	
<rect x="299.117" y="193.333" fill="none" stroke="#000" stroke-width="2" stroke-linecap="round" stroke-miterlimit="10" width="20" height="10"/>
<rect x="319.117" y="193.333" fill="none" stroke="#000" stroke-width="2" stroke-linecap="round" stroke-miterlimit="10" width="20" height="10"/>
<rect x="259.117" y="193.333" fill="none" stroke="#000" stroke-width="2" stroke-linecap="round" stroke-miterlimit="10" width="20" height="10"/>
<rect x="239.117" y="193.333" fill="none" stroke="#000" stroke-width="2" stroke-linecap="round" stroke-miterlimit="10" width="20" height="10"/>
<rect x="279.117" y="193.333" fill="none" stroke="#000" stroke-width="2" stroke-linecap="round" stroke-miterlimit="10" width="20" height="10"/>
<rect x="299.117" y="203.333" fill="none" stroke="#000" stroke-width="2" stroke-linecap="round" stroke-miterlimit="10" width="20" height="10"/>
<rect x="319.117" y="203.333" fill="none" stroke="#000" stroke-width="2" stroke-linecap="round" stroke-miterlimit="10" width="20" height="10"/>
<rect x="259.117" y="203.333" fill="none" stroke="#000" stroke-width="2" stroke-linecap="round" stroke-miterlimit="10" width="20" height="10"/>
<rect x="239.117" y="203.333" fill="none" stroke="#000" stroke-width="2" stroke-linecap="round" stroke-miterlimit="10" width="20" height="10"/>
<rect x="279.117" y="203.333" fill="none" stroke="#000" stroke-width="2" stroke-linecap="round" stroke-miterlimit="10" width="20" height="10"/>
<rect x="299.117" y="213.333" fill="none" stroke="#000" stroke-width="2" stroke-linecap="round" stroke-miterlimit="10" width="20" height="10"/>
<rect x="319.117" y="213.333" fill="none" stroke="#000" stroke-width="2" stroke-linecap="round" stroke-miterlimit="10" width="20" height="10"/>
<rect x="259.117" y="213.333" fill="none" stroke="#000" stroke-width="2" stroke-linecap="round" stroke-miterlimit="10" width="20" height="10"/>
<rect x="239.117" y="213.333" fill="none" stroke="#000" stroke-width="2" stroke-linecap="round" stroke-miterlimit="10" width="20" height="10"/>
<rect x="279.117" y="213.333" fill="none" stroke="#000" stroke-width="2" stroke-linecap="round" stroke-miterlimit="10" width="20" height="10"/>
<rect x="299.117" y="223.333" fill="none" stroke="#000" stroke-width="2" stroke-linecap="round" stroke-miterlimit="10" width="20" height="10"/>
<rect x="319.117" y="223.333" fill="none" stroke="#000" stroke-width="2" stroke-linecap="round" stroke-miterlimit="10" width="20" height="10"/>
<rect x="259.117" y="223.333" fill="none" stroke="#000" stroke-width="2" stroke-linecap="round" stroke-miterlimit="10" width="20" height="10"/>
<rect x="239.117" y="223.333" fill="none" stroke="#000" stroke-width="2" stroke-linecap="round" stroke-miterlimit="10" width="20" height="10"/>
<rect x="279.117" y="223.333" fill="none" stroke="#000" stroke-width="2" stroke-linecap="round" stroke-miterlimit="10" width="20" height="10"/>
<rect x="299.117" y="233.333" fill="none" stroke="#000" stroke-width="2" stroke-linecap="round" stroke-miterlimit="10" width="20" height="10"/>
<rect x="319.117" y="233.333" fill="none" stroke="#000" stroke-width="2" stroke-linecap="round" stroke-miterlimit="10" width="20" height="10"/>
<rect x="259.117" y="233.333" fill="none" stroke="#000" stroke-width="2" stroke-linecap="round" stroke-miterlimit="10" width="20" height="10"/>
<rect x="239.117" y="233.333" fill="none" stroke="#000" stroke-width="2" stroke-linecap="round" stroke-miterlimit="10" width="20" height="10"/>
<rect x="279.117" y="233.333" fill="none" stroke="#000" stroke-width="2" stroke-linecap="round" stroke-miterlimit="10" width="20" height="10"/>
<rect x="299.117" y="243.333" fill="none" stroke="#000" stroke-width="2" stroke-linecap="round" stroke-miterlimit="10" width="20" height="10"/>
<rect x="319.117" y="243.333" fill="none" stroke="#000" stroke-width="2" stroke-linecap="round" stroke-miterlimit="10" width="20" height="10"/>
<rect x="259.117" y="243.333" fill="none" stroke="#000" stroke-width="2" stroke-linecap="round" stroke-miterlimit="10" width="20" height="10"/>
<rect x="239.117" y="243.333" fill="none" stroke="#000" stroke-width="2" stroke-linecap="round" stroke-miterlimit="10" width="20" height="10"/>
<rect x="279.117" y="243.333" fill="none" stroke="#000" stroke-width="2" stroke-linecap="round" stroke-miterlimit="10" width="20" height="10"/>
<rect x="299.117" y="253.333" fill="none" stroke="#000" stroke-width="2" stroke-linecap="round" stroke-miterlimit="10" width="20" height="10"/>
<rect x="319.117" y="253.333" fill="none" stroke="#000" stroke-width="2" stroke-linecap="round" stroke-miterlimit="10" width="20" height="10"/>
<rect x="259.117" y="253.333" fill="none" stroke="#000" stroke-width="2" stroke-linecap="round" stroke-miterlimit="10" width="20" height="10"/>
<rect x="239.117" y="253.333" fill="none" stroke="#000" stroke-width="2" stroke-linecap="round" stroke-miterlimit="10" width="20" height="10"/>
<rect x="279.117" y="253.333" fill="none" stroke="#000" stroke-width="2" stroke-linecap="round" stroke-miterlimit="10" width="20" height="10"/>
<rect x="299.117" y="263.333" fill="none" stroke="#000" stroke-width="2" stroke-linecap="round" stroke-miterlimit="10" width="20" height="10"/>
<rect x="319.117" y="263.333" fill="none" stroke="#000" stroke-width="2" stroke-linecap="round" stroke-miterlimit="10" width="20" height="10"/>
<rect x="259.117" y="263.333" fill="none" stroke="#000" stroke-width="2" stroke-linecap="round" stroke-miterlimit="10" width="20" height="10"/>
<rect x="239.117" y="263.333" fill="none" stroke="#000" stroke-width="2" stroke-linecap="round" stroke-miterlimit="10" width="20" height="10"/>
<rect x="279.117" y="263.333" fill="none" stroke="#000" stroke-width="2" stroke-linecap="round" stroke-miterlimit="10" width="20" height="10"/>
<!-- /Frame1 squares -->

<!-- Frame2 -->
<path fill="none" stroke="#000" stroke-width="2" stroke-linecap="round" stroke-miterlimit="10" d="M406.45,415
	c0,2.762-2.239,5-5,5h-91.512c-2.761,0-5-2.238-5-5v-94.666c0-2.762,2.239-5,5-5h91.512c2.761,0,5,2.239,5,5V415z"/>
<!-- /Frame2 -->	

<!-- Frame2 Squares -->
<rect x="365.117" y="328.334" fill="none" stroke="#000" stroke-width="2" stroke-linecap="round" stroke-miterlimit="10" width="20" height="10"/>
<rect x="385.117" y="328.334" fill="none" stroke="#000" stroke-width="2" stroke-linecap="round" stroke-miterlimit="10" width="20" height="10"/>
<rect x="325.117" y="328.334" fill="none" stroke="#000" stroke-width="2" stroke-linecap="round" stroke-miterlimit="10" width="20" height="10"/>
<rect x="305.117" y="328.334" fill="none" stroke="#000" stroke-width="2" stroke-linecap="round" stroke-miterlimit="10" width="20" height="10"/>
<rect x="345.117" y="328.334" fill="none" stroke="#000" stroke-width="2" stroke-linecap="round" stroke-miterlimit="10" width="20" height="10"/>
<rect x="365.117" y="338.334" fill="none" stroke="#000" stroke-width="2" stroke-linecap="round" stroke-miterlimit="10" width="20" height="10"/>
<rect x="385.117" y="338.334" fill="none" stroke="#000" stroke-width="2" stroke-linecap="round" stroke-miterlimit="10" width="20" height="10"/>
<rect x="325.117" y="338.334" fill="none" stroke="#000" stroke-width="2" stroke-linecap="round" stroke-miterlimit="10" width="20" height="10"/>
<rect x="305.117" y="338.334" fill="none" stroke="#000" stroke-width="2" stroke-linecap="round" stroke-miterlimit="10" width="20" height="10"/>
<rect x="345.117" y="338.334" fill="none" stroke="#000" stroke-width="2" stroke-linecap="round" stroke-miterlimit="10" width="20" height="10"/>
<rect x="365.117" y="348.334" fill="none" stroke="#000" stroke-width="2" stroke-linecap="round" stroke-miterlimit="10" width="20" height="10"/>
<rect x="385.117" y="348.334" fill="none" stroke="#000" stroke-width="2" stroke-linecap="round" stroke-miterlimit="10" width="20" height="10"/>
<rect x="325.117" y="348.334" fill="none" stroke="#000" stroke-width="2" stroke-linecap="round" stroke-miterlimit="10" width="20" height="10"/>
<rect x="305.117" y="348.334" fill="none" stroke="#000" stroke-width="2" stroke-linecap="round" stroke-miterlimit="10" width="20" height="10"/>
<rect x="345.117" y="348.334" fill="none" stroke="#000" stroke-width="2" stroke-linecap="round" stroke-miterlimit="10" width="20" height="10"/>
<rect x="365.117" y="358.334" fill="none" stroke="#000" stroke-width="2" stroke-linecap="round" stroke-miterlimit="10" width="20" height="10"/>
<rect x="385.117" y="358.334" fill="none" stroke="#000" stroke-width="2" stroke-linecap="round" stroke-miterlimit="10" width="20" height="10"/>
<rect x="325.117" y="358.334" fill="none" stroke="#000" stroke-width="2" stroke-linecap="round" stroke-miterlimit="10" width="20" height="10"/>
<rect x="305.117" y="358.334" fill="none" stroke="#000" stroke-width="2" stroke-linecap="round" stroke-miterlimit="10" width="20" height="10"/>
<rect x="345.117" y="358.334" fill="none" stroke="#000" stroke-width="2" stroke-linecap="round" stroke-miterlimit="10" width="20" height="10"/>
<rect x="365.117" y="368.334" fill="none" stroke="#000" stroke-width="2" stroke-linecap="round" stroke-miterlimit="10" width="20" height="10"/>
<rect x="385.117" y="368.334" fill="none" stroke="#000" stroke-width="2" stroke-linecap="round" stroke-miterlimit="10" width="20" height="10"/>
<rect x="325.117" y="368.334" fill="none" stroke="#000" stroke-width="2" stroke-linecap="round" stroke-miterlimit="10" width="20" height="10"/>
<rect x="305.117" y="368.334" fill="none" stroke="#000" stroke-width="2" stroke-linecap="round" stroke-miterlimit="10" width="20" height="10"/>
<rect x="345.117" y="368.334" fill="none" stroke="#000" stroke-width="2" stroke-linecap="round" stroke-miterlimit="10" width="20" height="10"/>
<rect x="365.117" y="378.334" fill="none" stroke="#000" stroke-width="2" stroke-linecap="round" stroke-miterlimit="10" width="20" height="10"/>
<rect x="385.117" y="378.334" fill="none" stroke="#000" stroke-width="2" stroke-linecap="round" stroke-miterlimit="10" width="20" height="10"/>
<rect x="325.117" y="378.334" fill="none" stroke="#000" stroke-width="2" stroke-linecap="round" stroke-miterlimit="10" width="20" height="10"/>
<rect x="305.117" y="378.334" fill="none" stroke="#000" stroke-width="2" stroke-linecap="round" stroke-miterlimit="10" width="20" height="10"/>
<rect x="345.117" y="378.334" fill="none" stroke="#000" stroke-width="2" stroke-linecap="round" stroke-miterlimit="10" width="20" height="10"/>
<rect x="365.117" y="388.334" fill="none" stroke="#000" stroke-width="2" stroke-linecap="round" stroke-miterlimit="10" width="20" height="10"/>
<rect x="385.117" y="388.334" fill="none" stroke="#000" stroke-width="2" stroke-linecap="round" stroke-miterlimit="10" width="20" height="10"/>
<rect x="325.117" y="388.334" fill="none" stroke="#000" stroke-width="2" stroke-linecap="round" stroke-miterlimit="10" width="20" height="10"/>
<rect x="305.117" y="388.334" fill="none" stroke="#000" stroke-width="2" stroke-linecap="round" stroke-miterlimit="10" width="20" height="10"/>
<rect x="345.117" y="388.334" fill="none" stroke="#000" stroke-width="2" stroke-linecap="round" stroke-miterlimit="10" width="20" height="10"/>
<rect x="365.117" y="398.334" fill="none" stroke="#000" stroke-width="2" stroke-linecap="round" stroke-miterlimit="10" width="20" height="10"/>
<rect x="385.117" y="398.334" fill="none" stroke="#000" stroke-width="2" stroke-linecap="round" stroke-miterlimit="10" width="20" height="10"/>
<rect x="325.117" y="398.334" fill="none" stroke="#000" stroke-width="2" stroke-linecap="round" stroke-miterlimit="10" width="20" height="10"/>
<rect x="305.117" y="398.334" fill="none" stroke="#000" stroke-width="2" stroke-linecap="round" stroke-miterlimit="10" width="20" height="10"/>
<rect x="345.117" y="398.334" fill="none" stroke="#000" stroke-width="2" stroke-linecap="round" stroke-miterlimit="10" width="20" height="10"/>
<!--/ Frames 2 squares -->

<!-- Frame3 -->
<path fill="none" stroke="#000" stroke-width="2" stroke-linecap="round" stroke-miterlimit="10" d="M470.45,280
	c0,2.762-2.239,5-5,5h-91.512c-2.761,0-5-2.238-5-5v-94.667c0-2.761,2.239-5,5-5h91.512c2.761,0,5,2.239,5,5V280z"/>
<!--/ Frame3 -->

<!-- Frame 3 squares -->
<rect x="429.117" y="193.333" fill="none" stroke="#000" stroke-width="2" stroke-linecap="round" stroke-miterlimit="10" width="20" height="10"/>
<rect x="449.117" y="193.333" fill="none" stroke="#000" stroke-width="2" stroke-linecap="round" stroke-miterlimit="10" width="20" height="10"/>
<rect x="389.117" y="193.333" fill="none" stroke="#000" stroke-width="2" stroke-linecap="round" stroke-miterlimit="10" width="20" height="10"/>
<rect x="369.117" y="193.333" fill="none" stroke="#000" stroke-width="2" stroke-linecap="round" stroke-miterlimit="10" width="20" height="10"/>
<rect x="409.117" y="193.333" fill="none" stroke="#000" stroke-width="2" stroke-linecap="round" stroke-miterlimit="10" width="20" height="10"/>
<rect x="429.117" y="203.333" fill="none" stroke="#000" stroke-width="2" stroke-linecap="round" stroke-miterlimit="10" width="20" height="10"/>
<rect x="449.117" y="203.333" fill="none" stroke="#000" stroke-width="2" stroke-linecap="round" stroke-miterlimit="10" width="20" height="10"/>
<rect x="389.117" y="203.333" fill="none" stroke="#000" stroke-width="2" stroke-linecap="round" stroke-miterlimit="10" width="20" height="10"/>
<rect x="369.117" y="203.333" fill="none" stroke="#000" stroke-width="2" stroke-linecap="round" stroke-miterlimit="10" width="20" height="10"/>
<rect x="409.117" y="203.333" fill="none" stroke="#000" stroke-width="2" stroke-linecap="round" stroke-miterlimit="10" width="20" height="10"/>
<rect x="429.117" y="213.333" fill="none" stroke="#000" stroke-width="2" stroke-linecap="round" stroke-miterlimit="10" width="20" height="10"/>
<rect x="449.117" y="213.333" fill="none" stroke="#000" stroke-width="2" stroke-linecap="round" stroke-miterlimit="10" width="20" height="10"/>
<rect x="389.117" y="213.333" fill="none" stroke="#000" stroke-width="2" stroke-linecap="round" stroke-miterlimit="10" width="20" height="10"/>
<rect x="369.117" y="213.333" fill="none" stroke="#000" stroke-width="2" stroke-linecap="round" stroke-miterlimit="10" width="20" height="10"/>
<rect x="409.117" y="213.333" fill="none" stroke="#000" stroke-width="2" stroke-linecap="round" stroke-miterlimit="10" width="20" height="10"/>
<rect x="429.117" y="223.333" fill="none" stroke="#000" stroke-width="2" stroke-linecap="round" stroke-miterlimit="10" width="20" height="10"/>
<rect x="449.117" y="223.333" fill="none" stroke="#000" stroke-width="2" stroke-linecap="round" stroke-miterlimit="10" width="20" height="10"/>
<rect x="389.117" y="223.333" fill="none" stroke="#000" stroke-width="2" stroke-linecap="round" stroke-miterlimit="10" width="20" height="10"/>
<rect x="369.117" y="223.333" fill="none" stroke="#000" stroke-width="2" stroke-linecap="round" stroke-miterlimit="10" width="20" height="10"/>
<rect x="409.117" y="223.333" fill="none" stroke="#000" stroke-width="2" stroke-linecap="round" stroke-miterlimit="10" width="20" height="10"/>
<rect x="429.117" y="233.333" fill="none" stroke="#000" stroke-width="2" stroke-linecap="round" stroke-miterlimit="10" width="20" height="10"/>
<rect x="449.117" y="233.333" fill="none" stroke="#000" stroke-width="2" stroke-linecap="round" stroke-miterlimit="10" width="20" height="10"/>
<rect x="389.117" y="233.333" fill="none" stroke="#000" stroke-width="2" stroke-linecap="round" stroke-miterlimit="10" width="20" height="10"/>
<rect x="369.117" y="233.333" fill="none" stroke="#000" stroke-width="2" stroke-linecap="round" stroke-miterlimit="10" width="20" height="10"/>
<rect x="409.117" y="233.333" fill="none" stroke="#000" stroke-width="2" stroke-linecap="round" stroke-miterlimit="10" width="20" height="10"/>
<rect x="429.117" y="243.333" fill="none" stroke="#000" stroke-width="2" stroke-linecap="round" stroke-miterlimit="10" width="20" height="10"/>
<rect x="449.117" y="243.333" fill="none" stroke="#000" stroke-width="2" stroke-linecap="round" stroke-miterlimit="10" width="20" height="10"/>
<rect x="389.117" y="243.333" fill="none" stroke="#000" stroke-width="2" stroke-linecap="round" stroke-miterlimit="10" width="20" height="10"/>
<rect x="369.117" y="243.333" fill="none" stroke="#000" stroke-width="2" stroke-linecap="round" stroke-miterlimit="10" width="20" height="10"/>
<rect x="409.117" y="243.333" fill="none" stroke="#000" stroke-width="2" stroke-linecap="round" stroke-miterlimit="10" width="20" height="10"/>
<rect x="429.117" y="253.333" fill="none" stroke="#000" stroke-width="2" stroke-linecap="round" stroke-miterlimit="10" width="20" height="10"/>
<rect x="449.117" y="253.333" fill="none" stroke="#000" stroke-width="2" stroke-linecap="round" stroke-miterlimit="10" width="20" height="10"/>
<rect x="389.117" y="253.333" fill="none" stroke="#000" stroke-width="2" stroke-linecap="round" stroke-miterlimit="10" width="20" height="10"/>
<rect x="369.117" y="253.333" fill="none" stroke="#000" stroke-width="2" stroke-linecap="round" stroke-miterlimit="10" width="20" height="10"/>
<rect x="409.117" y="253.333" fill="none" stroke="#000" stroke-width="2" stroke-linecap="round" stroke-miterlimit="10" width="20" height="10"/>
<rect x="429.117" y="263.333" fill="none" stroke="#000" stroke-width="2" stroke-linecap="round" stroke-miterlimit="10" width="20" height="10"/>
<rect x="449.117" y="263.333" fill="none" stroke="#000" stroke-width="2" stroke-linecap="round" stroke-miterlimit="10" width="20" height="10"/>
<rect x="389.117" y="263.333" fill="none" stroke="#000" stroke-width="2" stroke-linecap="round" stroke-miterlimit="10" width="20" height="10"/>
<rect x="369.117" y="263.333" fill="none" stroke="#000" stroke-width="2" stroke-linecap="round" stroke-miterlimit="10" width="20" height="10"/>
<rect x="409.117" y="263.333" fill="none" stroke="#000" stroke-width="2" stroke-linecap="round" stroke-miterlimit="10" width="20" height="10"/>
<!-- /Frames 3 squares -->

<!-- Screen and bottom pipe -->
<path fill="none" stroke="#000" stroke-width="2" stroke-linecap="round" stroke-miterlimit="10" d="M1244.443,485.567
	c0,2.904-2.355,5.26-5.26,5.26H905.569c-2.905,0-5.26-2.355-5.26-5.26V242.3c0-2.905,2.354-5.26,5.26-5.26h333.614
	c2.904,0,5.26,2.354,5.26,5.26V485.567z"/>
<path fill="none" stroke="#000" stroke-width="2" stroke-linecap="round" stroke-miterlimit="10" d="M1232.52,475.242
	c0,2.646-2.192,4.792-4.896,4.792H917.127c-2.704,0-4.896-2.146-4.896-4.792V253.625c0-2.647,2.191-4.792,4.896-4.792h310.497
	c2.703,0,4.896,2.145,4.896,4.792V475.242z"/>
<path fill="none" stroke="#000" stroke-width="2" stroke-linecap="round" stroke-miterlimit="10" d="M703.324,560.516H115.552
	c-2.761,0-5-2.238-5-5V380.334"/>
<path fill="none" stroke="#000" stroke-width="2" stroke-linecap="round" stroke-miterlimit="10" d="M1309.324,600.516H75.552
	c-2.761,0-5-2.238-5-5V379.334"/>
<path fill="none" stroke="#000" stroke-width="2" stroke-linecap="round" stroke-miterlimit="10" d="M70.552,380.238v-43.811
	c0-11.045,8.954-20,20-20l0,0c11.046,0,20,8.955,20,20v43.811"/>
<path fill="none" stroke="#000" stroke-width="2" stroke-linecap="round" stroke-miterlimit="10" d="M69.487,343.75
	c-3.257-4.373-5.185-9.795-5.185-15.666c0-14.498,11.752-26.25,26.25-26.25s26.25,11.752,26.25,26.25
	c0,5.863-1.923,11.277-5.172,15.647"/>
<path fill="none" stroke="#000" stroke-width="2" stroke-linecap="round" stroke-miterlimit="10" d="M1302.937,560.523h43.811
	c11.045,0,20,8.954,20,20l0,0c0,11.046-8.955,20-20,20h-43.811"/>
<path fill="none" stroke="#000" stroke-width="2" stroke-linecap="round" stroke-miterlimit="10" d="M1339.425,559.459
	c4.373-3.258,9.795-5.186,15.666-5.186c14.498,0,26.25,11.752,26.25,26.25s-11.752,26.25-26.25,26.25
	c-5.863,0-11.277-1.923-15.647-5.172"/>
<line fill="none" stroke="#000" stroke-width="2" stroke-linecap="round" stroke-miterlimit="10" x1="1052.375" y1="490.827" x2="1052.375" y2="560.523"/>
<line fill="none" stroke="#000" stroke-width="2" stroke-linecap="round" stroke-miterlimit="10" x1="1092.375" y1="490.827" x2="1092.375" y2="560.523"/>
<circle fill="none" stroke="#000" stroke-width="2" stroke-linecap="round" stroke-miterlimit="10" cx="1072.376" cy="525.676" r="11.657"/>
<line fill="none" stroke="#000" stroke-width="2" stroke-linecap="round" stroke-miterlimit="10" x1="703.874" y1="428.333" x2="703.874" y2="560.516"/>
<line fill="none" stroke="#000" stroke-width="2" stroke-linecap="round" stroke-miterlimit="10" x1="868.874" y1="428.333" x2="868.874" y2="560.516"/>
<line fill="none" stroke="#000" stroke-width="2" stroke-linecap="round" stroke-miterlimit="10" x1="1302.937" y1="560.523" x2="868.874" y2="560.523"/>
<!-- /Screen  and bottom pipe-->

	
<!-- text -->
<g>
	<path fill="#000" d="M950.458,341.453c1.68-0.199,3.489-0.35,5.43-0.449c1.939-0.1,3.99-0.15,6.15-0.15
		c2.6,0,4.92,0.32,6.96,0.96s3.759,1.521,5.159,2.64c1.4,1.121,2.46,2.471,3.181,4.051c0.72,1.58,1.08,3.29,1.08,5.129
		c0,2.241-0.431,4.23-1.29,5.971c-0.861,1.74-2.061,3.21-3.601,4.41c-1.54,1.199-3.39,2.11-5.55,2.73s-4.54,0.93-7.14,0.93
		c-1.681,0-3.24-0.061-4.681-0.18v15.84h-5.699V341.453z M961.558,362.934c3.6,0,6.369-0.789,8.31-2.37
		c1.94-1.579,2.91-3.729,2.91-6.45c0-2.6-0.93-4.659-2.79-6.18c-1.859-1.52-4.551-2.28-8.069-2.28c-1.08,0-2.101,0.021-3.061,0.06
		c-0.96,0.041-1.859,0.102-2.7,0.181v16.739c0.64,0.082,1.41,0.15,2.311,0.211C959.368,362.903,960.398,362.934,961.558,362.934z"/>
	<path fill="#000" d="M1009.797,384.054l-5.22-11.4c-1.32-2.839-2.98-4.86-4.98-6.06c-2-1.2-4.56-1.801-7.68-1.801h-0.9v18.541
		h-5.699v-41.881c2.159-0.199,4.189-0.35,6.09-0.449c1.899-0.1,3.969-0.15,6.21-0.15c2.56,0,4.8,0.27,6.72,0.811
		c1.92,0.539,3.52,1.311,4.8,2.31c1.28,1,2.25,2.181,2.91,3.54c0.66,1.36,0.99,2.86,0.99,4.5c0,2.92-0.87,5.271-2.61,7.05
		c-1.74,1.78-4.25,3.11-7.529,3.99c0.799,0.36,1.539,0.771,2.22,1.229c0.68,0.461,1.319,1.021,1.92,1.68
		c0.6,0.66,1.189,1.451,1.77,2.371s1.17,2.039,1.771,3.359l4.56,9.84L1009.797,384.054z M997.618,345.653
		c-1.36,0-2.58,0.021-3.66,0.06c-1.08,0.041-2.061,0.102-2.94,0.181v14.101h6.601c2.88,0,5.22-0.641,7.02-1.92
		c1.8-1.28,2.7-3.121,2.7-5.521c0-2-0.84-3.649-2.52-4.95C1003.137,346.305,1000.738,345.653,997.618,345.653z"/>
	<path fill="#000" d="M1019.937,362.273c0-3.08,0.45-5.939,1.35-8.58c0.9-2.64,2.2-4.93,3.9-6.869
		c1.699-1.94,3.77-3.46,6.21-4.561c2.439-1.1,5.22-1.65,8.34-1.65c3.08,0,5.851,0.57,8.311,1.711
		c2.46,1.139,4.539,2.689,6.239,4.649s3.01,4.251,3.931,6.87c0.919,2.62,1.38,5.43,1.38,8.43s-0.45,5.82-1.351,8.46
		c-0.899,2.64-2.21,4.95-3.93,6.931c-1.72,1.979-3.801,3.539-6.24,4.68c-2.44,1.14-5.22,1.71-8.34,1.71s-5.9-0.57-8.34-1.71
		c-2.44-1.141-4.511-2.7-6.21-4.68c-1.7-1.98-3-4.291-3.9-6.931C1020.387,368.094,1019.937,365.273,1019.937,362.273z
		 M1025.757,362.273c0,2.16,0.309,4.26,0.93,6.301c0.62,2.039,1.53,3.84,2.73,5.399c1.199,1.56,2.67,2.811,4.409,3.75
		c1.74,0.94,3.71,1.409,5.91,1.409c2.319,0,4.351-0.429,6.09-1.289c1.74-0.859,3.2-2.04,4.38-3.54s2.07-3.28,2.671-5.341
		c0.6-2.059,0.899-4.289,0.899-6.689c0-2.16-0.32-4.239-0.96-6.24c-0.641-2-1.56-3.779-2.76-5.34s-2.67-2.81-4.41-3.75
		c-1.74-0.939-3.711-1.41-5.91-1.41c-2.2,0-4.17,0.431-5.91,1.291c-1.739,0.859-3.21,2.039-4.409,3.539
		c-1.2,1.5-2.11,3.27-2.73,5.311C1026.066,357.713,1025.757,359.914,1025.757,362.273z"/>
	<path fill="#000" d="M1071.417,362.273c0,2.52,0.33,4.811,0.989,6.87c0.66,2.061,1.58,3.831,2.761,5.31
		c1.179,1.48,2.589,2.621,4.229,3.42c1.64,0.801,3.439,1.201,5.4,1.201c1.959,0,3.66-0.23,5.1-0.691
		c1.44-0.459,2.84-1.089,4.2-1.889l1.74,4.739c-1.48,0.801-3.171,1.47-5.07,2.011c-1.9,0.539-4.11,0.81-6.63,0.81
		c-2.76,0-5.271-0.501-7.53-1.5s-4.21-2.431-5.85-4.29c-1.641-1.86-2.91-4.119-3.811-6.78c-0.899-2.659-1.35-5.649-1.35-8.97
		c0-3.199,0.45-6.14,1.35-8.82c0.9-2.68,2.19-4.989,3.87-6.93c1.681-1.939,3.71-3.45,6.09-4.53s5.03-1.62,7.95-1.62
		c2.04,0,3.87,0.19,5.49,0.57c1.62,0.381,3.15,0.91,4.59,1.59l-1.74,4.801c-1.24-0.601-2.51-1.08-3.81-1.441
		c-1.301-0.359-2.83-0.539-4.59-0.539c-1.92,0-3.7,0.37-5.34,1.109c-1.641,0.741-3.061,1.83-4.261,3.271
		c-1.199,1.44-2.13,3.19-2.79,5.25C1071.747,357.284,1071.417,359.633,1071.417,362.273z"/>
	<path fill="#000" d="M1103.636,341.334h25.199v4.92h-19.5v12.779h16.801v4.801h-16.801v14.58h19.5v4.92h-25.199V341.334z"/>
	<path fill="#000" d="M1136.215,374.994c1.44,1.199,3.061,2.18,4.86,2.939s3.9,1.141,6.3,1.141c2.88,0,5.16-0.601,6.84-1.801
		c1.681-1.199,2.521-2.82,2.521-4.859c0-0.84-0.12-1.621-0.36-2.34c-0.24-0.721-0.711-1.41-1.41-2.07
		c-0.7-0.66-1.68-1.32-2.939-1.98s-2.891-1.369-4.891-2.13c-2.159-0.84-3.989-1.67-5.489-2.49c-1.5-0.819-2.711-1.72-3.63-2.7
		c-0.921-0.979-1.581-2.059-1.98-3.24c-0.4-1.179-0.6-2.529-0.6-4.049c0-1.48,0.309-2.881,0.93-4.201
		c0.619-1.319,1.539-2.469,2.76-3.449c1.22-0.98,2.72-1.75,4.5-2.311c1.779-0.559,3.811-0.84,6.09-0.84c2.48,0,4.7,0.25,6.66,0.75
		c1.96,0.501,3.9,1.211,5.82,2.131l-2.101,4.859c-1.36-0.8-2.95-1.471-4.77-2.01c-1.82-0.54-3.73-0.811-5.73-0.811
		c-2.64,0-4.72,0.51-6.239,1.53c-1.521,1.021-2.28,2.37-2.28,4.05c0,0.801,0.109,1.511,0.33,2.131c0.22,0.62,0.66,1.221,1.32,1.799
		c0.659,0.581,1.579,1.17,2.76,1.771c1.179,0.601,2.749,1.261,4.71,1.979c2.319,0.881,4.279,1.781,5.88,2.701
		c1.6,0.92,2.88,1.9,3.84,2.939c0.96,1.041,1.65,2.16,2.07,3.359c0.42,1.201,0.63,2.521,0.63,3.961c0,1.96-0.381,3.699-1.14,5.22
		c-0.761,1.521-1.811,2.811-3.15,3.87c-1.341,1.061-2.95,1.859-4.83,2.4c-1.881,0.539-3.921,0.81-6.12,0.81
		c-2.92,0-5.58-0.39-7.979-1.171c-2.4-0.779-4.421-1.809-6.061-3.09L1136.215,374.994z"/>
	<path fill="#000" d="M1170.294,374.994c1.44,1.199,3.061,2.18,4.86,2.939s3.9,1.141,6.3,1.141c2.88,0,5.16-0.601,6.84-1.801
		c1.681-1.199,2.521-2.82,2.521-4.859c0-0.84-0.12-1.621-0.36-2.34c-0.24-0.721-0.711-1.41-1.41-2.07
		c-0.7-0.66-1.68-1.32-2.939-1.98s-2.891-1.369-4.891-2.13c-2.159-0.84-3.989-1.67-5.489-2.49c-1.5-0.819-2.711-1.72-3.63-2.7
		c-0.921-0.979-1.581-2.059-1.98-3.24c-0.4-1.179-0.6-2.529-0.6-4.049c0-1.48,0.309-2.881,0.93-4.201
		c0.619-1.319,1.539-2.469,2.76-3.449c1.22-0.98,2.72-1.75,4.5-2.311c1.779-0.559,3.811-0.84,6.09-0.84c2.48,0,4.7,0.25,6.66,0.75
		c1.96,0.501,3.9,1.211,5.82,2.131l-2.101,4.859c-1.36-0.8-2.95-1.471-4.77-2.01c-1.82-0.54-3.73-0.811-5.73-0.811
		c-2.64,0-4.72,0.51-6.239,1.53c-1.521,1.021-2.28,2.37-2.28,4.05c0,0.801,0.109,1.511,0.33,2.131c0.22,0.62,0.66,1.221,1.32,1.799
		c0.659,0.581,1.579,1.17,2.76,1.771c1.179,0.601,2.749,1.261,4.71,1.979c2.319,0.881,4.279,1.781,5.88,2.701
		c1.6,0.92,2.88,1.9,3.84,2.939c0.96,1.041,1.65,2.16,2.07,3.359c0.42,1.201,0.63,2.521,0.63,3.961c0,1.96-0.381,3.699-1.14,5.22
		c-0.761,1.521-1.811,2.811-3.15,3.87c-1.341,1.061-2.95,1.859-4.83,2.4c-1.881,0.539-3.921,0.81-6.12,0.81
		c-2.92,0-5.58-0.39-7.979-1.171c-2.4-0.779-4.421-1.809-6.061-3.09L1170.294,374.994z"/>
</g>

<!--/text -->
</svg>
