<?xml version="1.0" encoding="utf-8"?>
<!-- Generator: Adobe Illustrator 16.0.0, SVG Export Plug-In . SVG Version: 6.00 Build 0)  -->
<!DOCTYPE svg PUBLIC "-//W3C//DTD SVG 1.1//EN" "http://www.w3.org/Graphics/SVG/1.1/DTD/svg11.dtd">
<svg version="1.1" id="Layer_1" xmlns="http://www.w3.org/2000/svg" xmlns:xlink="http://www.w3.org/1999/xlink" x="0px" y="0px"
	 width="1426.429px" height="630px" viewBox="0 0 1426.429 630" enable-background="new 0 0 1426.429 630" xml:space="preserve">
<line fill="none" stroke="#FFFFFF" stroke-width="2" stroke-linecap="round" stroke-miterlimit="10" x1="43.994" y1="50.333" x2="117.994" y2="50.333"/>
<line fill="none" stroke="#FFFFFF" stroke-width="2" stroke-linecap="round" stroke-miterlimit="10" x1="43.994" y1="60.333" x2="117.994" y2="60.333"/>
<line fill="none" stroke="#FFFFFF" stroke-width="2" stroke-linecap="round" stroke-miterlimit="10" x1="44.827" y1="80.333" x2="165.161" y2="80.333"/>
<line fill="none" stroke="#FFFFFF" stroke-width="2" stroke-linecap="round" stroke-miterlimit="10" x1="44.827" y1="90.333" x2="165.161" y2="90.333"/>
<line fill="none" stroke="#FFFFFF" stroke-width="2" stroke-linecap="round" stroke-miterlimit="10" x1="44.827" y1="100.333" x2="165.161" y2="100.333"/>
<line fill="none" stroke="#FFFFFF" stroke-width="2" stroke-linecap="round" stroke-miterlimit="10" x1="44.827" y1="110.333" x2="165.161" y2="110.333"/>
<line fill="none" stroke="#FFFFFF" stroke-width="2" stroke-linecap="round" stroke-miterlimit="10" x1="44.827" y1="120.333" x2="165.161" y2="120.333"/>
<line fill="none" stroke="#FFFFFF" stroke-width="2" stroke-linecap="round" stroke-miterlimit="10" x1="44.827" y1="130.333" x2="165.161" y2="130.333"/>
<line fill="none" stroke="#FFFFFF" stroke-width="2" stroke-linecap="round" stroke-miterlimit="10" x1="44.827" y1="140.333" x2="165.161" y2="140.333"/>
<line fill="none" stroke="#FFFFFF" stroke-width="2" stroke-linecap="round" stroke-miterlimit="10" x1="44.827" y1="150.333" x2="165.161" y2="150.333"/>
<line fill="none" stroke="#FFFFFF" stroke-width="2" stroke-linecap="round" stroke-miterlimit="10" x1="44.827" y1="160.333" x2="165.161" y2="160.333"/>
<line fill="none" stroke="#FFFFFF" stroke-width="2" stroke-linecap="round" stroke-miterlimit="10" x1="49.161" y1="180.333" x2="112.827" y2="180.333"/>
<line fill="none" stroke="#FFFFFF" stroke-width="2" stroke-linecap="round" stroke-miterlimit="10" x1="49.161" y1="190.333" x2="112.827" y2="190.333"/>
<g>
	
		<circle fill="none" stroke="#FFFFFF" stroke-width="2" stroke-linecap="round" stroke-miterlimit="10" stroke-dasharray="4.0655,8.131" cx="357.707" cy="75.167" r="38.833"/>
</g>
<circle fill="none" stroke="#FFFFFF" stroke-width="2" stroke-linecap="round" stroke-miterlimit="10" stroke-dasharray="4,8" cx="357.707" cy="75.167" r="24.5"/>
<circle fill="none" stroke="#FFFFFF" stroke-width="2" stroke-linecap="round" stroke-miterlimit="10" cx="357.707" cy="75.167" r="12.5"/>
<path fill="none" stroke="#FFFFFF" stroke-width="2" stroke-linecap="round" stroke-miterlimit="10" d="M343.45,280
	c0,2.762-2.239,5-5,5h-91.512c-2.761,0-5-2.238-5-5v-94.667c0-2.761,2.239-5,5-5h91.512c2.761,0,5,2.239,5,5V280z"/>
<path fill="none" stroke="#FFFFFF" stroke-width="2" stroke-linecap="round" stroke-miterlimit="10" d="M308.117,360.834h-26
	c-2.761,0-5-2.239-5-5v-70"/>
<path fill="none" stroke="#FFFFFF" stroke-width="2" stroke-linecap="round" stroke-miterlimit="10" d="M411.117,360.834h26
	c2.761,0,5-2.239,5-5v-70"/>
<path fill="none" stroke="#FFFFFF" stroke-width="2" stroke-linecap="round" stroke-miterlimit="10" d="M517.117,106.833
	c-2.761,0-5,2.239-5,5v16v8v170c0,2.761-2.239,5-5,5h-6l-10.333-0.5v-151c0-2.761-2.239-5-5-5H370.206v-6v-14.75l0.249-8.427
	c21.955-6.025,39.085-26.124,39.085-49.99c0-28.626-23.207-51.833-51.833-51.833c-23.471,0-43.299,15.601-49.679,36.999
	l-8.154,0.001H188.207l-8.213-0.834V28.333c0-2.761-2.238-5-5-5h-140c-2.761,0-5,2.239-5,5v190c0,2.761,2.239,5,5,5h140
	c2.762,0,5-2.239,5-5v-128l8.213,0h113.91l6.01,0c5.147,16.847,18.647,30.05,35.673,34.78l0.406,8.229v14.991v6H231.784
	c-2.761,0-5,2.239-5,5V433c0,2.762,2.239,5,5,5h254c2.761,0,5-2.238,5-5V329.5l10.333,0.334h26c2.761,0,5-2.239,5-5v-140v-17v-36
	c0-2.761,2.239-5,5-5"/>
<path fill="none" stroke="#FFFFFF" stroke-width="2" stroke-linecap="round" stroke-miterlimit="10" d="M553.117,127.334v42.379
	c0,3.996,3.239,7.236,7.236,7.236h136.994c3.995,0,7.234-3.24,7.234-7.236V58.286c0-3.996-3.239-7.236-7.234-7.236h-87.732v82.666
	c0,11.49-9.314,20.802-20.803,20.802c-11.487,0-20.802-9.313-20.802-20.802V51.05h-7.657c-3.998,0-7.236,3.24-7.236,7.236v48.048"/>
<path fill="none" stroke="#FFFFFF" stroke-width="2" stroke-linecap="round" stroke-miterlimit="10" stroke-dasharray="8,8" d="
	M824.117,240.833h-175c-2.761,0-5-2.239-5-5v-58"/>
<path fill="none" stroke="#FFFFFF" stroke-width="2" stroke-linecap="round" stroke-miterlimit="10" d="M644.117,87.833v148
	c0,2.761,2.239,5,5,5h139V421.65v108.384"/>
<circle fill="none" stroke="#FFFFFF" stroke-width="2" stroke-linecap="round" stroke-miterlimit="10" cx="677.874" cy="286.065" r="8.01"/>
<path fill="none" stroke="#FFFFFF" stroke-width="2" stroke-linecap="round" stroke-miterlimit="10" d="M697.052,313.4
	c0-10.592-8.586-19.178-19.178-19.178s-19.178,8.586-19.178,19.178H697.052z"/>
<path fill="none" stroke="#FFFFFF" stroke-width="2" stroke-linecap="round" stroke-miterlimit="10" d="M705.607,271.208
	c0-0.711-0.577-1.288-1.289-1.288h-52.891c-0.712,0-1.289,0.577-1.289,1.288v47.345c0,0.712,0.577,1.289,1.289,1.289h52.891
	c0.711,0,1.289-0.577,1.289-1.289V271.208z"/>
<line fill="none" stroke="#FFFFFF" stroke-width="2" stroke-linecap="round" stroke-miterlimit="10" x1="677.874" y1="264.333" x2="677.874" y2="251.5"/>
<path fill="none" stroke="#FFFFFF" stroke-width="2" stroke-linecap="round" stroke-miterlimit="10" d="M660.872,241.583
	L660.872,241.583c0,4.695,3.806,8.501,8.5,8.501h17.002c4.694,0,8.5-3.806,8.5-8.501l0,0"/>
<path fill="none" stroke="#FFFFFF" stroke-width="2" stroke-linecap="round" stroke-miterlimit="10" d="M688.61,269.702
	L688.61,269.702c0-2.965-2.403-5.368-5.368-5.368h-10.736c-2.965,0-5.368,2.403-5.368,5.368l0,0"/>
<circle fill="none" stroke="#FFFFFF" stroke-width="2" stroke-linecap="round" stroke-miterlimit="10" cx="751.874" cy="286.065" r="8.01"/>
<path fill="none" stroke="#FFFFFF" stroke-width="2" stroke-linecap="round" stroke-miterlimit="10" d="M771.051,313.4
	c0-10.592-8.586-19.178-19.178-19.178s-19.178,8.586-19.178,19.178H771.051z"/>
<path fill="none" stroke="#FFFFFF" stroke-width="2" stroke-linecap="round" stroke-miterlimit="10" d="M779.608,271.208
	c0-0.711-0.578-1.288-1.289-1.288h-52.891c-0.712,0-1.289,0.577-1.289,1.288v47.345c0,0.712,0.577,1.289,1.289,1.289h52.891
	c0.711,0,1.289-0.577,1.289-1.289V271.208z"/>
<line fill="none" stroke="#FFFFFF" stroke-width="2" stroke-linecap="round" stroke-miterlimit="10" x1="751.874" y1="264.333" x2="751.874" y2="251.5"/>
<path fill="none" stroke="#FFFFFF" stroke-width="2" stroke-linecap="round" stroke-miterlimit="10" d="M734.872,241.583
	L734.872,241.583c0,4.695,3.807,8.501,8.501,8.501h17.002c4.694,0,8.501-3.806,8.501-8.501l0,0"/>
<path fill="none" stroke="#FFFFFF" stroke-width="2" stroke-linecap="round" stroke-miterlimit="10" d="M762.61,269.702
	L762.61,269.702c0-2.965-2.403-5.368-5.368-5.368h-10.736c-2.965,0-5.368,2.403-5.368,5.368l0,0"/>
<path fill="#FFFFFF" d="M790.309,121.404c0,6.868-5.567,12.436-12.436,12.436s-12.436-5.567-12.436-12.436
	s5.567-12.436,12.436-12.436S790.309,114.536,790.309,121.404z M808.647,163.84c0-16.969-13.805-30.773-30.773-30.773
	S747.1,146.871,747.1,163.84v1h61.547V163.84z M777.874,135.066c15.53,0,28.227,12.37,28.756,27.773h-57.512
	C749.647,147.436,762.343,135.066,777.874,135.066z M821.929,171.84V98.338c0-1.654-1.346-3-3-3h-82.111c-1.654,0-3,1.346-3,3
	v73.502c0,1.654,1.346,3,3,3h82.111C820.583,174.84,821.929,173.494,821.929,171.84z M818.929,97.338c0.552,0,1,0.449,1,1v73.502
	c0,0.551-0.448,1-1,1h-82.111c-0.552,0-1-0.449-1-1V98.338c0-0.551,0.448-1,1-1H818.929z M778.874,87.493V73.5c0-0.552-0.447-1-1-1
	s-1,0.448-1,1v13.993c0,0.552,0.447,1,1,1S778.874,88.045,778.874,87.493z M798.874,62.833c0-0.552-0.447-1-1-1s-1,0.448-1,1
	c0,4.962-4.037,9-9,9h-20c-4.963,0-9-4.038-9-9c0-0.552-0.447-1-1-1s-1,0.448-1,1c0,6.065,4.935,11,11,11h20
	C793.939,73.833,798.874,68.898,798.874,62.833z M795.542,96c0-5.147-4.188-9.334-9.334-9.334H769.54
	c-5.146,0-9.334,4.187-9.334,9.334c0,0.552,0.447,1,1,1s1-0.448,1-1c0-4.044,3.29-7.334,7.334-7.334h16.668
	c4.044,0,7.334,3.29,7.334,7.334c0,0.552,0.447,1,1,1S795.542,96.552,795.542,96z"/>
<path fill="#FFFFFF" d="M910.309,121.404c0,6.868-5.567,12.436-12.436,12.436s-12.436-5.567-12.436-12.436
	s5.567-12.436,12.436-12.436S910.309,114.536,910.309,121.404z M928.647,163.84c0-16.969-13.805-30.773-30.773-30.773
	S867.1,146.871,867.1,163.84v1h61.547V163.84z M897.874,135.066c15.53,0,28.227,12.37,28.756,27.773h-57.512
	C869.647,147.436,882.343,135.066,897.874,135.066z M941.929,171.84V98.338c0-1.654-1.346-3-3-3h-82.111c-1.654,0-3,1.346-3,3
	v73.502c0,1.654,1.346,3,3,3h82.111C940.583,174.84,941.929,173.494,941.929,171.84z M938.929,97.338c0.552,0,1,0.449,1,1v73.502
	c0,0.551-0.448,1-1,1h-82.111c-0.552,0-1-0.449-1-1V98.338c0-0.551,0.448-1,1-1H938.929z M898.874,87.493V73.5c0-0.552-0.447-1-1-1
	s-1,0.448-1,1v13.993c0,0.552,0.447,1,1,1S898.874,88.045,898.874,87.493z M918.874,62.833c0-0.552-0.447-1-1-1s-1,0.448-1,1
	c0,4.962-4.037,9-9,9h-20c-4.963,0-9-4.038-9-9c0-0.552-0.447-1-1-1s-1,0.448-1,1c0,6.065,4.935,11,11,11h20
	C913.939,73.833,918.874,68.898,918.874,62.833z M915.542,96c0-5.147-4.188-9.334-9.334-9.334H889.54
	c-5.146,0-9.334,4.187-9.334,9.334c0,0.552,0.447,1,1,1s1-0.448,1-1c0-4.044,3.29-7.334,7.334-7.334h16.668
	c4.044,0,7.334,3.29,7.334,7.334c0,0.552,0.447,1,1,1S915.542,96.552,915.542,96z"/>
<path fill="#FFFFFF" d="M1030.309,121.404c0,6.868-5.567,12.436-12.436,12.436s-12.436-5.567-12.436-12.436
	s5.567-12.436,12.436-12.436S1030.309,114.536,1030.309,121.404z M1048.647,163.84c0-16.969-13.805-30.773-30.773-30.773
	S987.1,146.871,987.1,163.84v1h61.547V163.84z M1017.874,135.066c15.53,0,28.227,12.37,28.756,27.773h-57.512
	C989.647,147.436,1002.343,135.066,1017.874,135.066z M1061.929,171.84V98.338c0-1.654-1.346-3-3-3h-82.111c-1.654,0-3,1.346-3,3
	v73.502c0,1.654,1.346,3,3,3h82.111C1060.583,174.84,1061.929,173.494,1061.929,171.84z M1058.929,97.338c0.552,0,1,0.449,1,1
	v73.502c0,0.551-0.448,1-1,1h-82.111c-0.552,0-1-0.449-1-1V98.338c0-0.551,0.448-1,1-1H1058.929z M1018.874,87.493V73.5
	c0-0.552-0.447-1-1-1s-1,0.448-1,1v13.993c0,0.552,0.447,1,1,1S1018.874,88.045,1018.874,87.493z M1038.874,62.833
	c0-0.552-0.447-1-1-1s-1,0.448-1,1c0,4.962-4.037,9-9,9h-20c-4.963,0-9-4.038-9-9c0-0.552-0.447-1-1-1s-1,0.448-1,1
	c0,6.065,4.935,11,11,11h20C1033.939,73.833,1038.874,68.898,1038.874,62.833z M1035.542,96c0-5.147-4.188-9.334-9.334-9.334
	h-16.668c-5.146,0-9.334,4.187-9.334,9.334c0,0.552,0.447,1,1,1s1-0.448,1-1c0-4.044,3.29-7.334,7.334-7.334h16.668
	c4.044,0,7.334,3.29,7.334,7.334c0,0.552,0.447,1,1,1S1035.542,96.552,1035.542,96z"/>
<path fill="#FFFFFF" d="M1150.309,121.404c0,6.868-5.567,12.436-12.436,12.436s-12.436-5.567-12.436-12.436
	s5.567-12.436,12.436-12.436S1150.309,114.536,1150.309,121.404z M1168.647,163.84c0-16.969-13.805-30.773-30.773-30.773
	s-30.773,13.805-30.773,30.773v1h61.547V163.84z M1137.874,135.066c15.53,0,28.227,12.37,28.756,27.773h-57.512
	C1109.647,147.436,1122.343,135.066,1137.874,135.066z M1181.929,171.84V98.338c0-1.654-1.346-3-3-3h-82.111c-1.654,0-3,1.346-3,3
	v73.502c0,1.654,1.346,3,3,3h82.111C1180.583,174.84,1181.929,173.494,1181.929,171.84z M1178.929,97.338c0.552,0,1,0.449,1,1
	v73.502c0,0.551-0.448,1-1,1h-82.111c-0.552,0-1-0.449-1-1V98.338c0-0.551,0.448-1,1-1H1178.929z M1138.874,87.493V73.5
	c0-0.552-0.447-1-1-1s-1,0.448-1,1v13.993c0,0.552,0.447,1,1,1S1138.874,88.045,1138.874,87.493z M1158.874,62.833
	c0-0.552-0.447-1-1-1s-1,0.448-1,1c0,4.962-4.037,9-9,9h-20c-4.963,0-9-4.038-9-9c0-0.552-0.447-1-1-1s-1,0.448-1,1
	c0,6.065,4.935,11,11,11h20C1153.939,73.833,1158.874,68.898,1158.874,62.833z M1155.542,96c0-5.147-4.188-9.334-9.334-9.334
	h-16.668c-5.146,0-9.334,4.187-9.334,9.334c0,0.552,0.447,1,1,1s1-0.448,1-1c0-4.044,3.29-7.334,7.334-7.334h16.668
	c4.044,0,7.334,3.29,7.334,7.334c0,0.552,0.447,1,1,1S1155.542,96.552,1155.542,96z"/>
<path fill="none" stroke="#FFFFFF" stroke-width="2" stroke-linecap="round" stroke-miterlimit="10" d="M871.874,421.333
	c0-3.69-36.936-6.683-82.5-6.683s-82.5,2.992-82.5,6.683"/>
<line fill="none" stroke="#FFFFFF" stroke-width="2" stroke-linecap="round" stroke-miterlimit="10" stroke-dasharray="8,8" x1="704.582" y1="62.667" x2="1342.874" y2="62.667"/>
<line fill="none" stroke="#FFFFFF" stroke-width="2" stroke-linecap="round" stroke-miterlimit="10" x1="824.117" y1="234.833" x2="824.117" y2="247.334"/>
<path fill="none" stroke="#FFFFFF" stroke-width="2" stroke-linecap="round" stroke-miterlimit="10" d="M1223.542,83.987
	c-3.416,0-6.187,22.431-6.187,50.102s2.771,50.102,6.187,50.102"/>
<line fill="none" stroke="#FFFFFF" stroke-width="2" stroke-linecap="round" stroke-miterlimit="10" x1="1342.874" y1="62.667" x2="1342.874" y2="81.667"/>
<g>
	<path fill="#FFFFFF" d="M1380.5,83.987c5.522,0,10,4.477,10,10v246.134v4.219v5.16c0,27.338-22.162,49.5-49.5,49.5
		s-49.5-22.162-49.5-49.5v-5.16v-4.219V193.987c0-5.523-4.478-10-10-10h-47.334l-9.78,0.203c3.401-0.139,6.154-22.517,6.154-50.101
		c0-27.67-2.771-50.102-6.187-50.102h8.813H1380.5 M1224.386,184.19c-0.011,0-0.021,0-0.032,0L1224.386,184.19 M1380.5,81.987
		h-147.334h-8.813c-1.104,0-2,0.896-2,2c0,0.916,0.615,1.688,1.455,1.925c0.406,0.585,1.891,3.434,3.17,15.009
		c1.007,9.119,1.562,20.898,1.562,33.167s-0.555,24.048-1.562,33.167c-1.278,11.575-2.763,14.424-3.169,15.009
		c-0.849,0.239-1.466,1.023-1.456,1.946c0.012,1.097,0.903,1.979,2,1.979c0.016,0,0.042,0,0.066-0.001c0.002,0,0.005,0,0.007,0
		l9.78-0.203l47.293,0c4.411,0,8,3.589,8,8v146.134v4.219v5.16c0,28.397,23.103,51.5,51.5,51.5s51.5-23.103,51.5-51.5v-5.16v-4.219
		V93.987C1392.5,87.371,1387.118,81.987,1380.5,81.987L1380.5,81.987z"/>
</g>
<path fill="none" stroke="#FFFFFF" stroke-width="2" stroke-linecap="round" stroke-miterlimit="10" d="M1392.057,313.364
	c7.716,10.493,12.273,23.452,12.273,37.476c0,34.977-28.354,63.33-63.33,63.33s-63.33-28.354-63.33-63.33
	c0-14.941,5.174-28.674,13.828-39.504"/>
<rect x="302.117" y="193.333" fill="none" stroke="#FFFFFF" stroke-width="2" stroke-linecap="round" stroke-miterlimit="10" width="20" height="10"/>
<rect x="322.117" y="193.333" fill="none" stroke="#FFFFFF" stroke-width="2" stroke-linecap="round" stroke-miterlimit="10" width="20" height="10"/>
<rect x="262.117" y="193.333" fill="none" stroke="#FFFFFF" stroke-width="2" stroke-linecap="round" stroke-miterlimit="10" width="20" height="10"/>
<rect x="242.117" y="193.333" fill="none" stroke="#FFFFFF" stroke-width="2" stroke-linecap="round" stroke-miterlimit="10" width="20" height="10"/>
<rect x="282.117" y="193.333" fill="none" stroke="#FFFFFF" stroke-width="2" stroke-linecap="round" stroke-miterlimit="10" width="20" height="10"/>
<rect x="302.117" y="203.333" fill="none" stroke="#FFFFFF" stroke-width="2" stroke-linecap="round" stroke-miterlimit="10" width="20" height="10"/>
<rect x="322.117" y="203.333" fill="none" stroke="#FFFFFF" stroke-width="2" stroke-linecap="round" stroke-miterlimit="10" width="20" height="10"/>
<rect x="262.117" y="203.333" fill="none" stroke="#FFFFFF" stroke-width="2" stroke-linecap="round" stroke-miterlimit="10" width="20" height="10"/>
<rect x="242.117" y="203.333" fill="none" stroke="#FFFFFF" stroke-width="2" stroke-linecap="round" stroke-miterlimit="10" width="20" height="10"/>
<rect x="282.117" y="203.333" fill="none" stroke="#FFFFFF" stroke-width="2" stroke-linecap="round" stroke-miterlimit="10" width="20" height="10"/>
<rect x="302.117" y="213.333" fill="none" stroke="#FFFFFF" stroke-width="2" stroke-linecap="round" stroke-miterlimit="10" width="20" height="10"/>
<rect x="322.117" y="213.333" fill="none" stroke="#FFFFFF" stroke-width="2" stroke-linecap="round" stroke-miterlimit="10" width="20" height="10"/>
<rect x="262.117" y="213.333" fill="none" stroke="#FFFFFF" stroke-width="2" stroke-linecap="round" stroke-miterlimit="10" width="20" height="10"/>
<rect x="242.117" y="213.333" fill="none" stroke="#FFFFFF" stroke-width="2" stroke-linecap="round" stroke-miterlimit="10" width="20" height="10"/>
<rect x="282.117" y="213.333" fill="none" stroke="#FFFFFF" stroke-width="2" stroke-linecap="round" stroke-miterlimit="10" width="20" height="10"/>
<rect x="302.117" y="223.333" fill="none" stroke="#FFFFFF" stroke-width="2" stroke-linecap="round" stroke-miterlimit="10" width="20" height="10"/>
<rect x="322.117" y="223.333" fill="none" stroke="#FFFFFF" stroke-width="2" stroke-linecap="round" stroke-miterlimit="10" width="20" height="10"/>
<rect x="262.117" y="223.333" fill="none" stroke="#FFFFFF" stroke-width="2" stroke-linecap="round" stroke-miterlimit="10" width="20" height="10"/>
<rect x="242.117" y="223.333" fill="none" stroke="#FFFFFF" stroke-width="2" stroke-linecap="round" stroke-miterlimit="10" width="20" height="10"/>
<rect x="282.117" y="223.333" fill="none" stroke="#FFFFFF" stroke-width="2" stroke-linecap="round" stroke-miterlimit="10" width="20" height="10"/>
<rect x="302.117" y="233.333" fill="none" stroke="#FFFFFF" stroke-width="2" stroke-linecap="round" stroke-miterlimit="10" width="20" height="10"/>
<rect x="322.117" y="233.333" fill="none" stroke="#FFFFFF" stroke-width="2" stroke-linecap="round" stroke-miterlimit="10" width="20" height="10"/>
<rect x="262.117" y="233.333" fill="none" stroke="#FFFFFF" stroke-width="2" stroke-linecap="round" stroke-miterlimit="10" width="20" height="10"/>
<rect x="242.117" y="233.333" fill="none" stroke="#FFFFFF" stroke-width="2" stroke-linecap="round" stroke-miterlimit="10" width="20" height="10"/>
<rect x="282.117" y="233.333" fill="none" stroke="#FFFFFF" stroke-width="2" stroke-linecap="round" stroke-miterlimit="10" width="20" height="10"/>
<rect x="302.117" y="243.333" fill="none" stroke="#FFFFFF" stroke-width="2" stroke-linecap="round" stroke-miterlimit="10" width="20" height="10"/>
<rect x="322.117" y="243.333" fill="none" stroke="#FFFFFF" stroke-width="2" stroke-linecap="round" stroke-miterlimit="10" width="20" height="10"/>
<rect x="262.117" y="243.333" fill="none" stroke="#FFFFFF" stroke-width="2" stroke-linecap="round" stroke-miterlimit="10" width="20" height="10"/>
<rect x="242.117" y="243.333" fill="none" stroke="#FFFFFF" stroke-width="2" stroke-linecap="round" stroke-miterlimit="10" width="20" height="10"/>
<rect x="282.117" y="243.333" fill="none" stroke="#FFFFFF" stroke-width="2" stroke-linecap="round" stroke-miterlimit="10" width="20" height="10"/>
<rect x="302.117" y="253.333" fill="none" stroke="#FFFFFF" stroke-width="2" stroke-linecap="round" stroke-miterlimit="10" width="20" height="10"/>
<rect x="322.117" y="253.333" fill="none" stroke="#FFFFFF" stroke-width="2" stroke-linecap="round" stroke-miterlimit="10" width="20" height="10"/>
<rect x="262.117" y="253.333" fill="none" stroke="#FFFFFF" stroke-width="2" stroke-linecap="round" stroke-miterlimit="10" width="20" height="10"/>
<rect x="242.117" y="253.333" fill="none" stroke="#FFFFFF" stroke-width="2" stroke-linecap="round" stroke-miterlimit="10" width="20" height="10"/>
<rect x="282.117" y="253.333" fill="none" stroke="#FFFFFF" stroke-width="2" stroke-linecap="round" stroke-miterlimit="10" width="20" height="10"/>
<rect x="302.117" y="263.333" fill="none" stroke="#FFFFFF" stroke-width="2" stroke-linecap="round" stroke-miterlimit="10" width="20" height="10"/>
<rect x="322.117" y="263.333" fill="none" stroke="#FFFFFF" stroke-width="2" stroke-linecap="round" stroke-miterlimit="10" width="20" height="10"/>
<rect x="262.117" y="263.333" fill="none" stroke="#FFFFFF" stroke-width="2" stroke-linecap="round" stroke-miterlimit="10" width="20" height="10"/>
<rect x="242.117" y="263.333" fill="none" stroke="#FFFFFF" stroke-width="2" stroke-linecap="round" stroke-miterlimit="10" width="20" height="10"/>
<rect x="282.117" y="263.333" fill="none" stroke="#FFFFFF" stroke-width="2" stroke-linecap="round" stroke-miterlimit="10" width="20" height="10"/>
<path fill="none" stroke="#FFFFFF" stroke-width="2" stroke-linecap="round" stroke-miterlimit="10" d="M409.45,415
	c0,2.762-2.239,5-5,5h-91.512c-2.761,0-5-2.238-5-5v-94.666c0-2.762,2.239-5,5-5h91.512c2.761,0,5,2.239,5,5V415z"/>
<rect x="368.117" y="328.334" fill="none" stroke="#FFFFFF" stroke-width="2" stroke-linecap="round" stroke-miterlimit="10" width="20" height="10"/>
<rect x="388.117" y="328.334" fill="none" stroke="#FFFFFF" stroke-width="2" stroke-linecap="round" stroke-miterlimit="10" width="20" height="10"/>
<rect x="328.117" y="328.334" fill="none" stroke="#FFFFFF" stroke-width="2" stroke-linecap="round" stroke-miterlimit="10" width="20" height="10"/>
<rect x="308.117" y="328.334" fill="none" stroke="#FFFFFF" stroke-width="2" stroke-linecap="round" stroke-miterlimit="10" width="20" height="10"/>
<rect x="348.117" y="328.334" fill="none" stroke="#FFFFFF" stroke-width="2" stroke-linecap="round" stroke-miterlimit="10" width="20" height="10"/>
<rect x="368.117" y="338.334" fill="none" stroke="#FFFFFF" stroke-width="2" stroke-linecap="round" stroke-miterlimit="10" width="20" height="10"/>
<rect x="388.117" y="338.334" fill="none" stroke="#FFFFFF" stroke-width="2" stroke-linecap="round" stroke-miterlimit="10" width="20" height="10"/>
<rect x="328.117" y="338.334" fill="none" stroke="#FFFFFF" stroke-width="2" stroke-linecap="round" stroke-miterlimit="10" width="20" height="10"/>
<rect x="308.117" y="338.334" fill="none" stroke="#FFFFFF" stroke-width="2" stroke-linecap="round" stroke-miterlimit="10" width="20" height="10"/>
<rect x="348.117" y="338.334" fill="none" stroke="#FFFFFF" stroke-width="2" stroke-linecap="round" stroke-miterlimit="10" width="20" height="10"/>
<rect x="368.117" y="348.334" fill="none" stroke="#FFFFFF" stroke-width="2" stroke-linecap="round" stroke-miterlimit="10" width="20" height="10"/>
<rect x="388.117" y="348.334" fill="none" stroke="#FFFFFF" stroke-width="2" stroke-linecap="round" stroke-miterlimit="10" width="20" height="10"/>
<rect x="328.117" y="348.334" fill="none" stroke="#FFFFFF" stroke-width="2" stroke-linecap="round" stroke-miterlimit="10" width="20" height="10"/>
<rect x="308.117" y="348.334" fill="none" stroke="#FFFFFF" stroke-width="2" stroke-linecap="round" stroke-miterlimit="10" width="20" height="10"/>
<rect x="348.117" y="348.334" fill="none" stroke="#FFFFFF" stroke-width="2" stroke-linecap="round" stroke-miterlimit="10" width="20" height="10"/>
<rect x="368.117" y="358.334" fill="none" stroke="#FFFFFF" stroke-width="2" stroke-linecap="round" stroke-miterlimit="10" width="20" height="10"/>
<rect x="388.117" y="358.334" fill="none" stroke="#FFFFFF" stroke-width="2" stroke-linecap="round" stroke-miterlimit="10" width="20" height="10"/>
<rect x="328.117" y="358.334" fill="none" stroke="#FFFFFF" stroke-width="2" stroke-linecap="round" stroke-miterlimit="10" width="20" height="10"/>
<rect x="308.117" y="358.334" fill="none" stroke="#FFFFFF" stroke-width="2" stroke-linecap="round" stroke-miterlimit="10" width="20" height="10"/>
<rect x="348.117" y="358.334" fill="none" stroke="#FFFFFF" stroke-width="2" stroke-linecap="round" stroke-miterlimit="10" width="20" height="10"/>
<rect x="368.117" y="368.334" fill="none" stroke="#FFFFFF" stroke-width="2" stroke-linecap="round" stroke-miterlimit="10" width="20" height="10"/>
<rect x="388.117" y="368.334" fill="none" stroke="#FFFFFF" stroke-width="2" stroke-linecap="round" stroke-miterlimit="10" width="20" height="10"/>
<rect x="328.117" y="368.334" fill="none" stroke="#FFFFFF" stroke-width="2" stroke-linecap="round" stroke-miterlimit="10" width="20" height="10"/>
<rect x="308.117" y="368.334" fill="none" stroke="#FFFFFF" stroke-width="2" stroke-linecap="round" stroke-miterlimit="10" width="20" height="10"/>
<rect x="348.117" y="368.334" fill="none" stroke="#FFFFFF" stroke-width="2" stroke-linecap="round" stroke-miterlimit="10" width="20" height="10"/>
<rect x="368.117" y="378.334" fill="none" stroke="#FFFFFF" stroke-width="2" stroke-linecap="round" stroke-miterlimit="10" width="20" height="10"/>
<rect x="388.117" y="378.334" fill="none" stroke="#FFFFFF" stroke-width="2" stroke-linecap="round" stroke-miterlimit="10" width="20" height="10"/>
<rect x="328.117" y="378.334" fill="none" stroke="#FFFFFF" stroke-width="2" stroke-linecap="round" stroke-miterlimit="10" width="20" height="10"/>
<rect x="308.117" y="378.334" fill="none" stroke="#FFFFFF" stroke-width="2" stroke-linecap="round" stroke-miterlimit="10" width="20" height="10"/>
<rect x="348.117" y="378.334" fill="none" stroke="#FFFFFF" stroke-width="2" stroke-linecap="round" stroke-miterlimit="10" width="20" height="10"/>
<rect x="368.117" y="388.334" fill="none" stroke="#FFFFFF" stroke-width="2" stroke-linecap="round" stroke-miterlimit="10" width="20" height="10"/>
<rect x="388.117" y="388.334" fill="none" stroke="#FFFFFF" stroke-width="2" stroke-linecap="round" stroke-miterlimit="10" width="20" height="10"/>
<rect x="328.117" y="388.334" fill="none" stroke="#FFFFFF" stroke-width="2" stroke-linecap="round" stroke-miterlimit="10" width="20" height="10"/>
<rect x="308.117" y="388.334" fill="none" stroke="#FFFFFF" stroke-width="2" stroke-linecap="round" stroke-miterlimit="10" width="20" height="10"/>
<rect x="348.117" y="388.334" fill="none" stroke="#FFFFFF" stroke-width="2" stroke-linecap="round" stroke-miterlimit="10" width="20" height="10"/>
<rect x="368.117" y="398.334" fill="none" stroke="#FFFFFF" stroke-width="2" stroke-linecap="round" stroke-miterlimit="10" width="20" height="10"/>
<rect x="388.117" y="398.334" fill="none" stroke="#FFFFFF" stroke-width="2" stroke-linecap="round" stroke-miterlimit="10" width="20" height="10"/>
<rect x="328.117" y="398.334" fill="none" stroke="#FFFFFF" stroke-width="2" stroke-linecap="round" stroke-miterlimit="10" width="20" height="10"/>
<rect x="308.117" y="398.334" fill="none" stroke="#FFFFFF" stroke-width="2" stroke-linecap="round" stroke-miterlimit="10" width="20" height="10"/>
<rect x="348.117" y="398.334" fill="none" stroke="#FFFFFF" stroke-width="2" stroke-linecap="round" stroke-miterlimit="10" width="20" height="10"/>
<path fill="none" stroke="#FFFFFF" stroke-width="2" stroke-linecap="round" stroke-miterlimit="10" d="M473.45,280
	c0,2.762-2.239,5-5,5h-91.512c-2.761,0-5-2.238-5-5v-94.667c0-2.761,2.239-5,5-5h91.512c2.761,0,5,2.239,5,5V280z"/>
<rect x="432.117" y="193.333" fill="none" stroke="#FFFFFF" stroke-width="2" stroke-linecap="round" stroke-miterlimit="10" width="20" height="10"/>
<rect x="452.117" y="193.333" fill="none" stroke="#FFFFFF" stroke-width="2" stroke-linecap="round" stroke-miterlimit="10" width="20" height="10"/>
<rect x="392.117" y="193.333" fill="none" stroke="#FFFFFF" stroke-width="2" stroke-linecap="round" stroke-miterlimit="10" width="20" height="10"/>
<rect x="372.117" y="193.333" fill="none" stroke="#FFFFFF" stroke-width="2" stroke-linecap="round" stroke-miterlimit="10" width="20" height="10"/>
<rect x="412.117" y="193.333" fill="none" stroke="#FFFFFF" stroke-width="2" stroke-linecap="round" stroke-miterlimit="10" width="20" height="10"/>
<rect x="432.117" y="203.333" fill="none" stroke="#FFFFFF" stroke-width="2" stroke-linecap="round" stroke-miterlimit="10" width="20" height="10"/>
<rect x="452.117" y="203.333" fill="none" stroke="#FFFFFF" stroke-width="2" stroke-linecap="round" stroke-miterlimit="10" width="20" height="10"/>
<rect x="392.117" y="203.333" fill="none" stroke="#FFFFFF" stroke-width="2" stroke-linecap="round" stroke-miterlimit="10" width="20" height="10"/>
<rect x="372.117" y="203.333" fill="none" stroke="#FFFFFF" stroke-width="2" stroke-linecap="round" stroke-miterlimit="10" width="20" height="10"/>
<rect x="412.117" y="203.333" fill="none" stroke="#FFFFFF" stroke-width="2" stroke-linecap="round" stroke-miterlimit="10" width="20" height="10"/>
<rect x="432.117" y="213.333" fill="none" stroke="#FFFFFF" stroke-width="2" stroke-linecap="round" stroke-miterlimit="10" width="20" height="10"/>
<rect x="452.117" y="213.333" fill="none" stroke="#FFFFFF" stroke-width="2" stroke-linecap="round" stroke-miterlimit="10" width="20" height="10"/>
<rect x="392.117" y="213.333" fill="none" stroke="#FFFFFF" stroke-width="2" stroke-linecap="round" stroke-miterlimit="10" width="20" height="10"/>
<rect x="372.117" y="213.333" fill="none" stroke="#FFFFFF" stroke-width="2" stroke-linecap="round" stroke-miterlimit="10" width="20" height="10"/>
<rect x="412.117" y="213.333" fill="none" stroke="#FFFFFF" stroke-width="2" stroke-linecap="round" stroke-miterlimit="10" width="20" height="10"/>
<rect x="432.117" y="223.333" fill="none" stroke="#FFFFFF" stroke-width="2" stroke-linecap="round" stroke-miterlimit="10" width="20" height="10"/>
<rect x="452.117" y="223.333" fill="none" stroke="#FFFFFF" stroke-width="2" stroke-linecap="round" stroke-miterlimit="10" width="20" height="10"/>
<rect x="392.117" y="223.333" fill="none" stroke="#FFFFFF" stroke-width="2" stroke-linecap="round" stroke-miterlimit="10" width="20" height="10"/>
<rect x="372.117" y="223.333" fill="none" stroke="#FFFFFF" stroke-width="2" stroke-linecap="round" stroke-miterlimit="10" width="20" height="10"/>
<rect x="412.117" y="223.333" fill="none" stroke="#FFFFFF" stroke-width="2" stroke-linecap="round" stroke-miterlimit="10" width="20" height="10"/>
<rect x="432.117" y="233.333" fill="none" stroke="#FFFFFF" stroke-width="2" stroke-linecap="round" stroke-miterlimit="10" width="20" height="10"/>
<rect x="452.117" y="233.333" fill="none" stroke="#FFFFFF" stroke-width="2" stroke-linecap="round" stroke-miterlimit="10" width="20" height="10"/>
<rect x="392.117" y="233.333" fill="none" stroke="#FFFFFF" stroke-width="2" stroke-linecap="round" stroke-miterlimit="10" width="20" height="10"/>
<rect x="372.117" y="233.333" fill="none" stroke="#FFFFFF" stroke-width="2" stroke-linecap="round" stroke-miterlimit="10" width="20" height="10"/>
<rect x="412.117" y="233.333" fill="none" stroke="#FFFFFF" stroke-width="2" stroke-linecap="round" stroke-miterlimit="10" width="20" height="10"/>
<rect x="432.117" y="243.333" fill="none" stroke="#FFFFFF" stroke-width="2" stroke-linecap="round" stroke-miterlimit="10" width="20" height="10"/>
<rect x="452.117" y="243.333" fill="none" stroke="#FFFFFF" stroke-width="2" stroke-linecap="round" stroke-miterlimit="10" width="20" height="10"/>
<rect x="392.117" y="243.333" fill="none" stroke="#FFFFFF" stroke-width="2" stroke-linecap="round" stroke-miterlimit="10" width="20" height="10"/>
<rect x="372.117" y="243.333" fill="none" stroke="#FFFFFF" stroke-width="2" stroke-linecap="round" stroke-miterlimit="10" width="20" height="10"/>
<rect x="412.117" y="243.333" fill="none" stroke="#FFFFFF" stroke-width="2" stroke-linecap="round" stroke-miterlimit="10" width="20" height="10"/>
<rect x="432.117" y="253.333" fill="none" stroke="#FFFFFF" stroke-width="2" stroke-linecap="round" stroke-miterlimit="10" width="20" height="10"/>
<rect x="452.117" y="253.333" fill="none" stroke="#FFFFFF" stroke-width="2" stroke-linecap="round" stroke-miterlimit="10" width="20" height="10"/>
<rect x="392.117" y="253.333" fill="none" stroke="#FFFFFF" stroke-width="2" stroke-linecap="round" stroke-miterlimit="10" width="20" height="10"/>
<rect x="372.117" y="253.333" fill="none" stroke="#FFFFFF" stroke-width="2" stroke-linecap="round" stroke-miterlimit="10" width="20" height="10"/>
<rect x="412.117" y="253.333" fill="none" stroke="#FFFFFF" stroke-width="2" stroke-linecap="round" stroke-miterlimit="10" width="20" height="10"/>
<rect x="432.117" y="263.333" fill="none" stroke="#FFFFFF" stroke-width="2" stroke-linecap="round" stroke-miterlimit="10" width="20" height="10"/>
<rect x="452.117" y="263.333" fill="none" stroke="#FFFFFF" stroke-width="2" stroke-linecap="round" stroke-miterlimit="10" width="20" height="10"/>
<rect x="392.117" y="263.333" fill="none" stroke="#FFFFFF" stroke-width="2" stroke-linecap="round" stroke-miterlimit="10" width="20" height="10"/>
<rect x="372.117" y="263.333" fill="none" stroke="#FFFFFF" stroke-width="2" stroke-linecap="round" stroke-miterlimit="10" width="20" height="10"/>
<rect x="412.117" y="263.333" fill="none" stroke="#FFFFFF" stroke-width="2" stroke-linecap="round" stroke-miterlimit="10" width="20" height="10"/>
<path fill="none" stroke="#FFFFFF" stroke-width="2" stroke-linecap="round" stroke-miterlimit="10" d="M1247.443,485.567
	c0,2.904-2.355,5.26-5.26,5.26H908.569c-2.905,0-5.26-2.355-5.26-5.26V242.3c0-2.905,2.354-5.26,5.26-5.26h333.614
	c2.904,0,5.26,2.354,5.26,5.26V485.567z"/>
<path fill="none" stroke="#FFFFFF" stroke-width="2" stroke-linecap="round" stroke-miterlimit="10" d="M1235.52,475.242
	c0,2.646-2.192,4.792-4.896,4.792H920.127c-2.704,0-4.896-2.146-4.896-4.792V253.625c0-2.647,2.191-4.792,4.896-4.792h310.497
	c2.703,0,4.896,2.145,4.896,4.792V475.242z"/>
<path fill="none" stroke="#FFFFFF" stroke-width="2" stroke-linecap="round" stroke-miterlimit="10" d="M630.324,560.516H118.552
	c-2.761,0-5-2.238-5-5V400.334v-20.096v-43.811c0-11.045-8.954-20-20-20l0,0c-11.046,0-20,8.955-20,20v43.811v19.096v196.182
	c0,2.762,2.239,5,5,5h1193.771l33.613,0.008h43.811c11.045,0,20-8.954,20-20l0,0c0-11.046-8.955-20-20-20h-43.811h-30H948.874"/>
<path fill="none" stroke="#FFFFFF" stroke-width="2" stroke-linecap="round" stroke-miterlimit="10" d="M72.487,343.75
	c-3.257-4.373-5.185-9.795-5.185-15.666c0-14.498,11.752-26.25,26.25-26.25s26.25,11.752,26.25,26.25
	c0,5.863-1.923,11.277-5.172,15.647"/>
<path fill="none" stroke="#FFFFFF" stroke-width="2" stroke-linecap="round" stroke-miterlimit="10" d="M1342.425,559.459
	c4.373-3.258,9.795-5.186,15.666-5.186c14.498,0,26.25,11.752,26.25,26.25s-11.752,26.25-26.25,26.25
	c-5.863,0-11.277-1.923-15.647-5.172"/>
<line fill="none" stroke="#FFFFFF" stroke-width="2" stroke-linecap="round" stroke-miterlimit="10" x1="1055.375" y1="490.827" x2="1055.375" y2="560.523"/>
<line fill="none" stroke="#FFFFFF" stroke-width="2" stroke-linecap="round" stroke-miterlimit="10" x1="1095.375" y1="490.827" x2="1095.375" y2="560.523"/>
<circle fill="none" stroke="#FFFFFF" stroke-width="2" stroke-linecap="round" stroke-miterlimit="10" cx="1075.376" cy="525.676" r="11.657"/>
<path fill="none" stroke="#FFFFFF" stroke-width="2" stroke-linecap="round" stroke-linejoin="round" stroke-miterlimit="10" d="
	M871.874,536.429V428.333v-6.683c0,3.69-36.936,6.683-82.5,6.683s-82.5-2.992-82.5-6.683v6.683v108.096"/>
<g>
	<path fill="#FFFFFF" d="M953.458,341.453c1.68-0.199,3.489-0.35,5.43-0.449c1.939-0.1,3.99-0.15,6.15-0.15
		c2.6,0,4.92,0.32,6.96,0.96s3.759,1.521,5.159,2.64c1.4,1.121,2.46,2.471,3.181,4.051c0.72,1.58,1.08,3.29,1.08,5.129
		c0,2.241-0.431,4.23-1.29,5.971c-0.861,1.74-2.061,3.21-3.601,4.41c-1.54,1.199-3.39,2.11-5.55,2.73s-4.54,0.93-7.14,0.93
		c-1.681,0-3.24-0.061-4.681-0.18v15.84h-5.699V341.453z M964.558,362.934c3.6,0,6.369-0.789,8.31-2.37
		c1.94-1.579,2.91-3.729,2.91-6.45c0-2.6-0.93-4.659-2.79-6.18c-1.859-1.52-4.551-2.28-8.069-2.28c-1.08,0-2.101,0.021-3.061,0.06
		c-0.96,0.041-1.859,0.102-2.7,0.181v16.739c0.64,0.082,1.41,0.15,2.311,0.211C962.368,362.903,963.398,362.934,964.558,362.934z"/>
	<path fill="#FFFFFF" d="M1012.797,384.054l-5.22-11.4c-1.32-2.839-2.98-4.86-4.98-6.06c-2-1.2-4.56-1.801-7.68-1.801h-0.9v18.541
		h-5.699v-41.881c2.159-0.199,4.189-0.35,6.09-0.449c1.899-0.1,3.969-0.15,6.21-0.15c2.56,0,4.8,0.27,6.72,0.811
		c1.92,0.539,3.52,1.311,4.8,2.31c1.28,1,2.25,2.181,2.91,3.54c0.66,1.36,0.99,2.86,0.99,4.5c0,2.92-0.87,5.271-2.61,7.05
		c-1.74,1.78-4.25,3.11-7.529,3.99c0.799,0.36,1.539,0.771,2.22,1.229c0.68,0.461,1.319,1.021,1.92,1.68
		c0.6,0.66,1.189,1.451,1.77,2.371s1.17,2.039,1.771,3.359l4.56,9.84L1012.797,384.054z M1000.618,345.653
		c-1.36,0-2.58,0.021-3.66,0.06c-1.08,0.041-2.061,0.102-2.94,0.181v14.101h6.601c2.88,0,5.22-0.641,7.02-1.92
		c1.8-1.28,2.7-3.121,2.7-5.521c0-2-0.84-3.649-2.52-4.95C1006.137,346.305,1003.738,345.653,1000.618,345.653z"/>
	<path fill="#FFFFFF" d="M1022.937,362.273c0-3.08,0.45-5.939,1.35-8.58c0.9-2.64,2.2-4.93,3.9-6.869
		c1.699-1.94,3.77-3.46,6.21-4.561c2.439-1.1,5.22-1.65,8.34-1.65c3.08,0,5.851,0.57,8.311,1.711
		c2.46,1.139,4.539,2.689,6.239,4.649s3.01,4.251,3.931,6.87c0.919,2.62,1.38,5.43,1.38,8.43s-0.45,5.82-1.351,8.46
		c-0.899,2.64-2.21,4.95-3.93,6.931c-1.72,1.979-3.801,3.539-6.24,4.68c-2.44,1.14-5.22,1.71-8.34,1.71s-5.9-0.57-8.34-1.71
		c-2.44-1.141-4.511-2.7-6.21-4.68c-1.7-1.98-3-4.291-3.9-6.931C1023.387,368.094,1022.937,365.273,1022.937,362.273z
		 M1028.757,362.273c0,2.16,0.309,4.26,0.93,6.301c0.62,2.039,1.53,3.84,2.73,5.399c1.199,1.56,2.67,2.811,4.409,3.75
		c1.74,0.94,3.71,1.409,5.91,1.409c2.319,0,4.351-0.429,6.09-1.289c1.74-0.859,3.2-2.04,4.38-3.54s2.07-3.28,2.671-5.341
		c0.6-2.059,0.899-4.289,0.899-6.689c0-2.16-0.32-4.239-0.96-6.24c-0.641-2-1.56-3.779-2.76-5.34s-2.67-2.81-4.41-3.75
		c-1.74-0.939-3.711-1.41-5.91-1.41c-2.2,0-4.17,0.431-5.91,1.291c-1.739,0.859-3.21,2.039-4.409,3.539
		c-1.2,1.5-2.11,3.27-2.73,5.311C1029.066,357.713,1028.757,359.914,1028.757,362.273z"/>
	<path fill="#FFFFFF" d="M1074.417,362.273c0,2.52,0.33,4.811,0.989,6.87c0.66,2.061,1.58,3.831,2.761,5.31
		c1.179,1.48,2.589,2.621,4.229,3.42c1.64,0.801,3.439,1.201,5.4,1.201c1.959,0,3.66-0.23,5.1-0.691
		c1.44-0.459,2.84-1.089,4.2-1.889l1.74,4.739c-1.48,0.801-3.171,1.47-5.07,2.011c-1.9,0.539-4.11,0.81-6.63,0.81
		c-2.76,0-5.271-0.501-7.53-1.5s-4.21-2.431-5.85-4.29c-1.641-1.86-2.91-4.119-3.811-6.78c-0.899-2.659-1.35-5.649-1.35-8.97
		c0-3.199,0.45-6.14,1.35-8.82c0.9-2.68,2.19-4.989,3.87-6.93c1.681-1.939,3.71-3.45,6.09-4.53s5.03-1.62,7.95-1.62
		c2.04,0,3.87,0.19,5.49,0.57c1.62,0.381,3.15,0.91,4.59,1.59l-1.74,4.801c-1.24-0.601-2.51-1.08-3.81-1.441
		c-1.301-0.359-2.83-0.539-4.59-0.539c-1.92,0-3.7,0.37-5.34,1.109c-1.641,0.741-3.061,1.83-4.261,3.271
		c-1.199,1.44-2.13,3.19-2.79,5.25C1074.747,357.284,1074.417,359.633,1074.417,362.273z"/>
	<path fill="#FFFFFF" d="M1106.636,341.334h25.199v4.92h-19.5v12.779h16.801v4.801h-16.801v14.58h19.5v4.92h-25.199V341.334z"/>
	<path fill="#FFFFFF" d="M1139.215,374.994c1.44,1.199,3.061,2.18,4.86,2.939s3.9,1.141,6.3,1.141c2.88,0,5.16-0.601,6.84-1.801
		c1.681-1.199,2.521-2.82,2.521-4.859c0-0.84-0.12-1.621-0.36-2.34c-0.24-0.721-0.711-1.41-1.41-2.07
		c-0.7-0.66-1.68-1.32-2.939-1.98s-2.891-1.369-4.891-2.13c-2.159-0.84-3.989-1.67-5.489-2.49c-1.5-0.819-2.711-1.72-3.63-2.7
		c-0.921-0.979-1.581-2.059-1.98-3.24c-0.4-1.179-0.6-2.529-0.6-4.049c0-1.48,0.309-2.881,0.93-4.201
		c0.619-1.319,1.539-2.469,2.76-3.449c1.22-0.98,2.72-1.75,4.5-2.311c1.779-0.559,3.811-0.84,6.09-0.84c2.48,0,4.7,0.25,6.66,0.75
		c1.96,0.501,3.9,1.211,5.82,2.131l-2.101,4.859c-1.36-0.8-2.95-1.471-4.77-2.01c-1.82-0.54-3.73-0.811-5.73-0.811
		c-2.64,0-4.72,0.51-6.239,1.53c-1.521,1.021-2.28,2.37-2.28,4.05c0,0.801,0.109,1.511,0.33,2.131c0.22,0.62,0.66,1.221,1.32,1.799
		c0.659,0.581,1.579,1.17,2.76,1.771c1.179,0.601,2.749,1.261,4.71,1.979c2.319,0.881,4.279,1.781,5.88,2.701
		c1.6,0.92,2.88,1.9,3.84,2.939c0.96,1.041,1.65,2.16,2.07,3.359c0.42,1.201,0.63,2.521,0.63,3.961c0,1.96-0.381,3.699-1.14,5.22
		c-0.761,1.521-1.811,2.811-3.15,3.87c-1.341,1.061-2.95,1.859-4.83,2.4c-1.881,0.539-3.921,0.81-6.12,0.81
		c-2.92,0-5.58-0.39-7.979-1.171c-2.4-0.779-4.421-1.809-6.061-3.09L1139.215,374.994z"/>
	<path fill="#FFFFFF" d="M1173.294,374.994c1.44,1.199,3.061,2.18,4.86,2.939s3.9,1.141,6.3,1.141c2.88,0,5.16-0.601,6.84-1.801
		c1.681-1.199,2.521-2.82,2.521-4.859c0-0.84-0.12-1.621-0.36-2.34c-0.24-0.721-0.711-1.41-1.41-2.07
		c-0.7-0.66-1.68-1.32-2.939-1.98s-2.891-1.369-4.891-2.13c-2.159-0.84-3.989-1.67-5.489-2.49c-1.5-0.819-2.711-1.72-3.63-2.7
		c-0.921-0.979-1.581-2.059-1.98-3.24c-0.4-1.179-0.6-2.529-0.6-4.049c0-1.48,0.309-2.881,0.93-4.201
		c0.619-1.319,1.539-2.469,2.76-3.449c1.22-0.98,2.72-1.75,4.5-2.311c1.779-0.559,3.811-0.84,6.09-0.84c2.48,0,4.7,0.25,6.66,0.75
		c1.96,0.501,3.9,1.211,5.82,2.131l-2.101,4.859c-1.36-0.8-2.95-1.471-4.77-2.01c-1.82-0.54-3.73-0.811-5.73-0.811
		c-2.64,0-4.72,0.51-6.239,1.53c-1.521,1.021-2.28,2.37-2.28,4.05c0,0.801,0.109,1.511,0.33,2.131c0.22,0.62,0.66,1.221,1.32,1.799
		c0.659,0.581,1.579,1.17,2.76,1.771c1.179,0.601,2.749,1.261,4.71,1.979c2.319,0.881,4.279,1.781,5.88,2.701
		c1.6,0.92,2.88,1.9,3.84,2.939c0.96,1.041,1.65,2.16,2.07,3.359c0.42,1.201,0.63,2.521,0.63,3.961c0,1.96-0.381,3.699-1.14,5.22
		c-0.761,1.521-1.811,2.811-3.15,3.87c-1.341,1.061-2.95,1.859-4.83,2.4c-1.881,0.539-3.921,0.81-6.12,0.81
		c-2.92,0-5.58-0.39-7.979-1.171c-2.4-0.779-4.421-1.809-6.061-3.09L1173.294,374.994z"/>
</g>
<path fill="none" stroke="#FFFFFF" stroke-width="2" stroke-linecap="round" stroke-miterlimit="10" d="M953.458,580.267
	L953.458,580.267c0-23.886-19.363-43.249-43.249-43.249H668.067c-23.886,0-43.249,19.363-43.249,43.249l0,0H953.458z"/>
<line fill="none" stroke="#FFFFFF" stroke-width="2" stroke-linecap="round" stroke-miterlimit="10" x1="614.874" y1="62.833" x2="1317.374" y2="62.833"/>
<path fill="#FFFFFF" d="M601.336,131.492c0,7.008-5.682,12.688-12.688,12.688l0,0c-7.007,0-12.688-5.681-12.688-12.688v-76.13
	c0-7.008,5.682-12.688,12.688-12.688l0,0c7.006,0,12.688,5.681,12.688,12.688V131.492z"/>
<path fill="none" stroke="#FFFFFF" stroke-width="2" stroke-linecap="round" stroke-miterlimit="10" d="M634.433,82.247
	c0,1.599-1.296,2.894-2.895,2.894h-8.441c-1.599,0-2.894-1.295-2.894-2.894v-8.442c0-1.598,1.295-2.895,2.894-2.895h8.441
	c1.599,0,2.895,1.297,2.895,2.895V82.247z"/>
<path fill="none" stroke="#FFFFFF" stroke-width="2" stroke-linecap="round" stroke-miterlimit="10" d="M663.375,82.247
	c0,1.599-1.296,2.894-2.895,2.894h-8.443c-1.596,0-2.892-1.295-2.892-2.894v-8.442c0-1.598,1.296-2.895,2.892-2.895h8.443
	c1.599,0,2.895,1.297,2.895,2.895V82.247z"/>
<path fill="none" stroke="#FFFFFF" stroke-width="2" stroke-linecap="round" stroke-miterlimit="10" d="M692.318,82.247
	c0,1.599-1.296,2.894-2.895,2.894h-8.443c-1.597,0-2.892-1.295-2.892-2.894v-8.442c0-1.598,1.295-2.895,2.892-2.895h8.443
	c1.599,0,2.895,1.297,2.895,2.895V82.247z"/>
<path fill="none" stroke="#FFFFFF" stroke-width="2" stroke-linecap="round" stroke-miterlimit="10" d="M634.433,111.189
	c0,1.599-1.296,2.894-2.895,2.894h-8.441c-1.599,0-2.894-1.295-2.894-2.894v-8.442c0-1.598,1.295-2.895,2.894-2.895h8.441
	c1.599,0,2.895,1.297,2.895,2.895V111.189z"/>
<path fill="none" stroke="#FFFFFF" stroke-width="2" stroke-linecap="round" stroke-miterlimit="10" d="M663.375,111.189
	c0,1.599-1.296,2.894-2.895,2.894h-8.443c-1.596,0-2.892-1.295-2.892-2.894v-8.442c0-1.598,1.296-2.895,2.892-2.895h8.443
	c1.599,0,2.895,1.297,2.895,2.895V111.189z"/>
<path fill="none" stroke="#FFFFFF" stroke-width="2" stroke-linecap="round" stroke-miterlimit="10" d="M692.318,111.189
	c0,1.599-1.296,2.894-2.895,2.894h-8.443c-1.597,0-2.892-1.295-2.892-2.894v-8.442c0-1.598,1.295-2.895,2.892-2.895h8.443
	c1.599,0,2.895,1.297,2.895,2.895V111.189z"/>
<path fill="none" stroke="#FFFFFF" stroke-width="2" stroke-linecap="round" stroke-miterlimit="10" d="M634.433,140.131
	c0,1.598-1.296,2.894-2.895,2.894h-8.441c-1.599,0-2.894-1.296-2.894-2.894v-8.442c0-1.599,1.295-2.894,2.894-2.894h8.441
	c1.599,0,2.895,1.295,2.895,2.894V140.131z"/>
<path fill="none" stroke="#FFFFFF" stroke-width="2" stroke-linecap="round" stroke-miterlimit="10" d="M663.375,140.131
	c0,1.598-1.296,2.894-2.895,2.894h-8.443c-1.596,0-2.892-1.296-2.892-2.894v-8.442c0-1.599,1.296-2.894,2.892-2.894h8.443
	c1.599,0,2.895,1.295,2.895,2.894V140.131z"/>
<path fill="none" stroke="#FFFFFF" stroke-width="2" stroke-linecap="round" stroke-miterlimit="10" d="M692.318,140.131
	c0,1.598-1.296,2.894-2.895,2.894h-8.443c-1.597,0-2.892-1.296-2.892-2.894v-8.442c0-1.599,1.295-2.894,2.892-2.894h8.443
	c1.599,0,2.895,1.295,2.895,2.894V140.131z"/>
<line fill="none" stroke="#FFFFFF" stroke-width="2" stroke-linecap="round" stroke-miterlimit="10" x1="517.117" y1="106.833" x2="553.117" y2="106.833"/>
<line fill="none" stroke="#FFFFFF" stroke-width="2" stroke-linecap="round" stroke-miterlimit="10" x1="537.117" y1="126.833" x2="553.117" y2="126.833"/>
</svg>
