<?xml version="1.0" encoding="utf-8"?>
<!-- Generator: Adobe Illustrator 16.0.0, SVG Export Plug-In . SVG Version: 6.00 Build 0)  -->
<!DOCTYPE svg PUBLIC "-//W3C//DTD SVG 1.1//EN" "http://www.w3.org/Graphics/SVG/1.1/DTD/svg11.dtd">
<svg class="one" version="1.1"  xmlns="http://www.w3.org/2000/svg" xmlns:xlink="http://www.w3.org/1999/xlink" x="0px" y="0px"
	 width="150px" height="150px" viewBox="0 0 150 150" enable-background="new 0 0 150 150" xml:space="preserve">
	  
<g class="wc">
	<path fill="none" stroke="#fff" stroke-linecap="round" stroke-miterlimit="10" d="M131.3,87c0,2.8-2.2,5-5,5h-107
		c-2.8,0-5-2.2-5-5V35.5c0-2.8,2.2-5,5-5h107c2.8,0,5,2.2,5,5V87z"/>
	
		<rect x="19.5" y="35.5" fill="none" stroke="#fff" stroke-linecap="round" stroke-miterlimit="10" width="106.5" height="51.5"/>
	<path fill="none" stroke="#fff" stroke-linecap="round" stroke-miterlimit="10" d="M141.3,92c0,2.8-2.2,5-5,5H9.3
		c-2.8,0-5-2.2-5-5H141.3z"/>
	<path fill="none" stroke="#fff" stroke-linecap="round" stroke-miterlimit="10" d="M69,22.5a3.8,3.8 0 1,0 7.6,0a3.8,3.8 0 1,0 -7.6,0"/>
	<path fill="none" stroke="#fff" stroke-linecap="round" stroke-miterlimit="10" d="M71.2,22.5a1.6,1.6 0 1,0 3.2,0a1.6,1.6 0 1,0 -3.2,0"/>
	<line fill="none" stroke="#fff" stroke-linecap="round" stroke-miterlimit="10" x1="72.8" y1="26.4" x2="72.8" y2="30.5"/>
	<path fill="none" stroke="#fff" stroke-linecap="round" stroke-miterlimit="10" d="M56.3,69.2c0,1.7-1.3,3-3,3l0,0
		c-1.7,0-3-1.3-3-3v-5.8c0-1.7,1.3-3,3-3l0,0c1.7,0,3,1.3,3,3V69.2z"/>
	<path fill="none" stroke="#fff" stroke-linecap="round" stroke-miterlimit="10" d="M95.3,69.2c0,1.7-1.3,3-3,3l0,0
		c-1.7,0-3-1.3-3-3v-5.8c0-1.7,1.3-3,3-3l0,0c1.7,0,3,1.3,3,3V69.2z"/>
	<path fill="none" stroke="#fff" stroke-linecap="round" stroke-miterlimit="10" d="M53.3,60.2c0-10.8,8.7-19.5,19.5-19.5
		s19.5,8.7,19.5,19.5"/>
	<path fill="none" stroke="#fff" stroke-linecap="round" stroke-miterlimit="10" d="M92.3,72.2v3.3c0,1.4-1.2,2.6-2.6,2.6H74.8
		c-1.4,0-2.6-1.2-2.6-2.6"/>
	<path fill="none" stroke="#fff" stroke-linecap="round" stroke-miterlimit="10" d="M74.2,73.6c0,1-0.8,1.9-1.9,1.9l0,0
		c-1,0-1.9-0.8-1.9-1.9l0,0c0-1,0.8-1.9,1.9-1.9l0,0C73.3,71.7,74.2,72.5,74.2,73.6L74.2,73.6z"/>
	<line fill="none" stroke="#fff" stroke-linecap="round" stroke-miterlimit="10" x1="63.3" y1="94.5" x2="82.2" y2="94.5"/>
	<line fill="none" stroke="#fff" stroke-linecap="round" stroke-miterlimit="10" x1="95.3" y1="66.3" x2="126" y2="66.3"/>
	<path fill="none" stroke="#fff" stroke-linecap="round" stroke-miterlimit="10" d="M140.8,66.3c2.8,0,5,2.2,5,5v37.5
		c0,2.8-2.2,5-5,5H92.3"/>
	<line fill="none" stroke="#fff" stroke-linecap="round" stroke-miterlimit="10" x1="140.8" y1="66.3" x2="131.3" y2="66.3"/>
	<path fill="none" stroke="#fff" stroke-linecap="round" stroke-miterlimit="10" d="M92.3,113.8c0,2.2-1.8,4-4,4H74.4
		c-2.2,0-4-1.8-4-4l0,0c0-2.2,1.8-4,4-4h13.9C90.5,109.8,92.3,111.6,92.3,113.8L92.3,113.8z"/>
	<line fill="none" stroke="#fff" stroke-linecap="round" stroke-miterlimit="10" x1="70.4" y1="113.8" x2="22.3" y2="113.8"/>
	<path fill="none" stroke="#fff" stroke-linecap="round" stroke-miterlimit="10" d="M22.1,127.5c-3.8,0-6.9-3.1-6.9-6.9
		s3.1-6.9,6.9-6.9"/>
	<line fill="none" stroke="#fff" stroke-linecap="round" stroke-miterlimit="10" x1="22.1" y1="127.5" x2="106.1" y2="127.5"/>
	<path fill="none" stroke="#fff" stroke-linecap="round" stroke-miterlimit="10" d="M132.8,127.4c0,2.2-1.8,3.9-3.9,3.9H110
		c-2.2,0-3.9-1.8-3.9-3.9l0,0c0-2.2,1.8-3.9,3.9-3.9h18.8C131,123.5,132.8,125.2,132.8,127.4L132.8,127.4z"/>
	<line fill="none" stroke="#fff" stroke-linecap="round" stroke-miterlimit="10" x1="132.8" y1="127.4" x2="142.9" y2="127.4"/>
</g>
</svg>
