<?xml version="1.0" encoding="utf-8"?>
<!-- Generator: Adobe Illustrator 16.0.0, SVG Export Plug-In . SVG Version: 6.00 Build 0)  -->
<!DOCTYPE svg PUBLIC "-//W3C//DTD SVG 1.1//EN" "http://www.w3.org/Graphics/SVG/1.1/DTD/svg11.dtd">
<svg version="1.1" id="Layer_1" xmlns="http://www.w3.org/2000/svg" xmlns:xlink="http://www.w3.org/1999/xlink" x="0px" y="0px"
	 width="600px" height="600px" viewBox="0 0 600 600" enable-background="new 0 0 600 600" xml:space="preserve">
<g>
	<path fill="#DBEEEA" d="M260,533c0,0-87.5,48.4-177.9-90.3c0,0-24.9-7.1-37,34.9c0,0-24.2-43.4,10-77.5c0,0-25.2-97.5-18.3-118.8
		c0,0-37.5-83.3-13.7-83.2c28.4,0.1,80.4,75.4,80.4,75.4l71.1,167.9l47.7,71.1l57.6-5L260,533z"/>
	<path fill="#7FCED3" d="M23.1,198c0,0,21.3-6.4,34.1,22.8c0,0,58.3-3.6,82.5,53.4c24.2,56.9,20.6,89.6,28.5,93.9
		c7.8,4.3,74,8.5,81.8,54.1c0,0-33.4-9.2-47.7,14.2c0,0-23.5,69.7,83.9,54.1c0,0-17.8-59.8,22.8-66.2c0,0-2.8,19.2,5.7,29.2
		c0,0,5.7,8.5,0,23.5c0,0,24.9-2.1,33.4,7.1c0,0,12.1,13.8,28.5,8.7c0,0-11.4,39.7-69.7,12.6c0,0-56.2,73.6-132.3,9.4
		s-82.5-68.5-79.7-77c2.8-8.5,11.4-9.2,0-26.3c-11.4-17.1-41.3-76.8-43.4-128.1c0,0-2.1-29.2-5-34.1C43.7,244.2,18.1,213.6,23.1,198
		z"/>
	<circle fill="#FFFFFF" cx="78.6" cy="281.9" r="6.4"/>
</g>
<g>
	<path fill="#DBEEEA" d="M164.4,126.5c0,0-24.9,12.9,68.3,13.5h52.6c0,0-13.5,37.7,33.4,53.4c0,0-14.2-40.6,12.1-37
		c26.3,3.6,88.9,22.8,111.7,47c22.8,24.2,71.1,72.6,77.5,161.5c0,0,14.9-197.1-92.5-241.9C320.2,78.1,164.4,126.5,164.4,126.5z"/>
	<path fill="#7FCED3" d="M164.4,126.5c0,0,4.3-10,23.5-14.9c0,0,18.5-51.9,78.3-57.6c59.8-5.7,131.6,3.6,131.6,3.6s39.1-27.7,74,3.6
		c0,0-45.5,9.2-20.6,31.3c24.9,22.1,72.6,70.4,83.2,138c10.7,67.6,7.1,133,7.1,133s38.4,12.8,50.5,49.8c0,0-20.3-9.8-37.4-6
		c-13.5,3-22.4-9.6-23.1-21.7c0,0,3.6,13.5-25.6,10.7c0,0-18.5-5-27,10c0,0-8.5-32.7,37.7-41.3c0,0,17.8-184.3-174.3-219.1
		c0,0-32.7-7.1-51.9-27c0,0-11.4-4.3-17.8,5.7c0,0-19.2,4.3-34.1-1.4c-14.9-5.7-26.3-5.7-36.3,0
		C192.1,128.6,173.6,132.2,164.4,126.5z"/>
	<circle fill="#FFFFFF" cx="231.3" cy="97.3" r="7.1"/>
</g>
</svg>
