<?xml version="1.0" encoding="utf-8"?>
<!-- Generator: Adobe Illustrator 16.0.0, SVG Export Plug-In . SVG Version: 6.00 Build 0)  -->
<!DOCTYPE svg PUBLIC "-//W3C//DTD SVG 1.1//EN" "http://www.w3.org/Graphics/SVG/1.1/DTD/svg11.dtd">
<svg version="1.1" id="Layer_1" xmlns="http://www.w3.org/2000/svg" xmlns:xlink="http://www.w3.org/1999/xlink" x="0px" y="0px"
	 width="600px" height="600px" viewBox="0 0 600 600" enable-background="new 0 0 600 600" xml:space="preserve">
<g>
	<g>
		<path fill="#00A651" d="M241.5,492.5c0,0,138.2-65.7,40.7-140.7c-97.6-75.1-20-63.8-16.9-62.6c3.1,1.3,49.4-8.8-11.9-45
			c-61.3-36.3-63.8-50.7-25-109.5c38.8-58.8-31.3-77.6-60.1-35c-28.8,42.5-29.4,84.4,0,116.4s21.9,25.6,10.6,50
			s-24.4,56.3,25.6,69.7c50,13.5,25.6,60.4,19.4,66.6C217.8,408.7,220.9,412.4,241.5,492.5z"/>
		<path fill="#006838" d="M241.8,492c1.1-0.6,4.7-2.4,10.3-5.9c6.8-4.2,16.8-10.5,28.1-20.1c5.6-4.8,11.7-10.4,17.4-17.3
			c2.8-3.4,5.6-7.1,8.1-11.2c2.5-4,4.7-8.5,6.3-13.2c0.9-2.4,1.5-4.8,2-7.4c0.4-2.5,0.8-5.1,0.8-7.8c0.1-1.3,0-2.6-0.1-4
			c-0.1-1.3-0.2-2.7-0.4-4c-0.3-2.7-1.1-5.3-1.9-8c-3.6-10.6-10.8-20.5-19.8-29.1c-1.2-1.1-2.3-2.1-3.5-3.2c-1.2-1-2.4-2.1-3.6-3.1
			c-2.5-2-5-4-7.7-6.1c-5.3-4.1-10.6-8.4-15.9-12.9c-5.3-4.5-10.6-9.3-15.6-14.5c-2.5-2.6-5-5.4-7.3-8.3c-2.3-2.9-4.5-6.1-6.3-9.7
			c-0.8-1.8-1.6-3.8-1.9-6c-0.4-2.2-0.2-4.7,0.9-7c1.1-2.3,3.1-4,5-5c2-1.1,4-1.7,6-2.1c4-0.8,8-0.9,11.9-0.7c2,0.1,3.9,0.3,5.9,0.5
			c1,0.1,2,0.3,3,0.4c0.5,0.1,1,0.2,1.5,0.3c0.3,0.1,0.5,0.1,0.9,0.2c-0.1,0,0.5,0.1,0.5,0.1c-0.1,0,0.4,0,0.8-0.1
			c0.4-0.1,0.8-0.1,1.3-0.2c0.9-0.1,1.7-0.3,2.6-0.6c1.7-0.5,3.5-1.1,5.1-1.9c3.2-1.6,6-3.9,6.8-6.9c0.8-3-0.6-6.5-2.6-9.6
			c-2.1-3.1-4.9-5.9-7.8-8.5c-5.9-5.2-12.6-9.7-19.4-13.9c-6.9-4.3-14-8.6-20.8-13.3c-3.4-2.4-6.8-4.8-10-7.5
			c-3.3-2.6-6.4-5.4-9.3-8.5c-2.9-3.1-5.5-6.5-7.5-10.3c-2-3.8-3.2-8.1-3.5-12.4c-0.3-4.3,0.3-8.7,1.3-12.8
			c1.1-4.2,2.6-8.2,4.3-12.1c3.5-7.8,7.8-15.2,12.3-22.5c4.3-7.3,9.5-14.3,13-21.8c0.5-0.9,0.8-1.9,1.3-2.9c0.4-1,0.8-1.9,1.2-2.9
			l1-3c0.2-0.5,0.3-1,0.5-1.5l0.3-1.5c1-4,1.3-8.2,0.9-12.1c-0.5-4-1.8-7.8-4.2-11c-2.3-3.2-5.5-5.7-9.1-7.4
			c-7.2-3.4-15.7-3.9-23.6-2.1c-7.9,1.7-15.3,5.6-21.4,10.9c-3,2.7-5.8,5.6-8.1,9l-0.9,1.2l-0.2,0.2l-0.2,0.3l-0.4,0.7l-1.7,2.7
			l-1.7,2.7c-0.6,0.9-1.1,1.8-1.6,2.7c-4,7.1-7.5,14.6-10.3,22.2c-2.6,7.7-4.3,15.6-4.9,23.5c-0.1,2-0.2,4-0.3,5.9
			c0.1,2,0.2,3.9,0.3,5.9c0,1,0.2,2,0.3,2.9l0.4,2.9c0.2,2,0.7,3.8,1.2,5.7l0.7,2.8c0.3,0.9,0.6,1.8,0.9,2.8l1,2.7l0.5,1.4l0.6,1.3
			c0.8,1.8,1.6,3.5,2.4,5.3c1,1.7,1.9,3.3,2.9,5c0.2,0.4,0.5,0.8,0.7,1.2l0.8,1.2l1.7,2.3l1.7,2.3l1.9,2.2c1.3,1.5,2.4,2.9,3.8,4.4
			c1.3,1.5,2.7,2.9,4,4.4c2.7,2.9,5.3,5.9,7.9,8.9c1.3,1.5,2.6,3.1,3.8,4.7c1.2,1.6,2.4,3.4,3.4,5.4c1,2,1.9,4.4,1.8,7.1
			c-0.1,2.7-1,5-1.9,6.8c-1.9,3.7-3.8,6.8-5.5,10.1c-0.9,1.6-1.7,3.2-2.5,4.9c-0.8,1.6-1.6,3.4-2.3,5c-1.5,3.3-2.9,6.7-4.2,10
			c-2.5,6.7-4.2,13.5-4.1,20c0.1,3.2,0.6,6.4,1.8,9.3c1.1,2.9,2.8,5.5,4.9,7.8c2.1,2.3,4.6,4.3,7.3,6c1.3,0.9,2.8,1.6,4.1,2.4
			c1.5,0.7,2.9,1.4,4.4,2c1.5,0.6,3,1.2,4.5,1.7l2.3,0.8l2.3,0.7c1.6,0.5,3.1,1,4.7,1.4c0.8,0.3,1.5,0.4,2.3,0.8l2.4,0.9
			c3.2,1.2,6.1,2.8,9,4.5c2.8,1.9,5.4,3.9,7.6,6.4c2.2,2.5,4.1,5.2,5.4,8.2c1.3,3,2.2,6.1,2.7,9.2c0.9,6.2,0.3,12.3-1.2,17.8
			c-1.4,5.6-3.6,10.7-6.2,15.4c-1.3,2.3-2.8,4.7-4.7,6.6l-0.6,0.7l-0.3,0.3c-0.1,0.1-0.1,0.2-0.2,0.3c-0.1,0.2-0.2,0.4-0.4,0.5
			c-0.1,0.2-0.2,0.4-0.3,0.6c-0.2,0.4-0.3,0.9-0.4,1.4c-0.2,0.4-0.1,1-0.1,1.6c-0.1,0.5,0,1.1,0,1.7c0,0.6,0.1,1.1,0.1,1.7
			c0.2,1.1,0.3,2.3,0.5,3.4c0.2,1.1,0.4,2.3,0.6,3.4c0.2,1.1,0.5,2.2,0.7,3.3c2,8.8,4,16.8,5.8,24.1c3.5,14.5,6.3,26,8.2,33.8
			C240.5,486.9,241.5,490.8,241.8,492z M241.2,492.6c0,0-4.7-16.5-12.8-45.2c-2-7.2-4.3-15.2-6.5-23.9c-0.3-1.1-0.5-2.2-0.8-3.3
			c-0.2-1.1-0.5-2.3-0.8-3.5c-0.2-1.2-0.4-2.4-0.6-3.6c-0.1-0.6-0.1-1.3-0.2-1.9c-0.1-0.6-0.1-1.3-0.1-2c0-0.7,0-1.3,0.1-2.1
			c0.1-0.7,0.2-1.5,0.6-2.2c0.2-0.4,0.3-0.7,0.5-1.1l0.7-1l0.3-0.5l0.3-0.4l0.6-0.7c1.6-1.7,2.8-3.8,4-6c2.3-4.4,4.2-9.4,5.4-14.5
			c0.6-2.6,1-5.3,1.1-7.9c0.1-2.7,0.1-5.4-0.4-8.1c-0.5-2.7-1.3-5.3-2.4-7.8c-1.2-2.5-2.8-4.7-4.7-6.8c-1.9-2.1-4.2-3.8-6.7-5.4
			c-0.6-0.4-1.3-0.7-1.9-1.1c-0.7-0.4-1.3-0.8-2-1c-1.4-0.6-2.7-1.3-4.1-1.8l-2.1-0.8c-0.7-0.3-1.5-0.5-2.3-0.7
			c-1.5-0.4-3.1-0.9-4.7-1.3l-2.4-0.7l-2.4-0.8c-1.6-0.5-3.2-1.1-4.8-1.8c-1.6-0.6-3.2-1.4-4.8-2.1c-1.6-0.8-3.2-1.6-4.7-2.6
			c-3.1-1.9-6-4.1-8.6-6.9c-2.6-2.8-4.8-6-6.3-9.7c-1.5-3.6-2.2-7.6-2.3-11.5c-0.2-7.8,1.8-15.3,4.3-22.4c1.3-3.6,2.7-7,4.3-10.5
			c0.8-1.7,1.5-3.4,2.3-5.2c0.8-1.8,1.7-3.5,2.6-5.2c1.8-3.4,3.9-6.8,5.4-9.9c0.8-1.5,1.2-2.9,1.2-4.1c0-1.2-0.3-2.5-1.1-3.9
			c-0.7-1.4-1.7-2.9-2.8-4.4c-1.1-1.5-2.3-2.9-3.5-4.4c-2.5-2.9-5.1-5.8-7.7-8.7c-1.3-1.4-2.7-2.9-4-4.4c-1.3-1.5-2.6-3.1-4-4.7
			l-2-2.4l-1.8-2.5l-1.8-2.5l-0.9-1.3c-0.3-0.4-0.5-0.9-0.8-1.3c-8.8-14.2-13-31.6-11.5-48.6c0.8-8.5,2.7-16.9,5.5-25
			c1.6-4,3-8,5-11.8l1.4-2.9l0.7-1.4l0.8-1.4l3.2-5.6c0.5-1,1.1-1.8,1.7-2.7l1.7-2.7l1.7-2.7l0.4-0.7l0.2-0.3
			c0.2-0.2,0.2-0.3,0.3-0.4l1-1.3c2.6-3.6,5.7-6.8,9-9.7c6.8-5.7,15-9.9,23.8-11.6c8.7-1.8,18.2-1.1,26.4,3
			c4.1,2.1,7.7,5.1,10.3,8.9c2.6,3.8,4.1,8.3,4.5,12.8c0.4,4.5,0,9-1.2,13.3l-0.4,1.6c-0.2,0.5-0.4,1-0.5,1.6l-1.1,3.1
			c-0.4,1-0.9,2-1.3,3c-0.5,1-0.8,2-1.4,3l-1.6,2.9c-0.5,1-1,1.9-1.6,2.8c-1.2,1.8-2.2,3.6-3.5,5.4c-2.4,3.5-4.7,7.1-7,10.7
			c-4.5,7.2-8.8,14.5-12.3,22.1c-1.8,3.8-3.3,7.7-4.3,11.7c-1.1,4-1.6,8.1-1.4,12.2c0.2,4.1,1.4,8.1,3.3,11.6
			c1.9,3.6,4.4,6.9,7.3,9.8c5.6,6,12.4,10.9,19.2,15.5c6.8,4.6,13.8,8.8,20.9,12.8c7.1,4.1,14,8.5,20.3,13.7
			c3.1,2.6,6.1,5.5,8.6,8.9c1.2,1.8,2.3,3.6,3,5.7c0.7,2.1,1,4.5,0.5,6.9c-0.5,2.4-1.9,4.4-3.4,6c-1.6,1.6-3.4,2.8-5.3,3.8
			c-1.9,1-3.8,1.7-5.8,2.3c-1,0.3-2,0.6-3,0.7c-0.5,0.1-1.1,0.2-1.6,0.3c-0.6,0-1,0.1-2.1,0c-0.5-0.1-0.4,0-1-0.2l-0.5-0.1
			c-0.4-0.1-0.9-0.2-1.3-0.2c-0.9-0.1-1.8-0.2-2.7-0.3c-1.8-0.2-3.7-0.3-5.5-0.3c-3.7-0.1-7.3,0.1-10.7,0.9
			c-3.3,0.7-6.4,2.2-7.4,4.4c-0.5,1.1-0.6,2.4-0.4,3.8c0.3,1.5,0.8,3,1.6,4.5c1.5,3,3.5,5.9,5.7,8.6c2.2,2.7,4.5,5.3,7,7.9
			c4.9,5,10.1,9.7,15.2,14.2c5.2,4.5,10.4,8.7,15.7,12.8c2.6,2,5.2,4.1,7.8,6.3c1.3,1.1,2.5,2.2,3.8,3.3c1.2,1.1,2.4,2.3,3.6,3.4
			c9.4,9.1,16.9,19.8,20.7,31.5c1.8,5.8,2.6,11.9,2.3,17.6c-0.1,2.9-0.6,5.7-1.1,8.5c-0.6,2.7-1.4,5.4-2.3,7.9
			c-1.9,5.1-4.3,9.7-7.1,13.8c-2.7,4.2-5.7,7.9-8.7,11.4c-6.1,6.9-12.3,12.4-18.3,17.1c-11.9,9.3-22.1,15.3-29.1,19.2
			c-7.1,3.8-11,5.5-11,5.5l-0.3,0.1L241.2,492.6z"/>
	</g>
	<g>
		<path fill="#00A651" d="M257.2,492.5c0,0,102-71.3,65.1-120.1c-36.9-48.8-0.6-32.5,0-31.9c0.6,0.6,36,0.1-0.6-31.9
			c-36.7-32-32.5-60.1,3.1-87s6.6-31.5,0.6-39.4c-12.1-16.1-6.3-97.6,76.9-24.4c0,0,6.9,3.8-12.5,24.4
			c-19.4,20.6-15.6,28.8,3.1,40.7c18.8,11.9,45,36.9,5.6,56.3c-39.4,19.4-77.6-16.3-28.1,42.5c49.4,58.8,55,98.2,2.5,123.2
			C320.4,470,250.9,483.7,257.2,492.5z"/>
		<path fill="#006838" d="M257.3,492c4.5-3.4,8.8-6.9,13-10.5c4.3-3.7,8.6-7.5,12.7-11.4c8.2-7.8,16-16.1,23.1-24.9
			c7-8.8,13.3-18.3,17.5-28.6c1-2.6,1.9-5.2,2.6-7.9c0.7-2.7,1.2-5.4,1.4-8.1c0.6-5.4,0-10.8-1.7-15.9c-0.8-2.5-2-4.9-3.4-7.2
			c-0.7-1.2-1.5-2.2-2.3-3.3l-2.6-3.4c-3.4-4.6-6.8-9.4-9.7-14.5c-1.4-2.6-2.8-5.2-3.9-8.1c-0.3-0.7-0.5-1.5-0.7-2.3
			c-0.2-0.8-0.4-1.6-0.4-2.5l-0.1-1.4c0-0.5,0.1-1,0.2-1.5c0.1-0.5,0.3-1.1,0.5-1.6c0.2-0.5,0.6-1.1,1-1.5c0.8-0.9,1.9-1.6,2.9-1.9
			c0.5-0.2,1-0.3,1.5-0.4l0.7-0.1l0.7,0c1.8-0.1,3.4,0.2,5,0.5c1.5,0.3,3,0.8,4.5,1.3c0.7,0.3,1.4,0.5,2.2,0.8
			c0.4,0.2,0.7,0.3,1.1,0.5l0.2,0.1c0,0,0.2,0.1,0.4,0.2c-0.1-0.1,1.1,0.8-0.2-0.1l0.1,0c-0.1-0.1-0.3-0.2-0.5-0.2
			c-0.3,0-0.1,0-0.1,0c1.1,0,2.5-0.1,3.7-0.3c1.3-0.2,2.5-0.5,3.7-0.9c2.3-0.8,4.2-2.1,4.7-3.6c0.6-1.5,0.1-3.8-1-6
			c-1.1-2.2-2.7-4.4-4.4-6.5c-0.9-1-1.8-2.1-2.7-3.1c-0.9-1-1.9-2-2.9-3c-1-1-2-1.9-3.1-2.9l-3.2-2.9c-4.3-3.9-8.4-8.2-12-12.8
			c-3.6-4.6-6.7-9.8-9-15.3c-1.1-2.8-1.9-5.7-2.4-8.7c-0.5-3-0.6-6-0.4-9.1c0.3-3,0.9-6,1.8-8.9c0.9-2.9,2.2-5.6,3.7-8.2
			c3-5.1,6.7-9.7,10.8-13.8c4.1-4.1,8.6-7.8,13.2-11.3l3.4-2.6c1.1-0.9,2.2-1.8,3.3-2.7c2.1-1.8,4.2-3.7,6-5.8
			c1.8-2.1,3.4-4.3,4.3-6.8c0.9-2.5,0.9-5.1-0.5-7.3c-1.3-2.2-3.5-4-5.8-5.6c-2.3-1.6-4.8-3-7.1-4.9c-0.6-0.5-1.2-1-1.7-1.5
			c-0.3-0.3-0.5-0.6-0.8-0.9c-0.2-0.3-0.4-0.6-0.6-0.9c-0.8-1.4-1.4-2.7-1.9-4.1c-1-2.8-1.6-5.7-2-8.5c-0.7-5.8-0.6-11.6,0.5-17.4
			c1.1-5.7,3.1-11.4,6.8-16.1c1.8-2.3,4.1-4.4,6.7-5.9c2.6-1.5,5.5-2.5,8.4-2.9c5.9-0.9,11.9,0.2,17.4,2c5.6,1.8,10.8,4.4,15.8,7.2
			c10,5.8,19.1,12.9,27.9,20.3l-0.3-0.2c0.3,0.2,0.4,0.3,0.5,0.4c0.1,0.1,0.2,0.2,0.3,0.3c0.2,0.2,0.4,0.5,0.5,0.7
			c0.2,0.2,0.2,0.5,0.4,0.7c0.1,0.2,0.2,0.5,0.2,0.7l0.1,0.7c0,0.2,0,0.5,0,0.7l0,0.7l-0.1,0.6c-0.1,0.9-0.3,1.6-0.5,2.4
			c-0.2,0.7-0.5,1.4-0.8,2.1c-1.2,2.8-2.8,5.1-4.4,7.5c-1.7,2.3-3.4,4.5-5.3,6.6l-2.8,3.1c-0.9,1-1.9,2.1-2.7,3.1
			c-1.7,2-3.4,4.2-4.9,6.3c-1.5,2.2-2.8,4.4-3.6,6.7c-0.8,2.3-1.1,4.6-0.6,6.7c0.6,2.1,1.9,4.1,3.6,5.9c1.7,1.8,3.8,3.4,6,5
			c2.2,1.6,4.4,2.9,6.8,4.5c4.8,3.1,9.3,6.5,13.5,10.5c4.1,4,7.9,8.6,10.4,14.2c1.2,2.8,2,5.9,2,9.2c0,3.2-0.8,6.5-2.2,9.3
			c-1.4,2.8-3.4,5.2-5.6,7.4l-1.6,1.5c-0.6,0.5-1.2,0.9-1.7,1.4c-1.1,1-2.4,1.7-3.6,2.6c-1.2,0.8-2.5,1.5-3.7,2.3l-3.9,2
			c-0.6,0.3-1.2,0.6-1.9,0.9c-0.7,0.3-1.4,0.6-2,0.9c-1.3,0.5-2.7,1.1-4.1,1.5c-5.5,1.8-11.2,2.9-16.9,3.4
			c-5.7,0.5-11.4,0.3-16.9,0.2c-1.4,0-2.7-0.1-4,0c-1.3,0-2.5,0.1-3.4,0.3c-0.4,0.1-0.6,0.2-0.4,0.1c0.1-0.1,0.2-0.2,0.3-0.4
			c0.1-0.2,0.1-0.2,0.1-0.2c0,0,0.1,0.5,0.2,0.9c0.1,0.4,0.4,1,0.6,1.5c1.1,2.1,2.6,4.4,4.2,6.5c1.6,2.2,3.2,4.3,4.9,6.5
			c3.4,4.3,6.9,8.5,10.4,12.8c3.6,4.3,7.1,8.5,10.5,12.9c3.4,4.4,6.8,8.9,9.9,13.5c3.2,4.6,6.2,9.4,8.9,14.3
			c5.5,9.8,10.2,20.3,12.1,31.8c0.9,5.7,1,11.7-0.1,17.5c-1.1,5.8-3.5,11.4-6.8,16.2c-3.3,4.8-7.5,9-12,12.5
			c-4.5,3.5-9.4,6.5-14.3,9.1c-2.5,1.2-5.1,2.5-7.6,3.6c-2.5,1.2-5.1,2.2-7.7,3.3c-5.1,2.1-10.3,4.2-15.5,6.1
			c-10.4,3.9-20.9,7.4-31.4,10.8c-10.5,3.4-21.1,6.6-31.6,9.9c-5.3,1.7-10.5,3.4-15.6,5.3c-2.6,1-5.1,2-7.5,3.2
			c-1.2,0.6-2.4,1.3-3.4,2.2c-0.5,0.4-1,0.9-1.2,1.4C257.1,491.1,257.1,491.6,257.3,492z M256.9,492.7c-0.5-0.6-0.6-1.6-0.3-2.3
			c0.3-0.7,0.8-1.3,1.3-1.8c1.1-1,2.3-1.7,3.5-2.4c2.4-1.4,5-2.5,7.5-3.6c5.1-2.2,10.3-4.1,15.5-5.9l31.3-11
			c10.4-3.7,20.7-7.5,30.9-11.6c10.2-4.1,20.3-8.6,29.9-13.6c4.7-2.6,9.3-5.5,13.4-8.9c4.1-3.4,7.8-7.2,10.7-11.5
			c2.9-4.3,4.9-9.1,5.7-14.2c0.9-5.1,0.7-10.3-0.2-15.5c-0.9-5.2-2.5-10.2-4.6-15.2c-2-4.9-4.4-9.8-7.2-14.5
			c-2.7-4.7-5.6-9.3-8.8-13.7c-3.1-4.5-6.4-8.8-9.8-13.1c-6.8-8.5-14.1-16.9-21-25.6c-1.7-2.2-3.4-4.4-5.1-6.7
			c-1.7-2.3-3.3-4.6-4.7-7.4c-0.4-0.7-0.7-1.4-1-2.3c-0.3-0.9-0.6-1.8-0.6-3.1c0-0.7,0.1-1.4,0.4-2.2c0.1-0.4,0.4-0.8,0.6-1.1
			c0.2-0.3,0.5-0.6,0.8-0.9c1.2-1,2.4-1.4,3.3-1.6c1.9-0.4,3.4-0.4,4.9-0.5c1.5,0,2.9,0,4.3,0.1c5.5,0.2,10.9,0.4,16.2,0
			c5.3-0.4,10.5-1.3,15.5-2.9c1.2-0.4,2.5-0.8,3.7-1.3c0.6-0.2,1.2-0.5,1.8-0.7c0.6-0.3,1.2-0.6,1.9-0.9l3.5-1.8
			c1.1-0.7,2.3-1.3,3.4-2c4.4-2.8,8.3-6.2,10.5-10.4c1.1-2.1,1.7-4.3,1.7-6.6c0-2.3-0.5-4.6-1.5-6.9c-1.9-4.5-5.2-8.7-9-12.4
			c-3.8-3.7-8-7.1-12.4-10.1c-4.6-3-9.5-6.1-13.6-10.5c-2-2.2-3.9-4.9-4.7-8.2c-0.8-3.3-0.3-6.7,0.8-9.6c1.1-2.9,2.7-5.4,4.3-7.7
			c1.7-2.3,3.5-4.5,5.4-6.6c1-1.1,1.9-2,2.9-3.1l2.8-3c1.8-2,3.6-4.1,5.2-6.2c1.6-2.2,3.1-4.3,4.2-6.7c0.3-0.6,0.5-1.1,0.7-1.7
			c0.1-0.6,0.4-1.1,0.4-1.7l0.1-0.4l0-0.4c0-0.1,0-0.2,0-0.4c0-0.1,0-0.2-0.1-0.3c0-0.1,0-0.2-0.1-0.3c0-0.1,0-0.2-0.1-0.2
			c0,0-0.1-0.1-0.1-0.1c0,0,0,0,0,0c0,0,0,0,0.1,0.1l-0.3-0.2c-8.4-7.6-17.3-14.7-26.9-20.6c-4.8-2.9-9.9-5.5-15.1-7.3
			c-5.2-1.8-10.9-2.9-16.3-2.1c-5.4,0.7-10.4,3.6-13.8,7.9c-3.4,4.3-5.4,9.7-6.5,15.1c-1.1,5.5-1.3,11.2-0.6,16.7
			c0.4,2.8,1,5.5,1.9,8.1c1,2.6,2.2,4.9,4.4,6.5c2.2,1.7,4.7,3.1,7.1,4.7c2.4,1.7,4.8,3.5,6.5,6.2c0.8,1.3,1.4,2.9,1.5,4.5
			c0.1,1.6-0.1,3.2-0.7,4.7c-1,2.9-2.8,5.4-4.7,7.6c-1.9,2.2-4,4.3-6.1,6.2c-1.1,1-2.2,1.9-3.3,2.8l-3.4,2.7
			c-4.4,3.5-8.7,7.2-12.5,11.3c-3.9,4.1-7.3,8.5-9.9,13.3c-1.3,2.4-2.4,4.9-3.1,7.5c-0.8,2.6-1.3,5.3-1.4,7.9
			c-0.1,2.7,0.1,5.4,0.6,8c0.5,2.6,1.4,5.2,2.4,7.7c2.2,5,5.2,9.6,8.7,13.9c3.5,4.3,7.4,8.2,11.6,12l3.2,2.8c1.1,1,2.2,1.9,3.2,2.9
			c1.1,1,2.1,2,3.1,3.1c1,1,2,2.2,3,3.3c1.9,2.3,3.7,4.7,5.2,7.6c0.3,0.7,0.7,1.4,1,2.3l0.4,1.2l0.3,1.3c0.3,1.8,0.3,3.8-0.4,5.7
			c-0.7,1.9-2.1,3.5-3.5,4.6c-1.5,1.1-3,1.8-4.6,2.3c-1.6,0.5-3.1,0.9-4.7,1.1c-1.6,0.2-3,0.4-4.8,0.3c-0.1,0-0.1,0-0.6-0.1
			c-0.4-0.1-0.8-0.2-1.1-0.3l-0.1,0c-1.3-1-0.2-0.1-0.4-0.3c0.1,0.1,0.2,0.1,0.2,0.1l-0.1,0c-0.2-0.1-0.5-0.2-0.8-0.4
			c-0.6-0.3-1.2-0.5-1.8-0.7c-1.2-0.5-2.5-0.8-3.7-1.1c-1.2-0.3-2.5-0.4-3.5-0.4c-1.1,0-1.8,0.3-2,0.6c-0.2,0.2-0.5,0.9-0.3,2
			c0.1,0.5,0.2,1.1,0.3,1.7c0.2,0.6,0.3,1.2,0.5,1.8c0.8,2.4,2.1,4.9,3.4,7.3c2.7,4.8,5.9,9.5,9.2,14.1l2.5,3.5
			c0.9,1.2,1.7,2.5,2.5,3.8c1.5,2.6,2.8,5.4,3.8,8.3c1.8,5.8,2.4,12,1.6,17.9c-0.4,3-1,5.9-1.8,8.7c-0.8,2.8-1.9,5.6-3,8.3
			c-4.7,10.8-11.4,20.3-18.8,29.1c-7.4,8.8-15.6,16.9-24.2,24.4c-8.6,7.5-17.6,14.7-27.1,21.1l-0.2,0.2L256.9,492.7z"/>
	</g>
	<g>
		<path fill="#00A651" d="M257.2,492.5l31.9-1.4c0,0,101.3-1.7,118.9-16.1c17.5-14.4,13.1-71.3,83.2-63.8
			c70.1,7.5,62.4-18.3,37.5-60.7c-18.8-31.9-78.8-48.2,7.5-98.2c86.3-50-22.5-82.8-34.4-82.1c-11.9,0.8-30.7,3.3-25,42
			s-17.8,20-25,17.5c-17.8-6-55.7-2.5-3.8,75.1s-1.9,60.7-1.9,60.7s-35.8-5-32.9,43.2s-51.5,57.5-51.5,57.5S252.2,485,257.2,492.5z"
			/>
		<path fill="#006838" d="M257.4,492.2c9.8-0.7,19.6-1.4,29.5-2c9.9-0.5,19.8-0.9,29.7-1.5c19.7-1.2,39.5-2.8,58.9-6
			c4.8-0.8,9.7-1.7,14.4-2.9c4.7-1.2,9.4-2.5,13.5-4.6c1-0.5,2-1.1,2.8-1.7l0.3-0.2l0.3-0.3c0.2-0.2,0.5-0.4,0.6-0.6
			c0.3-0.3,0.7-0.7,1.1-1.2c1.4-1.7,2.7-3.7,3.8-5.8c2.2-4.2,4-8.8,6-13.3c1.9-4.6,4-9.2,6.4-13.7c2.4-4.5,5.3-8.8,8.8-12.7
			c3.5-3.9,7.5-7.3,12-9.9c4.5-2.7,9.4-4.6,14.4-5.9c10.1-2.6,20.4-2.6,30.5-1.6c9.8,1,19.6,1.8,29.2,1.3c4.8-0.3,9.6-1,13.9-2.4
			c4.3-1.5,8-4,9.6-7.9c1.6-3.8,1.2-8.6,0.1-13.2c-1.1-4.6-2.9-9.1-4.9-13.6c-2-4.4-4.3-8.8-6.6-13.1c-1.2-2.2-2.4-4.3-3.6-6.5
			l-0.9-1.6l-1-1.6c-0.6-1-1.3-2-2-3c-5.7-7.8-13-14.5-19.9-21.7c-3.4-3.6-6.8-7.4-9.6-11.6c-2.8-4.2-4.9-9.2-4.9-14.5
			c-0.1-5.3,2-10.3,4.8-14.5c2.8-4.3,6.3-7.9,10-11.3c3.7-3.4,7.7-6.4,11.7-9.3c4.1-2.9,8.2-5.6,12.4-8.3c4.2-2.7,8.6-5,12.7-7.7
			c4.1-2.7,8.1-5.5,11.9-8.7c3.7-3.2,7.2-6.6,9.9-10.6c2.7-3.9,4.7-8.5,4.8-13.1c0.2-4.7-1.5-9.2-4.2-13.1
			c-2.7-3.9-6.3-7.2-10.2-10.1c-7.8-5.8-16.7-10-25.9-13.5c-4.6-1.7-9.2-3.2-14-4.5c-2.4-0.6-4.7-1.2-7.1-1.6
			c-1.2-0.2-2.4-0.4-3.5-0.5c-0.3,0-0.5,0-0.8,0l-0.3,0l-0.4,0l-1.8,0.2c-4.8,0.4-9.4,1.5-12.9,4c-3.6,2.4-6,6.4-7.2,10.7
			c-1.3,4.4-1.5,9.2-1.4,13.9c0.1,2.4,0.3,4.8,0.6,7.2c0.3,2.4,0.7,4.8,1,7.4c0.3,2.5,0.5,5.1,0.4,7.7c0,2.6-0.2,5.3-1.1,8.2
			c-0.4,1.4-1.1,2.9-2.2,4.2c-1.1,1.3-2.6,2.4-4.3,3c-1.7,0.5-3.3,0.6-4.8,0.4c-1.5-0.2-2.9-0.5-4.2-0.9c-2.6-0.8-5-2-7.2-3.1
			c-2.3-1.1-4.4-2.4-6.3-2.9c-4.3-1.3-9-1.9-13.4-1.3c-4.4,0.6-8.2,2.5-10.1,5.9c-2,3.4-2.2,8-1.6,12.5c0.6,4.6,2,9.1,3.7,13.6
			c1.7,4.5,3.7,8.9,6,13.2c4.5,8.6,9.6,17,15,25.2c2.7,4.1,5.5,8.3,8.1,12.6c2.6,4.3,5.1,8.6,7.4,13.1c2.3,4.5,4.4,9.1,6.1,14.1
			c0.8,2.5,1.5,5,2,7.7c0.5,2.7,0.7,5.5,0.3,8.4c-0.2,1.5-0.6,3-1.2,4.5c-0.6,1.5-1.6,2.9-2.8,4c-2.4,2.4-5.5,3.5-8.3,4.1
			c-2.9,0.5-5.6,0.5-8.3,0.2c-1.3-0.1-2.7-0.3-4-0.6c-1.3-0.3-2.5-0.5-4-1l0.5,0.1c-0.4-0.1-1.1-0.1-1.6-0.1c-0.6,0-1.2,0-1.8,0
			c-1.2,0-2.4,0.2-3.6,0.3c-2.4,0.4-4.7,1-6.9,2c-4.3,1.9-8,5.2-10.5,9.3c-2.5,4.1-4,9-4.7,14c-0.4,2.5-0.6,5.1-0.6,7.6
			c0,1.3,0,2.6,0,3.9l0.1,4c0.2,5.6-0.4,11.3-1.9,16.7c-1.5,5.5-4,10.7-7.2,15.3c-3.3,4.6-7.3,8.6-11.7,12
			c-4.4,3.4-9.2,6.2-14.2,8.4c-5,2.3-10.2,4-15.6,5.3c-1.3,0.3-2.7,0.6-4.1,0.8l-4,0.6l-7.9,1.3c-10.5,1.8-21.1,3.6-31.6,5.6
			c-10.5,2-21,4-31.5,6.3c-5.2,1.2-10.4,2.4-15.6,3.8c-2.6,0.7-5.1,1.5-7.6,2.4c-1.2,0.5-2.5,0.9-3.6,1.6c-0.6,0.3-1.1,0.6-1.6,1
			C257.6,491.4,257.2,491.8,257.4,492.2z M256.9,492.7c-0.3-0.3-0.3-0.9-0.1-1.3c0.2-0.4,0.4-0.7,0.7-0.9c0.5-0.5,1.1-0.9,1.7-1.2
			c1.2-0.7,2.4-1.2,3.7-1.8c2.5-1,5-1.9,7.6-2.7c5.1-1.6,10.3-3,15.5-4.4c5.2-1.3,10.4-2.6,15.6-3.8c5.2-1.2,10.4-2.4,15.7-3.5
			c10.5-2.2,21-4.4,31.5-6.4l7.9-1.5l4-0.7c1.3-0.2,2.5-0.5,3.8-0.9c5-1.3,10-3.2,14.7-5.4c4.7-2.3,9.1-5,13.2-8.2
			c4-3.2,7.6-6.9,10.5-11.1c2.9-4.2,5-8.8,6.3-13.7c1.3-4.9,1.7-10,1.4-15.1l-0.2-4c-0.1-1.4-0.1-2.8-0.1-4.2c0-2.8,0.2-5.6,0.6-8.4
			c0.7-5.6,2.3-11.2,5.3-16.3c3-5.1,7.6-9.4,13-11.9c2.7-1.3,5.6-2.1,8.5-2.6c1.5-0.2,2.9-0.4,4.4-0.5c0.7,0,1.5,0,2.2,0
			c0.8,0,1.4,0,2.4,0.2l0.2,0l0.3,0.1c4.2,1.2,9.1,1.8,13.1,1c2-0.4,3.7-1.2,4.9-2.3c1.2-1.1,1.8-2.8,2.1-4.7c0.2-2,0.1-4.2-0.3-6.4
			c-0.4-2.2-1-4.5-1.8-6.7c-1.5-4.5-3.5-8.9-5.7-13.2c-2.2-4.3-4.6-8.5-7.2-12.7c-2.5-4.2-5.2-8.2-8-12.4
			c-5.5-8.3-10.7-16.9-15.3-25.9c-2.3-4.5-4.4-9.1-6.1-13.9c-1.7-4.8-3.2-9.8-3.9-15.1c-0.3-2.6-0.4-5.4-0.1-8.1
			c0.3-2.8,1.1-5.6,2.6-8.2c1.5-2.6,3.8-4.8,6.4-6.2c2.6-1.4,5.4-2.2,8.1-2.6c5.5-0.7,10.8,0.1,16,1.7c0.5,0.2,1.4,0.5,2,0.7
			c0.6,0.3,1.2,0.6,1.8,0.9l3.3,1.7c2.2,1.1,4.3,2.1,6.4,2.8c2.1,0.7,4.2,1,5.6,0.5c0.7-0.2,1.2-0.6,1.7-1.2
			c0.5-0.6,0.9-1.4,1.2-2.4c0.6-1.9,0.9-4.2,1-6.5c0.1-2.3-0.1-4.7-0.3-7.1c-0.2-2.3-0.6-4.8-0.9-7.4c-0.2-2.5-0.4-5.1-0.5-7.6
			c-0.1-5.1,0.2-10.3,1.8-15.5c0.8-2.6,1.9-5.1,3.4-7.4c1.5-2.3,3.6-4.3,5.9-5.9c4.7-3.1,10.2-4.1,15.2-4.4l1.9-0.1l0.5,0
			c0.2,0,0.4,0,0.6,0c0.4,0,0.7,0,1.1,0.1c1.4,0.1,2.6,0.4,3.9,0.6c2.5,0.5,4.9,1.1,7.4,1.8c4.8,1.4,9.6,3,14.2,4.9
			c9.3,3.8,18.3,8.3,26.4,14.5c4,3.1,7.7,6.7,10.6,11c1.4,2.1,2.6,4.5,3.4,7c0.8,2.5,1.1,5.2,1,7.8c-0.3,5.3-2.5,10.2-5.4,14.3
			c-2.9,4.2-6.6,7.7-10.4,11c-3.8,3.2-8,6.1-12.2,8.8c-4.2,2.7-8.6,5-12.8,7.6c-8.4,5.2-16.6,10.7-23.8,17.4c-3.6,3.3-7,6.9-9.6,11
			c-2.6,4-4.4,8.6-4.3,13.3c0,4.7,2,9.2,4.7,13.2c2.7,4,6.1,7.6,9.5,11c7,6.9,14.6,13.4,20.7,21.6c0.8,1,1.5,2.1,2.2,3.1l1,1.6
			l1,1.6c1.3,2.1,2.5,4.3,3.8,6.4c2.5,4.3,4.9,8.7,7,13.2c2.2,4.5,4.2,9.2,5.5,14.2c0.7,2.5,1.1,5.1,1.3,7.8
			c0.1,2.7-0.2,5.5-1.2,8.2c-1,2.7-2.9,5.1-5.1,6.9c-2.2,1.8-4.7,3-7.2,4c-5,1.8-10.2,2.5-15.3,2.9c-5.1,0.4-10.1,0.3-15.2,0.1
			c-2.5-0.1-5-0.3-7.5-0.5c-2.5-0.2-5-0.5-7.4-0.7c-9.6-0.9-19.4-0.8-28.6,1.5c-4.6,1.1-9,2.9-13,5.2c-4,2.3-7.7,5.3-10.8,8.8
			c-6.4,7-10.6,15.8-14.6,24.7c-2,4.5-3.9,9.1-6.4,13.7c-1.3,2.3-2.7,4.5-4.5,6.6c-0.5,0.5-0.9,1-1.5,1.5c-0.3,0.3-0.5,0.4-0.7,0.7
			l-0.4,0.4l-0.4,0.3c-1.2,0.9-2.4,1.5-3.6,2.1c-4.8,2.3-9.7,3.5-14.6,4.7c-4.9,1.1-9.8,1.9-14.8,2.7c-9.9,1.4-19.8,2.4-29.7,3.2
			c-9.9,0.8-19.8,1.3-29.7,1.7c-9.9,0.4-19.9,0.5-29.7,0.6c-9.9,0.3-19.8,0.5-29.7,0.6l-0.2,0L256.9,492.7z"/>
	</g>
	<g>
		<path fill="#00A651" d="M224,495.6c0,0,31.3-51.3-40.7-63.8c-71.9-12.5-152-37.5-105.7-100.7c46.3-63.2,28.8-55.7-2.5-72.6
			c-31.3-16.9-50-21.9-39.4-61.9c10.6-40,30-30,25,0c-5,30,44.4,31.3,54.4,33.2c10,1.9,62.6,20.6,34.4,62.6
			c-28.1,41.9-31.3,62.6,41.9,52.5c73.2-10,60.4,54.4,39.3,63.2c-21.2,8.8,7.6,23.1,7.6,23.1s42.1,16.9,8.8,48.2s-15.1,20-15.1,20
			L224,495.6z"/>
		<path fill="#006838" d="M223.8,495.4c2.3-4.3,3.9-8.9,5-13.6c0.5-2.4,0.9-4.7,1-7.1c0.1-1.2,0.1-2.4,0.1-3.6
			c-0.1-1.2-0.1-2.4-0.3-3.6c-0.2-2.4-0.9-4.7-1.7-6.9c-0.9-2.2-1.9-4.3-3.2-6.2c-2.6-3.9-6.2-7.1-10.1-9.7l-1.5-1
			c-0.5-0.3-1-0.6-1.6-0.9c-1.1-0.6-2-1.2-3.2-1.7l-3.2-1.5l-3.4-1.3c-1.1-0.4-2.3-0.8-3.4-1.1c-1.1-0.3-2.3-0.7-3.4-1l-3.5-0.8
			c-1.2-0.3-2.3-0.6-3.5-0.8c-4.7-0.9-9.6-1.7-14.4-2.5c-4.8-0.9-9.7-1.8-14.5-2.8c-9.6-2-19.2-4.3-28.7-7
			c-9.5-2.7-18.9-5.9-27.9-10c-4.6-2-9-4.3-13.3-6.8c-4.3-2.6-8.5-5.5-12.3-8.8c-3.8-3.4-7.3-7.3-10.1-11.7
			c-2.7-4.5-4.5-9.6-5.2-14.8c-0.4-2.6-0.3-5.3-0.2-7.9l0.5-3.9l0.1-1l0.2-0.9l0.5-1.9c0.5-2.5,1.6-4.9,2.5-7.3
			c0.5-1.2,1.1-2.3,1.6-3.4c0.6-1.1,1-2.3,1.7-3.4l1.9-3.2l1-1.6l1.1-1.5c1.5-2,2.9-4.1,4.3-6.1c2.9-3.9,5.8-7.8,8.7-11.8
			c2.8-4,5.6-8,8.2-12c2.6-4.1,5.1-8.2,7.2-12.5c1-2.2,2-4.3,2.6-6.5c0.6-2.2,0.9-4.4,0.6-6.5c-0.4-2-1.5-3.8-3.2-5.3
			c-1.7-1.5-3.7-2.7-5.8-3.8c-4.3-2.2-8.8-4.2-13.2-6.3c-4.5-2.1-8.7-4.6-13-6.9c-4.3-2.3-8.6-4.6-12.9-7c-4.3-2.4-8.5-5-12.4-8.2
			c-3.8-3.2-7.2-7.1-9.2-11.8c-1-2.3-1.7-4.8-2.1-7.3c-0.4-2.5-0.5-5-0.5-7.5c0.1-5,0.9-9.9,2-14.7l0.9-3.6l1-3.6l1.1-3.6
			c0.4-1.2,0.8-2.3,1.3-3.5c1.8-4.6,3.9-9.2,7.5-13.1c0.5-0.5,0.9-1,1.4-1.4l0.8-0.6l0.9-0.6c1.2-0.7,2.5-1.3,4.1-1.3
			c1.5-0.1,3.1,0.4,4.3,1.2c1.2,0.8,2.1,2,2.9,3.1c1.4,2.3,2.2,4.9,2.7,7.4c0.5,2.5,0.7,5.1,0.6,7.6c0,2.5-0.2,5-0.6,7.5l-0.1,0.9
			l0,0.2c0-0.1,0,0.1,0,0.1l0,0.5l-0.2,1.8c-0.1,0.6,0,1.1,0,1.7l0,0.8c0,0.3,0.1,0.6,0.1,0.8c0.4,4.5,2.7,8.5,6.1,11.5
			c1.7,1.5,3.6,2.8,5.6,3.9c2.1,1.1,4.2,2,6.4,2.8c4.4,1.6,9.1,2.7,13.8,3.6c4.7,0.9,9.5,1.5,14.3,2c2.4,0.3,4.8,0.5,7.5,1
			c2.6,0.5,5,1.3,7.4,2.1c4.8,1.7,9.4,3.8,13.8,6.3c4.4,2.5,8.6,5.5,12.3,9.1c1.9,1.8,3.6,3.8,5.1,5.9c0.7,1.1,1.5,2.2,2.1,3.4
			c0.3,0.6,0.6,1.2,0.9,1.8l0.8,1.9c2.1,5,2.6,10.6,1.9,15.9c-0.7,5.3-2.6,10.3-5,14.8c-2.5,4.6-5.4,8.6-7.9,12.6
			c-2.6,4.1-5,8.2-7.2,12.5c-2.1,4.2-4.1,8.5-5.2,12.9c-1.1,4.3-1,8.5,1.2,11.2c2.2,2.8,6.5,4.3,10.9,5.2c4.5,0.9,9.2,1.1,14,1.1
			c4.8,0,9.6-0.3,14.4-0.7c4.8-0.4,9.6-0.9,14.4-1.6l1.9-0.2l1.8-0.2l3.6-0.4c2.5-0.2,5.1-0.3,7.6-0.3c2.5,0.1,5.1,0,7.6,0.3
			c1.3,0.1,2.5,0.2,3.8,0.4l3.8,0.6c5.1,1.1,10.1,2.8,14.6,5.7c4.5,2.8,8.5,6.8,11.1,11.6c2.6,4.8,3.9,10.1,4.1,15.3
			c0.3,5.3-0.6,10.5-2.2,15.4c-1.6,5-4,9.6-7.4,13.7c-1.8,2-3.7,3.9-6.1,5.3c-0.6,0.4-1.3,0.7-1.9,1l-0.5,0.2c0,0-0.3,0.1-0.1,0.1
			l-0.2,0.1l-0.8,0.4c-0.3,0.1-0.6,0.2-0.8,0.4l-0.7,0.4c-0.5,0.2-0.9,0.5-1.3,0.8c-0.5,0.3-0.8,0.6-1.1,0.9c-0.3,0.3-0.6,0.6-0.8,1
			c-0.4,0.7-0.6,1.3-0.6,2c0.1,1.5,1.3,3.3,2.8,4.9c3,3.2,7.1,5.9,11.2,8.2l-0.2-0.1c2,0.9,3.8,1.9,5.7,3c1.8,1.1,3.5,2.3,5.2,3.6
			c1.7,1.3,3.2,2.7,4.7,4.3c1.5,1.6,2.8,3.3,3.9,5.2c1.1,1.9,2,3.9,2.5,6.1c0.5,2.2,0.7,4.4,0.5,6.6c0,1.1-0.3,2.2-0.5,3.2
			c-0.3,1-0.6,2.1-1,3.1c-0.8,2-1.8,3.9-2.9,5.7c-1.1,1.8-2.4,3.4-3.8,5l-2.1,2.3c-0.7,0.7-1.5,1.4-2.2,2.2c-1.5,1.4-3,2.7-4.5,4.1
			l-4.4,4.1c-2.9,2.8-5.9,5.6-8.6,8.5c-0.7,0.7-1.4,1.5-2,2.2c-0.6,0.8-1.3,1.6-1.6,2.3c-0.1,0.2,0,0.3-0.1,0c-0.2-0.1,0,0,0.1-0.1
			c0.4-0.1,0.9-0.2,1.3-0.4c0.9-0.4,1.8-0.8,2.6-1.3l0.1,0.9l-8.3-4.1L223.8,495.4z M224.5,495.5l7.9,3.4l0.9,0.4l-0.8,0.5
			c-0.9,0.6-1.8,1.1-2.7,1.5c-0.5,0.2-1,0.4-1.6,0.6c-0.2,0-0.3,0.1-0.5,0c-0.2,0-0.5,0-0.8-0.3c-0.3-0.3-0.3-0.7-0.3-0.9
			c0-0.2,0.1-0.4,0.1-0.5c0.5-1.1,1.1-1.9,1.7-2.8c0.6-0.8,1.3-1.6,1.9-2.4c2.7-3.1,5.5-6,8.3-8.9l4.3-4.3c1.4-1.4,2.9-2.8,4.3-4.3
			c0.7-0.7,1.4-1.4,2.1-2.2l1.9-2.3c1.2-1.6,2.4-3.1,3.4-4.8c1-1.7,1.9-3.4,2.5-5.2c0.3-0.9,0.5-1.8,0.8-2.7
			c0.1-0.9,0.4-1.8,0.4-2.8c0.2-1.9-0.1-3.7-0.5-5.5c-0.4-1.8-1.3-3.5-2.2-5.1c-1-1.6-2.2-3.1-3.5-4.4c-1.3-1.4-2.8-2.6-4.4-3.8
			c-1.6-1.2-3.2-2.2-4.9-3.2c-1.7-0.9-3.5-1.9-5.2-2.5l-0.1,0l-0.1,0c-2.3-1.2-4.5-2.4-6.6-3.9c-2.1-1.4-4.2-3-6-4.9
			c-0.9-1-1.8-2-2.6-3.3c-0.8-1.2-1.4-2.7-1.6-4.5c-0.2-1.7,0.3-3.6,1.2-5c0.4-0.8,1-1.3,1.5-1.9c0.6-0.5,1.1-1,1.7-1.4
			c2.4-1.7,5-2.6,6.6-3.6c1.8-1.1,3.4-2.7,4.8-4.3c2.8-3.5,4.9-7.6,6.2-12c2.7-8.7,2.4-18.5-2-26.2c-2.2-3.8-5.4-6.9-9.2-9.2
			c-3.8-2.3-8.1-3.8-12.6-4.8c-4.5-0.9-9.2-1.2-13.9-1.1c-1.2,0-2.3,0.1-3.5,0.1c-1.2,0.1-2.3,0.1-3.5,0.2l-3.6,0.4l-1.8,0.2
			l-1.7,0.2c-9.8,1.3-19.6,2.4-29.7,2.4c-5,0-10.1-0.2-15.2-1.2c-2.6-0.6-5.2-1.2-7.7-2.4c-2.5-1.2-5.1-2.8-7.1-5.3
			c-2-2.5-3-5.7-3.2-8.6c-0.2-2.9,0.2-5.7,0.9-8.3c1.3-5.2,3.5-9.8,5.9-14.2c2.4-4.4,4.9-8.7,7.6-12.9c2.7-4.2,5.6-8.2,7.8-12.2
			c2.2-4,3.9-8.4,4.5-12.7c0.6-4.4,0.3-8.8-1.4-12.9l-0.6-1.5c-0.2-0.5-0.5-1-0.8-1.5c-0.5-1-1.1-1.9-1.7-2.9
			c-1.3-1.8-2.7-3.6-4.4-5.2c-3.2-3.3-7-6-11.1-8.4c-4.1-2.4-8.4-4.4-12.8-6.1c-2.2-0.8-4.5-1.6-6.7-2.1c-2.1-0.4-4.6-0.7-7-1
			c-9.7-1.2-19.7-2.8-29.1-6.5c-2.4-0.9-4.7-2-6.9-3.3c-2.2-1.3-4.4-2.8-6.3-4.6c-3.9-3.5-6.7-8.7-7-14c0-0.3-0.1-0.7-0.1-1l0-1
			c0-0.7,0-1.4,0.1-2l0.2-1.8l0.1-1l0.1-0.9c0.4-2.3,0.6-4.7,0.7-7.1c0.1-2.4-0.1-4.7-0.4-7c-0.4-2.3-1-4.5-2.1-6.4
			c-0.6-0.9-1.2-1.7-2-2.3c-0.8-0.5-1.7-0.8-2.6-0.8c-1.9,0-3.8,1.4-5.4,2.9c-3.2,3.3-5.4,7.7-7.2,12.1c-0.5,1.1-0.8,2.3-1.3,3.4
			l-1.1,3.4l-1,3.5l-0.9,3.5c-1.1,4.7-1.9,9.5-2.1,14.3c-0.1,2.4,0,4.8,0.4,7.1c0.4,2.3,1,4.7,1.9,6.8c1.9,4.3,5,8,8.7,11.1
			c3.7,3,7.9,5.5,12.1,7.9c4.3,2.4,8.6,4.6,13,6.8c4.4,2.2,8.6,4.6,13.1,6.6c4.4,2.1,8.9,3.8,13.4,6c2.2,1.1,4.5,2.3,6.5,4
			c2,1.7,3.8,4.1,4.4,6.9c0.6,2.8,0.2,5.5-0.4,8c-0.6,2.5-1.6,4.9-2.6,7.2c-2.1,4.6-4.5,8.9-7.1,13.1c-2.6,4.2-5.3,8.3-8,12.4
			c-2.7,4.1-5.6,8.1-8.4,12.1c-1.5,2-2.7,4-4,6l-1,1.5l-0.9,1.5l-1.8,3.1c-0.6,1-1,2.1-1.6,3.2c-0.5,1.1-1,2.1-1.5,3.2
			c-0.7,2.2-1.7,4.4-2.1,6.6l-0.4,1.7l-0.2,0.8l-0.1,0.8l-0.4,3.4c0,2.3-0.2,4.5,0.2,6.7c0.6,4.4,2.1,8.7,4.5,12.6
			c2.4,3.9,5.5,7.3,9,10.4c3.5,3.1,7.4,5.8,11.4,8.3c4.1,2.4,8.3,4.7,12.7,6.6c17.5,7.9,36.4,13.1,55.4,17.4
			c4.7,1.1,9.5,2.1,14.3,3.1c4.8,1,9.6,1.8,14.4,2.9c1.2,0.2,2.4,0.6,3.6,0.9l3.6,1c1.2,0.4,2.4,0.8,3.6,1.2
			c1.2,0.4,2.4,0.8,3.5,1.3l3.5,1.4l3.4,1.7c1.1,0.5,2.2,1.2,3.3,1.9c0.5,0.3,1.1,0.6,1.6,1l1.5,1.1c4.1,2.9,7.8,6.6,10.5,10.9
			c1.4,2.1,2.4,4.5,3.2,6.9c0.7,2.4,1.3,4.9,1.5,7.4c0.2,1.2,0.1,2.5,0.2,3.8c-0.1,1.2-0.1,2.5-0.2,3.7c-0.2,2.5-0.7,4.9-1.4,7.3
			C228.8,486.8,226.9,491.3,224.5,495.5z"/>
	</g>
	<path fill="#006838" d="M227.5,496.8c0,0,0.2-0.3,0.6-0.8c0.4-0.6,0.9-1.4,1.6-2.6c1.3-2.3,3.2-5.9,4.8-10.7
		c1.6-4.8,3-10.8,2.8-17.8c-0.2-7-2.2-14.8-6.9-22.1c-2.3-3.6-5.2-7.2-8.6-10.4c-3.4-3.2-7.4-6-11.7-8.6
		c-8.7-5.1-18.6-9.4-28.9-13.6c-10.3-4.2-21.1-8.3-31.8-13.1c-5.4-2.4-10.7-5-15.9-7.9c-5.2-2.9-10.3-6.2-14.8-10.1
		c-4.6-3.9-8.7-8.5-11.4-14c-2.8-5.4-4-11.6-3.6-17.5c0.2-3,0.7-5.9,1.4-8.8c0.8-2.8,1.6-5.6,2.4-8.3c1.7-5.5,3.6-10.9,5.5-16.1
		c1.9-5.2,3.8-10.4,5.5-15.5c1.7-5.1,3-10.1,3.6-15.2c0.3-2.5,0.3-5,0.1-7.5c-0.3-2.4-0.8-4.8-1.7-7c-1.7-4.5-4.4-8.3-7.3-11.6
		c-1.5-1.7-3.1-3.1-4.6-4.6c-0.8-0.7-1.6-1.4-2.4-2c-0.8-0.7-1.6-1.3-2.4-1.9c-3.2-2.5-6.4-4.6-9.5-6.5c-6.1-3.9-11.7-6.8-16.3-9.3
		c-4.6-2.4-8.3-4.2-10.8-5.4c-2.5-1.2-3.9-1.9-3.9-1.9s1.3,0.6,3.9,1.8c2.5,1.2,6.2,3,10.9,5.3c4.6,2.4,10.2,5.3,16.4,9.1
		c3.1,1.9,6.3,4,9.6,6.5c0.8,0.6,1.6,1.2,2.4,1.9c0.8,0.7,1.6,1.3,2.4,2c1.6,1.5,3.2,2.9,4.7,4.6c3,3.3,5.8,7.2,7.6,11.7
		c0.9,2.3,1.4,4.7,1.8,7.2c0.2,2.5,0.3,5.1,0,7.6c-0.5,5.1-1.9,10.3-3.5,15.4c-1.6,5.1-3.5,10.3-5.4,15.5
		c-1.8,5.3-3.7,10.6-5.3,16.1c-1.6,5.5-3.4,11-3.6,16.8c-0.3,5.7,0.9,11.5,3.6,16.7c2.7,5.1,6.6,9.6,11.1,13.3
		c4.5,3.8,9.5,6.9,14.6,9.8c5.1,2.8,10.5,5.3,15.8,7.7c10.7,4.7,21.5,8.6,31.9,12.8c10.4,4.1,20.4,8.3,29.4,13.5
		c4.5,2.6,8.7,5.5,12.3,8.9c3.6,3.4,6.7,7.1,9.2,10.9c5,7.7,7.4,16.2,7.6,23.7c0.3,7.5-1.1,14-2.8,19.1c-1.7,5.1-3.6,8.9-5,11.4
		c-1.4,2.5-2.3,3.8-2.3,3.8L227.5,496.8z"/>
	<path fill="#006838" d="M237.7,491.1c0,0,0.3-0.3,0.9-0.8c0.6-0.5,1.5-1.3,2.6-2.4c2.2-2.2,5.5-5.4,9.4-9.7
		c3.9-4.3,8.4-9.8,13-16.4c4.6-6.7,9.3-14.6,12.8-23.8c1.7-4.6,3.1-9.6,3.8-14.9c0.7-5.2,0.7-10.8-0.3-16.3
		c-1.1-5.5-3.2-10.9-6.4-16c-3.1-5.2-6.6-10.3-10.2-15.4c-7.3-10.2-15.4-20.4-23.4-31c-7.9-10.6-15.9-21.6-22-33.7
		c-3-6.1-5.5-12.4-7-19.1c-1.4-6.6-1.7-13.5-0.5-20.2c0.6-3.3,1.6-6.5,2.8-9.6c1.3-3.1,2.6-6,3.6-9c1-3,1.9-6.1,2.3-9.2
		c0.5-3.1,0.5-6.3,0-9.3c-0.6-3-1.8-5.9-3.7-8.2c-1.9-2.4-4.3-4.2-6.8-5.8c-5.2-3.1-10.9-4.6-16.3-7c-1.3-0.6-2.6-1.3-3.8-2.2
		c-1.2-0.9-2.1-2.1-2.9-3.3c-1.6-2.4-2.6-5-3.5-7.6c-1.7-5.2-2.6-10.4-3.2-15.4c-1.1-10.1-0.8-19.4,0.3-27.5
		c1.1-8.1,3.1-15.1,5.6-20.4c2.5-5.4,5.4-9,7.7-11.2c1.1-1.1,2.1-1.8,2.8-2.2c0.7-0.4,1-0.7,1-0.7s-0.4,0.2-1,0.7
		c-0.7,0.5-1.6,1.2-2.8,2.3c-2.3,2.1-5.2,5.8-7.6,11.2c-2.4,5.3-4.4,12.3-5.4,20.4c-1,8.1-1.3,17.4-0.1,27.4
		c0.6,5,1.6,10.2,3.3,15.3c0.9,2.5,2,5.1,3.5,7.4c0.8,1.1,1.7,2.2,2.7,3.1c1.1,0.8,2.3,1.5,3.6,2.1c5.2,2.3,11.1,3.8,16.4,6.9
		c2.7,1.5,5.2,3.5,7.2,5.9c2,2.5,3.4,5.5,4,8.7c0.6,3.2,0.6,6.5,0.1,9.7c-0.4,3.2-1.3,6.4-2.3,9.5c-1,3.1-2.3,6.2-3.6,9.1
		c-1.2,3-2.1,6.1-2.7,9.3c-1.2,6.4-0.8,13.1,0.6,19.5c1.4,6.5,3.9,12.7,7,18.6c6.1,11.9,14.1,22.7,22.1,33.2
		c8.1,10.5,16.3,20.6,23.7,30.8c3.7,5.1,7.2,10.3,10.5,15.5c3.3,5.2,5.7,11,6.9,16.8c1.2,5.8,1.2,11.7,0.5,17.2
		c-0.7,5.5-2.1,10.7-3.9,15.6c-3.5,9.7-8.3,17.8-13,24.7c-4.7,6.9-9.2,12.4-13.2,16.9c-3.9,4.5-7.2,7.8-9.5,10c-1.1,1.1-2,2-2.6,2.5
		c-0.6,0.6-0.9,0.9-0.9,0.9c-0.8,0.7-2,0.6-2.7-0.1C236.8,493,236.9,491.8,237.7,491.1L237.7,491.1L237.7,491.1z"/>
	<path fill="#006838" d="M249,490.7c0,0,1.2-0.5,3.5-1.5c2.3-1,5.7-2.5,9.9-4.5c8.5-4,20.5-10,34.3-18.3c6.9-4.2,14.2-8.9,21.5-14.4
		c7.4-5.5,14.8-11.7,21.7-19c0.9-0.9,1.7-1.8,2.6-2.8c0.8-0.9,1.6-1.9,2.4-2.9c1.7-1.9,3.1-4,4.7-6c0.8-1,1.4-2.1,2.1-3.2
		c0.7-1.1,1.4-2.2,2-3.3c0.6-1.1,1.2-2.3,1.9-3.4c0.5-1.2,1.1-2.4,1.6-3.6c2-4.8,3.5-9.9,3.9-15.1c0.1-0.6,0.2-1.3,0.2-1.9l0.1-2
		c0-1.3,0.1-2.7,0.1-4l-0.1-4l-0.2-4c-0.4-5.3-1.1-10.6-2.1-15.9c-1-5.2-2.3-10.4-3.9-15.4c-3.1-10.1-7.1-19.7-11.3-28.9
		c-4.3-9.1-8.9-17.7-13.2-25.9c-2.1-4.1-4.1-8.2-5.6-12.3c-0.7-2.1-1.3-4.2-1.2-6.4c0.1-2.2,0.7-4.2,1.6-6.1
		c1.9-3.7,4.6-6.5,7.2-9.2c2.6-2.6,5.1-5,7.4-7.4c4.6-4.7,8.2-9.2,10.4-13.3c2.3-4.1,3.5-7.7,4.1-10.1c0.3-1.2,0.5-2.2,0.6-2.8
		c0.1-0.6,0.2-1,0.2-1s-0.1,0.3-0.2,1c-0.1,0.6-0.3,1.6-0.6,2.8c-0.6,2.4-1.7,6-4,10.1c-2.2,4.2-5.8,8.7-10.3,13.5
		c-2.3,2.4-4.8,4.8-7.3,7.5c-2.5,2.7-5.2,5.5-7,9.1c-0.9,1.8-1.4,3.8-1.5,5.8c-0.1,2.1,0.5,4.1,1.2,6.1c1.5,4.1,3.5,8.1,5.7,12.2
		c4.3,8.2,9.1,16.7,13.5,25.8c4.4,9.1,8.5,18.8,11.7,28.9c1.6,5.1,3,10.3,4.1,15.6c1.1,5.3,1.8,10.7,2.3,16.1l0.3,4.1l0.1,4.1
		c0.1,1.4,0,2.7,0,4l0,2c0,0.7-0.1,1.4-0.2,2.1c-0.3,5.5-1.9,10.8-3.8,15.8c-0.5,1.2-1.1,2.5-1.6,3.7c-0.6,1.2-1.3,2.4-1.9,3.5
		c-0.6,1.2-1.3,2.3-2,3.4c-0.7,1.1-1.4,2.3-2.1,3.3c-1.6,2.1-3,4.3-4.7,6.2c-0.8,1-1.6,2-2.5,3c-0.9,0.9-1.7,1.9-2.6,2.8
		c-6.9,7.5-14.4,13.9-21.8,19.6c-7.4,5.7-14.7,10.6-21.6,14.8c-13.8,8.6-25.9,14.7-34.4,18.8c-8.5,4.1-13.6,6.2-13.6,6.2L249,490.7z
		"/>
	<path fill="#006838" d="M259.9,489.2c0,0,7.1-0.7,19.6-2.1c6.2-0.7,13.8-1.6,22.5-2.7c8.7-1.1,18.5-2.4,29.1-4.1
		c5.3-0.8,10.8-1.8,16.5-2.9c5.7-1.1,11.6-2.3,17.4-4.1c1.5-0.4,2.9-0.9,4.3-1.5c0.7-0.3,1.4-0.6,2-0.9c0.7-0.4,1.4-0.7,2.1-1.1
		c1.4-0.7,2.8-1.5,4.1-2.3c1.3-0.8,2.7-1.6,4.1-2.5c5.4-3.4,10.7-7.4,15.8-11.7c10.3-8.6,20.1-18.5,29.8-28.8
		c9.7-10.3,19.2-21.1,28.7-31.9c4.7-5.4,9.6-10.8,13.6-16.6c4.1-5.8,7.7-12,10.4-18.4c2.8-6.4,4.7-13.2,5.7-20
		c1-6.8,1.1-13.7,0.4-20.3c-0.7-6.7-2.3-13.1-4.4-19.2c-2.1-6.1-4.7-11.9-7.5-17.4c-1.3-3-1.6-6.1-1.6-9.1c0-3,0.4-6,0.9-8.9
		c1.1-5.7,3-11.1,5.2-16.1c4.5-9.9,10.6-18,17.4-23.6c6.8-5.7,14.3-8.4,20.5-9.1c6.3-0.7,11.3,0.2,14.5,1.1c1.6,0.4,2.9,0.8,3.7,1.1
		c0.8,0.3,1.2,0.4,1.2,0.4s-0.4-0.1-1.3-0.4c-0.8-0.3-2.1-0.7-3.7-1.1c-3.3-0.8-8.2-1.7-14.5-0.9c-6.2,0.8-13.6,3.6-20.3,9.3
		c-6.7,5.6-12.7,13.7-17.1,23.6c-2.2,4.9-3.9,10.3-5,15.9c-0.5,2.8-0.9,5.8-0.8,8.7c0,3,0.3,6,1.6,8.7c2.8,5.5,5.5,11.3,7.6,17.5
		c2.1,6.2,3.8,12.7,4.6,19.4c0.8,6.7,0.8,13.7-0.2,20.7c-1,6.9-2.9,13.8-5.7,20.4c-2.8,6.6-6.3,12.9-10.4,18.8
		c-4.1,6-8.9,11.4-13.6,16.8c-9.4,10.9-18.9,21.8-28.5,32.2c-9.6,10.4-19.4,20.5-29.8,29.2c-5.2,4.4-10.5,8.5-16,12.1
		c-2.8,1.8-5.6,3.5-8.4,5c-0.7,0.4-1.4,0.8-2.1,1.1c-0.8,0.4-1.5,0.7-2.3,1.1c-1.5,0.6-3,1.2-4.5,1.6c-6,1.9-11.9,3.1-17.7,4.3
		c-5.7,1.1-11.3,2.1-16.6,3c-10.7,1.8-20.5,3.1-29.2,4.3c-8.7,1.2-16.3,2.1-22.6,2.8c-12.5,1.5-19.7,2.2-19.7,2.2L259.9,489.2z"/>
	<path fill="#006838" d="M140,530.4c0,0,0.1-0.2,0.3-0.6c0.2-0.4,0.5-1,1-1.7c0.9-1.4,2.5-3.4,4.8-5.5c2.3-2.2,5.3-4.6,9-6.9
		c3.7-2.3,8.1-4.7,13-6.9c4.9-2.2,10.4-4.3,16.3-6.1c2.9-1,6-1.8,9.1-2.6c3.1-0.8,6.4-1.6,9.6-2.3c6.6-1.4,13.4-2.7,20.4-3.6
		c3.5-0.5,7-1,10.6-1.4c3.5-0.4,7.1-0.8,10.7-1.1c7.1-0.7,14.3-1.2,21.3-1.6c3.5-0.2,7-0.3,10.5-0.5c3.5-0.2,6.9-0.1,10.2-0.2
		c3.4,0,6.7,0,9.9,0.1c3.2,0.1,6.4,0.2,9.5,0.3c6.1,0.3,11.9,0.7,17.3,1.1c5.3,0.5,10.2,1,14.6,1.4c4.3,0.4,8.1,1,11.2,1.4
		c6.2,0.9,9.7,1.5,9.7,1.5c0.2,0,0.3,0.2,0.3,0.4c0,0.1-0.2,0.3-0.3,0.3c0,0-3.6,0.1-9.8,0.1c-1.6,0-3.3,0-5.2,0c-1.9,0-3.9,0-6.1,0
		c-4.3,0-9.2,0-14.6-0.1c-2.7,0-5.4,0-8.3,0c-2.9,0-5.8-0.1-8.9-0.1c-6.1,0.1-12.5-0.1-19.2,0c-3.3,0-6.7,0-10.1,0
		c-3.4,0-6.9,0-10.4,0c-7,0.1-14.1,0.3-21.2,0.8c-3.5,0.2-7.1,0.5-10.6,0.8c-3.5,0.2-7,0.7-10.5,1c-6.9,0.8-13.7,1.8-20.3,2.9
		c-3.3,0.6-6.5,1.3-9.6,1.9c-3.1,0.8-6.2,1.4-9.1,2.2c-5.9,1.5-11.3,3.4-16.3,5.3c-9.9,3.8-17.5,8.5-22.1,12.6
		c-2.3,2-3.9,3.8-4.9,5.2c-0.5,0.7-0.8,1.2-1,1.6c-0.2,0.4-0.3,0.6-0.3,0.6c-0.1,0.2-0.3,0.2-0.4,0.2
		C140.1,530.7,140,530.5,140,530.4z"/>
	<path fill="#006838" d="M418.8,537c0,0-0.1-0.2-0.3-0.6c-0.2-0.4-0.5-0.9-1-1.6c-1-1.3-2.6-3.2-4.9-5.2c-4.7-4-12.3-8.7-22.1-12.6
		c-4.9-1.9-10.4-3.8-16.3-5.3c-2.9-0.8-6-1.5-9.1-2.2c-3.1-0.7-6.3-1.3-9.6-1.9c-6.5-1.1-13.3-2.2-20.3-2.9c-3.5-0.4-7-0.8-10.5-1
		c-3.5-0.3-7-0.6-10.6-0.8c-7.1-0.4-14.2-0.6-21.1-0.8c-3.5,0-7,0-10.4,0c-3.4,0-6.8,0-10.1,0c-6.6-0.1-13.1,0.1-19.2,0
		c-3.1,0-6,0-8.9,0.1c-2.9,0-5.7,0-8.3,0c-5.3,0.1-10.2,0.1-14.6,0.1c-2.2,0-4.2,0-6.1,0c-1.9,0-3.6,0-5.2,0c-6.2,0-9.8-0.1-9.8-0.1
		c-0.2,0-0.3-0.1-0.3-0.3c0-0.2,0.1-0.3,0.3-0.3c0,0,3.5-0.6,9.7-1.5c3.1-0.4,6.9-1,11.2-1.4c4.3-0.5,9.2-1,14.6-1.4
		c5.4-0.4,11.1-0.8,17.3-1.1c3.1-0.1,6.2-0.2,9.5-0.3c3.2-0.1,6.5-0.1,9.9-0.1c3.4,0.1,6.8,0,10.2,0.2c3.5,0.2,6.9,0.3,10.5,0.5
		c7,0.5,14.2,0.9,21.3,1.6c3.6,0.3,7.1,0.7,10.7,1.1c3.6,0.4,7.1,0.9,10.6,1.4c7,1,13.8,2.3,20.4,3.6c3.3,0.7,6.5,1.5,9.6,2.3
		c3.1,0.9,6.2,1.6,9.1,2.6c5.9,1.8,11.4,3.9,16.3,6.1c4.9,2.2,9.3,4.5,13,6.9c3.7,2.4,6.7,4.7,9,6.9c2.3,2.2,3.8,4.1,4.8,5.5
		c0.5,0.7,0.8,1.3,1,1.7c0.2,0.4,0.3,0.6,0.3,0.6c0.1,0.2,0,0.3-0.2,0.4C419,537.2,418.8,537.1,418.8,537z"/>
	<path fill="#006838" d="M298.3,528.2c0,0-0.5-0.3-1.4-0.9c-0.9-0.6-2.3-1.5-4.1-2.5c-1.8-1.1-4-2.3-6.5-3.8
		c-2.5-1.4-5.4-3.1-8.5-4.7c-1.6-0.8-3.2-1.7-4.9-2.6c-1.7-0.9-3.5-1.8-5.3-2.7c-3.6-1.9-7.5-3.7-11.5-5.6c-4-1.9-8.3-3.7-12.5-5.5
		c-2.2-0.9-4.3-1.7-6.5-2.6c-2.2-0.9-4.4-1.8-6.6-2.5c-4.5-1.5-8.9-3.2-13.4-4.5c-2.2-0.7-4.4-1.3-6.6-2c-2.2-0.7-4.4-1.2-6.5-1.8
		c-2.1-0.6-4.2-1.2-6.2-1.8c-1-0.3-2-0.6-3-0.8c-1-0.3-2-0.5-3-0.8c-2-0.5-3.9-1-5.7-1.5c-1.8-0.6-3.6-1-5.3-1.3
		c-3.4-0.8-6.6-1.6-9.4-2.3c-2.8-0.6-5.3-1.1-7.3-1.5c-4.1-0.8-6.4-1.4-6.4-1.4l0,0c-0.2,0-0.3-0.2-0.2-0.4c0-0.1,0.2-0.2,0.3-0.2
		c0,0,2.4-0.1,6.6-0.2c2.1,0,4.7,0,7.6,0.1c2.9,0.3,6.2,0.6,9.8,1c3.6,0.3,7.4,1.1,11.5,1.9c2,0.4,4.1,0.8,6.2,1.3
		c2.1,0.5,4.2,1.2,6.4,1.8c2.2,0.7,4.4,1.2,6.6,2.1c2.2,0.8,4.4,1.6,6.6,2.5c4.5,1.6,8.9,3.5,13.3,5.4c2.2,0.9,4.4,1.9,6.6,2.9
		c2.2,1,4.3,2,6.5,3c4.2,2.1,8.4,4.1,12.4,6.2c3.9,2.1,7.8,4.1,11.3,6.2c1.8,1,3.5,2,5.2,3c1.6,1,3.2,2,4.8,2.9
		c3.1,1.9,5.8,3.7,8.2,5.3c2.4,1.6,4.5,3,6.2,4.2c1.7,1.2,3,2.2,3.9,2.8c0.9,0.7,1.4,1,1.4,1c0.1,0.1,0.2,0.3,0.1,0.4
		C298.7,528.3,298.5,528.3,298.3,528.2z"/>
	<path fill="#006838" d="M260.9,444.5c0,0-2,3.3-4.9,8.4c-0.7,1.3-1.5,2.6-2.2,4.1c-0.8,1.5-1.6,3-2.4,4.6c-0.8,1.6-1.6,3.3-2.4,5
		c-0.8,1.7-1.6,3.5-2.4,5.2c-0.7,1.8-1.4,3.5-2.1,5.3c-0.6,1.8-1.2,3.5-1.8,5.1c-0.6,1.6-1.4,3.2-2,4.7c-0.6,1.5-1.3,2.9-1.9,4.2
		c-0.6,1.3-1.1,2.5-1.6,3.6c-0.3,0.5-0.5,1-0.7,1.5c-0.2,0.5-0.4,0.9-0.6,1.3c-0.7,1.6-1.3,2.5-1.3,2.5l0,0
		c-0.1,0.2-0.3,0.2-0.5,0.1c-0.1,0-0.1-0.1-0.2-0.2c0,0-0.2-1-0.3-2.8c0-0.9-0.2-2-0.1-3.2c0.1-1.2,0.2-2.6,0.4-4.1
		c0.2-1.5,0.6-3.1,1-4.8c0.4-1.7,1-3.4,1.7-5.1c0.7-1.7,1.6-3.4,2.6-5.1c1-1.7,1.9-3.4,2.9-5.1c1-1.7,2-3.4,3-5
		c1-1.6,2.1-3.2,3.1-4.7c1-1.5,2-3,3-4.3c1-1.4,2-2.6,2.8-3.8c1.8-2.3,3.3-4.2,4.4-5.5c1.1-1.3,1.8-2,1.8-2c0.1-0.1,0.3-0.1,0.4,0
		C261,444.2,261,444.4,260.9,444.5z"/>
</g>
</svg>
