<?xml version="1.0" encoding="utf-8"?>
<!-- Generator: Adobe Illustrator 16.0.0, SVG Export Plug-In . SVG Version: 6.00 Build 0)  -->
<!DOCTYPE svg PUBLIC "-//W3C//DTD SVG 1.1//EN" "http://www.w3.org/Graphics/SVG/1.1/DTD/svg11.dtd">
<svg version="1.1" id="Layer_1" xmlns="http://www.w3.org/2000/svg" xmlns:xlink="http://www.w3.org/1999/xlink" x="0px" y="0px"
	 width="285.8px" height="529.1px" viewBox="0 0 285.8 529.1" enable-background="new 0 0 285.8 529.1" xml:space="preserve">
<path fill="#006838" d="M142.4,475.3c0,0-82-53.7-7.3-205.3s48.7-154.1,33.3-233.1c0,0,75.3,53.4,34,225
	c-41.3,171.6-26.7,159.8-22.7,199.1S142.4,475.3,142.4,475.3z"/>
<path fill="#00A651" d="M175.8,474.5c0,0,20.7-78,0-138.7c-20.7-60.7-44.7-175.3,13.3-232.7c0,0-37.3,79.3,14,178.7
	s36,179.3,26,199.3S175.8,474.5,175.8,474.5z"/>
<path fill="#006838" d="M103.8,475.2c0,0-53.3-137.3-62-220c-8.7-82.7-15.3-146.7,35.3-198c0,0-44.7,78.7,12.7,182
	c57.3,103.3,44,145.3,40,179.3S103.8,475.2,103.8,475.2z"/>
<path fill="#006838" d="M171.7,488.6c0,0-53.3-114.5-62-183.5c-8.7-69-15.3-122.3,35.3-165.2c0,0-44.7,65.6,12.7,151.8
	c57.3,86.2,44,121.2,40,149.6S171.7,488.6,171.7,488.6z"/>
<path fill="#009444" d="M74.4,501.8c0,0-21.5-164.1,40.8-257.7c67.2-101,14.5-187,14.5-187s90.5,77.8,23,231.3
	c-67.4,153.5-41,172.7-24.4,194L74.4,501.8z"/>
<path fill="#2BB673" d="M115.9,487.8c0,0-12.9-88.5,24.4-139c40.2-54.4,8.7-100.8,8.7-100.8s54.2,42,13.8,124.7
	c-40.4,82.8,25.4,109,35.4,120.5L115.9,487.8z"/>
<path fill="#2BB673" d="M221.8,489.7c0,0-8.9-51.3-26.7-78C176,383,191,358.5,191,358.5s-25.8,22.2-6.6,65.9
	c19.2,43.7-8.6,66.9-13.3,73L221.8,489.7z"/>
<path fill="#2BB673" d="M52.4,485.2c0,0-82-57.3-7.3-219.3s48.7-164.7,33.3-249c0,0,75.3,57,34,240.3
	C71.1,440.5,130,425.9,134,467.9S52.4,485.2,52.4,485.2z"/>
<path fill="#006838" d="M41,506.4c-10.6-46.6,109.9-52.9,190.3-17.8s41.7,17.8-7.6,10.5s-35.8,20-67.2,8s8.5,8.2-40.1,3.1
	s-43,18.2-53.5,7.2S42.3,512.4,41,506.4z"/>
</svg>
