<?xml version="1.0" encoding="utf-8"?>
<!-- Generator: Adobe Illustrator 16.0.0, SVG Export Plug-In . SVG Version: 6.00 Build 0)  -->
<!DOCTYPE svg PUBLIC "-//W3C//DTD SVG 1.1//EN" "http://www.w3.org/Graphics/SVG/1.1/DTD/svg11.dtd">
<svg version="1.1" id="Layer_1" xmlns="http://www.w3.org/2000/svg" xmlns:xlink="http://www.w3.org/1999/xlink" x="0px" y="0px"
	 width="600px" height="600px" viewBox="0 0 600 600" enable-background="new 0 0 600 600" xml:space="preserve">
<path fill="#F79F88" d="M255.9,85c2.5,2.5-3.5,11.8-1.6,14.7c1.9,2.9,12.8,1,14.1,4.2c1.3,3.2-7.7,9.6-7.1,12.9
	c0.7,3.4,11.5,5.8,11.4,9.3c0,3.5-10.8,5.9-11.5,9.3c-0.7,3.4,8.4,9.7,7,13c-1.3,3.2-12.2,1.2-14.2,4.1c-1.9,2.8,4,12.2,1.5,14.7
	s-11.8-3.5-14.7-1.6c-2.9,1.9-1,12.8-4.2,14.1c-3.2,1.3-9.6-7.7-12.9-7.1c-3.4,0.7-5.8,11.5-9.3,11.4c-3.5,0-5.9-10.8-9.3-11.5
	c-3.4-0.7-9.7,8.4-13,7c-3.2-1.3-1.2-12.2-4.1-14.2c-2.8-1.9-12.2,4-14.7,1.5c-2.5-2.5,3.5-11.8,1.6-14.7c-1.9-2.9-12.8-1-14.1-4.2
	c-1.3-3.2,7.7-9.6,7.1-12.9c-0.7-3.4-11.5-5.8-11.4-9.3c0-3.4,10.8-5.9,11.5-9.2c0.7-3.4-8.4-9.7-7-13c1.3-3.2,12.2-1.2,14.2-4.1
	c1.9-2.8-4-12.2-1.5-14.7s11.8,3.5,14.7,1.6c2.9-1.9,1-12.8,4.2-14.1c3.2-1.3,9.6,7.7,12.9,7.1c3.4-0.7,5.8-11.5,9.3-11.4
	s5.9,10.8,9.3,11.5c3.4,0.7,9.7-8.4,13-7c3.2,1.3,1.2,12.2,4.1,14.1C244,88.4,253.4,82.5,255.9,85z"/>
<g>
	<path fill="#1D4754" d="M182.7,94.9c-15.9,15.9-16,41.6-0.1,57.5c15.9,15.9,68.8,11.4,68.8,11.4s4.7-52.9-11.1-68.8
		C224.4,79.1,198.6,79,182.7,94.9z M232,144.3c-11.4,11.3-29.8,11.3-41.2-0.1c-11.3-11.4-11.3-29.8,0.1-41.2
		c11.4-11.3,29.8-11.3,41.2,0.1S243.4,133,232,144.3z"/>
</g>
<path fill="#1D4754" d="M194.6,107.3c0,0,0.8,0.4,2.4,1.4c1.6,0.9,3.7,2.4,6.5,4.2c2.7,2,6,4.3,9.6,7.3c3.7,2.9,7.5,6.5,11.8,10.3
	c2.1,2,4.1,4.2,6.3,6.4c1.1,1.1,2.2,2.2,3.3,3.4c1.1,1.2,2.1,2.4,3.2,3.7c2.2,2.5,4.4,5.1,6.6,7.7c2.1,2.8,4.2,5.6,6.4,8.4
	c1.1,1.4,2.2,2.9,3.3,4.3c1,1.5,2,3,3.1,4.6c2,3.1,4.1,6.2,6.2,9.4c2,3.2,3.8,6.6,5.7,9.9c1.8,3.3,3.9,6.6,5.6,10.1
	c1.7,3.5,3.3,6.9,5,10.4c1.6,3.5,3.5,6.8,4.8,10.4c1.4,3.5,2.9,7,4.2,10.4c0.7,1.7,1.3,3.4,2,5.2l1,2.6l0.8,2.6
	c2,6.9,3.9,13.6,5.6,20c1.4,6.4,2.4,12.6,3.4,18.3c0.5,2.8,0.9,5.5,1.4,8.1c0.4,2.6,0.5,5.1,0.7,7.4c0.4,4.7,0.7,8.7,0.9,12.1
	c0.4,6.7,0.5,10.5,0.5,10.5l-0.8,0.1c0,0-1-3.7-2.5-10.2c-0.8-3.2-1.7-7.2-2.7-11.7c-0.6-2.2-0.9-4.7-1.6-7.2
	c-0.7-2.5-1.4-5.1-2.2-7.8c-0.7-2.7-1.5-5.6-2.3-8.5c-0.8-2.9-1.4-6-2.4-9.1c-2-6.1-4-12.6-6-19.4l-0.7-2.6l-0.9-2.5
	c-0.6-1.7-1.2-3.4-1.8-5.1c-1.2-3.4-2.4-6.9-3.6-10.4c-1.1-3.6-2.7-6.9-4.1-10.4c-1.5-3.4-3-6.9-4.4-10.4c-1.5-3.4-3.4-6.7-5.1-10.1
	c-1.8-3.3-3.3-6.7-5.2-9.9c-1.9-3.2-3.8-6.3-5.7-9.4c-0.9-1.5-1.9-3.1-2.8-4.6c-1-1.5-2-2.9-3.1-4.4c-2-2.9-4-5.7-6-8.5
	c-2.1-2.7-4.2-5.3-6.2-7.8c-1-1.3-2-2.5-3-3.8c-1-1.2-2.1-2.3-3.1-3.5c-2-2.3-3.9-4.5-5.9-6.6c-4-4-7.6-7.8-11.1-10.8
	c-3.4-3.2-6.5-5.6-9.1-7.7c-2.7-2-4.7-3.6-6.2-4.5c-1.4-1-2.3-1.5-2.3-1.5L194.6,107.3z"/>
<path fill="#F79F88" d="M407.9,273.1c-3.4,0.7-9.9-8.2-13.1-6.8c-3.2,1.4-1.1,12.3-3.9,14.2c-2.9,2-12.3-3.8-14.7-1.3
	c-2.4,2.5,3.7,11.7,1.8,14.6c-1.9,2.9-12.8,1.2-14.1,4.4c-1.3,3.2,7.9,9.4,7.3,12.8c-0.6,3.4-11.4,6-11.3,9.5
	c0.1,3.4,10.9,5.6,11.6,9.1c0.7,3.4-8.2,9.9-6.8,13.1c1.4,3.2,12.3,1.1,14.2,3.9c2,2.9-3.8,12.3-1.3,14.7c2.5,2.4,11.7-3.7,14.6-1.8
	c2.9,1.9,1.2,12.8,4.4,14.1c3.2,1.3,9.4-7.9,12.8-7.3c3.4,0.6,6,11.4,9.5,11.3c3.4-0.1,5.6-10.9,9.1-11.6c3.4-0.7,10,8.2,13.1,6.8
	c3.2-1.4,1.1-12.3,3.9-14.2c2.9-2,12.3,3.8,14.7,1.3c2.4-2.5-3.7-11.7-1.8-14.6c1.9-2.9,12.8-1.2,14.1-4.4c1.3-3.2-7.9-9.4-7.3-12.8
	c0.6-3.4,11.4-6,11.3-9.5c-0.1-3.4-10.9-5.6-11.6-9.1c-0.7-3.4,8.2-9.9,6.8-13.1c-1.4-3.2-12.3-1.1-14.2-3.9
	c-2-2.9,3.8-12.3,1.3-14.7c-2.5-2.4-11.7,3.7-14.6,1.8c-2.9-1.9-1.2-12.8-4.4-14.1c-3.2-1.3-9.4,7.9-12.8,7.3
	c-3.4-0.6-6-11.4-9.5-11.3C413.6,261.5,411.3,272.4,407.9,273.1z"/>
<g>
	<path fill="#1D4754" d="M413.3,279.6c-22,4.7-46.7,51.7-46.7,51.7s42,32.6,63.9,27.8c22-4.7,35.9-26.4,31.2-48.4
		C457,288.8,435.3,274.9,413.3,279.6z M415.8,291c15.7-3.4,31.2,6.6,34.6,22.3c3.4,15.7-6.6,31.2-22.3,34.6
		c-15.7,3.4-31.2-6.6-34.6-22.3S400.1,294.3,415.8,291z"/>
</g>
<path fill="#1D4754" d="M424.9,320c0,0-0.8,0-2.1,0c-1.4,0-3.4,0.2-6,0.4c-2.6,0.3-5.7,0.6-9.3,1.3c-3.6,0.5-7.5,1.5-11.9,2.5
	c-2.2,0.5-4.4,1.2-6.7,1.9c-1.1,0.3-2.3,0.7-3.5,1c-1.2,0.4-2.3,0.8-3.5,1.2c-2.4,0.8-4.9,1.7-7.4,2.6c-2.5,1-5,2.1-7.5,3.1
	c-1.3,0.5-2.6,1.1-3.9,1.6c-1.3,0.6-2.5,1.2-3.8,1.9c-2.5,1.3-5.1,2.5-7.7,3.8c-2.6,1.3-5.1,2.9-7.6,4.3c-2.5,1.5-5.1,2.9-7.6,4.5
	c-2.4,1.7-4.9,3.3-7.3,5c-2.4,1.7-4.9,3.2-7.1,5.1c-4.5,3.7-9.1,7-13.3,10.6c-4.2,3.6-8.3,7-12.2,10.1c-3.8,3.4-7.4,6.6-10.7,9.5
	c-1.6,1.5-3.3,2.9-4.8,4.2c-1.5,1.3-2.8,2.7-4.2,4c-2.6,2.5-4.9,4.7-6.9,6.4c-3.9,3.5-6.2,5.5-6.2,5.5l-0.6-0.5c0,0,1.6-2.5,4.6-6.8
	c1.5-2.2,3.4-4.7,5.6-7.7c2.1-3,4.8-6.2,7.9-9.5c3-3.3,6.3-7,10-10.7c3.8-3.5,7.9-7.2,12.2-10.9c4.4-3.6,9.3-6.8,14.2-10.2
	c2.4-1.8,5.1-3.2,7.6-4.8c2.6-1.5,5.2-3.1,7.8-4.7c2.6-1.5,5.4-2.8,8-4.2c2.7-1.3,5.3-2.8,8-4c2.7-1.2,5.4-2.4,8.1-3.5
	c1.3-0.6,2.7-1.2,4-1.7c1.4-0.5,2.7-1,4-1.4c2.7-0.9,5.3-1.9,7.8-2.8c2.6-0.7,5.2-1.5,7.7-2.2c1.2-0.3,2.5-0.7,3.7-1
	c1.2-0.3,2.4-0.5,3.6-0.8c2.4-0.5,4.7-1.1,6.9-1.5c4.5-0.7,8.5-1.4,12.2-1.7c3.6-0.5,6.8-0.5,9.4-0.7c2.6,0,4.7,0,6.1,0
	c1.4,0,2.2,0.1,2.2,0.1L424.9,320z"/>
<path fill="#F79F88" d="M384.3,141.1c-2.5,2.5-12.8-1.5-14.7,1.4c-1.9,2.9,5.7,10.9,4.4,14.1c-1.3,3.2-12.4,3.5-13,6.9
	c-0.7,3.4,9.5,7.9,9.5,11.3c0,3.5-10.1,7.9-9.4,11.3c0.7,3.4,11.7,3.6,13.1,6.8c1.3,3.2-6.3,11.2-4.4,14.1
	c1.9,2.8,12.2-1.2,14.7,1.3c2.5,2.5-1.5,12.8,1.4,14.7c2.9,1.9,10.9-5.7,14.1-4.4c3.2,1.3,3.5,12.4,6.9,13c3.4,0.7,7.9-9.5,11.3-9.5
	c3.5,0,7.9,10.1,11.3,9.4c3.4-0.7,3.6-11.7,6.8-13.1c3.2-1.3,11.2,6.3,14.1,4.4c2.8-1.9-1.2-12.2,1.3-14.7
	c2.5-2.5,12.8,1.5,14.7-1.4c1.9-2.9-5.7-10.9-4.4-14.1c1.3-3.2,12.4-3.5,13-6.9c0.7-3.4-9.5-7.9-9.5-11.3c0-3.5,10.1-7.9,9.4-11.3
	c-0.7-3.4-11.7-3.6-13.1-6.8c-1.3-3.2,6.3-11.2,4.4-14.1c-1.9-2.8-12.2,1.2-14.7-1.3c-2.5-2.5,1.5-12.8-1.4-14.7
	c-2.9-1.9-10.9,5.7-14.1,4.4c-3.2-1.3-3.5-12.4-6.9-13c-3.4-0.7-7.9,9.5-11.3,9.5c-3.4,0-7.9-10.1-11.3-9.4
	c-3.4,0.7-3.6,11.7-6.8,13.1c-3.2,1.3-11.2-6.3-14.1-4.4C382.8,128.3,386.8,138.6,384.3,141.1z"/>
<g>
	<path fill="#1D4754" d="M392.4,143.6c-15.9,15.9-11.1,68.8-11.1,68.8s52.9,4.5,68.8-11.4c15.9-15.9,15.8-41.7-0.1-57.5
		C434,127.6,408.3,127.7,392.4,143.6z M400.6,151.7c11.3-11.4,29.8-11.4,41.2-0.1c11.4,11.3,11.4,29.8,0.1,41.2
		c-11.3,11.4-29.8,11.4-41.2,0.1C389.3,181.6,389.3,163.1,400.6,151.7z"/>
</g>
<path fill="#1D4754" d="M432.9,170.9c0,0-6.1,3.6-16,11c-4.9,3.8-10.7,8.5-17.2,14.2c-6.4,5.7-13.5,12.4-20.9,20
	c-7.3,7.7-15.1,16.1-22.7,25.5c-3.9,4.6-7.6,9.6-11.6,14.6c-3.7,5.2-7.7,10.3-11.4,15.8c-1.9,2.7-3.8,5.5-5.7,8.2
	c-1.8,2.8-3.6,5.7-5.5,8.5c-3.8,5.7-7.2,11.6-10.7,17.6c-3.5,6-6.8,12.2-10.2,18.3c-3.1,6.3-6.4,12.5-9.4,18.9
	c-6,12.7-11.6,25.7-16.5,38.6c-5,12.9-9.5,25.8-13.5,38.3c-2,6.3-4.1,12.4-5.9,18.5c-1.7,6.1-3.4,12.1-5.1,17.9
	c-1.7,5.8-3,11.6-4.5,17.1c-0.7,2.8-1.4,5.5-2.1,8.1c-0.6,2.7-1.2,5.3-1.8,7.9c-1.2,5.2-2.4,10.1-3.4,14.8
	c-1.1,4.7-1.9,9.2-2.8,13.4c-1.7,8.4-3.2,15.8-4.3,21.9c-2.2,12.2-3.5,19.2-3.5,19.2l-0.8-0.1c0,0,0.5-7.1,1.6-19.4
	c0.3-3.1,0.5-6.5,1-10.3c0.5-3.7,1-7.7,1.6-12c0.6-4.3,1.1-8.9,1.9-13.7c0.8-4.8,1.7-9.8,2.6-15.1c0.5-2.6,1-5.3,1.5-8
	c0.6-2.7,1.2-5.5,1.8-8.3c1.3-5.6,2.5-11.4,4-17.4c1.5-5.9,3.1-12,4.8-18.2c1.8-6.2,3.8-12.4,5.7-18.8c4.3-12.7,9-25.7,14.4-38.6
	c5.4-13,11.4-25.9,17.8-38.6c3.2-6.4,6.6-12.6,9.9-18.9c3.6-6.1,7-12.3,10.7-18.3c3.7-5.9,7.3-11.9,11.2-17.5
	c1.9-2.8,3.8-5.7,5.7-8.5c2-2.7,3.9-5.5,5.9-8.2c3.8-5.5,8-10.5,11.9-15.7c4.1-4.9,8-9.9,12.1-14.4c8-9.3,16-17.5,23.6-25
	c7.6-7.5,14.9-13.9,21.6-19.5c6.7-5.5,12.7-10.1,17.7-13.7c10.1-7.2,16.4-10.7,16.4-10.7L432.9,170.9z"/>
<path fill="#F79F88" d="M299.1,169.2c-1.7,1.7-8.8-1-10.1,0.9c-1.3,2,3.9,7.5,3,9.7c-0.9,2.2-8.5,2.4-8.9,4.7
	c-0.5,2.3,6.5,5.4,6.5,7.8c0,2.4-6.9,5.4-6.5,7.8c0.5,2.3,8,2.5,9,4.7c0.9,2.2-4.3,7.7-3,9.7c1.3,1.9,8.4-0.8,10.1,0.9
	c1.7,1.7-1,8.8,0.9,10.1c2,1.3,7.5-3.9,9.7-3c2.2,0.9,2.4,8.5,4.7,8.9c2.3,0.5,5.4-6.5,7.8-6.5s5.4,6.9,7.8,6.5c2.3-0.5,2.5-8,4.7-9
	c2.2-0.9,7.7,4.3,9.7,3c1.9-1.3-0.8-8.4,0.9-10.1s8.8,1,10.1-0.9c1.3-2-3.9-7.5-3-9.7c0.9-2.2,8.5-2.4,8.9-4.7
	c0.5-2.3-6.5-5.4-6.5-7.8c0-2.4,6.9-5.4,6.5-7.8c-0.5-2.3-8-2.5-9-4.7c-0.9-2.2,4.3-7.7,3-9.7c-1.3-1.9-8.4,0.8-10.1-0.9
	c-1.7-1.7,1-8.8-0.9-10.1c-2-1.3-7.5,3.9-9.7,3c-2.2-0.9-2.4-8.5-4.7-8.9c-2.3-0.5-5.4,6.5-7.8,6.5c-2.4,0-5.4-6.9-7.8-6.5
	c-2.3,0.5-2.5,8-4.7,9c-2.2,0.9-7.7-4.3-9.7-3C298,160.5,300.8,167.5,299.1,169.2z"/>
<g>
	<path fill="#1D4754" d="M304.6,171c-10.9,10.9-7.6,47.2-7.6,47.2s36.3,3.1,47.2-7.8c10.9-10.9,10.8-28.6-0.1-39.5
		C333.2,160,315.5,160,304.6,171z M310.3,176.6c7.8-7.8,20.4-7.8,28.2-0.1c7.8,7.8,7.8,20.4,0,28.2c-7.8,7.8-20.4,7.8-28.2,0.1
		C302.5,197,302.5,184.4,310.3,176.6z"/>
</g>
<path fill="#1D4754" d="M325,195.2c0,0-0.8,0.5-2.1,1.4c-1.4,0.9-3.3,2.4-5.7,4.2c-2.3,2-5.2,4.2-8.3,7.1c-3.2,2.8-6.5,6.2-10.2,9.9
	c-1.8,1.9-3.5,4-5.4,6.1c-0.9,1.1-1.9,2.1-2.8,3.2c-0.9,1.1-1.8,2.3-2.7,3.5c-1.8,2.3-3.7,4.7-5.7,7.2c-1.8,2.6-3.6,5.2-5.5,7.9
	c-0.9,1.3-1.9,2.7-2.8,4c-0.9,1.4-1.7,2.8-2.6,4.3c-1.7,2.9-3.5,5.8-5.2,8.7c-1.7,2.9-3.2,6.1-4.8,9.1c-1.5,3.1-3.2,6.1-4.6,9.3
	c-1.4,3.2-2.7,6.4-4.1,9.5c-1.3,3.2-2.8,6.3-3.8,9.5c-1.1,3.2-2.2,6.4-3.3,9.6c-0.6,1.6-1.1,3.1-1.7,4.7l-0.8,2.3l-0.7,2.3
	c-1.8,6.2-3.7,12.2-5.6,17.8c-0.9,2.8-1.5,5.7-2.2,8.4c-0.7,2.7-1.4,5.3-2.1,7.8c-0.7,2.5-1.4,4.9-2,7.2c-0.7,2.3-1,4.5-1.5,6.6
	c-0.9,4.1-1.8,7.7-2.5,10.7c-1.5,5.9-2.4,9.4-2.4,9.4l-0.8-0.1c0,0,0.1-3.5,0.4-9.7c0.2-3.1,0.4-6.8,0.7-11.1
	c0.2-2.1,0.3-4.4,0.7-6.8c0.4-2.4,0.8-4.9,1.2-7.5c0.9-5.2,1.8-10.9,3.1-16.8c1.5-5.9,3.3-12.1,5.1-18.4c0.5-1.6,1-3.2,1.7-4.7
	c0.6-1.6,1.2-3.2,1.9-4.7c1.2-3.2,2.6-6.4,3.9-9.6c1.2-3.3,2.9-6.4,4.4-9.5c1.5-3.2,3.1-6.4,4.6-9.5c1.6-3.2,3.4-6.2,5.1-9.3
	c1.8-3,3.4-6.2,5.3-9.1c1.9-2.9,3.8-5.8,5.7-8.6c0.9-1.4,1.9-2.8,2.8-4.2c1-1.3,2-2.7,3-4c2-2.6,4-5.2,5.9-7.8
	c2.1-2.4,4.1-4.8,6.1-7c1-1.1,2-2.3,3-3.4c1-1,2-2.1,3.1-3.1c2-2,3.9-4,5.8-5.8c3.9-3.5,7.4-6.9,10.8-9.5c3.3-2.8,6.4-4.9,8.8-6.7
	c2.6-1.7,4.6-3.1,6-3.9c1.4-0.9,2.2-1.3,2.2-1.3L325,195.2z"/>
<path fill="#F79F88" d="M320.3,379c-1.6,1.6-8.4-1-9.6,0.9c-1.3,1.9,3.7,7.1,2.9,9.2c-0.9,2.1-8.1,2.3-8.5,4.5
	c-0.4,2.2,6.2,5.1,6.2,7.4c0,2.3-6.6,5.2-6.2,7.4c0.4,2.2,7.7,2.4,8.6,4.5c0.9,2.1-4.1,7.3-2.9,9.2c1.2,1.8,8-0.8,9.6,0.8
	c1.6,1.6-1,8.4,0.9,9.6c1.9,1.3,7.1-3.7,9.2-2.9c2.1,0.9,2.3,8.1,4.5,8.5c2.2,0.4,5.1-6.2,7.4-6.2c2.3,0,5.2,6.6,7.4,6.2
	c2.2-0.4,2.4-7.7,4.5-8.6c2.1-0.9,7.3,4.1,9.2,2.9c1.8-1.2-0.8-8,0.9-9.6s8.4,1,9.6-0.9c1.3-1.9-3.7-7.1-2.9-9.2
	c0.9-2.1,8.1-2.3,8.5-4.5c0.4-2.2-6.2-5.1-6.2-7.4s6.6-5.2,6.2-7.4c-0.4-2.2-7.7-2.4-8.6-4.5c-0.9-2.1,4.1-7.3,2.9-9.2
	c-1.2-1.8-8,0.8-9.6-0.8c-1.6-1.6,1-8.4-0.9-9.6c-1.9-1.3-7.1,3.7-9.2,2.9c-2.1-0.9-2.3-8.1-4.5-8.5c-2.2-0.4-5.1,6.2-7.4,6.2
	c-2.3,0-5.2-6.6-7.4-6.2c-2.2,0.4-2.4,7.7-4.5,8.6c-2.1,0.9-7.3-4.1-9.2-2.9C319.3,370.6,321.9,377.4,320.3,379z"/>
<g>
	<path fill="#1D4754" d="M325.6,380.6c-10.4,10.4-7.3,45.1-7.3,45.1s34.7,3,45-7.5c10.4-10.4,10.4-27.3-0.1-37.7
		C352.8,370.2,336,370.2,325.6,380.6z M331,386c7.4-7.5,19.5-7.5,27-0.1c7.5,7.4,7.5,19.5,0,27c-7.4,7.5-19.5,7.5-27,0.1
		C323.5,405.5,323.5,393.5,331,386z"/>
</g>
<path fill="#1D4754" d="M355.8,389.3c0,0-2.1,1.3-5.5,4c-1.6,1.4-3.7,3.1-5.9,5.1c-2.3,2-4.6,4.5-7.1,7.1c-1.3,1.4-2.5,2.8-3.8,4.3
	c-1.3,1.5-2.6,3.1-3.9,4.8c-1.3,1.7-2.6,3.4-4,5.1c-1.2,1.8-2.5,3.7-3.8,5.6c-0.6,0.9-1.3,1.9-2,2.9c-0.6,1-1.2,2-1.8,3
	c-1.2,2-2.4,4.1-3.6,6.2c-2.3,4.3-4.5,8.6-6.6,13.1c-0.9,2.3-1.9,4.5-2.8,6.8c-0.9,2.3-1.9,4.5-2.6,6.8c-1.4,4.6-3.1,9-4.4,13.4
	c-1.3,4.4-2.6,8.6-4,12.6c-0.7,2-1.1,4-1.7,5.9c-0.6,1.9-1.1,3.8-1.6,5.5c-0.5,1.8-1,3.5-1.5,5.1c-0.5,1.6-0.8,3.2-1.2,4.6
	c-0.7,2.9-1.4,5.5-2,7.6c-1.2,4.2-2,6.6-2,6.6l-0.8-0.1c0,0-0.1-2.5,0-6.9c0-2.2,0.1-4.9,0.3-8c0.1-3.1,0.5-6.5,1.1-10.3
	c0.6-3.7,1.1-7.8,2-12.1c1-4.2,2.3-8.7,3.6-13.2c1.5-4.5,3.5-9,5.4-13.6c2-4.6,4.4-9,6.6-13.6c2.4-4.4,5-8.8,7.6-13.1
	c1.4-2.1,2.8-4.1,4.1-6.1c0.7-1,1.4-2,2-3c0.7-1,1.5-1.9,2.2-2.8c1.4-1.9,2.9-3.7,4.3-5.5c1.5-1.7,3-3.4,4.4-5
	c1.4-1.6,2.9-3.2,4.3-4.6c1.5-1.4,2.8-2.8,4.2-4.1c2.8-2.5,5.4-4.8,7.8-6.7c2.3-2,4.6-3.4,6.4-4.7c3.7-2.4,5.9-3.6,5.9-3.6
	L355.8,389.3z"/>
<path fill="#F79F88" d="M174.4,379.2c2.3,0.5,2.3,7.7,4.4,8.6c2.1,0.9,7.4-4,9.3-2.7c1.9,1.3-0.9,8,0.7,9.6c1.6,1.6,8.4-0.9,9.6,1
	c1.2,1.9-3.9,7.1-3,9.2c0.8,2.1,8.1,2.4,8.5,4.6c0.4,2.2-6.3,5-6.3,7.3c0,2.2,6.5,5.3,6.1,7.5c-0.5,2.3-7.7,2.3-8.6,4.4
	c-0.9,2.1,4,7.4,2.7,9.3c-1.3,1.9-8-0.9-9.6,0.7c-1.6,1.6,0.9,8.4-1,9.6c-1.9,1.2-7.1-3.9-9.2-3c-2.1,0.8-2.4,8.1-4.6,8.5
	c-2.2,0.4-5-6.3-7.3-6.3c-2.2,0-5.3,6.5-7.5,6.1s-2.3-7.7-4.4-8.6c-2.1-0.9-7.4,4-9.3,2.7c-1.9-1.3,0.9-8-0.7-9.6
	c-1.6-1.6-8.4,0.9-9.6-1c-1.2-1.9,3.9-7.1,3-9.2c-0.8-2.1-8.1-2.4-8.5-4.6c-0.4-2.2,6.3-5,6.3-7.3c0-2.2-6.5-5.3-6.1-7.5
	s7.7-2.3,8.6-4.4c0.9-2.1-4-7.4-2.7-9.3c1.3-1.9,8,0.9,9.6-0.7c1.6-1.6-0.9-8.4,1-9.6c1.9-1.2,7.1,3.9,9.2,3
	c2.1-0.8,2.4-8.1,4.6-8.5c2.2-0.4,5,6.3,7.3,6.3C169.1,385.3,172.2,378.7,174.4,379.2z"/>
<g>
	<path fill="#1D4754" d="M137.7,410.6c-3.1,14.4,6,28.6,20.4,31.7c14.4,3.1,41.9-18.2,41.9-18.2s-16.2-30.8-30.6-33.9
		C155,387.1,140.8,396.2,137.7,410.6z M182.4,420.3c-2.2,10.3-12.4,16.8-22.7,14.6c-10.3-2.2-16.8-12.4-14.6-22.7
		c2.2-10.3,12.4-16.8,22.7-14.6C178.1,399.8,184.6,410,182.4,420.3z"/>
</g>
<path fill="#1D4754" d="M161.8,416c0,0,2-0.2,5.4-0.2c1.7,0.1,3.8,0.1,6.2,0.3c2.4,0.2,5.1,0.6,8,1c1.5,0.2,3,0.6,4.5,0.9
	c1.6,0.3,3.2,0.6,4.8,1.1c1.6,0.4,3.3,0.9,5.1,1.4c1.7,0.6,3.4,1.2,5.2,1.8c3.6,1.1,7,2.8,10.7,4.2c3.5,1.7,7.1,3.4,10.6,5.3
	c3.4,2,7,3.9,10.3,6.1c3.3,2.2,6.6,4.3,9.5,6.6c2.8,2.4,5.5,4.9,8,7.3c2.4,2.5,4.5,4.9,6.4,7.2c2,2.2,3.7,4.4,5,6.4
	c1.4,2,2.5,3.8,3.4,5.3c1.8,2.9,2.8,4.7,2.8,4.7l-0.6,0.5c0,0-1.7-1.2-4.3-3.3c-1.3-1.1-2.9-2.4-4.7-4c-0.9-0.7-1.8-1.7-2.8-2.5
	c-1-0.8-2.1-1.7-3.2-2.6c-1.1-0.9-2.3-1.9-3.5-2.9c-1.2-1-2.3-2.1-3.6-3.1c-2.6-2-5.3-4.2-8-6.5c-2.7-2.3-5.7-4.5-8.5-7
	c-2.9-2.4-6.1-4.4-9.2-6.7c-3.2-2-6.5-4-9.8-5.9c-3.4-1.6-6.6-3.6-10-4.9c-1.7-0.7-3.3-1.4-4.9-2.1c-1.6-0.6-3.2-1.2-4.8-1.7
	c-1.5-0.6-3.1-1.1-4.6-1.5c-1.5-0.4-2.9-0.9-4.3-1.3c-2.8-0.7-5.4-1.4-7.7-1.7c-2.3-0.5-4.4-0.7-6-1c-3.4-0.4-5.3-0.4-5.3-0.4
	L161.8,416z"/>
<path fill="#F79F88" d="M193.3,294.6c1.6,1.6-2.3,7.7-1,9.6c1.3,1.9,8.4,0.7,9.3,2.8c0.9,2.1-5.1,6.3-4.6,8.5
	c0.4,2.2,7.5,3.8,7.5,6.1c0,2.3-7.1,3.8-7.5,6.1c-0.4,2.2,5.5,6.4,4.6,8.5c-0.9,2.1-8,0.8-9.3,2.7c-1.2,1.8,2.6,8,1,9.6
	s-7.7-2.3-9.6-1c-1.9,1.3-0.7,8.4-2.7,9.3c-2.1,0.9-6.3-5.1-8.5-4.6c-2.2,0.4-3.8,7.5-6.1,7.5c-2.3,0-3.8-7.1-6.1-7.5
	c-2.2-0.4-6.4,5.5-8.5,4.6c-2.1-0.9-0.8-8-2.7-9.3c-1.8-1.2-8,2.6-9.6,1c-1.6-1.6,2.3-7.7,1-9.6c-1.3-1.9-8.4-0.7-9.3-2.7
	c-0.9-2.1,5.1-6.3,4.6-8.5c-0.4-2.2-7.5-3.8-7.5-6.1c0-2.3,7.1-3.8,7.5-6.1c0.4-2.2-5.5-6.4-4.6-8.5c0.9-2.1,8-0.8,9.3-2.7
	c1.2-1.8-2.6-8-1-9.6c1.6-1.6,7.7,2.3,9.6,1c1.9-1.3,0.7-8.4,2.7-9.3c2.1-0.9,6.3,5.1,8.5,4.6c2.2-0.4,3.8-7.5,6.1-7.5
	c2.3,0,3.8,7.1,6.1,7.5c2.2,0.4,6.4-5.5,8.5-4.6c2.1,0.9,0.8,8,2.7,9.3C185.6,296.8,191.7,292.9,193.3,294.6z"/>
<g>
	<path fill="#1D4754" d="M145.4,301c-10.4,10.4-10.5,27.3-0.1,37.7c10.4,10.4,45,7.5,45,7.5s3.1-34.6-7.3-45.1
		C172.7,290.7,155.9,290.6,145.4,301z M177.7,333.4c-7.5,7.4-19.5,7.4-27-0.1c-7.4-7.5-7.4-19.5,0.1-27c7.5-7.4,19.5-7.4,27,0.1
		C185.2,313.9,185.1,326,177.7,333.4z"/>
</g>
<path fill="#1D4754" d="M156.9,318.4c0,0,4.1,2.2,10.8,6.9c6.6,4.7,15.8,11.9,25.9,21.6c5,4.9,10.3,10.3,15.6,16.3
	c5.3,6,10.6,12.6,15.8,19.7c1.3,1.8,2.6,3.6,3.9,5.4c1.3,1.8,2.5,3.7,3.8,5.5c2.6,3.7,5,7.6,7.4,11.5c2.4,3.9,4.7,7.9,7.1,12
	c2.2,4.1,4.5,8.2,6.6,12.4c4.3,8.3,8.2,16.8,11.8,25.3c3.7,8.5,6.8,17,9.6,25.3c1.3,4.2,2.7,8.3,3.8,12.4c1.1,4.1,2.1,8.1,3.1,12
	c1.7,7.8,3.5,15.3,4.5,22.2c1.2,6.9,2.1,13.3,2.7,18.9c0.3,2.8,0.6,5.5,0.9,7.9c0.3,2.4,0.3,4.7,0.5,6.7c0.5,8.1,0.7,12.8,0.7,12.8
	l-0.8,0.1c0,0-1.1-4.5-2.7-12.5c-0.8-4-1.9-8.8-3.1-14.3c-0.7-2.7-1.2-5.7-2-8.7c-0.8-3.1-1.5-6.3-2.4-9.6
	c-0.8-3.4-1.7-6.8-2.7-10.4c-1-3.6-1.9-7.3-3-11.1c-1.2-3.8-2.3-7.7-3.5-11.6c-1.3-3.9-2.5-8-3.8-12.1c-2.6-8.2-5.5-16.6-8.7-25.1
	c-3.1-8.5-6.8-16.9-10.6-25.3c-1.9-4.2-4.1-8.2-6.1-12.3c-2.2-4-4.3-8.1-6.6-12c-2.3-3.9-4.5-7.8-6.9-11.5c-1.2-1.9-2.4-3.7-3.6-5.6
	c-1.2-1.8-2.5-3.6-3.7-5.4c-2.4-3.6-5-7-7.4-10.3c-2.6-3.3-5-6.5-7.5-9.6c-4.9-6.2-10-11.7-14.7-16.8c-9.6-10-18.3-17.6-24.7-22.5
	c-6.4-4.9-10.4-7.3-10.4-7.3L156.9,318.4z"/>
</svg>
