<?xml version="1.0" encoding="utf-8"?>
<!-- Generator: Adobe Illustrator 16.0.0, SVG Export Plug-In . SVG Version: 6.00 Build 0)  -->
<!DOCTYPE svg PUBLIC "-//W3C//DTD SVG 1.1//EN" "http://www.w3.org/Graphics/SVG/1.1/DTD/svg11.dtd">
<svg version="1.1" id="Layer_1" xmlns="http://www.w3.org/2000/svg" xmlns:xlink="http://www.w3.org/1999/xlink" x="0px" y="0px"
	 width="1388.461px" height="673.077px" viewBox="0 0 1388.461 673.077" enable-background="new 0 0 1388.461 673.077"
	 xml:space="preserve" style="background: black;">
<path fill="none" stroke="#FFFFFF" stroke-miterlimit="10" d="M976.739,490.015H495.928V211.421h480.811V490.015z M990.623,200.69
	c0-1.657-1.343-3-3-3H485.044c-1.657,0-3,1.343-3,3v300.055c0,1.657,1.343,3,3,3h502.578c1.657,0,3-1.343,3-3V200.69z
	 M761.808,514.218c-0.255,3.079-2.83,5.5-5.975,5.5h-39c-3.145,0-5.721-2.421-5.975-5.5H482.044c0,7.18,5.82,13,13,13h482.578
	c7.18,0,13-5.82,13-13H761.808z M511.833,503.745v10.473 M521.833,503.745v10.473 M950.833,503.745v10.473 M960.833,503.745v10.473
	 M736.333,130.797c-12.259,0-22.196,9.938-22.196,22.197c0,12.258,9.938,22.196,22.196,22.196s22.196-9.938,22.196-22.196
	C758.53,140.735,748.592,130.797,736.333,130.797z M736.333,137.433c-8.594,0-15.561,6.967-15.561,15.562
	c0,8.594,6.967,15.561,15.561,15.561s15.561-6.967,15.561-15.561C751.894,144.399,744.927,137.433,736.333,137.433z
	 M736.333,146.079c-3.819,0-6.915,3.096-6.915,6.916s3.096,6.915,6.915,6.915s6.915-3.096,6.915-6.915
	S740.153,146.079,736.333,146.079z M759.88,193.69c0-2.209-1.791-4-4-4h-39.094c-2.209,0-4,1.791-4,4l0,0c0,2.209,1.791,4,4,4
	h39.094C758.089,197.69,759.88,195.899,759.88,193.69L759.88,193.69z M736.333,175.19v14.5 M939.333,252.218h-406v164.5h406V252.218
	z M736.333,306.218c-15.602,0-28.25,12.648-28.25,28.25c0,15.602,12.648,28.25,28.25,28.25s28.25-12.648,28.25-28.25
	C764.583,318.866,751.935,306.218,736.333,306.218z M730.968,350.815l16.729-16.098l-16.729-16.098V350.815z M533.333,439.718h247
	 M533.333,449.718h231.25 M533.333,459.718h209.915 M533.333,469.718H758.53 M939.333,439.718h-134.5v30h134.5V439.718z
	 M890.833,622.292h-311.9c-16.568,0-29.999-13.43-29.999-29.998c0-16.567,13.431-29.998,29.999-29.998h20h478.477
	c27.615,0,50-22.387,50-50v-90.492c0-27.613-22.385-50-50-50h-86.991 M991.833,347.955h42.492c27.613,0,50-22.385,50-50V170.716v-20
	c0-16.568,13.431-29.998,29.998-29.998c16.568,0,29.998,13.43,29.998,29.998v60.663v21.894v60.663
	c0,16.568,13.43,29.998,29.998,29.998c16.567,0,29.998-13.43,29.998-29.998v-20V106.696c0-27.615,22.387-50,50-50h12.492
	 M954.333,622.718c0-2.762-2.238-5-5-5h-54c-2.762,0-5,2.238-5,5l0,0c0,2.762,2.238,5,5,5h54
	C952.095,627.718,954.333,625.479,954.333,622.718L954.333,622.718z M1285,612.292c0-42.132-31.564-76.287-70.5-76.287
	s-70.5,34.155-70.5,76.287 M1150,618.292c0-3.313-2.687-6-6-6l0,0c-3.313,0-6,2.687-6,6v10c0,3.313,2.687,6,6,6l0,0
	c3.313,0,6-2.687,6-6V618.292z M1204,647.292c-3.313,0-6,2.687-6,6l0,0c0,3.313,2.687,6,6,6h10c3.313,0,6-2.687,6-6l0,0
	c0-3.313-2.687-6-6-6H1204z M1291,618.292c0-3.313-2.687-6-6-6l0,0c-3.313,0-6,2.687-6,6v10c0,3.313,2.687,6,6,6l0,0
	c3.313,0,6-2.687,6-6V618.292z M1220.25,653.542h45.5c10.632,0,19.25-8.618,19.25-19.25l0,0 M954.333,622.718H1138 M1375.392,25.825
	c0-2.761-2.238-5-5-5H1272c-2.762,0-5,2.239-5,5v159.49c0,2.761,2.238,5,5,5h98.392c2.762,0,5-2.239,5-5V25.825z M1267,30.718
	h108.392 M1267,180.718h108.392 M1367.833,38.718h-93.5v49h93.5V38.718z M1321.083,50.37c-7.096,0-12.848,5.752-12.848,12.848
	s5.752,12.848,12.848,12.848s12.848-5.752,12.848-12.848S1328.179,50.37,1321.083,50.37z M1318.643,70.653l7.608-7.321l-7.608-7.322
	V70.653z M1274.333,97.218h79.5 M1274.333,107.218h89.5 M1274.333,117.218h54.5 M1367.833,134.218c0-2.761-2.238-5-5-5h-65
	c-2.762,0-5,2.239-5,5v5c0,2.761,2.238,5,5,5h65c2.762,0,5-2.239,5-5V134.218z M1281.875,129.218c-4.165,0-7.542,3.376-7.542,7.542
	s3.377,7.542,7.542,7.542s7.542-3.376,7.542-7.542S1286.041,129.218,1281.875,129.218z M1367.833,156.218c0-2.761-2.238-5-5-5h-65
	c-2.762,0-5,2.239-5,5v5c0,2.761,2.238,5,5,5h65c2.762,0,5-2.239,5-5V156.218z M1281.875,151.218c-4.165,0-7.542,3.376-7.542,7.542
	s3.377,7.542,7.542,7.542s7.542-3.376,7.542-7.542S1286.041,151.218,1281.875,151.218z M1367.833,180.218v-2c0-2.761-2.238-5-5-5
	h-65c-2.762,0-5,2.239-5,5v2 M1289.417,180.76c0-4.166-3.377-7.542-7.542-7.542s-7.542,3.376-7.542,7.542 M1308.561,26.051h27.772
	 M314.473,339.718H14.488v163.477h299.985V339.718z M65.738,627.112c0-2.21-1.792-4.002-4.002-4.002H47.24
	c-2.21,0-4.002,1.792-4.002,4.002l0,0c0,2.21,1.792,4.002,4.002,4.002h14.496C63.946,631.114,65.738,629.322,65.738,627.112
	L65.738,627.112z M285.738,627.112c0-2.21-1.792-4.002-4.002-4.002H267.24c-2.21,0-4.002,1.792-4.002,4.002l0,0
	c0,2.21,1.792,4.002,4.002,4.002h14.496C283.946,631.114,285.738,629.322,285.738,627.112L285.738,627.112z M304.863,347.61h-281.5
	v108h281.5V347.61z M54.488,503.194V623.11 M274.488,503.194V623.11 M263.238,527.11c0-2.762-2.239-5-5-5h-187.5
	c-2.761,0-5,2.238-5,5v12.473c0,2.762,2.239,5,5,5h187.5c2.761,0,5-2.238,5-5V527.11z M164.481,503.194v18.916 M164.488,379.61
	c-13.117,0-23.75,10.633-23.75,23.75s10.633,23.75,23.75,23.75c13.116,0,23.75-10.633,23.75-23.75S177.604,379.61,164.488,379.61z
	 M159.978,417.104l14.065-13.534l-14.065-13.534V417.104z M23.363,468.61h239.875 M23.363,478.61h191 M23.363,488.61h203
	 M82.363,526.847c-3.59,0-6.5,2.91-6.5,6.5s2.91,6.5,6.5,6.5s6.5-2.91,6.5-6.5S85.953,526.847,82.363,526.847z M246.363,526.847
	c-3.59,0-6.5,2.91-6.5,6.5s2.91,6.5,6.5,6.5s6.5-2.91,6.5-6.5S249.953,526.847,246.363,526.847z M481.215,347.955h-12.492
	c-27.613,0-50-22.385-50-50V130.717v-20c0-16.569-13.432-29.999-29.998-29.999c-16.568,0-29.998,13.43-29.998,29.999v60.662v21.895
	v430.662c0,16.568-13.43,29.998-29.998,29.998s-29.998-13.43-29.998-29.998v-120 M667.975,196.977v-12.492c0-27.613-22.385-50-50-50
	h-7.238h-20c-16.569,0-29.999-13.432-29.999-29.999c0-16.568,13.43-29.998,29.999-29.998h30.662h21.895h180.662
	c16.568,0,29.998-13.43,29.998-29.998s-13.43-29.998-29.998-29.998h-550H236.45h-21.895h-30.662
	c-16.569,0-29.999,13.43-29.999,29.998c0,16.566,13.43,29.999,29.999,29.999h20h7.238c27.615,0,50,22.387,50,50v24.492
	 M325.473,154.19c0-2.761-2.239-5-5-5h-201.11c-2.761,0-5,2.239-5,5v71c0,2.761,2.239,5,5,5h201.11c2.761,0,5-2.239,5-5V154.19z
	 M114.363,172.659c0-7.042-5.708-12.75-12.75-12.75l0,0c-7.042,0-12.75,5.708-12.75,12.75v30.309c0,7.042,5.708,12.75,12.75,12.75
	l0,0c7.042,0,12.75-5.708,12.75-12.75V172.659z M289.39,180.477c-5.089,0-9.214,4.125-9.214,9.214s4.125,9.214,9.214,9.214
	c5.088,0,9.214-4.125,9.214-9.214S294.479,180.477,289.39,180.477z M261.918,180.477c-5.089,0-9.214,4.125-9.214,9.214
	s4.125,9.214,9.214,9.214c5.088,0,9.214-4.125,9.214-9.214S267.006,180.477,261.918,180.477z M234.446,180.477
	c-5.088,0-9.214,4.125-9.214,9.214s4.125,9.214,9.214,9.214c5.089,0,9.214-4.125,9.214-9.214S239.535,180.477,234.446,180.477z"/>
</svg>
