<?xml version="1.0" encoding="utf-8"?>

<!DOCTYPE svg PUBLIC "-//W3C//DTD SVG 1.1//EN" "http://www.w3.org/Graphics/SVG/1.1/DTD/svg11.dtd">
<svg version="1.1" id="Layer_1" xmlns="http://www.w3.org/2000/svg" xmlns:xlink="http://www.w3.org/1999/xlink" x="0px" y="0px"
	 width="600px" height="400px" viewBox="0 0 600 400" enable-background="new 0 0 600 400" xml:space="preserve" >
	<style>
		.line1 {
            stroke-dasharray: 1000;
            stroke-dashoffset: 0;
            animation: line1 3s infinite;
            animation-direction: alternate;
        }
        
        .line2 {
            stroke-dasharray: 1000;
            stroke-dashoffset: 0;
            animation: line1 3s infinite;
            animation-direction: alternate;
            animation-delay: 1s;
        }
        
        .line3 {
            stroke-dasharray: 1000;
            stroke-dashoffset: 0;
            animation: line1 3s infinite;
            animation-direction: alternate;
            animation-delay: 2s;
        }
        
        .line4 {
            stroke-dasharray: 1000;
            stroke-dashoffset: 0;
            animation: line1 3s infinite;
            animation-direction: alternate;
            animation-delay: 3s;
        }
        
        .line5 {
            stroke-dasharray: 1000;
            stroke-dashoffset: 0;
            animation: line1 3s infinite;
            animation-direction: alternate;
            animation-delay: 4s;
        }
        
        .line6 {
            stroke-dasharray: 1000;
            stroke-dashoffset: 0;
            animation: line1 3s infinite;
            animation-direction: alternate;
            animation-delay: 5s;
        }
        
       
        
        @keyframes line1 {
            from {
                stroke-dashoffset: 0;
            }
            to {
                stroke-dashoffset: 1000;
            }
        }
        
        @keyframes line2 {
            from {
                stroke-dashoffset: 0;
            }
            to {
                stroke-dashoffset: 1000;
            }
        }
        
        @keyframes line3 {
            from {
                stroke-dashoffset: 0;
            }
            to {
                stroke-dashoffset: 1000;
            }
        }
        
        @keyframes line4 {
            from {
                stroke-dashoffset: 0;
            }
            to {
                stroke-dashoffset: 1000;
            }
        }
        
        @keyframes line5 {
            from {
                stroke-dashoffset: 0;
            }
            to {
                stroke-dashoffset: 1000;
            }
        }
        
        @keyframes line6 {
            from {
                stroke-dashoffset: 0;
            }
            to {
                stroke-dashoffset: 1000;
            }
        }
        
      
	</style>
	<path fill="none" stroke="#FFFFFF" stroke-miterlimit="10" d="M201.468,151.512h82.585c0.965,0,1.748,0.783,1.748,1.748v168.233
		c0,0.965-0.783,1.748-1.748,1.748H9.636c-0.965,0-1.748-0.783-1.748-1.748V153.26c0-0.965,0.783-1.748,1.748-1.748H92.22
		M7.888,303.548H285.8 M146.844,112.658c-21.459,0-38.855,17.396-38.855,38.854c0,21.458,17.396,38.854,38.855,38.854
		c21.458,0,38.854-17.396,38.854-38.854C185.699,130.053,168.303,112.658,146.844,112.658z M285.8,19.688H88.632V94.85h132.845
		l-19.519,29.424L246.24,94.85H285.8V19.688z M203.216,372.184c0-0.966-0.783-1.748-1.748-1.748H92.22
		c-0.965,0-1.748,0.782-1.748,1.748v6.396c0,0.966,0.783,1.748,1.748,1.748h109.248c0.965,0,1.748-0.782,1.748-1.748V372.184z
		M159.425,323.241h-25.054v47.194h25.054V323.241z M203.216,303.146V209.63c0-0.966-0.783-1.748-1.748-1.748H92.22
		c-0.965,0-1.748,0.782-1.748,1.748v93.517 M398.114,151.512h-82.585c-0.965,0-1.748,0.783-1.748,1.748v168.233
		c0,0.965,0.783,1.748,1.748,1.748h274.417c0.966,0,1.748-0.783,1.748-1.748V153.26c0-0.965-0.782-1.748-1.748-1.748h-82.584
		M591.694,303.548H313.781 M413.883,151.512c0,21.458,17.396,38.854,38.855,38.854c21.458,0,38.854-17.396,38.854-38.854
		c0-21.459-17.396-38.854-38.854-38.854C431.279,112.658,413.883,130.053,413.883,151.512z M313.781,94.85h39.561l44.281,29.424
		L378.104,94.85H510.95V19.688H313.781V94.85z M396.366,378.58c0,0.966,0.782,1.748,1.748,1.748h109.248
		c0.965,0,1.747-0.782,1.747-1.748v-6.396c0-0.966-0.782-1.748-1.747-1.748H398.114c-0.966,0-1.748,0.782-1.748,1.748V378.58z
		M440.157,370.436h25.054v-47.194h-25.054V370.436z M509.109,303.146V209.63c0-0.966-0.782-1.748-1.747-1.748H398.114
		c-0.966,0-1.748,0.782-1.748,1.748v93.517"
	/>
	<line class="line1" fill="none" stroke="#FFFFFF" stroke-miterlimit="10" x1="109.608" y1="38.624" x2="266.051" y2="38.624"/>
	<line class="line2" fill="none" stroke="#FFFFFF" stroke-miterlimit="10" x1="109.608" y1="56.104" x2="266.051" y2="56.104"/>
	<line class="line3" fill="none" stroke="#FFFFFF" stroke-miterlimit="10" x1="109.608" y1="73.583" x2="266.051" y2="73.583"/>
	<line class="line4" fill="none" stroke="#FFFFFF" stroke-miterlimit="10" x1="489.975" y1="38.624" x2="333.531" y2="38.624"/>
	<line class="line5" fill="none" stroke="#FFFFFF" stroke-miterlimit="10" x1="489.975" y1="56.104" x2="333.531" y2="56.104"/>
	<line class="line6" fill="none" stroke="#FFFFFF" stroke-miterlimit="10" x1="489.975" y1="73.583" x2="333.531" y2="73.583"/>
</svg>
