<?xml version="1.0" encoding="utf-8"?>
<!-- Generator: Adobe Illustrator 16.0.0, SVG Export Plug-In . SVG Version: 6.00 Build 0)  -->
<!DOCTYPE svg PUBLIC "-//W3C//DTD SVG 1.1//EN" "http://www.w3.org/Graphics/SVG/1.1/DTD/svg11.dtd">
<svg version="1.1" id="Layer_1" xmlns="http://www.w3.org/2000/svg" xmlns:xlink="http://www.w3.org/1999/xlink" x="0px" y="0px"
	 width="1920px" height="1080px" viewBox="0 0 1920 1080" enable-background="new 0 0 1920 1080" xml:space="preserve">
<path opacity="0.7" fill="#FFFFFF" stroke="#FFFFFF" stroke-miterlimit="10" d="M123.1,355.9c-9.4,0-17.1-7.7-17.1-17.1
	c0-9.4,7.7-17.1,17.1-17.1"/>
<circle opacity="0.7" fill="#FFFFFF" stroke="#FFFFFF" stroke-miterlimit="10" cx="1565.5" cy="259.7" r="10.8"/>
<path opacity="0.7" fill="#FFFFFF" stroke="#FFFFFF" stroke-miterlimit="10" d="M600.9,536.2c0,6.6-5.4,12-12,12s-12-5.4-12-12"/>
<path opacity="0.7" fill="#FFFFFF" stroke="#FFFFFF" stroke-miterlimit="10" d="M1565.5,807.8c0,5.6-4.5,10.1-10.1,10.1
	c-5.6,0-10.1-4.5-10.1-10.1"/>
<path opacity="0.7" fill="#FFFFFF" stroke="#FFFFFF" stroke-miterlimit="10" d="M111,965.4c0-8,6.5-14.6,14.6-14.6
	c8,0,14.6,6.5,14.6,14.6"/>
<line opacity="0.7" fill="none" stroke="#FFFFFF" stroke-miterlimit="10" x1="1704.7" y1="511.6" x2="1731.3" y2="511.6"/>
<line opacity="0.7" fill="none" stroke="#FFFFFF" stroke-miterlimit="10" x1="1718" y1="524.8" x2="1718" y2="498.3"/>
<polygon opacity="0.7" fill="none" stroke="#FFFFFF" stroke-miterlimit="10" points="1846.5,212.7 1851.5,222.8 1862.6,224.4 
	1854.5,232.3 1856.5,243.4 1846.5,238.1 1836.5,243.4 1838.4,232.3 1830.3,224.4 1841.5,222.8 "/>
<rect x="1565.5" y="259.7" opacity="0.7" fill="none" stroke="#FFFFFF" stroke-miterlimit="10" width="20.9" height="20.9"/>
<line opacity="0.7" fill="none" stroke="#FFFFFF" stroke-miterlimit="10" x1="295.8" y1="752.1" x2="324.9" y2="752.1"/>
<line opacity="0.7" fill="none" stroke="#FFFFFF" stroke-miterlimit="10" x1="310.4" y1="768.5" x2="355.3" y2="768.5"/>
<polygon opacity="0.7" fill="none" stroke="#FFFFFF" stroke-miterlimit="10" points="1059.9,934.3 1076.8,904.9 1093.8,934.3 "/>
<polygon opacity="0.7" fill="none" stroke="#FFFFFF" stroke-miterlimit="10" points="1231,46.7 1241.7,28.2 1252.4,46.7 "/>
<polygon opacity="0.7" fill="none" stroke="#FFFFFF" stroke-miterlimit="10" points="1241,46.7 1251.7,28.2 1262.4,46.7 "/>
</svg>
