<?xml version="1.0" encoding="utf-8"?>
<!-- Generator: Adobe Illustrator 16.0.0, SVG Export Plug-In . SVG Version: 6.00 Build 0)  -->
<!DOCTYPE svg PUBLIC "-//W3C//DTD SVG 1.1//EN" "http://www.w3.org/Graphics/SVG/1.1/DTD/svg11.dtd">
<svg version="1.1" id="Layer_1" xmlns="http://www.w3.org/2000/svg" xmlns:xlink="http://www.w3.org/1999/xlink" x="0px" y="0px"
	 width="948.1px" height="527.8px" viewBox="0 0 948.1 527.8" enable-background="new 0 0 948.1 527.8" xml:space="preserve">
<g>
	
		<rect x="246.1" y="213.4" transform="matrix(0.7071 0.7071 -0.7071 0.7071 278.8558 -90.4274)" fill="#FFF200" width="5" height="156.1"/>
</g>
<g>
	
		<rect x="95.6" y="363.7" transform="matrix(0.7071 0.7071 -0.7071 0.7071 341.2083 60.1048)" fill="#FFF200" width="5" height="156.4"/>
</g>
<g>
	
		<rect x="170.6" y="439.5" transform="matrix(0.7071 0.7071 -0.7071 0.7071 385.3831 -46.3024)" fill="#FFF200" width="156.1" height="5"/>
</g>
<g>
	
		<rect x="19.9" y="289" transform="matrix(0.7071 0.7071 -0.7071 0.7071 234.8509 16.0501)" fill="#FFF200" width="156.4" height="5"/>
</g>
<g>
	<rect x="170.8" y="395.2" fill="#FFF200" width="5" height="102.1"/>
</g>
<g>
	<rect x="170.8" y="236.2" fill="#FFF200" width="5" height="102.4"/>
</g>
<g>
	<rect x="42.7" y="364.2" fill="#FFF200" width="102.1" height="5"/>
</g>
<g>
	<rect x="201.4" y="364.2" fill="#FFF200" width="102.4" height="5"/>
</g>
<g>
	<path fill="#FFFFFF" d="M329.8,523.2h-313v-313h313V523.2z M26.8,513.2h293v-293h-293V513.2z"/>
</g>
<g>
	<path fill="#A1509F" d="M324.8,518.3H21.7V215.2h303.1V518.3z M31.4,508.6h283.8V224.8H31.4V508.6z"/>
</g>
<g>
	<path fill="#31AC92" d="M306.3,499.7h-266v-266h266V499.7z M45.3,494.7h256v-256h-256V494.7z"/>
</g>
<g>
	<path fill="#A1509F" d="M188.2,381.6h-29.8v-29.8h29.8V381.6z M166.3,373.6h13.8v-13.8h-13.8V373.6z"/>
</g>
<g>
	<path fill="#FFFFFF" stroke="#58AC46" stroke-width="2" stroke-miterlimit="10" d="M173.3,397.4c-16.9,0-30.7-13.8-30.7-30.7
		s13.8-30.7,30.7-30.7s30.7,13.8,30.7,30.7S190.2,397.4,173.3,397.4z M173.3,341.1c-14.2,0-25.7,11.5-25.7,25.7s11.5,25.7,25.7,25.7
		s25.7-11.5,25.7-25.7S187.4,341.1,173.3,341.1z"/>
</g>
<g>
	<path fill="#31AC92" d="M320.3,513.8H26.2V219.7h294.1V513.8z M31.2,508.8h284.1V224.7H31.2V508.8z"/>
</g>
<g>
	<path fill="#FFFFFF" d="M173.3,371.7c-0.8,0-1.6-0.2-2.3-0.6c-2.5-1.3-3.4-4.3-2.2-6.7l165.5-321c1.3-2.5,4.3-3.4,6.7-2.2
		c2.5,1.3,3.4,4.3,2.2,6.7L177.7,369C176.8,370.7,175.1,371.7,173.3,371.7z"/>
</g>
<g>
	<path fill="#FFFFFF" d="M517.3,386.7c-0.5,0-1.1-0.1-1.6-0.3c-2.6-0.9-4-3.8-3.1-6.4L605,112.6c0.9-2.6,3.8-4,6.4-3.1
		c2.6,0.9,4,3.8,3.1,6.4L522,383.4C521.3,385.4,519.3,386.7,517.3,386.7z"/>
</g>
<g>
	<path fill="#FFFFFF" d="M517.3,386.7c-1.3,0-2.7-0.5-3.7-1.6L289.1,141.3c-1.9-2-1.7-5.2,0.3-7.1c2-1.9,5.2-1.7,7.1,0.3
		l224.5,243.8c1.9,2,1.7,5.2-0.3,7.1C519.7,386.3,518.5,386.7,517.3,386.7z"/>
</g>
<g>
	<path fill="#FFFFFF" d="M609.8,119.2c-0.7,0-1.4-0.2-2.1-0.5c-2.5-1.2-3.6-4.2-2.4-6.7l24.5-52c1.2-2.5,4.2-3.6,6.7-2.4
		c2.5,1.2,3.6,4.2,2.4,6.7l-24.5,52C613.4,118.2,611.6,119.2,609.8,119.2z"/>
</g>
<g>
	<path fill="#31AC92" d="M338.8,50.7h-46c-2.8,0-5-2.2-5-5c0-2.8,2.2-5,5-5h46c2.8,0,5,2.2,5,5C343.8,48.5,341.5,50.7,338.8,50.7z"
		/>
</g>
<g>
	<path fill="#FFFFFF" d="M783.8,167.8H641.6c-2.8,0-5-2.2-5-5s2.2-5,5-5h142.2c2.8,0,5,2.2,5,5S786.5,167.8,783.8,167.8z"/>
</g>
<path fill="#FFF200" d="M700.7,24.2c0,0-25.3,41.3-51,39.3s-33-17.7-81-12.8c0,0-6.7-17.8,22.7-19.2c29.3-1.3,78.7-7,97.3-17.3
	C699.8,8.1,713.6,7.1,700.7,24.2z"/>
<path fill="#31AC92" d="M649.8,53.6c25.7,2,51-39.3,51-39.3c1.1-1.4,1.9-2.7,2.6-3.8c3.6,0.9,4.1,4.9-2.6,13.8
	c0,0-25.3,41.3-51,39.3s-33-17.7-81-12.8c0,0-1.9-5.1,0.8-10.1C616.8,36.1,624.2,51.6,649.8,53.6z"/>
<g>
	<path fill="#31AC92" d="M338.3,133.8h-100c-16.5,0-30-13.5-30-30v-0.2c0-14.4,0-34.1,16.7-48.6c9.8-8.4,43-18.7,46.8-19.8
		c2.6-0.8,5.4,0.7,6.2,3.3c0.8,2.6-0.7,5.4-3.3,6.2c-9.7,2.9-36.3,11.9-43.2,17.8c-13.3,11.4-13.3,27.8-13.3,41v0.2c0,11,9,20,20,20
		h100c2.8,0,5,2.2,5,5S341.1,133.8,338.3,133.8z"/>
</g>
<path fill="#31AC92" d="M211.8,73.5c0,0-15.2,7.6-30.1-11.9c0,0-4.6-4.5-13.3,9c0,0-9.6,8-7.4,29.5s-1.3,42.5-7.8,50.5
	c0,0,2,6,5.5,0s14.5-34,13.5-52c0,0,6.7-6,9.4-7c1.7-0.6,7.1-0.5,7.1-0.5s-7,13.5-3.5,30s-3.5,38-8.5,43.5c0,0,4.5,6.5,10-9.5
	s5.1-29.6,8.5-39C199.2,105.4,213.8,86.9,211.8,73.5z"/>
<path fill="#FFF200" d="M161.1,100.1c-1.4-13.8,2-22,4.7-26.2c9.4,3.3,12,12.9,12.7,19.6c-2.9,2.1-6.1,5-6.1,5c1,18-10,46-13.5,52
	s-5.5,0-5.5,0C159.8,142.6,163.3,121.6,161.1,100.1z"/>
<circle fill="#652D2F" cx="167.9" cy="87.1" r="2.7"/>
<g>
	<path fill="#31AC92" d="M292.8,50.7c-0.5,0-0.9-0.1-1.4-0.2l-19.4-5.7c-2.6-0.8-4.2-3.6-3.4-6.2c0.8-2.6,3.6-4.2,6.2-3.4l19.4,5.7
		c2.6,0.8,4.2,3.6,3.4,6.2C296.9,49.3,294.9,50.7,292.8,50.7z"/>
</g>
<g>
	<path fill="#FFFFFF" d="M609.8,119.2h-306c-2.8,0-5-2.2-5-5s2.2-5,5-5h306c2.8,0,5,2.2,5,5S612.5,119.2,609.8,119.2z"/>
</g>
<g>
	<path fill="#FFFFFF" d="M645.9,118.8h-36.8c-3.1,0-5.6-2.2-5.6-5s2.5-5,5.6-5h36.8c3.1,0,5.6,2.2,5.6,5S649,118.8,645.9,118.8z"/>
</g>
<g>
	<path fill="#FFFFFF" stroke="#58AC46" stroke-width="2" stroke-miterlimit="10" d="M517.3,443.6c-34.1,0-61.8-27.7-61.8-61.8
		s27.7-61.8,61.8-61.8s61.8,27.7,61.8,61.8S551.4,443.6,517.3,443.6z M517.3,329.9c-28.6,0-51.8,23.3-51.8,51.8s23.3,51.8,51.8,51.8
		s51.8-23.3,51.8-51.8S545.8,329.9,517.3,329.9z"/>
</g>
<g>
	<path fill="#FFFFFF" d="M517.3,402.2c-11.3,0-20.5-9.2-20.5-20.5s9.2-20.5,20.5-20.5s20.5,9.2,20.5,20.5S528.6,402.2,517.3,402.2z
		 M517.3,364.5c-9.5,0-17.2,7.7-17.2,17.2s7.7,17.2,17.2,17.2s17.2-7.7,17.2-17.2S526.7,364.5,517.3,364.5z"/>
</g>
<circle fill="#31AC92" cx="338.1" cy="45.7" r="9.3"/>
<g>
	
		<rect x="853.1" y="213.4" transform="matrix(0.7071 0.7071 -0.7071 0.7071 456.642 -519.6412)" fill="#FFF200" width="5" height="156.1"/>
</g>
<g>
	
		<rect x="702.6" y="363.7" transform="matrix(0.7071 0.7071 -0.7071 0.7071 518.9945 -369.109)" fill="#FFF200" width="5" height="156.4"/>
</g>
<g>
	
		<rect x="777.6" y="439.5" transform="matrix(0.7071 0.7071 -0.7071 0.7071 563.1693 -475.5162)" fill="#FFF200" width="156.1" height="5"/>
</g>
<g>
	
		<rect x="626.9" y="289" transform="matrix(0.7071 0.7071 -0.7071 0.7071 412.6371 -413.1637)" fill="#FFF200" width="156.4" height="5"/>
</g>
<g>
	<rect x="777.8" y="395.2" fill="#FFF200" width="5" height="102.1"/>
</g>
<g>
	<rect x="777.8" y="236.2" fill="#FFF200" width="5" height="102.4"/>
</g>
<g>
	<rect x="649.7" y="364.2" fill="#FFF200" width="102.1" height="5"/>
</g>
<g>
	<rect x="808.4" y="364.2" fill="#FFF200" width="102.4" height="5"/>
</g>
<g>
	<path fill="#FFFFFF" d="M936.8,523.2h-313v-313h313V523.2z M633.8,513.2h293v-293h-293V513.2z"/>
</g>
<g>
	<path fill="#A1509F" d="M931.8,518.3H628.7V215.2h303.1V518.3z M638.4,508.6h283.8V224.8H638.4V508.6z"/>
</g>
<g>
	<path fill="#31AC92" d="M913.3,499.7h-266v-266h266V499.7z M652.3,494.7h256v-256h-256V494.7z"/>
</g>
<g>
	<path fill="#A1509F" d="M795.2,381.6h-29.8v-29.8h29.8V381.6z M773.3,373.6h13.8v-13.8h-13.8V373.6z"/>
</g>
<g>
	<path fill="#FFFFFF" stroke="#58AC46" stroke-width="2" stroke-miterlimit="10" d="M780.3,397.4c-16.9,0-30.7-13.8-30.7-30.7
		s13.8-30.7,30.7-30.7s30.7,13.8,30.7,30.7S797.2,397.4,780.3,397.4z M780.3,341.1c-14.2,0-25.7,11.5-25.7,25.7s11.5,25.7,25.7,25.7
		s25.7-11.5,25.7-25.7S794.4,341.1,780.3,341.1z"/>
</g>
<g>
	<path fill="#31AC92" d="M927.3,513.8H633.2V219.7h294.1V513.8z M638.2,508.8h284.1V224.7H638.2V508.8z"/>
</g>
<g>
	<rect x="515.8" y="402.2" fill="#FFF200" width="3" height="31.3"/>
</g>
<g>
	<rect x="515.8" y="330.2" fill="#FFF200" width="3" height="31.3"/>
</g>
<g>
	<rect x="537.6" y="380.4" fill="#FFF200" width="31.3" height="3"/>
</g>
<g>
	<rect x="465.6" y="380.4" fill="#FFF200" width="31.3" height="3"/>
</g>
<g>
	
		<rect x="541.2" y="340.8" transform="matrix(-0.7071 -0.7071 0.7071 -0.7071 674.4351 992.2263)" fill="#FFF200" width="3" height="31.3"/>
</g>
<g>
	
		<rect x="490.3" y="391.7" transform="matrix(-0.7071 -0.7071 0.7071 -0.7071 551.5231 1043.1367)" fill="#FFF200" width="3" height="31.3"/>
</g>
<g>
	
		<rect x="541.2" y="391.7" transform="matrix(-0.7071 0.7071 -0.7071 -0.7071 1214.5072 311.6231)" fill="#FFF200" width="3" height="31.3"/>
</g>
<line fill="none" stroke="#58AC46" stroke-width="2" stroke-linecap="round" stroke-miterlimit="10" x1="517.3" y1="319.9" x2="780.3" y2="336.1"/>
<line fill="none" stroke="#58AC46" stroke-width="2" stroke-linecap="round" stroke-miterlimit="10" x1="782.8" y1="397.3" x2="529.3" y2="442.4"/>
<g>
	<path fill="#FFFFFF" d="M780.3,371.7c-1.6,0-3.2-0.8-4.1-2.2L604.4,120.6c-1.6-2.3-1-5.4,1.3-7c2.3-1.6,5.4-1,7,1.3l171.7,248.9
		c1.6,2.3,1,5.4-1.3,7C782.2,371.4,781.2,371.7,780.3,371.7z"/>
</g>
<g>
	<path fill="#FFFFFF" stroke="#58AC46" stroke-width="2" stroke-miterlimit="10" d="M428.8,422.3c-1,0-1.9-0.6-2.3-1.5
		c-0.6-1.3,0-2.7,1.3-3.3l86.9-37.9c1.3-0.6,2.7,0,3.3,1.3c0.6,1.3,0,2.7-1.3,3.3l-86.9,37.9C429.5,422.3,429.2,422.3,428.8,422.3z"
		/>
</g>
<g>
	<path fill="#FFFFFF" stroke="#58AC46" stroke-width="2" stroke-miterlimit="10" d="M451,425.2h-41.1c-2.4,0-4.4-2-4.4-4.4
		s2-4.4,4.4-4.4H451c2.4,0,4.4,2,4.4,4.4S453.4,425.2,451,425.2z"/>
</g>
</svg>
