<?xml version="1.0" encoding="utf-8"?>
<!DOCTYPE svg PUBLIC "-//W3C//DTD SVG 1.1//EN" "http://www.w3.org/Graphics/SVG/1.1/DTD/svg11.dtd">
<svg version="1.1" id="Layer_1" xmlns="http://www.w3.org/2000/svg" xmlns:xlink="http://www.w3.org/1999/xlink" x="0px" y="0px"
     width="100px" height="120px" viewBox="0 0 100 120" enable-background="new 0 0 100 120" xml:space="preserve">
<path fill="#231F20 " d="M99.1,1.4c-0.2-0.2-0.5-0.2-0.7,0L50,49.8L1.7,1.4C1.5,1.2,1.2,1.2,1,1.4S0.8,2,1,2.1l48.6,48.6
    c0,0.1,0.1,0.1,0.1,0.2C49.7,51,49.9,51,50,51c0,0,0,0,0,0s0,0,0,0c0.1,0,0.3,0,0.4-0.1c0,0,0.1-0.1,0.1-0.2L99.1,2.1
    C99.3,2,99.3,1.6,99.1,1.4z">
    <animate attributeName="fill" values="#ffffff; #f1f1f1; #f2f2f2; #f3f3f3; #f2f2f2; #f1f1f1; #ffffff" dur="5s" repeatCount="indefinite" />
    <animateTransform attributeName="transform" dur="1s" type="translate" values="0 10 ; 0 -10; 0 10" repeatCount="indefinite" begin="0.2"/>

</path>
</svg>

