<?xml version="1.0" encoding="utf-8"?>
<!-- Generator: Adobe Illustrator 16.0.0, SVG Export Plug-In . SVG Version: 6.00 Build 0)  -->
<!DOCTYPE svg PUBLIC "-//W3C//DTD SVG 1.1//EN" "http://www.w3.org/Graphics/SVG/1.1/DTD/svg11.dtd">
<svg version="1.1" id="Layer_1" xmlns="http://www.w3.org/2000/svg" xmlns:xlink="http://www.w3.org/1999/xlink" x="0px" y="0px"
	 width="728.6px" height="131.2px" viewBox="0 0 728.6 131.2" enable-background="new 0 0 728.6 131.2" xml:space="preserve">
<path fill="#FFFFFF" d="M281.9,69.5c0,3.6-7,6.2-21,7.8c-8.1,1-15.4,1.4-22,1.4c-12-0.1-17.9-1.6-17.9-4.7c0-3.5,3.1-6.4,9.3-8.7
	c4.9-1.9,11.2-3.2,18.7-4c0.6-0.1,1-0.3,1-0.6c0-0.6-1.4-1.2-4.1-1.9c-3.1-0.7-6.8-1.1-10.9-1.1c-7.5,0-14.1,0.9-19.8,2.8
	c-7,2.4-10.6,5.8-10.6,10.2c0,3.7,2.4,9.2,7.2,16.8c0.4,0.6,3.3,1.2,8.6,1.8c5.9,0.6,13.3,1,22.3,1.4c-0.8,1.6-1.7,3.6-2.9,5.8
	c-2.1-0.1-5.3-0.1-9.5-0.1c-25.3-0.1-50.4,1.2-75.1,4c-1.6-1.2-3-3-4.1-5.5c-0.1-0.3,0.2-0.5,0.9-0.6c6.6-1.2,10-1.9,10.1-1.9
	c2.9-0.7,4.5-1.6,4.6-2.6c0.8-2.7,1.5-5.4,2.2-8.1c1.3-5.2,2-9.2,2-12.1c0-3.1-0.7-4.9-2.2-5.4c-1.8-0.7-4.4-1-7.9-1
	c-1.3,0-3.5,0.1-6.8,0.3c-0.9,0.1-1.3,0-1.3-0.2c0-0.4-0.3-1.8-1-4.2c-0.7-2.4-1-3.8-1-4.1c0-0.4,0.5-0.5,1.4-0.4
	c4.7,0.6,9.4,0.9,14.2,0.9c11.6,0.1,23.8-1.9,36.5-5.7c-0.7,2-1.6,4.7-2.8,7.9c8.9-3.8,21.1-5.7,36.8-5.6
	c21.3,0.1,35.3,3.9,42.1,11.5C280.9,66,281.9,67.9,281.9,69.5z"/>
<path fill="#FFFFFF" d="M406.9,50.5c0,3.8-7.4,6.4-22,7.9c-6.8,0.7-13,1-18.5,1c-6.3,0-11.2-0.5-14.8-1.4c-3.6-0.9-5.4-2.1-5.4-3.6
	c0-5.1,7.1-8.6,21-10.5c4.6-0.6,6.9-1.2,6.9-1.6c0-0.9-2.4-2-7.2-3c-5-1.1-10.1-1.7-15.3-1.7c-12.4-0.1-18.6,5.5-18.7,16.6
	c0,3.6,0.8,7.7,2.4,12.3c1.4,4.1,2.5,6.3,3.4,6.8c6.1,0.2,11.3,0.3,15.7,0.3c5.2,0,8.4-0.1,9.6-0.4c0.2-0.5,0.3-1.1,0.4-1.8
	c0-0.9-0.7-1.9-2.1-2.8c0,0-1.5-0.8-4.6-2.5c7.3-1.4,14.4-2.3,21.5-2.8c0.8,0.8,1.1,1.8,1.1,2.9c0,0.8-0.3,2-0.8,3.5
	c-0.5,1.6-0.8,2.7-0.8,3.5c0,1.5,0.7,3.8,2.1,6.7c1.4,2.9,2.7,4.9,3.9,5.9c-2.9,0.4-5.7,0.9-8.6,1.3c-3.7,0.6-6.4,0.8-8.2,0.8
	c-1.2,0-2.1-0.1-2.7-0.4c-0.8-0.3-1.9-1.8-3.3-4.2c-1.2-2.1-3-3.2-5.4-3.3c-3.9-0.3-9-0.7-15.3-1c0,1.2,3,4.2,9,9
	c5.7,4.5,11.9,8.9,18.4,13.3l-4.7,0c-10.2-0.1-19.9,0.5-28.9,1.5c-9.9,1.2-15.9,2.8-17.9,4.7l-7.1-8.4c3.8-1.4,8.6-2.1,14.2-2
	c1.4,0,3,0.1,4.7,0.3c-9.4-5.1-17.1-11.4-23.1-18.8c-5.6,0-13.2,0.8-22.9,2.5c-0.6-2-1-4.2-0.9-6.4c0-1.5,0.2-2.9,0.7-4.3
	c5.4,1,11.7,1.7,19,2.1c-5-7.5-7.5-13.5-7.5-18c0.1-13.9,17-20.7,50.7-20.5c17.1,0.1,30.9,1.4,41.6,4c8.2,2,13.9,4.5,17.1,7.5
	C405.8,47.2,406.9,49,406.9,50.5z"/>
<path fill="#FFFFFF" d="M586.5,100.9c-7.3-1.5-14.6-2.3-21.8-2.3c-9.6-0.1-19.8,1.1-30.5,3.4c-0.8,0.2-1.3,0.2-1.5,0.2
	c-0.3-0.1-0.3-0.3-0.1-0.7c7.4-13.7,11.1-24.9,11.1-33.7c0.1-7.6-2-15-6.1-22.1c-0.6-1.1-2.2-1.8-4.6-2.3c-1.9-0.3-5-0.6-9.6-0.8
	c-2.1-0.9-2.9-3-2.5-6.4c0.3,0.1,1.3,0.1,2.9,0.1c8.1,0,26.1-0.6,53.9-1.8c3.7,6.2,5.5,13,5.4,20.5c-0.1,13.8-5.7,25.8-16.8,36
	c4-0.9,8-1.3,12-1.3c3.2,0,5.9,0.3,8.2,0.7L586.5,100.9z"/>
<path fill="#FFFFFF" d="M521.4,71c0,2.4-0.7,5.4-2,8.8c-2.3,6.1-7.1,11.1-14.7,15.2c-9.7,5.2-22.7,7.8-38.8,7.7
	c-14.7-0.1-27.9-2.3-39.7-6.8c-12.5-4.7-18.7-10.3-18.6-16.8c0-5.1,4.8-9.9,14.1-14.5c10.7-5.1,24.5-8.2,41.5-9.1
	c5.5-0.3,11.8-0.4,18.9-0.4c14.3,0.1,24.6,1.5,30.8,4.3C518.6,61.8,521.4,65.7,521.4,71L521.4,71z M507.2,76.5c0-2-3.5-3.6-10.5-4.7
	c-6.4-1-14.6-1.6-24.6-1.6c-11-0.1-21.7,1.3-32.2,4.1c-9.8,2.6-14.8,5.1-14.8,7.5c0,1.7,3.1,3,9.4,4.2c6.3,1.1,13.9,1.7,22.9,1.8
	c11.3,0.1,22.5-1.1,33.4-3.6C501.7,81.7,507.1,79.2,507.2,76.5z"/>
<path fill="#FFFFFF" d="M721.2,59.1l-1.9,8.7c-1.7,0.2-3.2,0.4-4.6,0.4c-3.4,0-7.2-0.6-11.5-1.7c9.1,7.6,13.6,15.9,13.5,24.7
	c0,2.2-0.4,4.3-1,6.3c-2.6,7.7-7.9,13-16,16c-9.4,3.5-25.4,5.2-47.9,5c-19.5-0.1-34.3-1.8-44.5-5c-6.1-2-10-4.3-11.8-6.9
	c-1.4-2-2-3.6-2-4.9c0-3.9,7-6.5,20.9-7.7c5.9-0.5,11.6-0.7,17.1-0.7c8,0,14.3,0.6,19.2,1.7c4.7,1.1,7.1,2.5,7.1,4.1
	c0,3.8-5.5,6.6-16.4,8.2c-7.3,1.1-11.6,1.8-12.9,2.1c-2.6,0.6-3.9,1.2-3.9,1.8c0,0.9,4.3,1.5,13,1.5c10.9,0.1,20.1-0.8,27.9-2.6
	c6.5-1.5,11.2-5.1,14.1-10.9c2-3.9,3-8,3-12.5c0-1.1-0.1-1.9-0.3-2.4c-1.8,2-6.3,3.6-13.4,4.7c-6.4,1-13.3,1.5-21,1.5
	c-11.6-0.1-20.7-2-27.4-5.9c-4.9-2.8-8.1-6.4-9.5-10.6c-1.2-3.6-1.8-6.3-1.8-8.1c0-3.4,1.8-5.8,5.4-7.4c4-1.8,10.8-2.7,20.5-2.6
	c4.5,0,10.2,0.3,17.1,0.8c11.8,0.9,20.6,2.5,26.3,4.9c0.5,0.2,0.8,0.1,0.8-0.2c0-0.8-1-3.1-3.2-6.9c12.3,3.6,24,5.4,35.1,5.4
	C715.6,60.1,718.9,59.8,721.2,59.1L721.2,59.1z M686.7,76.6c0-1.7-3.9-3.4-11.6-5.1c-7-1.6-14.1-2.4-21.3-2.4
	c-7,0-12.9,0.2-17.5,0.8c-5.2,0.7-7.9,1.6-7.9,2.9c0,1.5,3.8,3,11.6,4.6c7.7,1.5,15.9,2.3,24.4,2.3c6.7,0,12.1-0.2,16.2-0.8
	C684.6,78.3,686.7,77.5,686.7,76.6z"/>
<path fill="#FFFFFF" d="M141.7,96.4c6.4-4.7-17.9-5.9-59-4.3c-52,2-56.1-44.1-23-50.8c46.9-9.6,63.9,23.1-18.1,24.6
	c31.9,13.8,99.9-1.7,95.9-24.2c-5.3-30-71.2-20.3-92.6-9.3C7,51.9-6.2,99.1,88.5,98.8C101.8,98.8,122.4,94.4,141.7,96.4z"/>
</svg>
