
<svg version="1.1" id="Layer_1" xmlns="http://www.w3.org/2000/svg" xmlns:xlink="http://www.w3.org/1999/xlink" x="0px" y="0px"
	 width="1920px" height="1080px" viewBox="0 0 1920 1080" enable-background="new 0 0 1920 1080" xml:space="preserve" >
<path fill="none" stroke="#FFFFFF" stroke-width="2" stroke-miterlimit="10" d="M1027.541,429.231h95.502c1.656,0,3,1.343,3,3v377
	c0,1.657-1.344,3-3,3h-595c-1.657,0-3-1.343-3-3v-377c0-1.657,1.343-3,3-3h450.167 M977.877,444.49h-437.07v352.482h569.47V444.49
	h-82.402 M978.625,299.838v290.986l24.197,51.907l24.197-52.749V298.998v-7.962c0-13.364-10.834-24.197-24.197-24.197
	s-24.197,10.833-24.197,24.197V299.838z M992.566,620.731h20.348 M1027.572,589.43l-11.719-11.721l-11.988,11.988l-11.299-11.299
	l-13.941,12.426 M715.542,291.035h311.477 M978.625,311.035h389.48 M992.566,311.731v252.667 M1012.566,311.731v34.667
	 M1012.566,355.731v14.667 M1012.566,381.731v179.333 M1385.105,328.035v205.792 M1385.105,533.081
	c-9.381,0-16.984,7.604-16.984,16.983c0,9.381,7.604,16.984,16.984,16.984c9.379,0,16.982-7.604,16.982-16.984 M1072.434,701.083
	c0-1.656-1.344-3-3-3H936.766c-1.657,0-3,1.344-3,3v70.666c0,1.658,1.343,3,3,3h132.667c1.656,0,3-1.342,3-3V701.083z
	 M933.766,701.083l69.333,35.333 M1003.1,736.416l69.334-35.333 M1032.434,697.575v-41.492c0-1.656-1.344-3-3-3H896.766
	c-1.657,0-3,1.344-3,3v70.666c0,1.658,1.343,3,3,3h36.276 M893.766,656.083l69.333,35.333 M963.1,691.416l69.334-35.333
	 M1385.105,567.049l-66.334,66.685 M1384.771,567.049l66.334,66.685 M787.445,494.469H731.95v27.748h55.495V494.469z
	 M842.939,494.469h-55.494v27.748h55.494V494.469z M676.455,494.469H620.96v27.748h55.495V494.469z M620.96,494.469h-55.495v27.748
	h55.495V494.469z M731.95,494.469h-55.496v27.748h55.496V494.469z M787.445,522.217H731.95v27.748h55.495V522.217z M842.939,522.217
	h-55.494v27.748h55.494V522.217z M676.455,522.217H620.96v27.748h55.495V522.217z M620.96,522.217h-55.495v27.748h55.495V522.217z
	 M731.95,522.217h-55.496v27.748h55.496V522.217z M787.445,549.965H731.95v27.748h55.495V549.965z M842.939,549.965h-55.494v27.748
	h55.494V549.965z M676.455,549.965H620.96v27.748h55.495V549.965z M620.96,549.965h-55.495v27.748h55.495V549.965z M731.95,549.965
	h-55.496v27.748h55.496V549.965z M787.445,577.713H731.95v27.747h55.495V577.713z M842.939,577.713h-55.494v27.747h55.494V577.713z
	 M676.455,577.713H620.96v27.747h55.495V577.713z M620.96,577.713h-55.495v27.747h55.495V577.713z M731.95,577.713h-55.496v27.747
	h55.496V577.713z M787.445,605.46H731.95v27.747h55.495V605.46z M842.939,605.46h-55.494v27.747h55.494V605.46z M676.455,605.46
	H620.96v27.747h55.495V605.46z M620.96,605.46h-55.495v27.747h55.495V605.46z M731.95,605.46h-55.496v27.747h55.496V605.46z
	 M787.445,633.207H731.95v27.747h55.495V633.207z M842.939,633.207h-55.494v27.747h55.494V633.207z M676.455,633.207H620.96v27.747
	h55.495V633.207z M620.96,633.207h-55.495v27.747h55.495V633.207z M731.95,633.207h-55.496v27.747h55.496V633.207z M787.445,660.954
	H731.95v27.747h55.495V660.954z M842.939,660.954h-55.494v27.747h55.494V660.954z M676.455,660.954H620.96v27.747h55.495V660.954z
	 M620.96,660.954h-55.495v27.747h55.495V660.954z M731.95,660.954h-55.496v27.747h55.496V660.954z M787.445,688.701H731.95v27.747
	h55.495V688.701z M842.939,688.701h-55.494v27.747h55.494V688.701z M676.455,688.701H620.96v27.747h55.495V688.701z M620.96,688.701
	h-55.495v27.747h55.495V688.701z M731.95,688.701h-55.496v27.747h55.496V688.701z M787.445,716.701H731.95v27.747h55.495V716.701z
	 M842.939,716.701h-55.494v27.747h55.494V716.701z M676.455,716.701H620.96v27.747h55.495V716.701z M620.96,716.701h-55.495v27.747
	h55.495V716.701z M731.95,716.701h-55.496v27.747h55.496V716.701z M787.445,744.701H731.95v27.747h55.495V744.701z M842.939,744.701
	h-55.494v27.747h55.494V744.701z M676.455,744.701H620.96v27.747h55.495V744.701z M620.96,744.701h-55.495v27.747h55.495V744.701z
	 M731.95,744.701h-55.496v27.747h55.496V744.701z M842.939,470.065H565.465v24.404h277.474V470.065z M581.542,476.934
	c-2.946,0-5.333,2.388-5.333,5.333s2.388,5.333,5.333,5.333s5.333-2.388,5.333-5.333S584.488,476.934,581.542,476.934z
	 M601.542,476.934c-2.946,0-5.333,2.388-5.333,5.333s2.388,5.333,5.333,5.333s5.333-2.388,5.333-5.333
	S604.488,476.934,601.542,476.934z M621.542,476.934c-2.946,0-5.333,2.388-5.333,5.333s2.388,5.333,5.333,5.333
	s5.333-2.388,5.333-5.333S624.488,476.934,621.542,476.934z M565.465,470.065l139.869-89.869 M705.334,380.196l138.737,88.737
	 M705.334,300.182v46.792 M705.334,346.228c-9.381,0-16.984,7.604-16.984,16.984c0,9.38,7.604,16.984,16.984,16.984
	c9.38,0,16.983-7.604,16.983-16.984 M1146.709,601.571l-5.598-29.638h-13.879 M1126.232,749.989h14.879l5.598-29.639
	 M1156.207,716.418l24.914,16.998l19.006-19.005l-16.998-24.916 M1187.063,679.999l29.639-5.599v-26.878l-29.639-5.6
	 M1183.129,632.429l16.998-24.917l-19.006-19.006l-24.914,16.998 M1127.672,722.966c34.244,0,62.006-27.76,62.006-62.004
	c0-34.245-27.762-62.005-62.006-62.005 M1127.672,707.091c25.477,0,46.129-20.653,46.129-46.129c0-25.477-20.652-46.13-46.129-46.13
	 M1126.875,676.687c8.684,0,15.725-7.04,15.725-15.725c0-8.686-7.041-15.727-15.725-15.727 M524.042,448.063h-13.878l-5.599,29.638
	 M504.566,596.48l5.599,29.639h14.878 M468.146,565.625l-16.998,24.916l19.006,19.005l24.915-16.998 M464.212,518.053l-29.638,5.599
	v26.878l29.638,5.599 M495.069,481.634l-24.915-16.998l-19.006,19.005l16.998,24.917 M523.603,475.087
	c-34.244,0-62.005,27.76-62.005,62.004s27.761,62.004,62.005,62.004 M523.603,490.962c-25.476,0-46.129,20.653-46.129,46.129
	c0,25.476,20.653,46.129,46.129,46.129 M524.401,521.366c-8.685,0-15.725,7.041-15.725,15.726s7.04,15.725,15.725,15.725
	 M1478.502,702.474c0-51.979-42.137-94.115-94.115-94.115s-94.115,42.137-94.115,94.115 M1295.482,705.474c0-1.657-1.344-3-3-3
	h-4.424c-1.656,0-3,1.343-3,3v17.033c0,1.657,1.344,3,3,3h4.424c1.656,0,3-1.343,3-3V705.474z M1379.354,772.129
	c-1.658,0-3,1.343-3,3v4.423c0,1.657,1.342,3,3,3h17.033c1.656,0,3-1.343,3-3v-4.423c0-1.657-1.344-3-3-3H1379.354z
	 M1484.482,705.474c0-1.657-1.344-3-3-3h-4.424c-1.656,0-3,1.343-3,3v17.033c0,1.657,1.344,3,3,3h4.424c1.656,0,3-1.343,3-3V705.474
	z M1399.387,777.341h64.885c8.283,0,15-6.716,15-15v-36.834 M1359.098,611.477L1359.098,611.477c0,4.812,3.899,8.711,8.709,8.711
	c0,0,12.973-3.797,17.297-3.797c4.325,0,17.3,3.797,17.3,3.797c4.81,0,8.71-3.899,8.71-8.711l0,0 M1385.104,294.507
	c-9.128,0-16.528,7.4-16.528,16.528s7.4,16.528,16.528,16.528s16.528-7.4,16.528-16.528S1394.232,294.507,1385.104,294.507z
	 M705.334,280.182c-5.523,0-10,4.477-10,10s4.477,10,10,10s10-4.477,10-10S710.857,280.182,705.334,280.182z"/>
</svg>
