<?xml version="1.0" encoding="utf-8"?>
<!-- Generator: Adobe Illustrator 16.0.0, SVG Export Plug-In . SVG Version: 6.00 Build 0)  -->
<!DOCTYPE svg PUBLIC "-//W3C//DTD SVG 1.1//EN" "http://www.w3.org/Graphics/SVG/1.1/DTD/svg11.dtd">
<svg version="1.1" id="Layer_1" xmlns="http://www.w3.org/2000/svg" xmlns:xlink="http://www.w3.org/1999/xlink" x="0px" y="0px"
	 width="692.307px" height="275.641px" viewBox="0 0 692.307 275.641" enable-background="new 0 0 692.307 275.641"
	 xml:space="preserve" style="background:#000;">
<path fill="none" stroke="#FFFFFF" stroke-miterlimit="10" d="M601.461,166.167c-28.003,0-28.003-56.641-56.006-56.641
	s-28.003,140.641-56.006,140.641c-27.999,0-27.999-145.641-55.998-145.641c-28,0-28,105.641-56,105.641
	c-27.999,0-27.999-160.641-55.998-160.641c-27.998,0-27.998,180.641-55.996,180.641c-28,0-28-120.641-56-120.641
	c-27.998,0-27.998,80.641-55.997,80.641s-27.999-49.641-55.999-49.641 M97.461,140.846c28,0,28,38,55.999,38s27.999-108,55.997-108
	c28,0,28,128,56,128c27.998,0,27.998-58,55.996-58c27.999,0,27.999,118,55.998,118c28,0,28-118,56-118c27.999,0,27.999,58,55.998,58
	c28.003,0,28.003-58,56.006-58s28.003,25,56.006,25 M601.461,165.446c-22.912,0-22.912-101.199-45.823-101.199
	s-22.911,161.199-45.823,161.199c-22.908,0-22.908-141.199-45.817-141.199s-22.909,161.199-45.819,161.199
	c-22.908,0-22.908-211.199-45.816-211.199s-22.908,201.199-45.815,201.199c-22.909,0-22.909-171.199-45.818-171.199
	s-22.909,171.199-45.817,171.199S212.002,24.247,189.093,24.247s-22.909,191.199-45.817,191.199
	c-22.907,0-22.907-75.199-45.814-75.199 M97.461,140.726c12.598,0,12.598,30.24,25.196,30.24s12.599-30.24,25.196-30.24
	c12.599,0,12.599,30.24,25.197,30.24c12.6,0,12.6-30.24,25.198-30.24c12.601,0,12.601,30.24,25.2,30.24s12.6-90.24,25.198-90.24
	c12.6,0,12.6,90.24,25.199,90.24s12.6-30.24,25.199-30.24s12.6,30.24,25.199,30.24s12.6-30.24,25.199-30.24
	c12.601,0,12.601,40.24,25.2,40.24c12.598,0,12.598-40.24,25.196-40.24s12.599,30.24,25.198,30.24s12.6-30.24,25.199-30.24
	c12.601,0,12.601,30.24,25.201,30.24c12.602,0,12.602-30.24,25.203-30.24c12.601,0,12.601,30.24,25.201,30.24
	c12.602,0,12.602-30.24,25.203-30.24c12.604,0,12.604,30.24,25.207,30.24s12.604-5.24,25.207-5.24 M98.711,140.526h-77
	M601.461,166.012h77"/>
</svg>
