
<svg version="1.1" id="Layer_1" xmlns="http://www.w3.org/2000/svg" xmlns:xlink="http://www.w3.org/1999/xlink" x="0px" y="0px"
	 width="580px" height="619.23px" viewBox="0 0 580 619.23" enable-background="new 0 0 580 619.23" xml:space="preserve" background="red">
<circle display="none" fill="none" stroke="#FFFFFF" stroke-width="2" stroke-linecap="round" stroke-miterlimit="10" cx="288.907" cy="334.051" r="37.411" />
<circle display="none" fill="none" stroke="#FFFFFF" stroke-width="2" stroke-linecap="round" stroke-miterlimit="10" cx="287.907" cy="334.051" r="15.532"/>
<path fill="none" stroke="#FFFFFF" stroke-width="2" stroke-linecap="round" stroke-miterlimit="10" d="M326.77,55.49
	c29.526,15.905,49.871,49.399,49.871,88.146c-0.001,24.636-8.313,47.25-21.894,64.468 M249.272,55.438
	c-29.578,15.885-49.966,49.409-49.966,88.197c0,24.685,8.328,47.237,21.956,64.468 M334.622,191.934
	c10.68-12.629,17.288-29.648,17.288-48.299c0-17.098-12.315-40.572-12.315-40.572c-1.277-2.436-4.02-2.95-6.093-1.143
	c0,0-25.687,22.382-45.528,22.382s-45.529-22.382-45.529-22.382c-2.073-1.807-4.815-1.292-6.092,1.143
	c0,0-12.316,23.474-12.316,40.572c0,18.625,6.728,35.753,17.382,48.377 M334.369,192.265c-4.466,5.556-3.58,13.68,1.977,18.145
	c5.556,4.465,13.68,3.581,18.145-1.977L334.369,192.265z M221.522,208.434c4.465,5.557,12.589,6.442,18.145,1.977
	c5.557-4.465,6.442-12.589,1.976-18.145L221.522,208.434z M287.974,15.137c-21.263,0-38.5,19.7-38.5,44c0,24.301,17.237,44,38.5,44
	c21.264,0,38.5-19.699,38.5-44C326.474,34.837,309.237,15.137,287.974,15.137z M355.129,440.072
	c8.121,20.369,23.549,38.875,44.884,51.193c33.556,19.373,72.735,18.502,101.272,0.885 M540.078,425.061
	c1.032-33.557-17.807-67.975-51.398-87.369c-21.377-12.342-45.072-16.406-66.809-13.221 M379.193,430.729
	c5.598,15.563,17.033,29.795,33.185,39.121c14.808,8.549,41.295,9.621,41.295,9.621c2.748,0.111,4.563-2.008,4.036-4.705
	c0,0-6.541-33.438,3.38-50.621s42.148-28.238,42.148-28.238c2.602-0.891,3.526-3.521,2.056-5.846c0,0-14.171-22.404-28.979-30.953
	c-16.13-9.313-34.326-12.049-50.586-9.135 M379.033,430.344c-2.578-6.646-10.057-9.941-16.701-7.361
	c-6.646,2.58-9.941,10.057-7.361,16.701L379.033,430.344z M421.455,324.531c-7.046,1.088-11.873,7.682-10.784,14.727
	c1.088,7.043,7.681,11.873,14.726,10.783L421.455,324.531z M555.629,478.729c10.632-18.416,2.189-43.193-18.855-55.342
	c-21.045-12.15-46.724-7.074-57.355,11.342c-10.631,18.414-2.189,43.191,18.855,55.342S544.997,497.143,555.629,478.729z
	 M154.047,324.418c-21.701-3.152-45.442,0.957-66.777,13.273c-33.556,19.373-52.391,53.738-51.401,87.262 M74.572,492.094
	c28.546,17.674,67.773,18.566,101.364-0.826c21.377-12.344,36.745-30.832,44.853-51.25 M150.106,349.932
	c-16.276-2.936-34.32-0.148-50.472,9.178c-14.808,8.549-28.979,30.951-28.979,30.951c-1.471,2.324-0.545,4.955,2.057,5.848
	c0,0,32.228,11.055,42.148,28.238c9.921,17.184,3.38,50.619,3.38,50.619c-0.528,2.699,1.288,4.816,4.036,4.705
	c0,0,26.487-1.072,41.295-9.621c16.13-9.313,27.599-23.703,33.204-39.242 M150.52,349.984c7.044,1.09,13.638-3.74,14.726-10.783
	c1.089-7.045-3.738-13.639-10.784-14.727L150.52,349.984z M220.945,439.629c2.58-6.646-0.716-14.123-7.361-16.703
	c-6.645-2.58-14.123,0.715-16.702,7.361L220.945,439.629z M20.32,478.729c10.631,18.414,36.311,23.492,57.355,11.342
	c21.045-12.15,29.487-36.928,18.855-55.342s-36.31-23.492-57.355-11.342C18.13,435.535,9.688,460.314,20.32,478.729z
	 M210.551,95.844C113.184,128.25,42.975,220.106,42.975,328.359c0,16.498,1.631,32.617,4.74,48.201 M119.482,506.223
	c43.912,41.611,103.221,67.137,168.492,67.137c65.175,0,124.405-25.449,168.297-66.951 M528.222,376.621
	c3.117-15.604,4.753-31.742,4.753-48.262c0-108.087-69.994-199.827-167.126-232.365 M200.337,64.346
	C90.125,101.028,10.653,205.001,10.653,327.535c0,18.676,1.846,36.92,5.366,54.561 M97.254,528.865
	c49.705,47.1,116.839,75.992,190.721,75.992c73.773,0,140.817-28.807,190.5-75.783 M559.916,382.164
	c3.528-17.662,5.38-35.93,5.38-54.629c0-122.346-79.228-226.188-189.174-263.019 M259.623,310.772
	c1.507-1.884,3.222-3.648,5.14-5.26c12.584-10.577,30.121-11.39,43.401-3.238 M251.562,331.783
	c-0.546,9.17,2.281,18.559,8.659,26.146c6.367,7.576,15.112,11.975,24.225,13.021 M306.563,366.635
	c2.118-1.162,4.154-2.549,6.073-4.164c12.564-10.561,16.391-27.66,10.684-42.129 M303.261,328.945
	c-2.362-6.232-8.508-10.545-15.532-10.258c-1.071,0.045-2.113,0.193-3.116,0.436 M276.391,324.123
	c-2.583,2.961-4.083,6.877-3.909,11.111c0.173,4.23,1.981,8.006,4.79,10.744 M285.885,350.303c1.021,0.162,2.072,0.223,3.144,0.18
	c7.013-0.287,12.781-5.072,14.634-11.459"/>
</svg>
