<?xml version="1.0" encoding="utf-8"?>
<!-- Generator: Adobe Illustrator 16.0.0, SVG Export Plug-In . SVG Version: 6.00 Build 0)  -->
<!DOCTYPE svg PUBLIC "-//W3C//DTD SVG 1.1//EN" "http://www.w3.org/Graphics/SVG/1.1/DTD/svg11.dtd">
<svg version="1.1" id="Layer_1" xmlns="http://www.w3.org/2000/svg" xmlns:xlink="http://www.w3.org/1999/xlink" x="0px" y="0px"
	 width="580px" height="619.23px" viewBox="0 0 580 619.23" enable-background="new 0 0 580 619.23" xml:space="preserve">
<g>
	<g>
		<path fill="none" stroke="#FFFFFF" stroke-width="2" stroke-linecap="round" stroke-miterlimit="10" d="M326.77,55.49
			c29.526,15.905,49.871,49.399,49.871,88.146c-0.001,24.636-8.313,47.25-21.894,64.468"/>
		<path fill="none" stroke="#FFFFFF" stroke-width="2" stroke-linecap="round" stroke-miterlimit="10" d="M221.263,208.104
			c-13.628-17.231-21.956-39.784-21.956-64.468c0-38.788,20.388-72.313,49.966-88.197"/>
		<path fill="none" stroke="#FFFFFF" stroke-width="2" stroke-miterlimit="10" d="M334.622,191.934
			c10.68-12.629,17.288-29.648,17.288-48.299c0-17.098-12.315-40.572-12.315-40.572c-1.277-2.436-4.02-2.95-6.093-1.143
			c0,0-25.687,22.382-45.528,22.382s-45.529-22.382-45.529-22.382c-2.073-1.807-4.815-1.292-6.092,1.143
			c0,0-12.316,23.474-12.316,40.572c0,18.625,6.728,35.753,17.382,48.377"/>
		<path fill="none" stroke="#FFFFFF" stroke-width="2" stroke-miterlimit="10" d="M354.49,208.434
			c-4.465,5.557-12.589,6.442-18.145,1.977c-5.557-4.465-6.442-12.589-1.977-18.145L354.49,208.434z"/>
		<path fill="none" stroke="#FFFFFF" stroke-width="2" stroke-miterlimit="10" d="M221.522,208.434
			c4.465,5.557,12.589,6.442,18.145,1.977c5.557-4.465,6.442-12.589,1.976-18.145L221.522,208.434z"/>
		<ellipse fill="none" stroke="#FFFFFF" stroke-width="2" stroke-miterlimit="10" cx="287.974" cy="59.137" rx="38.5" ry="44"/>
	</g>
	<g>
		<path fill="none" stroke="#FFFFFF" stroke-width="2" stroke-linecap="round" stroke-miterlimit="10" d="M501.285,492.15
			c-28.537,17.617-67.717,18.488-101.272-0.885c-21.335-12.318-36.763-30.824-44.884-51.193"/>
		<path fill="none" stroke="#FFFFFF" stroke-width="2" stroke-linecap="round" stroke-miterlimit="10" d="M421.871,324.471
			c21.736-3.186,45.432,0.879,66.809,13.221c33.592,19.395,52.431,53.813,51.398,87.369"/>
		<path fill="none" stroke="#FFFFFF" stroke-width="2" stroke-miterlimit="10" d="M379.193,430.729
			c5.598,15.563,17.033,29.795,33.185,39.121c14.808,8.549,41.295,9.621,41.295,9.621c2.748,0.111,4.563-2.008,4.036-4.705
			c0,0-6.541-33.438,3.38-50.621s42.148-28.238,42.148-28.238c2.602-0.891,3.526-3.521,2.056-5.846c0,0-14.171-22.404-28.979-30.953
			c-16.13-9.313-34.326-12.049-50.586-9.135"/>
		<path fill="none" stroke="#FFFFFF" stroke-width="2" stroke-miterlimit="10" d="M354.971,439.684
			c-2.58-6.645,0.716-14.121,7.361-16.701c6.645-2.58,14.123,0.715,16.701,7.361L354.971,439.684z"/>
		<path fill="none" stroke="#FFFFFF" stroke-width="2" stroke-miterlimit="10" d="M421.455,324.531
			c-7.046,1.088-11.873,7.682-10.784,14.727c1.088,7.043,7.681,11.873,14.726,10.783L421.455,324.531z"/>
		
			<ellipse transform="matrix(-0.5 0.866 -0.866 -0.5 1171.8242 236.9059)" fill="none" stroke="#FFFFFF" stroke-width="2" stroke-miterlimit="10" cx="517.523" cy="456.729" rx="38.5" ry="44"/>
	</g>
	<g>
		<path fill="none" stroke="#FFFFFF" stroke-width="2" stroke-linecap="round" stroke-miterlimit="10" d="M35.868,424.953
			c-0.989-33.523,17.846-67.889,51.401-87.262c21.335-12.316,45.076-16.426,66.777-13.273"/>
		<path fill="none" stroke="#FFFFFF" stroke-width="2" stroke-linecap="round" stroke-miterlimit="10" d="M220.789,440.018
			c-8.108,20.418-23.476,38.906-44.853,51.25c-33.591,19.393-72.818,18.5-101.364,0.826"/>
		<path fill="none" stroke="#FFFFFF" stroke-width="2" stroke-miterlimit="10" d="M150.106,349.932
			c-16.276-2.936-34.32-0.148-50.472,9.178c-14.808,8.549-28.979,30.951-28.979,30.951c-1.471,2.324-0.545,4.955,2.057,5.848
			c0,0,32.228,11.055,42.148,28.238c9.921,17.184,3.38,50.619,3.38,50.619c-0.528,2.699,1.288,4.816,4.036,4.705
			c0,0,26.487-1.072,41.295-9.621c16.13-9.313,27.599-23.703,33.204-39.242"/>
		<path fill="none" stroke="#FFFFFF" stroke-width="2" stroke-miterlimit="10" d="M154.461,324.475
			c7.045,1.088,11.873,7.682,10.784,14.727c-1.088,7.043-7.681,11.873-14.726,10.783L154.461,324.475z"/>
		<path fill="none" stroke="#FFFFFF" stroke-width="2" stroke-miterlimit="10" d="M220.945,439.629
			c2.58-6.646-0.716-14.123-7.361-16.703c-6.645-2.58-14.123,0.715-16.702,7.361L220.945,439.629z"/>
		
			<ellipse transform="matrix(-0.5 -0.866 0.866 -0.5 -307.9006 735.691)" fill="none" stroke="#FFFFFF" stroke-width="2" stroke-miterlimit="10" cx="58.425" cy="456.729" rx="38.5" ry="44"/>
	</g>
</g>
<circle display="none" fill="none" stroke="#FFFFFF" stroke-width="2" stroke-linecap="round" stroke-miterlimit="10" cx="288.907" cy="334.051" r="37.411"/>
<circle display="none" fill="none" stroke="#FFFFFF" stroke-width="2" stroke-linecap="round" stroke-miterlimit="10" cx="287.907" cy="334.051" r="15.532"/>
<path fill="none" stroke="#FFFFFF" stroke-width="2" stroke-linecap="round" stroke-miterlimit="10" d="M47.715,376.561
	c-3.109-15.584-4.74-31.703-4.74-48.201c0-108.253,70.209-200.109,167.576-232.515"/>
<path fill="none" stroke="#FFFFFF" stroke-width="2" stroke-linecap="round" stroke-miterlimit="10" d="M456.271,506.408
	c-43.892,41.502-103.122,66.951-168.297,66.951c-65.271,0-124.581-25.525-168.492-67.137"/>
<path fill="none" stroke="#FFFFFF" stroke-width="2" stroke-linecap="round" stroke-miterlimit="10" d="M365.849,95.995
	c97.132,32.538,167.126,124.278,167.126,232.365c0,16.52-1.636,32.658-4.753,48.262"/>
<path fill="none" stroke="#FFFFFF" stroke-width="2" stroke-linecap="round" stroke-miterlimit="10" d="M16.019,382.096
	c-3.52-17.641-5.366-35.885-5.366-54.561c0-122.534,79.472-226.507,189.684-263.189"/>
<path fill="none" stroke="#FFFFFF" stroke-width="2" stroke-linecap="round" stroke-miterlimit="10" d="M478.475,529.074
	c-49.683,46.977-116.727,75.783-190.5,75.783c-73.882,0-141.016-28.893-190.721-75.992"/>
<path fill="none" stroke="#FFFFFF" stroke-width="2" stroke-linecap="round" stroke-miterlimit="10" d="M376.122,64.517
	c109.946,36.831,189.174,140.673,189.174,263.019c0,18.699-1.852,36.967-5.38,54.629"/>
<path fill="none" stroke="#FFFFFF" stroke-width="2" stroke-linecap="round" stroke-miterlimit="10" d="M259.623,310.772
	c1.507-1.884,3.222-3.648,5.14-5.26c12.584-10.577,30.121-11.39,43.401-3.238"/>
<path fill="none" stroke="#FFFFFF" stroke-width="2" stroke-linecap="round" stroke-miterlimit="10" d="M284.446,370.951
	c-9.113-1.047-17.858-5.445-24.225-13.021c-6.377-7.588-9.205-16.977-8.659-26.146"/>
<path fill="none" stroke="#FFFFFF" stroke-width="2" stroke-linecap="round" stroke-miterlimit="10" d="M323.32,320.342
	c5.707,14.469,1.881,31.568-10.684,42.129c-1.919,1.615-3.955,3.002-6.073,4.164"/>
<path fill="none" stroke="#FFFFFF" stroke-width="2" stroke-linecap="round" stroke-miterlimit="10" d="M284.613,319.123
	c1.003-0.242,2.045-0.391,3.116-0.436c7.024-0.287,13.169,4.025,15.532,10.258"/>
<path fill="none" stroke="#FFFFFF" stroke-width="2" stroke-linecap="round" stroke-miterlimit="10" d="M277.271,345.979
	c-2.809-2.738-4.617-6.514-4.79-10.744c-0.173-4.234,1.326-8.15,3.909-11.111"/>
<path fill="none" stroke="#FFFFFF" stroke-width="2" stroke-linecap="round" stroke-miterlimit="10" d="M303.662,339.023
	c-1.853,6.387-7.621,11.172-14.634,11.459c-1.072,0.043-2.123-0.018-3.144-0.18"/>
</svg>
