<?xml version="1.0" encoding="utf-8"?>
<!-- Generator: Adobe Illustrator 16.0.0, SVG Export Plug-In . SVG Version: 6.00 Build 0)  -->
<!DOCTYPE svg PUBLIC "-//W3C//DTD SVG 1.1//EN" "http://www.w3.org/Graphics/SVG/1.1/DTD/svg11.dtd">
<svg version="1.1" id="Layer_1" xmlns="http://www.w3.org/2000/svg" xmlns:xlink="http://www.w3.org/1999/xlink" x="0px" y="0px"
	 width="861.539px" height="725.641px" viewBox="0 0 861.539 725.641" enable-background="new 0 0 861.539 725.641"
	 xml:space="preserve">
<path fill="none" stroke="#FFFFFF" stroke-width="2" stroke-miterlimit="10" d="M390.667,129.359c0,11.046-8.954,20-20,20h-24
	c-11.046,0-20-8.954-20-20v-93c0-11.046,8.954-20,20-20h24c11.046,0,20,8.954,20,20V129.359z M390.667,40.359h-41 M390.667,50.359
	h-41 M390.667,60.359h-41 M390.667,70.359h-41 M390.667,80.359h-41 M390.667,90.359h-41 M390.667,100.359h-41 M390.667,110.359h-41
	 M390.667,120.359h-41 M390.667,130.359h-41 M358.667,149.359v35 M358.667,228.359v81.667 M366.167,191.859
	c0-4.142-3.357-7.5-7.5-7.5l0,0c-4.143,0-7.5,3.358-7.5,7.5v29c0,4.142,3.357,7.5,7.5,7.5l0,0c4.143,0,7.5-3.358,7.5-7.5V191.859z
	 M473.424,55.636c-17.101,4.224-27.539,21.511-23.316,38.612c4.224,17.101,21.512,27.54,38.612,23.316
	c17.101-4.223,27.54-21.511,23.316-38.612C507.812,61.851,490.526,51.412,473.424,55.636z M469.393,115.917l28.777,91.529
	c1.387,5.907,7.301,9.57,13.207,8.183l0,0c5.906-1.387,9.57-7.3,8.183-13.207l-14.978-94.77 M498.17,207.446l21.39-5.024
	 M494.323,195.207l23.23-5.457 M506.52,194.958c-1.889,0.444-3.062,2.335-2.617,4.225c0.443,1.89,2.335,3.061,4.225,2.617
	s3.062-2.335,2.617-4.224C510.301,195.687,508.41,194.515,506.52,194.958z M584.292,129.452c7.811,7.811,20.474,7.811,28.284,0l0,0
	c7.811-7.811,7.811-20.474,0-28.284l-23.334-23.335c-7.812-7.811-20.475-7.811-28.285,0l0,0c-7.811,7.811-7.811,20.474,0,28.284
	L584.292,129.452z M560.958,77.833l37.477,37.477 M569.973,72.707l35.532,35.532 M555.831,86.849l35.533,35.532 M612.577,129.452
	l39.758,39.757 M642.436,169.209c0,5.467,4.432,9.899,9.898,9.899s9.898-4.432,9.898-9.899s-4.432-9.899-9.898-9.899
	S642.436,163.742,642.436,169.209z M652.334,179.108v129.917 M652.334,159.337v-29.885 M678.667,397.359h-500l50,310h400
	L678.667,397.359z M667.667,471.359h122l50-129h-822l50,129h123 M839.667,309.359h-822v33h822V309.359z M534.418,481.103
	c1.236-5.359-2.252-9.744-7.752-9.744h-196c-5.5,0-8.988,4.385-7.751,9.744l25.503,110.512c1.237,5.359,6.749,9.744,12.249,9.744
	h136c5.5,0,11.012-4.385,12.248-9.744L534.418,481.103z M450.108,94.248l62.065-14.577 M512.972,86.763l-60.423,14.191
	 M456.727,107.254l55.309-12.99 M463.17,113.021l45.664-10.725 M477.387,141.342l-19.328,19.328 M464.952,160.787h-14.844v14.845
	h14.844V160.787z M457.53,175.632v133.394 M219.597,132.585l-24.766,73.045c-1.903,4.491,0.195,9.674,4.686,11.578l0,0
	c4.491,1.903,9.674-0.195,11.578-4.686l35.258-68.599 M281.928,85.527c2.456-5.795-0.251-12.483-6.046-14.938L251.75,60.362
	c-5.795-2.456-12.483,0.251-14.938,6.046l-21.949,51.794c-2.455,5.794,0.251,12.482,6.046,14.938l24.131,10.226
	c5.795,2.456,12.483-0.251,14.938-6.046L281.928,85.527z M230.986,155.17c1.027-2.425-0.105-5.224-2.531-6.251l0,0
	c-2.424-1.027-5.224,0.105-6.251,2.53l-5.843,13.788c-1.028,2.425,0.105,5.224,2.53,6.251l0,0c2.425,1.028,5.224-0.104,6.252-2.53
	L230.986,155.17z M221.25,103.131l45.116,19.119 M219.026,108.377l45.116,19.119 M216.804,113.623l45.116,19.119 M214.581,118.869
	l45.116,19.119 M250.701,59.918l-20.008,47.215 M255.947,62.141l-20.008,47.215 M261.193,64.364l-20.008,47.215 M266.438,66.587
	l-20.008,47.215 M271.685,68.81l-20.008,47.215 M276.931,71.033l-20.008,47.215 M234.564,166.859h25.133 M259.697,166.859v142.167
	 M374.573,516.359H482.76 M377.667,536.359h102 M383.167,556.359h91 M524.167,478.359c-1.657,0-3,1.343-3,3s1.343,3,3,3s3-1.343,3-3
	S525.824,478.359,524.167,478.359z M333.167,478.359c-1.657,0-3,1.343-3,3s1.343,3,3,3s3-1.343,3-3S334.824,478.359,333.167,478.359
	z"/>
</svg>
