<?xml version="1.0" encoding="utf-8"?>
<!-- Generator: Adobe Illustrator 16.0.0, SVG Export Plug-In . SVG Version: 6.00 Build 0)  -->
<!DOCTYPE svg PUBLIC "-//W3C//DTD SVG 1.1//EN" "http://www.w3.org/Graphics/SVG/1.1/DTD/svg11.dtd">
<svg version="1.1" id="Layer_1" xmlns="http://www.w3.org/2000/svg" xmlns:xlink="http://www.w3.org/1999/xlink" x="0px" y="0px"
	 width="231px" height="400px" viewBox="0 0 231 400" enable-background="new 0 0 231 400" xml:space="preserve">
<path fill="none" stroke="#FFFFFF" stroke-width="2" stroke-miterlimit="10" d="M217.126,98.461v278.482
	c0,6.479-5.251,11.73-11.734,11.73H28.608c-6.481,0-11.734-5.252-11.734-11.73V98.461H217.126z"/>
<path fill="none" stroke="#FFFFFF" stroke-width="2" stroke-miterlimit="10" d="M158.232,119.874c0,4.881-3.956,8.835-8.835,8.835
	H84.603c-4.879,0-8.836-3.954-8.836-8.835l0,0c0-4.878,3.957-8.835,8.836-8.835h64.795
	C154.276,111.039,158.232,114.996,158.232,119.874L158.232,119.874z"/>
<line fill="none" stroke="#FFFFFF" stroke-width="2" stroke-miterlimit="10" x1="16.874" y1="358.848" x2="217.126" y2="358.848"/>
<circle fill="none" stroke="#FFFFFF" stroke-width="2" stroke-miterlimit="10" cx="117" cy="201.916" r="41.652"/>
<path fill="none" stroke="#FFFFFF" stroke-width="2" stroke-miterlimit="10" d="M143.505,62.657
	c0,14.522-11.773,26.296-26.296,26.296S90.913,77.179,90.913,62.657H143.505z"/>
<line fill="none" stroke="#FFFFFF" stroke-width="2" stroke-linecap="round" stroke-miterlimit="10" x1="116.999" y1="81.38" x2="116.999" y2="119.874"/>
<line fill="none" stroke="#FFFFFF" stroke-width="2" stroke-linecap="round" stroke-miterlimit="10" x1="90.913" y1="62.657" x2="90.913" y2="30.259"/>
<line fill="none" stroke="#FFFFFF" stroke-width="2" stroke-linecap="round" stroke-miterlimit="10" x1="143.505" y1="62.657" x2="143.505" y2="11.327"/>
<line fill="none" stroke="#FFFFFF" stroke-width="2" stroke-linecap="round" stroke-miterlimit="10" x1="69" y1="289.332" x2="165" y2="289.332"/>
<line fill="none" stroke="#FFFFFF" stroke-width="2" stroke-linecap="round" stroke-miterlimit="10" x1="47.667" y1="309.332" x2="186.334" y2="309.332"/>
<path fill="none" stroke="#FFFFFF" stroke-width="2" stroke-linecap="round" stroke-miterlimit="10" d="M131.5,201.916
	c0,8.009-6.492,14.5-14.5,14.5s-14.5-6.491-14.5-14.5"/>
</svg>
