<?xml version="1.0" encoding="utf-8"?>
<!-- Generator: Adobe Illustrator 16.0.0, SVG Export Plug-In . SVG Version: 6.00 Build 0)  -->
<!DOCTYPE svg PUBLIC "-//W3C//DTD SVG 1.1//EN" "http://www.w3.org/Graphics/SVG/1.1/DTD/svg11.dtd">
<svg version="1.1" id="Layer_1" xmlns="http://www.w3.org/2000/svg" xmlns:xlink="http://www.w3.org/1999/xlink" x="0px" y="0px"
	 width="1008.975px" height="273.077px" viewBox="0 0 1008.975 273.077" enable-background="new 0 0 1008.975 273.077"
	 xml:space="preserve">
<path fill="none" stroke="#FFFFFF" stroke-width="2" stroke-linecap="round" stroke-miterlimit="10" d="M513.609,90.082h120.75v166
	h-262v-166h120.667 M488.859,99.842h-107v146.481h243V99.842H518.525 M509.609,82.582h-12.5l-17,36.5h46.5L509.609,82.582z
	 M493.609,119.082c0,5.385,4.365,9.75,9.75,9.75c5.385,0,9.75-4.365,9.75-9.75 M503.359,82.582v-35 M453.359,90.082v-42.5
	 M448.359,90.082v-42.5 M553.359,90.082v-42.5 M558.359,90.082v-42.5 M424.609,47.582h157.5 M396.109,37.582h214.5 M381.859,99.842
	l-9.5-9.76 M624.859,99.842l9.5-9.76 M634.359,256.083l-9.5-9.76 M372.359,256.083l9.5-9.76 M183.026,90.082H62.359v166h262v-166
	h-120.75 M178.859,99.842h-107v146.481h243V99.842H208.526 M199.609,82.582h-12.5l-17,36.5h46.5L199.609,82.582z M183.609,119.082
	c0,5.385,4.365,9.75,9.75,9.75s9.75-4.365,9.75-9.75 M193.359,82.582v-35 M143.359,90.082v-42.5 M138.359,90.082v-42.5
	 M243.359,90.082v-42.5 M248.359,90.082v-42.5 M114.609,47.582h157.5 M86.109,37.582h214.5 M71.859,99.842l-9.5-9.76
	 M314.859,99.842l9.5-9.76 M324.359,256.083l-9.5-9.76 M62.359,256.083l9.5-9.76 M803.025,90.082H682.359v166h262v-166h-120.75
	 M798.859,99.842h-107v146.481h243V99.842H828.525 M819.609,82.582h-12.5l-17,36.5h46.5L819.609,82.582z M803.609,119.082
	c0,5.385,4.365,9.75,9.75,9.75s9.75-4.365,9.75-9.75 M813.359,82.582v-35 M763.359,90.082v-42.5 M758.359,90.082v-42.5
	 M863.359,90.082v-42.5 M868.359,90.082v-42.5 M734.609,47.582h157.5 M706.109,37.582h214.5 M691.859,99.842l-9.5-9.76
	 M944.359,90.082l-9.5,9.76 M944.359,256.083l-9.5-9.76 M682.359,256.083l9.5-9.76 M62.359,26.072h882 M23.692,16.072h959.333"/>
</svg>
