<?xml version="1.0" encoding="utf-8"?>
<!-- Generator: Adobe Illustrator 16.0.0, SVG Export Plug-In . SVG Version: 6.00 Build 0)  -->
<!DOCTYPE svg PUBLIC "-//W3C//DTD SVG 1.1//EN" "http://www.w3.org/Graphics/SVG/1.1/DTD/svg11.dtd">
<svg version="1.1" id="Layer_1" xmlns="http://www.w3.org/2000/svg" xmlns:xlink="http://www.w3.org/1999/xlink" x="0px" y="0px"
	 width="414px" height="700px" viewBox="0 0 414 700" enable-background="new 0 0 414 700" xml:space="preserve">
	<style> 
		.text-1 {
			-webkit-animation: hideshow 10s ease infinite;
			animation: hideshow 10s ease infinite;
		}

		.text-2 {
			opacity:0;
			-webkit-animation: hideshow 10s 2s ease infinite;
			animation: hideshow 10s 2s ease infinite;
		}

		.text-3 {
			opacity:0;
			-webkit-animation: hideshow 10s 4s ease infinite;
			animation: hideshow 10s 4s ease infinite;
		}

		.text-4 {
			opacity:0;
			-webkit-animation: hideshow 10s 6s ease infinite;
			animation: hideshow 10s 6s ease infinite;
		}

		.text-5 {
			opacity:0;
			-webkit-animation: hideshow 10s 8s ease infinite;
			animation: hideshow 10s 8s ease infinite;
		}

		.text-6 {
			opacity:0;
			-webkit-animation: hideshow 10s 10s ease infinite;
			animation: hideshow 10s 10s ease infinite;
		}

		@-webkit-keyframes hideshow {
			0% {
				opacity: 0.5;
			}
			10% {
				opacity: 1;
			}
		<!-- 15% {
				opacity: 0;
			}			
			100% {
				opacity: 0;
			} -->
		}

		<!-- @keyframes hideshow {
			0% {
				opacity: 0.5;
			}
			10% {
				opacity: 1;
			}
			15% {
				opacity: 0;
			}
			100% {
				opacity: 0;
			}
		} -->

	</style>
	<path fill="none" class="text-1" stroke="#222" stroke-width="2" stroke-linecap="round" stroke-miterlimit="10" d="M208,534.582l60,50h113.49
		c11.046,0,20-8.954,20-20V31.611c0-11.046-8.954-20-20-20H34.51c-11.046,0-20,8.954-20,20v532.971c0,11.046,8.954,20,20,20H148
		l60,50"/>
	<g class="text-2">
		<circle fill="none" stroke="#222" stroke-width="2" stroke-linecap="round" stroke-miterlimit="10" cx="248" cy="323.097" r="10.573"/>
		<circle fill="none" stroke="#222" stroke-width="2" stroke-linecap="round" stroke-miterlimit="10" cx="288" cy="323.097" r="10.573"/>
		<circle fill="none" stroke="#222" stroke-width="2" stroke-linecap="round" stroke-miterlimit="10" cx="328" cy="323.097" r="10.573"/>
		<circle fill="none" stroke="#222" stroke-width="2" stroke-linecap="round" stroke-miterlimit="10" cx="168" cy="323.097" r="10.573"/>
		<circle fill="none" stroke="#222" stroke-width="2" stroke-linecap="round" stroke-miterlimit="10" cx="128" cy="323.097" r="10.573"/>
		<circle fill="none" stroke="#222" stroke-width="2" stroke-linecap="round" stroke-miterlimit="10" cx="88" cy="323.097" r="10.573"/>
		<circle fill="none" stroke="#222" stroke-width="2" stroke-linecap="round" stroke-miterlimit="10" cx="248" cy="283.097" r="10.573"/>
		<circle fill="none" stroke="#222" stroke-width="2" stroke-linecap="round" stroke-miterlimit="10" cx="288" cy="283.097" r="10.573"/>
		<circle fill="none" stroke="#222" stroke-width="2" stroke-linecap="round" stroke-miterlimit="10" cx="328" cy="283.097" r="10.573"/>
		<circle fill="none" stroke="#222" stroke-width="2" stroke-linecap="round" stroke-miterlimit="10" cx="168" cy="283.097" r="10.573"/>
		<circle fill="none" stroke="#222" stroke-width="2" stroke-linecap="round" stroke-miterlimit="10" cx="128" cy="283.097" r="10.573"/>
		<circle fill="none" stroke="#222" stroke-width="2" stroke-linecap="round" stroke-miterlimit="10" cx="88" cy="283.097" r="10.573"/>
		<circle fill="none" stroke="#222" stroke-width="2" stroke-linecap="round" stroke-miterlimit="10" cx="248" cy="363.097" r="10.573"/>
		<circle fill="none" stroke="#222" stroke-width="2" stroke-linecap="round" stroke-miterlimit="10" cx="288" cy="363.097" r="10.573"/>
		<circle fill="none" stroke="#222" stroke-width="2" stroke-linecap="round" stroke-miterlimit="10" cx="328" cy="363.097" r="10.573"/>
		<circle fill="none" stroke="#222" stroke-width="2" stroke-linecap="round" stroke-miterlimit="10" cx="168" cy="363.097" r="10.573"/>
		<circle fill="none" stroke="#222" stroke-width="2" stroke-linecap="round" stroke-miterlimit="10" cx="128" cy="363.097" r="10.573"/>
		<circle fill="none" stroke="#222" stroke-width="2" stroke-linecap="round" stroke-miterlimit="10" cx="88" cy="363.097" r="10.573"/>
		<circle fill="none" stroke="#222" stroke-width="2" stroke-linecap="round" stroke-miterlimit="10" cx="248" cy="403.097" r="10.573"/>
		<circle fill="none" stroke="#222" stroke-width="2" stroke-linecap="round" stroke-miterlimit="10" cx="288" cy="403.097" r="10.573"/>
		<circle fill="none" stroke="#222" stroke-width="2" stroke-linecap="round" stroke-miterlimit="10" cx="328" cy="403.097" r="10.573"/>
		<circle fill="none" stroke="#222" stroke-width="2" stroke-linecap="round" stroke-miterlimit="10" cx="168" cy="403.097" r="10.573"/>
		<circle fill="none" stroke="#222" stroke-width="2" stroke-linecap="round" stroke-miterlimit="10" cx="128" cy="403.097" r="10.573"/>
		<circle fill="none" stroke="#222" stroke-width="2" stroke-linecap="round" stroke-miterlimit="10" cx="88" cy="403.097" r="10.573"/>
		<circle fill="none" stroke="#222" stroke-width="2" stroke-linecap="round" stroke-miterlimit="10" cx="248" cy="443.097" r="10.573"/>
		<circle fill="none" stroke="#222" stroke-width="2" stroke-linecap="round" stroke-miterlimit="10" cx="288" cy="443.097" r="10.573"/>
		<circle fill="none" stroke="#222" stroke-width="2" stroke-linecap="round" stroke-miterlimit="10" cx="328" cy="443.097" r="10.573"/>
		<circle fill="none" stroke="#222" stroke-width="2" stroke-linecap="round" stroke-miterlimit="10" cx="168" cy="443.097" r="10.573"/>
		<circle fill="none" stroke="#222" stroke-width="2" stroke-linecap="round" stroke-miterlimit="10" cx="128" cy="443.097" r="10.573"/>
		<circle fill="none" stroke="#222" stroke-width="2" stroke-linecap="round" stroke-miterlimit="10" cx="88" cy="443.097" r="10.573"/>
		<circle fill="none" stroke="#222" stroke-width="2" stroke-linecap="round" stroke-miterlimit="10" cx="248" cy="483.097" r="10.573"/>
		<circle fill="none" stroke="#222" stroke-width="2" stroke-linecap="round" stroke-miterlimit="10" cx="288" cy="483.097" r="10.573"/>
		<circle fill="none" stroke="#222" stroke-width="2" stroke-linecap="round" stroke-miterlimit="10" cx="328" cy="483.097" r="10.573"/>
		<circle fill="none" stroke="#222" stroke-width="2" stroke-linecap="round" stroke-miterlimit="10" cx="168" cy="483.097" r="10.573"/>
		<circle fill="none" stroke="#222" stroke-width="2" stroke-linecap="round" stroke-miterlimit="10" cx="128" cy="483.097" r="10.573"/>
		<circle fill="none" stroke="#222" stroke-width="2" stroke-linecap="round" stroke-miterlimit="10" cx="88" cy="483.097" r="10.573"/>
	</g>
	<path fill="none" stroke="#222" stroke-width="2" stroke-linecap="round" stroke-miterlimit="10" d="M341.421,124.084
		c-1.566,5.272-7.348,9.586-12.848,9.586H87.427c-5.5,0-11.281-4.313-12.847-9.586L60.274,75.923
		c-1.566-5.272,1.653-9.586,7.153-9.586h281.146c5.5,0,8.719,4.313,7.152,9.586L341.421,124.084z"/>
	<line fill="none" stroke="#222" stroke-width="2" stroke-linecap="round" stroke-miterlimit="10" x1="36.794" y1="43.67" x2="377" y2="43.67"/>
	<path fill="none" stroke="#222" stroke-width="2" stroke-linecap="round" stroke-miterlimit="10" d="M138.573,679.668
		c0,3.313-2.687,6-6,6H41c-3.313,0-6-2.687-6-6l0,0c0-3.313,2.687-6,6-6h91.573C135.887,673.668,138.573,676.354,138.573,679.668
		L138.573,679.668z"/>
	<line fill="none" stroke="#222" stroke-width="2" stroke-linecap="round" stroke-miterlimit="10" x1="45" y1="665.668" x2="68.573" y2="665.668"/>
	<line fill="none" stroke="#222" stroke-width="2" stroke-linecap="round" stroke-miterlimit="10" x1="75" y1="665.668" x2="98.573" y2="665.668"/>
	<line fill="none" stroke="#222" stroke-width="2" stroke-linecap="round" stroke-miterlimit="10" x1="105" y1="665.668" x2="128.573" y2="665.668"/>
	<path fill="none" stroke="#222" stroke-width="2" stroke-linecap="round" stroke-miterlimit="10" d="M388.573,679.668
		c0,3.313-2.687,6-6,6H291c-3.313,0-6-2.687-6-6l0,0c0-3.313,2.687-6,6-6h91.573C385.887,673.668,388.573,676.354,388.573,679.668
		L388.573,679.668z"/>
	<line fill="none" stroke="#222" stroke-width="2" stroke-linecap="round" stroke-miterlimit="10" x1="295" y1="665.668" x2="318.573" y2="665.668"/>
	<line fill="none" stroke="#222" stroke-width="2" stroke-linecap="round" stroke-miterlimit="10" x1="325" y1="665.668" x2="348.573" y2="665.668"/>
	<line fill="none" stroke="#222" stroke-width="2" stroke-linecap="round" stroke-miterlimit="10" x1="355" y1="665.668" x2="378.573" y2="665.668"/>
	<path fill="none" stroke="#222" stroke-width="2" stroke-linecap="round" stroke-miterlimit="10" d="M33.715,230.187
		c-5.063,5.063-9.205,3.347-9.205-3.813v-15.623c0-7.16,5.858-13.019,13.019-13.019h15.623c7.16,0,8.876,4.143,3.813,9.206
		L33.715,230.187z"/>
	<path fill="none" stroke="#222" stroke-width="2" stroke-linecap="round" stroke-miterlimit="10" d="M382.669,230.187
		c5.063,5.063,9.205,3.347,9.205-3.813v-15.623c0-7.16-5.858-13.019-13.019-13.019h-15.623c-7.16,0-8.876,4.143-3.813,9.206
		L382.669,230.187z"/>
	<path fill="none" stroke="#222" stroke-width="2" stroke-linecap="round" stroke-miterlimit="10" d="M33.715,390.188
		c-5.063,5.063-9.205,3.347-9.205-3.813v-15.623c0-7.16,5.858-13.019,13.019-13.019h15.623c7.16,0,8.876,4.143,3.813,9.206
		L33.715,390.188z"/>
	<path fill="none" stroke="#222" stroke-width="2" stroke-linecap="round" stroke-miterlimit="10" d="M382.669,390.188
		c5.063,5.063,9.205,3.347,9.205-3.813v-15.623c0-7.16-5.858-13.019-13.019-13.019h-15.623c-7.16,0-8.876,4.143-3.813,9.206
		L382.669,390.188z"/>
	<line fill="none" stroke="#222" stroke-width="2" stroke-linecap="round" stroke-miterlimit="10" x1="40.192" y1="605.665" x2="136.573" y2="605.665"/>
	<line fill="none" stroke="#222" stroke-width="2" stroke-linecap="round" stroke-miterlimit="10" x1="284.191" y1="605.665" x2="380.573" y2="605.665"/>
	<path fill="none" stroke="#222" stroke-width="2" stroke-miterlimit="10" d="M197.981,382.93l-52.999,72.946
		c-40.287-29.269-49.218-85.657-19.948-125.945c17.563-24.172,43.068-37.167,72.946-37.167V382.93z M154.982,465.876
		c16.115,11.709,33.08,17.221,52.998,17.221c49.799,0,90.168-40.368,90.168-90.167H207.98L154.982,465.876z M308.148,372.93
		L308.148,372.93c0-49.797-40.369-90.166-90.168-90.166v90.166H308.148z"/>

</svg>
