<?xml version="1.0" encoding="utf-8"?>
<!-- Generator: Adobe Illustrator 16.0.0, SVG Export Plug-In . SVG Version: 6.00 Build 0)  -->
<!DOCTYPE svg PUBLIC "-//W3C//DTD SVG 1.1//EN" "http://www.w3.org/Graphics/SVG/1.1/DTD/svg11.dtd">
<svg version="1.1" id="Layer_1" xmlns="http://www.w3.org/2000/svg" xmlns:xlink="http://www.w3.org/1999/xlink" x="0px" y="0px"
	 width="996.154px" height="610.975px" viewBox="0 0 996.154 610.975" enable-background="new 0 0 996.154 610.975"
	 xml:space="preserve">
<line fill="none" stroke="#FFFFFF" stroke-miterlimit="10" x1="176.137" y1="524" x2="312.231" y2="524"/>
<polyline fill="none" stroke="#FFFFFF" stroke-miterlimit="10" points="889.897,524 901.397,524 981.397,591 14.397,591 94.397,524 
	103.231,524 "/>
<line fill="none" stroke="#FFFFFF" stroke-miterlimit="10" x1="435.753" y1="524" x2="818.147" y2="524"/>
<path fill="none" stroke="#FFFFFF" stroke-miterlimit="10" d="M185.397,268h-91V111h91V268z"/>
<path fill="none" stroke="#FFFFFF" stroke-miterlimit="10" d="M161.397,154.5c0,11.874-9.625,21.5-21.5,21.5
	c-11.874,0-21.5-9.626-21.5-21.5s9.626-21.5,21.5-21.5C151.772,133,161.397,142.626,161.397,154.5z"/>
<path fill="none" stroke="#FFFFFF" stroke-miterlimit="10" d="M153.137,154.5c0,7.312-5.927,13.239-13.239,13.239
	c-7.312,0-13.239-5.928-13.239-13.239s5.927-13.239,13.239-13.239C147.21,141.261,153.137,147.188,153.137,154.5z"/>
<path fill="none" stroke="#FFFFFF" stroke-miterlimit="10" d="M145.804,154.5c0,3.262-2.645,5.906-5.906,5.906
	c-3.262,0-5.906-2.645-5.906-5.906s2.644-5.906,5.906-5.906C143.159,148.594,145.804,151.238,145.804,154.5z"/>
<path fill="none" stroke="#FFFFFF" stroke-miterlimit="10" d="M169.397,224.5c0,16.292-13.207,29.5-29.5,29.5
	c-16.292,0-29.5-13.208-29.5-29.5s13.208-29.5,29.5-29.5C156.19,195,169.397,208.208,169.397,224.5z"/>
<path fill="none" stroke="#FFFFFF" stroke-miterlimit="10" d="M161.397,224.5c0,11.874-9.625,21.5-21.5,21.5
	c-11.874,0-21.5-9.626-21.5-21.5s9.626-21.5,21.5-21.5C151.772,203,161.397,212.626,161.397,224.5z"/>
<path fill="none" stroke="#FFFFFF" stroke-miterlimit="10" d="M153.137,224.5c0,7.312-5.927,13.239-13.239,13.239
	c-7.312,0-13.239-5.928-13.239-13.239s5.927-13.239,13.239-13.239C147.21,211.261,153.137,217.188,153.137,224.5z"/>
<path fill="none" stroke="#FFFFFF" stroke-miterlimit="10" d="M145.804,224.5c0,3.262-2.645,5.906-5.906,5.906
	c-3.262,0-5.906-2.645-5.906-5.906s2.644-5.906,5.906-5.906C143.159,218.594,145.804,221.238,145.804,224.5z"/>
<path fill="none" stroke="#FFFFFF" stroke-miterlimit="10" d="M176.397,111h-73V29h73V111z"/>
<path fill="none" stroke="#FFFFFF" stroke-miterlimit="10" d="M154.302,70c0,7.955-6.449,14.404-14.404,14.404
	c-7.956,0-14.404-6.449-14.404-14.404c0-7.956,6.449-14.404,14.404-14.404C147.853,55.596,154.302,62.044,154.302,70z"/>
<path fill="none" stroke="#FFFFFF" stroke-miterlimit="10" d="M147.999,70c0,4.474-3.627,8.102-8.102,8.102
	c-4.474,0-8.101-3.628-8.101-8.102c0-4.474,3.627-8.101,8.101-8.101C144.372,61.899,147.999,65.526,147.999,70z"/>
<line fill="none" stroke="#FFFFFF" stroke-linecap="round" stroke-miterlimit="10" x1="139.897" y1="313" x2="139.897" y2="488"/>
<line fill="none" stroke="#FFFFFF" stroke-linecap="round" stroke-miterlimit="10" x1="94.397" y1="268" x2="139.897" y2="313.5"/>
<line fill="none" stroke="#FFFFFF" stroke-linecap="round" stroke-miterlimit="10" x1="185.397" y1="268" x2="139.897" y2="313.5"/>
<line fill="none" stroke="#FFFFFF" stroke-linecap="round" stroke-miterlimit="10" x1="94.397" y1="533.5" x2="139.897" y2="488"/>
<line fill="none" stroke="#FFFFFF" stroke-linecap="round" stroke-miterlimit="10" x1="185.397" y1="533.5" x2="139.897" y2="488"/>
<line fill="none" stroke="#FFFFFF" stroke-miterlimit="10" x1="103.397" y1="100.664" x2="176.397" y2="100.664"/>
<line fill="none" stroke="#FFFFFF" stroke-miterlimit="10" x1="103.397" y1="38.664" x2="176.397" y2="38.664"/>
<path fill="none" stroke="#FFFFFF" stroke-miterlimit="10" d="M899.397,268h-91V111h91V268z"/>
<path fill="none" stroke="#FFFFFF" stroke-miterlimit="10" d="M875.397,154.5c0,11.874-9.625,21.5-21.5,21.5
	c-11.874,0-21.5-9.626-21.5-21.5s9.626-21.5,21.5-21.5C865.772,133,875.397,142.626,875.397,154.5z"/>
<path fill="none" stroke="#FFFFFF" stroke-miterlimit="10" d="M867.137,154.5c0,7.312-5.927,13.239-13.239,13.239
	s-13.239-5.928-13.239-13.239s5.927-13.239,13.239-13.239S867.137,147.188,867.137,154.5z"/>
<path fill="none" stroke="#FFFFFF" stroke-miterlimit="10" d="M859.804,154.5c0,3.262-2.645,5.906-5.906,5.906
	s-5.906-2.645-5.906-5.906s2.645-5.906,5.906-5.906S859.804,151.238,859.804,154.5z"/>
<path fill="none" stroke="#FFFFFF" stroke-miterlimit="10" d="M883.397,224.5c0,16.292-13.207,29.5-29.5,29.5
	s-29.5-13.208-29.5-29.5s13.207-29.5,29.5-29.5S883.397,208.208,883.397,224.5z"/>
<path fill="none" stroke="#FFFFFF" stroke-miterlimit="10" d="M875.397,224.5c0,11.874-9.625,21.5-21.5,21.5
	c-11.874,0-21.5-9.626-21.5-21.5s9.626-21.5,21.5-21.5C865.772,203,875.397,212.626,875.397,224.5z"/>
<path fill="none" stroke="#FFFFFF" stroke-miterlimit="10" d="M867.137,224.5c0,7.312-5.927,13.239-13.239,13.239
	s-13.239-5.928-13.239-13.239s5.927-13.239,13.239-13.239S867.137,217.188,867.137,224.5z"/>
<path fill="none" stroke="#FFFFFF" stroke-miterlimit="10" d="M859.804,224.5c0,3.262-2.645,5.906-5.906,5.906
	s-5.906-2.645-5.906-5.906s2.645-5.906,5.906-5.906S859.804,221.238,859.804,224.5z"/>
<path fill="none" stroke="#FFFFFF" stroke-miterlimit="10" d="M890.397,111h-73V29h73V111z"/>
<path fill="none" stroke="#FFFFFF" stroke-miterlimit="10" d="M868.302,70c0,7.955-6.449,14.404-14.404,14.404
	S839.493,77.955,839.493,70c0-7.956,6.449-14.404,14.404-14.404S868.302,62.044,868.302,70z"/>
<path fill="none" stroke="#FFFFFF" stroke-miterlimit="10" d="M861.999,70c0,4.474-3.627,8.102-8.102,8.102
	s-8.102-3.628-8.102-8.102c0-4.474,3.627-8.101,8.102-8.101S861.999,65.526,861.999,70z"/>
<line fill="none" stroke="#FFFFFF" stroke-linecap="round" stroke-miterlimit="10" x1="853.897" y1="313" x2="853.897" y2="488"/>
<line fill="none" stroke="#FFFFFF" stroke-linecap="round" stroke-miterlimit="10" x1="808.397" y1="268" x2="853.897" y2="313.5"/>
<line fill="none" stroke="#FFFFFF" stroke-linecap="round" stroke-miterlimit="10" x1="899.397" y1="268" x2="853.897" y2="313.5"/>
<line fill="none" stroke="#FFFFFF" stroke-linecap="round" stroke-miterlimit="10" x1="808.397" y1="533.5" x2="853.897" y2="488"/>
<line fill="none" stroke="#FFFFFF" stroke-linecap="round" stroke-miterlimit="10" x1="899.397" y1="533.5" x2="853.897" y2="488"/>
<line fill="none" stroke="#FFFFFF" stroke-miterlimit="10" x1="817.397" y1="100.664" x2="890.397" y2="100.664"/>
<line fill="none" stroke="#FFFFFF" stroke-miterlimit="10" x1="817.397" y1="38.664" x2="890.397" y2="38.664"/>
<line fill="none" stroke="#FFFFFF" stroke-miterlimit="10" x1="373.397" y1="311.25" x2="373.397" y2="248.594"/>
<line fill="none" stroke="#FFFFFF" stroke-miterlimit="10" x1="392.184" y1="229.808" x2="354.73" y2="267.261"/>
<path fill="none" stroke="#FFFFFF" stroke-miterlimit="10" d="M399.99,226.57c0,2.34-1.897,4.237-4.237,4.237
	c-2.34,0-4.237-1.897-4.237-4.237c0-2.34,1.897-4.237,4.237-4.237C398.093,222.333,399.99,224.23,399.99,226.57z"/>
<path fill="none" stroke="#FFFFFF" stroke-miterlimit="10" d="M434.897,579h-123V311.25h123V579z"/>
<line fill="none" stroke="#FFFFFF" stroke-miterlimit="10" x1="434.897" y1="311.596" x2="311.695" y2="434.798"/>
<line fill="none" stroke="#FFFFFF" stroke-miterlimit="10" x1="434.897" y1="331.596" x2="311.695" y2="454.798"/>
<line fill="none" stroke="#FFFFFF" stroke-miterlimit="10" x1="434.897" y1="351.596" x2="311.695" y2="474.798"/>
<line fill="none" stroke="#FFFFFF" stroke-miterlimit="10" x1="434.897" y1="371.596" x2="311.695" y2="494.798"/>
<line fill="none" stroke="#FFFFFF" stroke-miterlimit="10" x1="434.897" y1="494.798" x2="311.695" y2="371.596"/>
<line fill="none" stroke="#FFFFFF" stroke-miterlimit="10" x1="434.897" y1="474.798" x2="311.695" y2="351.596"/>
<line fill="none" stroke="#FFFFFF" stroke-miterlimit="10" x1="434.897" y1="454.798" x2="311.695" y2="331.596"/>
<line fill="none" stroke="#FFFFFF" stroke-miterlimit="10" x1="434.897" y1="434.798" x2="311.695" y2="311.596"/>
<line fill="none" stroke="#FFFFFF" stroke-miterlimit="10" x1="94.397" y1="533.5" x2="185.397" y2="533.5"/>
<line fill="none" stroke="#FFFFFF" stroke-miterlimit="10" x1="808.397" y1="533.5" x2="899.397" y2="533.5"/>
<polyline fill="none" stroke="#FFFFFF" stroke-miterlimit="10" points="311.647,400.5 223.502,400.5 223.502,29 776.974,29 
	776.974,400.5 435.147,400.5 "/>
<path fill="none" stroke="#FFFFFF" stroke-miterlimit="10" d="M323.564,400.5"/>
</svg>
