<?xml version="1.0" encoding="utf-8"?>
<!-- Generator: Adobe Illustrator 16.0.0, SVG Export Plug-In . SVG Version: 6.00 Build 0)  -->
<!DOCTYPE svg PUBLIC "-//W3C//DTD SVG 1.1//EN" "http://www.w3.org/Graphics/SVG/1.1/DTD/svg11.dtd">
<svg version="1.1" xmlns="http://www.w3.org/2000/svg" xmlns:xlink="http://www.w3.org/1999/xlink" x="0px" y="0px" width="150px"
	 height="150px" viewBox="0 0 150 150" enable-background="new 0 0 150 150" xml:space="preserve">


	<g class="ac">
		<path fill="none" stroke="#fff" stroke-linecap="round" stroke-miterlimit="10" d="M82.1,64.5V34.3c0-13.8,11.2-25,25-25h5.8
			c13.8,0,25,11.2,25,25v30.3"/>
		<path fill="none" stroke="#fff" stroke-linecap="round" stroke-miterlimit="10" d="M89.3,36.1c0-11.5,9.3-20.8,20.8-20.8"/>
		<line fill="none" stroke="#fff" stroke-linecap="round" stroke-miterlimit="10" x1="82.1" y1="64.5" x2="137.9" y2="64.5"/>
		<path fill="none" stroke="#fff" stroke-linecap="round" stroke-miterlimit="10" d="M137.9,91.5c0,3.6-2.9,6.5-6.5,6.5H88.6
			c-3.6,0-6.5-2.9-6.5-6.5l0,0c0-3.6,2.9-6.5,6.5-6.5h42.8C135,85,137.9,87.9,137.9,91.5L137.9,91.5z"/>
		<line fill="none" stroke="#fff" stroke-linecap="round" stroke-miterlimit="10" x1="110" y1="85" x2="110" y2="64.5"/>
		<rect x="88.3" y="98" fill="none" stroke="#fff" stroke-linecap="round" stroke-miterlimit="10" width="43.5" height="5.8"/>
		<line fill="none" stroke="#fff" stroke-linecap="round" stroke-miterlimit="10" x1="110" y1="103.8" x2="110" y2="136.3"/>
		<path fill="none" stroke="#fff" stroke-linecap="round" stroke-miterlimit="10" d="M88.3,140.8L88.3,140.8
			c0-2.3,1.9-4.3,4.3-4.3h35c2.3,0,4.3,1.9,4.3,4.3l0,0"/>
		<line fill="none" stroke="#fff" stroke-linecap="round" stroke-miterlimit="10" x1="93.1" y1="90.5" x2="126.9" y2="90.5"/>
		<path fill="none" stroke="#fff" stroke-linecap="round" stroke-miterlimit="10" d="M12.1,64.5V34.3c0-13.8,11.2-25,25-25h5.8
			c13.8,0,25,11.2,25,25v30.3"/>
		<path fill="none" stroke="#fff" stroke-linecap="round" stroke-miterlimit="10" d="M19.3,36.1c0-11.5,9.3-20.8,20.8-20.8"/>
		<line fill="none" stroke="#fff" stroke-linecap="round" stroke-miterlimit="10" x1="12.1" y1="64.5" x2="67.9" y2="64.5"/>
		<path fill="none" stroke="#fff" stroke-linecap="round" stroke-miterlimit="10" d="M67.9,91.5c0,3.6-2.9,6.5-6.5,6.5H18.6
			c-3.6,0-6.5-2.9-6.5-6.5l0,0c0-3.6,2.9-6.5,6.5-6.5h42.8C65,85,67.9,87.9,67.9,91.5L67.9,91.5z"/>
		<line fill="none" stroke="#fff" stroke-linecap="round" stroke-miterlimit="10" x1="40" y1="85" x2="40" y2="64.5"/>
		<rect x="18.3" y="98" fill="none" stroke="#fff" stroke-linecap="round" stroke-miterlimit="10" width="43.5" height="5.8"/>
		<line fill="none" stroke="#fff" stroke-linecap="round" stroke-miterlimit="10" x1="40" y1="103.8" x2="40" y2="136.3"/>
		<path fill="none" stroke="#fff" stroke-linecap="round" stroke-miterlimit="10" d="M18.3,140.8L18.3,140.8
			c0-2.3,1.9-4.3,4.3-4.3h35c2.3,0,4.3,1.9,4.3,4.3l0,0"/>
		<line fill="none" stroke="#fff" stroke-linecap="round" stroke-miterlimit="10" x1="23.1" y1="90.5" x2="56.9" y2="90.5"/>
	</g>

</svg>
