<?xml version="1.0" encoding="utf-8"?>
    <!-- Generator: Adobe Illustrator 16.0.0, SVG Export Plug-In . SVG Version: 6.00 Build 0)  -->
    <!DOCTYPE svg PUBLIC "-//W3C//DTD SVG 1.1//EN" "http://www.w3.org/Graphics/SVG/1.1/DTD/svg11.dtd">
    <svg version="1.1" id="Layer_1" xmlns="http://www.w3.org/2000/svg" xmlns:xlink="http://www.w3.org/1999/xlink" x="0px" y="0px" width="527.586px" height="388.966px" viewBox="-100 0 527.586 388.966" enable-background="new 0 0 527.586 388.966" xml:space="preserve">
	 <style>



.text-1 {
  -webkit-animation: hideshow 10s ease infinite;
          animation: hideshow 10s ease infinite;
}



@-webkit-keyframes hideshow {
  0% {
    opacity: 1;
  }
  10% {
    opacity: 1;
  }
  15% {
    opacity: 0;
  }
  100% {
    opacity: 1;
  }
}

@keyframes hideshow {
  0% {
    opacity: 1;
  }
  10% {
    opacity: 1;
  }
  15% {
    opacity: 0;
  }
  100% {
    opacity: 1;
  }
}
</style>

<path fill="#181924" class="text-1" d="M223.375,181.063c0,0-9.599-2.485-31.463-4.087c-21.855-1.599-44.609,2.313-44.609,2.313
	c-16.334,4.969-19.541,4.269-19.548,4.265c0,0.004-3.206,0.704-19.548-4.265c0,0-22.753-3.912-44.61-2.313
	c-21.862,1.603-31.454,4.087-31.454,4.087s-0.891,7.289,0,10.132c0.884,2.846,3.815,15.33,4.619,18.836
	c1.953,8.579,8.175,20.439,11.373,21.507c3.198,1.07,16.704,5.866,28.084,6.044c11.373,0.177,25.945-1.914,31.454-8.71
	c5.442-6.721,10.841-15.818,12.622-34.655l0.884-5.688c0,0,3.731,0.71,6.575,0.71c2.853,0,6.581-0.71,6.581-0.71l0.887,5.688
	c1.774,18.836,7.173,27.934,12.621,34.655c5.51,6.796,20.081,8.887,31.454,8.71c11.373-0.179,24.879-4.975,28.077-6.044
	c3.198-1.068,9.42-12.929,11.375-21.507c0.803-3.506,3.733-15.99,4.626-18.836C224.265,188.352,223.375,181.063,223.375,181.063z
	 M103.763,227.983c-4.977,3.773-15.817,6.22-26.839,6.398c-11.015,0.177-19.369-3.556-23.458-5.687
	c-4.086-2.132-7.638-8.352-10.662-15.108c-3.023-6.755-4.972-19.019,0-24.17c4.973-5.152,34.12-4.8,34.12-4.8
	c19.91,0.179,34.128,2.132,38.212,9.601C119.226,201.681,110.88,222.584,103.763,227.983z M212.706,213.587
	c-3.016,6.756-6.572,12.976-10.661,15.108c-4.082,2.13-12.443,5.864-23.458,5.687c-11.016-0.179-21.864-2.625-26.836-6.398
	c-7.112-5.399-15.466-26.302-11.373-33.766c4.089-7.468,18.307-9.421,38.209-9.601c0,0,29.146-0.353,34.119,4.8
	C217.686,194.568,215.729,206.832,212.706,213.587z"/>

</svg>
