<?xml version="1.0" encoding="utf-8"?>
    <!-- Generator: Adobe Illustrator 16.0.0, SVG Export Plug-In . SVG Version: 6.00 Build 0)  -->
    <!DOCTYPE svg PUBLIC "-//W3C//DTD SVG 1.1//EN" "http://www.w3.org/Graphics/SVG/1.1/DTD/svg11.dtd">
    <svg version="1.1" id="Layer_1" xmlns="http://www.w3.org/2000/svg" xmlns:xlink="http://www.w3.org/1999/xlink" x="0px" y="0px" width="527.586px" height="388.966px" viewBox="-100 150 527.586 388.966" enable-background="new 0 0 527.586 388.966" xml:space="preserve">
	 <style>



.text-1 {
  -webkit-animation: hideshow 10s ease infinite;
          animation: hideshow 10s ease infinite;
}

.text-2 {
opacity:0;
  -webkit-animation: hideshow 10s 1s ease infinite;
          animation: hideshow 10s 1s ease infinite;
}

.text-3 {
 opacity:0;
  -webkit-animation: hideshow 10s 2s ease infinite;
          animation: hideshow 10s 2s ease infinite;
}

.text-4 {
 opacity:0;
  -webkit-animation: hideshow 10s 3s ease infinite;
          animation: hideshow 10s 3s ease infinite;
}

.text-5 {
 opacity:0;
  -webkit-animation: hideshow 10s 4s ease infinite;
          animation: hideshow 10s 4s ease infinite;
}

.text-6 {
  opacity:0;
  -webkit-animation: hideshow 10s 5s ease infinite;
          animation: hideshow 10s 5s ease infinite;
}

@-webkit-keyframes hideshow {
  0% {
    opacity: 1;
  }
  10% {
    opacity: 1;
  }
  15% {
    opacity: 0;
  }
  100% {
    opacity: 1;
  }
}

@keyframes hideshow {
  0% {
    opacity: 1;
  }
  10% {
    opacity: 1;
  }
  15% {
    opacity: 0;
  }
  100% {
    opacity: 1;
  }
}
</style>
<path fill="#181924" class="text-3" d="M228.434,311.061c0,0-9.88-0.529-20.206-2.212c-10.487-1.707-16.468-2.928-27.503-2.594
	c-11.039,0.342-12.394,1.024-17.146,1.366c-4.751,0.336-21.048,4.796-25.123,5.477c-4.073,0.678-10.699,1.012-10.699,1.012
	s-6.618-0.334-10.696-1.012c-4.077-0.681-20.37-5.141-25.125-5.477c-4.753-0.342-6.108-1.024-17.143-1.366
	c-11.038-0.334-17.016,0.887-27.505,2.594c-10.323,1.683-20.207,2.212-20.207,2.212s-3.224,9.332-2.376,11.03
	c0.85,1.699,5.099,3.4,7.304,6.454c2.205,3.058,3.735,11.879,4.413,16.121c0.681,4.249,5.434,17.149,8.83,20.377
	c3.394,3.226,12.733,9.166,29.371,8.153c16.632-1.021,25.634-4.25,31.912-11.887c6.287-7.64,11.716-14.259,15.281-31.234
	c0,0,0.509-2.209,5.942-2.209c5.434,0,5.944,2.209,5.944,2.209c3.563,16.976,8.998,23.595,15.276,31.234
	c6.283,7.637,15.28,10.866,31.919,11.887c16.64,1.013,25.976-4.928,29.373-8.153c3.392-3.228,8.147-16.128,8.825-20.377
	c0.679-4.242,2.209-13.063,4.414-16.121c2.204-3.054,6.454-4.755,7.303-6.454C231.659,320.393,228.434,311.061,228.434,311.061z
	 M35.719,318.027c-1.436,0-4.661-0.867-4.661-1.929c0-1.063,2.955-2.201,4.661-1.886c0,0,3.403,0.164,3.403,1.954
	C39.122,317.948,37.166,318.027,35.719,318.027z M114.52,332.786c-1.362,7.81-5.091,19.696-12.565,27.509
	c-7.47,7.804-16.811,10.183-29.71,10.183c-12.904,0-20.541-2.886-24.787-8.49c-2.063-2.719-13.242-26.992-5.429-40.402
	c7.808-13.41,41.423-10.19,41.423-10.19C114.348,314.452,115.872,324.985,114.52,332.786z M208.057,361.987
	c-4.242,5.604-11.88,8.49-24.779,8.49c-12.908,0-22.24-2.379-29.714-10.183c-7.472-7.813-11.203-19.699-12.562-27.509
	c-1.356-7.801,0.167-18.334,31.065-21.392c0,0,33.621-3.22,41.423,10.19C221.303,334.995,210.127,359.269,208.057,361.987z
	 M219.799,318.027c-1.443,0-3.399-0.079-3.399-1.86c0-1.79,3.399-1.954,3.399-1.954c1.709-0.315,4.667,0.822,4.667,1.886
	C224.466,317.16,221.238,318.027,219.799,318.027z"/>


</svg>
