<?xml version="1.0" encoding="utf-8"?>
<!-- Generator: Adobe Illustrator 16.0.0, SVG Export Plug-In . SVG Version: 6.00 Build 0)  -->
<!DOCTYPE svg PUBLIC "-//W3C//DTD SVG 1.1//EN" "http://www.w3.org/Graphics/SVG/1.1/DTD/svg11.dtd">
<svg version="1.1" id="Layer_1" xmlns="http://www.w3.org/2000/svg" xmlns:xlink="http://www.w3.org/1999/xlink" x="0px" y="0px"
	 width="126px" height="736px" viewBox="305.8 -300.9 126 736" enable-background="new 305.8 -300.9 126 736" xml:space="preserve">
<path fill="#FFFFFF" d="M368.2,156.9c3.6,0,6.2,7,7.8,21c1,8.1,1.4,15.4,1.4,22c-0.1,12-1.6,17.9-4.7,17.9c-3.5,0-6.4-3.1-8.7-9.3
	c-1.9-4.9-3.2-11.2-4-18.7c-0.1-0.6-0.3-1-0.6-1c-0.6,0-1.2,1.4-1.9,4.1c-0.7,3.1-1.1,6.8-1.1,10.9c0,7.5,0.9,14.1,2.8,19.8
	c2.4,7,5.8,10.6,10.2,10.6c3.7,0,9.2-2.4,16.8-7.2c0.6-0.4,1.2-3.3,1.8-8.6c0.6-5.9,1-13.3,1.4-22.3c1.6,0.8,3.6,1.7,5.8,2.9
	c-0.1,2.1-0.1,5.3-0.1,9.5c-0.1,25.3,1.2,50.4,4,75.1c-1.2,1.6-3,3-5.5,4.1c-0.3,0.1-0.5-0.2-0.6-0.9c-1.2-6.6-1.9-10-1.9-10.1
	c-0.7-2.9-1.6-4.5-2.6-4.6c-2.7-0.8-5.4-1.5-8.1-2.2c-5.2-1.3-9.2-2-12.1-2c-3.1,0-4.9,0.7-5.4,2.2c-0.7,1.8-1,4.4-1,7.9
	c0,1.3,0.1,3.5,0.3,6.8c0.1,0.9,0,1.3-0.2,1.3c-0.4,0-1.8,0.3-4.2,1s-3.8,1-4.1,1c-0.4,0-0.5-0.5-0.4-1.4c0.6-4.7,0.9-9.4,0.9-14.2
	c0.1-11.6-1.9-23.8-5.7-36.5c2,0.7,4.7,1.6,7.9,2.8c-3.8-8.9-5.7-21.1-5.6-36.8c0.1-21.3,3.9-35.3,11.5-42.1
	C364.7,157.9,366.6,156.9,368.2,156.9z"/>
<path fill="#FFFFFF" d="M349.2,31.9c3.8,0,6.4,7.4,7.9,22c0.7,6.8,1,13,1,18.5c0,6.3-0.5,11.2-1.4,14.8c-0.9,3.6-2.1,5.4-3.6,5.4
	c-5.1,0-8.6-7.1-10.5-21c-0.6-4.6-1.2-6.9-1.6-6.9c-0.9,0-2,2.4-3,7.2c-1.1,5-1.7,10.1-1.7,15.3c-0.1,12.4,5.5,18.6,16.6,18.7
	c3.6,0,7.7-0.8,12.3-2.4c4.1-1.4,6.3-2.5,6.8-3.4c0.2-6.1,0.3-11.3,0.3-15.7c0-5.2-0.1-8.4-0.4-9.6c-0.5-0.2-1.1-0.3-1.8-0.4
	c-0.9,0-1.9,0.7-2.8,2.1c0,0-0.8,1.5-2.5,4.6c-1.4-7.3-2.3-14.4-2.8-21.5c0.8-0.8,1.8-1.1,2.9-1.1c0.8,0,2,0.3,3.5,0.8
	c1.6,0.5,2.7,0.8,3.5,0.8c1.5,0,3.8-0.7,6.7-2.1s4.9-2.7,5.9-3.9c0.4,2.9,0.9,5.7,1.3,8.6c0.6,3.7,0.8,6.4,0.8,8.2
	c0,1.2-0.1,2.1-0.4,2.7c-0.3,0.8-1.8,1.9-4.2,3.3c-2.1,1.2-3.2,3-3.3,5.4c-0.3,3.9-0.7,9-1,15.3c1.2,0,4.2-3,9-9
	c4.5-5.7,8.9-11.9,13.3-18.4v4.7c-0.1,10.2,0.5,19.9,1.5,28.9c1.2,9.9,2.8,15.9,4.7,17.9l-8.4,7.1c-1.4-3.8-2.1-8.6-2-14.2
	c0-1.4,0.1-3,0.3-4.7c-5.1,9.4-11.4,17.1-18.8,23.1c0,5.6,0.8,13.2,2.5,22.9c-2,0.6-4.2,1-6.4,0.9c-1.5,0-2.9-0.2-4.3-0.7
	c1-5.4,1.7-11.7,2.1-19c-7.5,5-13.5,7.5-18,7.5c-13.9-0.1-20.7-17-20.5-50.7c0.1-17.1,1.4-30.9,4-41.6c2-8.2,4.5-13.9,7.5-17.1
	C345.9,33,347.7,31.9,349.2,31.9z"/>
<path fill="#FFFFFF" d="M399.6-147.7c-1.5,7.3-2.3,14.6-2.3,21.8c-0.1,9.6,1.1,19.8,3.4,30.5c0.2,0.8,0.2,1.3,0.2,1.5
	c-0.1,0.3-0.3,0.3-0.7,0.1c-13.7-7.4-24.9-11.1-33.7-11.1c-7.6-0.1-15,2-22.1,6.1c-1.1,0.6-1.8,2.2-2.3,4.6c-0.3,1.9-0.6,5-0.8,9.6
	c-0.9,2.1-3,2.9-6.4,2.5c0.1-0.3,0.1-1.3,0.1-2.9c0-8.1-0.6-26.1-1.8-53.9c6.2-3.7,13-5.5,20.5-5.4c13.8,0.1,25.8,5.7,36,16.8
	c-0.9-4-1.3-8-1.3-12c0-3.2,0.3-5.9,0.7-8.2H399.6z"/>
<path fill="#FFFFFF" d="M369.7-82.6c2.4,0,5.4,0.7,8.8,2c6.1,2.3,11.1,7.1,15.2,14.7c5.2,9.7,7.8,22.7,7.7,38.8
	c-0.1,14.7-2.3,27.9-6.8,39.7c-4.7,12.5-10.3,18.7-16.8,18.6c-5.1,0-9.9-4.8-14.5-14.1c-5.1-10.7-8.2-24.5-9.1-41.5
	c-0.3-5.5-0.4-11.8-0.4-18.9c0.1-14.3,1.5-24.6,4.3-30.8C360.5-79.8,364.4-82.6,369.7-82.6L369.7-82.6z M375.2-68.4
	c-2,0-3.6,3.5-4.7,10.5c-1,6.4-1.6,14.6-1.6,24.6c-0.1,11,1.3,21.7,4.1,32.2c2.6,9.8,5.1,14.8,7.5,14.8c1.7,0,3-3.1,4.2-9.4
	c1.1-6.3,1.7-13.9,1.8-22.9c0.1-11.3-1.1-22.5-3.6-33.4C380.4-62.9,377.9-68.3,375.2-68.4z"/>
<path fill="#FFFFFF" d="M357.8-282.4l8.7,1.9c0.2,1.7,0.4,3.2,0.4,4.6c0,3.4-0.6,7.2-1.7,11.5c7.6-9.1,15.9-13.6,24.7-13.5
	c2.2,0,4.3,0.4,6.3,1c7.7,2.6,13,7.9,16,16c3.5,9.4,5.2,25.4,5,47.9c-0.1,19.5-1.8,34.3-5,44.5c-2,6.1-4.3,10-6.9,11.8
	c-2,1.4-3.6,2-4.9,2c-3.9,0-6.5-7-7.7-20.9c-0.5-5.9-0.7-11.6-0.7-17.1c0-8,0.6-14.3,1.7-19.2c1.1-4.7,2.5-7.1,4.1-7.1
	c3.8,0,6.6,5.5,8.2,16.4c1.1,7.3,1.8,11.6,2.1,12.9c0.6,2.6,1.2,3.9,1.8,3.9c0.9,0,1.5-4.3,1.5-13c0.1-10.9-0.8-20.1-2.6-27.9
	c-1.5-6.5-5.1-11.2-10.9-14.1c-3.9-2-8-3-12.5-3c-1.1,0-1.9,0.1-2.4,0.3c2,1.8,3.6,6.3,4.7,13.4c1,6.4,1.5,13.3,1.5,21
	c-0.1,11.6-2,20.7-5.9,27.4c-2.8,4.9-6.4,8.1-10.6,9.5c-3.6,1.2-6.3,1.8-8.1,1.8c-3.4,0-5.8-1.8-7.4-5.4c-1.8-4-2.7-10.8-2.6-20.5
	c0-4.5,0.3-10.2,0.8-17.1c0.9-11.8,2.5-20.6,4.9-26.3c0.2-0.5,0.1-0.8-0.2-0.8c-0.8,0-3.1,1-6.9,3.2c3.6-12.3,5.4-24,5.4-35.1
	C358.8-276.8,358.5-280.1,357.8-282.4L357.8-282.4z M375.3-247.9c-1.7,0-3.4,3.9-5.1,11.6c-1.6,7-2.4,14.1-2.4,21.3
	c0,7,0.2,12.9,0.8,17.5c0.7,5.2,1.6,7.9,2.9,7.9c1.5,0,3-3.8,4.6-11.6c1.5-7.7,2.3-15.9,2.3-24.4c0-6.7-0.2-12.1-0.8-16.2
	C377-245.8,376.2-247.9,375.3-247.9z"/>
<path fill="#FFFFFF" d="M395.1,297.1c-4.7-6.4-5.9,17.9-4.3,59c2,52-44.1,56.1-50.8,23c-9.6-46.9,23.1-63.9,24.6,18.1
	c13.8-31.9-1.7-99.9-24.2-95.9c-30,5.3-20.3,71.2-9.3,92.6c19.5,37.9,66.7,51.1,66.4-43.6C397.5,337,393.1,316.4,395.1,297.1z"/>
</svg>
