<?xml version="1.0" encoding="utf-8"?>
<!-- Generator: Adobe Illustrator 16.0.0, SVG Export Plug-In . SVG Version: 6.00 Build 0)  -->
<!DOCTYPE svg PUBLIC "-//W3C//DTD SVG 1.1//EN" "http://www.w3.org/Graphics/SVG/1.1/DTD/svg11.dtd">
<svg version="1.1"  class="one" xmlns="http://www.w3.org/2000/svg" xmlns:xlink="http://www.w3.org/1999/xlink" x="0px" y="0px"
	 width="150px" height="150px" viewBox="0 0 150 150" enable-background="new 0 0 150 150" xml:space="preserve">

<g class="em">
	<path fill="none" stroke="#fff" stroke-miterlimit="10" d="M94.3,38.5v105.5c0,2.5-2,4.4-4.4,4.4h-67c-2.5,0-4.4-2-4.4-4.4V38.5
		H94.3z"/>
	<path fill="none" stroke="#fff" stroke-miterlimit="10" d="M72,46.6c0,1.8-1.5,3.3-3.3,3.3H44.1c-1.8,0-3.3-1.5-3.3-3.3l0,0
		c0-1.8,1.5-3.3,3.3-3.3h24.5C70.5,43.2,72,44.7,72,46.6L72,46.6z"/>
	<line fill="none" stroke="#fff" stroke-miterlimit="10" x1="18.4" y1="137.1" x2="94.3" y2="137.1"/>
	<g>
		<path fill="none" stroke="#fff" stroke-miterlimit="10" d="M34,105.8c3.7,0,3.7,4,7.4,4c3.7,0,3.7-4,7.4-4c3.7,0,3.7,4,7.4,4
			c3.7,0,3.7-4,7.4-4c3.7,0,3.7,4,7.4,4c3.7,0,3.7-4,7.4-4"/>
	</g>
	<g>
		<path fill="none" stroke="#fff" stroke-miterlimit="10" d="M28.1,118.5c4,0,4,4,8.1,4c4,0,4-4,8.1-4c4,0,4,4,8.1,4
			c4,0,4-4,8.1-4c4,0,4,4,8.1,4c4,0,4-4,8.1-4s4,4,8.1,4"/>
	</g>

	<path fill="none" stroke="#fff" stroke-miterlimit="10" d="M40.599999999999994,77.6a15.8,15.8 0 1,0 31.6,0a15.8,15.8 0 1,0 -31.6,0"/>
	<path fill="none" stroke="#fff" stroke-miterlimit="10" d="M66.4,24.9c0,5.5-4.5,10-10,10s-10-4.5-10-10H66.4z"/>
	<line fill="none" stroke="#fff" stroke-linecap="round" stroke-miterlimit="10" x1="56.4" y1="32" x2="56.4" y2="46.6"/>
	<line fill="none" stroke="#fff" stroke-miterlimit="10" x1="46.5" y1="24.9" x2="46.5" y2="12.6"/>
	<line fill="none" stroke="#fff" stroke-miterlimit="10" x1="66.4" y1="24.9" x2="66.4" y2="5.5"/>
	<path fill="none" stroke="#fff" stroke-miterlimit="10" d="M67.2,21.3h64.4v105.5c0,2.5-2,4.4-4.4,4.4H94.6"/>
	<path fill="none" stroke="#fff" stroke-miterlimit="10" d="M109.3,29.4c0,1.8-1.5,3.3-3.3,3.3H81.4c-1.8,0-3.3-1.5-3.3-3.3l0,0
		c0-1.8,1.5-3.3,3.3-3.3h24.5C107.8,26,109.3,27.5,109.3,29.4L109.3,29.4z"/>
	<line fill="none" stroke="#fff" stroke-miterlimit="10" x1="94" y1="119.9" x2="131.6" y2="119.9"/>
	<path fill="none" stroke="#fff" stroke-miterlimit="10" d="M94.6,44.7c8.7,0,15.8,7.1,15.8,15.8c0,8.7-7.1,15.8-15.8,15.8"/>
	<path fill="none" stroke="#fff" stroke-miterlimit="10" d="M103.7,7.7c0,5.5-4.5,10-10,10c-5.5,0-10-4.5-10-10H103.7z"/>
	<line fill="none" stroke="#fff" stroke-linecap="round" stroke-miterlimit="10" x1="93.6" y1="14.8" x2="93.6" y2="29.4"/>
	<g>
		<path fill="none" stroke="#fff" stroke-miterlimit="10" d="M94.3,91.4c1.5,0,1.5,4,3,4s1.5-4,3-4c1.5,0,1.5,4,3,4
			c1.5,0,1.5-4,3-4s1.5,4,3,4"/>
	</g>
	<g>
		<path fill="none" stroke="#fff" stroke-miterlimit="10" d="M94.3,105.8c2.4,0,2.4,4,4.8,4s2.4-4,4.8-4c2.4,0,2.4,4,4.8,4
			c2.4,0,2.4-4,4.8-4c2.4,0,2.4,4,4.8,4"/>
	</g>
	<line fill="none" stroke="#fff" stroke-miterlimit="10" x1="83.8" y1="7.7" x2="83.8" y2="1.6"/>
	<line fill="none" stroke="#fff" stroke-miterlimit="10" x1="103.7" y1="7.7" x2="103.7" y2="1.6"/>
</g>
</svg>
