<?xml version="1.0" encoding="utf-8"?>
<!-- Generator: Adobe Illustrator 16.0.0, SVG Export Plug-In . SVG Version: 6.00 Build 0)  -->
<!DOCTYPE svg PUBLIC "-//W3C//DTD SVG 1.1//EN" "http://www.w3.org/Graphics/SVG/1.1/DTD/svg11.dtd">
<svg version="1.1" id="Layer_1" xmlns="http://www.w3.org/2000/svg" xmlns:xlink="http://www.w3.org/1999/xlink" x="0px" y="0px"
	 width="348.387px" height="344.355px" viewBox="0 0 348.387 344.355" enable-background="new 0 0 348.387 344.355"
	 xml:space="preserve">
<path fill="none" stroke="#FFFFFF" stroke-width="2" stroke-linecap="round" stroke-miterlimit="10" d="M26.721,251.885v-120.88
	c0-11.851,9.607-21.458,21.458-21.458h178.816 M226.995,123.853H152.25l1.863-4.141l-7.906-5.179l2.645,5.565l-3.397,3.755h-38.267
	H62.484c-11.851,0-21.458,9.607-21.458,21.458v106.575 M237.008,98.818c0-2.765-2.241-5.007-5.007-5.007l0,0
	c-2.765,0-5.007,2.242-5.007,5.007v33.618c0,2.765,2.242,5.007,5.007,5.007l0,0c2.766,0,5.007-2.242,5.007-5.007V98.818z
	 M17.065,252.243c-2.766,0-5.007,2.241-5.007,5.007l0,0c0,2.766,2.241,5.007,5.007,5.007h33.617c2.766,0,5.007-2.241,5.007-5.007
	l0,0c0-2.766-2.241-5.007-5.007-5.007H17.065z M237.724,109.547h69.381 M237.724,123.853h69.381 M26.721,262.614v42.916
	 M41.026,262.614v42.916 M322.125,227.566V48.75c0-11.851-9.607-21.458-21.458-21.458h-120.88 M307.82,124.21v103.355
	 M307.82,109.547v-1.788V63.055c0-11.851-9.607-21.458-21.458-21.458H179.788 M332.854,237.58c2.766,0,5.007-2.241,5.007-5.007l0,0
	c0-2.766-2.241-5.007-5.007-5.007h-33.617c-2.766,0-5.007,2.241-5.007,5.007l0,0c0,2.766,2.241,5.007,5.007,5.007H332.854z
	 M307.105,166.166L307.105,166.166c-2.161,0-3.912,1.751-3.912,3.912v26.263c0,2.159,1.751,3.911,3.912,3.911l0,0 M179.43,17.636
	c0-2.765-2.242-5.007-5.007-5.007l0,0c-2.765,0-5.007,2.242-5.007,5.007v33.618c0,2.765,2.242,5.007,5.007,5.007l0,0
	c2.765,0,5.007-2.242,5.007-5.007V17.636z M322.125,238.295v26.465 M307.82,238.295v26.465 M169.059,27.292h-42.916 M169.059,41.597
	h-42.916 M131.865,178.75h171.328 M131.865,185.902h171.328 M146.409,27.292h-24.796c-3.951,0-7.153,3.202-7.153,7.152l0,0
	c0,3.951,3.202,7.153,7.153,7.153h24.796 M131.89,26.694c-2.438-3.46-6.465-5.72-11.02-5.72c-7.439,0-13.471,6.031-13.471,13.47
	c0,7.44,6.031,13.471,13.471,13.471c4.508,0,8.499-2.214,10.944-5.614 M146.885,178.75h-15.021c-1.975,0-3.576,1.601-3.576,3.576
	l0,0c0,1.976,1.601,3.576,3.576,3.576h15.021 M138,178.361c-1.399-2.54-4.103-4.261-7.208-4.261c-4.543,0-8.226,3.683-8.226,8.226
	s3.683,8.226,8.226,8.226c3.044,0,5.704-1.655,7.125-4.113 M26.721,294.085v19.074c0,3.95,3.203,7.152,7.153,7.152l0,0
	c3.95,0,7.152-3.202,7.152-7.152v-19.074 M25.711,299.929c-5.499,2.926-9.243,8.713-9.243,15.376
	c0,9.612,7.792,17.405,17.405,17.405c9.612,0,17.404-7.793,17.404-17.405c0-7.063-4.207-13.142-10.251-15.87 M307.82,258.671v19.073
	c0,3.95,3.202,7.153,7.152,7.153l0,0c3.951,0,7.153-3.203,7.153-7.153v-19.073 M306.811,264.515
	c-5.5,2.925-9.244,8.713-9.244,15.376c0,9.611,7.793,17.404,17.405,17.404s17.405-7.793,17.405-17.404
	c0-7.063-4.207-13.143-10.252-15.871"/>
</svg>
