<?xml version="1.0" encoding="utf-8"?>
<!-- Generator: Adobe Illustrator 16.0.0, SVG Export Plug-In . SVG Version: 6.00 Build 0)  -->
<!DOCTYPE svg PUBLIC "-//W3C//DTD SVG 1.1//EN" "http://www.w3.org/Graphics/SVG/1.1/DTD/svg11.dtd">
<svg version="1.1" xmlns="http://www.w3.org/2000/svg" xmlns:xlink="http://www.w3.org/1999/xlink" x="0px" y="0px" width="150px"
	 height="150px" viewBox="0 0 150 150" enable-background="new 0 0 150 150" xml:space="preserve">

	 <style>
	 	#cog3,
		#cog4, 
	 	#cog2,
		#cog1 {
			animation-name: spin;
			animation-duration: 4000ms;
			animation-iteration-count: infinite;
			animation-timing-function: linear;
			transform-origin:31.936px 31.5px;
			animation-play-state: paused;
		}
		#cog2 {
			animation-duration: 4000ms;
			transform-origin: 82px 42.5px;
			animation-direction: reverse;
		}
		#cog3 {
			animation-duration: 4000ms;
			transform-origin: 71.9px 92.5px;
			
		}
		#cog4 {
			animation-duration: 4000ms;
			transform-origin: 115.5px 121.5px;
			animation-direction: reverse;
		}

		svg:hover #cog1,
		svg:hover #cog2,
		svg:hover #cog3,
		svg:hover #cog4{
			animation-play-state: running;
		}

		@keyframes spin {
		from {
			transform: rotate(0deg);
		}
		to {
			transform: rotate(360deg);
		}
		}
	 </style>

<g id="Sales_Engine">
<g id="cog1">

	<path fill="none" stroke="#fff" stroke-miterlimit="10" d="M60.9,31.5c0,3.1-12.2,3.7-13.3,6.3c-1.1,2.8,7,11.8,4.9,13.8
		s-11.1-6-13.8-4.9C36.1,47.8,35.5,60,32.4,60s-3.7-12.2-6.3-13.3c-2.8-1.1-11.8,7-13.8,4.9c-2.1-2.1,6-11.1,4.9-13.8
		c-1.1-2.7-13.3-3.3-13.3-6.3s12.1-3.7,13.3-6.3c1.1-2.8-7-11.8-4.9-13.8c2.1-2.1,11.1,6,13.8,4.9C28.8,15.1,29.4,3,32.4,3
		s3.7,12.1,6.3,13.3c2.8,1.1,11.8-7,13.8-4.9c2.1,2.1-6,11.1-4.9,13.8C48.8,27.8,60.9,28.4,60.9,31.5z"/>
		
	
	
	<path fill="none" stroke="#fff" stroke-miterlimit="10" d="M22.099999999999998,31.5a10.3,10.3 0 1,0 20.6,0a10.3,10.3 0 1,0 -20.6,0"/>
	<!-- <animateTransform 
         attributeName="transform" 
         attributeType="XML" 
         type="rotate"
         dur="5s" 
         from="0 31.936 31.5"
         to="360 31.936 31.5" 
         repeatCount="indefinite" /> -->

</g>
<g id="cog2">
	<path fill="none" stroke="#fff" stroke-miterlimit="10" d="M110.9,42.5c0,3.1-12.2,3.7-13.3,6.3c-1.1,2.8,7,11.8,4.9,13.8
		s-11.1-6-13.8-4.9C86.1,58.8,85.5,71,82.4,71s-3.7-12.2-6.3-13.3c-2.8-1.1-11.8,7-13.8,4.9c-2.1-2.1,6-11.1,4.9-13.8
		c-1.1-2.7-13.3-3.3-13.3-6.3s12.1-3.7,13.3-6.3c1.1-2.8-7-11.8-4.9-13.8c2.1-2.1,11.1,6,13.8,4.9c2.7-1.1,3.3-13.3,6.3-13.3
		s3.7,12.1,6.3,13.3c2.8,1.1,11.8-7,13.8-4.9c2.1,2.1-6,11.1-4.9,13.8C98.8,38.8,110.9,39.4,110.9,42.5z"/>
	
	<path fill="none" stroke="#fff" stroke-miterlimit="10" d="M72.10000000000001,42.5a10.3,10.3 0 1,0 20.6,0a10.3,10.3 0 1,0 -20.6,0"/>

		<!-- <animateTransform 
         attributeName="transform" 
         attributeType="XML" 
         type="rotate"
         dur="5s" 
         from="0 82 42.5"
         to="-360 82 42.5" 
         repeatCount="indefinite" /> -->
</g>
<g id="cog3">
	<path fill="none" stroke="#fff" stroke-miterlimit="10" d="M100.9,92.5c0,3.1-12.2,3.7-13.3,6.3c-1.1,2.8,7,11.8,4.9,13.8
		s-11.1-6-13.8-4.9c-2.7,1.1-3.3,13.3-6.3,13.3s-3.7-12.2-6.3-13.3c-2.8-1.1-11.8,7-13.8,4.9c-2.1-2.1,6-11.1,4.9-13.8
		c-1.1-2.7-13.3-3.3-13.3-6.3s12.1-3.7,13.3-6.3c1.1-2.8-7-11.8-4.9-13.8c2.1-2.1,11.1,6,13.8,4.9c2.7-1.1,3.3-13.3,6.3-13.3
		s3.7,12.2,6.3,13.3c2.8,1.1,11.8-7,13.8-4.9c2.1,2.1-6,11.1-4.9,13.8C88.8,88.8,100.9,89.4,100.9,92.5z"/>
	<path fill="none" stroke="#fff" stroke-miterlimit="10" d="M62.10000000000001,92.5a10.3,10.3 0 1,0 20.6,0a10.3,10.3 0 1,0 -20.6,0"/>
	

		<!-- <animateTransform 
         attributeName="transform" 
         attributeType="XML" 
         type="rotate"
         dur="5s" 
         from="0 71.9 92.5"
         to="360 71.9 92.5" 
         repeatCount="indefinite" /> -->
</g>
<g id="cog4">
	<path fill="none" stroke="#fff" stroke-miterlimit="10" d="M143.9,121.5c0,3.1-12.2,3.7-13.3,6.3c-1.1,2.8,7,11.8,4.9,13.8
		s-11.1-6-13.8-4.9c-2.7,1.1-3.3,13.3-6.3,13.3s-3.7-12.2-6.3-13.3c-2.8-1.1-11.8,7-13.8,4.9s6-11.1,4.9-13.8
		c-1.1-2.7-13.3-3.3-13.3-6.3s12.2-3.7,13.3-6.3c1.1-2.8-7-11.8-4.9-13.8s11.1,6,13.8,4.9c2.7-1.1,3.3-13.3,6.3-13.3
		s3.7,12.2,6.3,13.3c2.8,1.1,11.8-7,13.8-4.9s-6,11.1-4.9,13.8C131.8,117.8,143.9,118.4,143.9,121.5z"/>
	<path fill="none" stroke="#fff" stroke-miterlimit="10" d="M105.10000000000001,121.5a10.3,10.3 0 1,0 20.6,0a10.3,10.3 0 1,0 -20.6,0"/>		
	
	<!-- <animateTransform 
         attributeName="transform" 
         attributeType="XML" 
         type="rotate"
         dur="5s" 
         from="0 115.5 121.5"
         to="-360 115.5 121.5" 
         repeatCount="indefinite" /> -->
</g>

</g>

</svg>
