<?xml version="1.0" encoding="utf-8"?>
<!-- Generator: Adobe Illustrator 16.0.0, SVG Export Plug-In . SVG Version: 6.00 Build 0)  -->
<!DOCTYPE svg PUBLIC "-//W3C//DTD SVG 1.1//EN" "http://www.w3.org/Graphics/SVG/1.1/DTD/svg11.dtd">
<svg version="1.1" xmlns="http://www.w3.org/2000/svg" xmlns:xlink="http://www.w3.org/1999/xlink" x="0px" y="0px" width="241.3px"
	 height="308px" viewBox="27.8 -14.8 241.3 308" enable-background="new 27.8 -14.8 241.3 308" xml:space="preserve">

	

<g id="Layer_1">
	

	<g id="Layer_3">
		<path   class="path"  fill="none" stroke="#fff" stroke-width="2" stroke-linecap="round" stroke-miterlimit="10" d="M82.7,187H48.5
			c-1.7,0-3-1.3-3-3v-8c0-1.7,1.3-3,3-3h34.2"/>
		<path   class="path"  fill="none" stroke="#fff" stroke-width="2" stroke-linecap="round" stroke-miterlimit="10" d="M139.8,173h115.8
			c1.7,0,3,1.3,3,3v8c0,1.7-1.3,3-3,3H139"/>
		<path   class="path"  fill="none" stroke="#fff" stroke-width="2" stroke-linecap="round" stroke-miterlimit="10" d="M138,208c0,1.7-1.3,3-3,3
			H87c-1.7,0-3-1.3-3-3v-55c0-1.7,1.3-3,3-3h48c1.7,0,3,1.3,3,3V208z"/>
		<path   class="path"  fill="none" stroke="#fff" stroke-width="2" stroke-linecap="round" stroke-miterlimit="10" d="M138,228c0,1.7-1.3,3-3,3
			H87c-1.7,0-3-1.3-3-3v-2.5c0-1.7,1.3-3,3-3h48c1.7,0,3,1.3,3,3V228z"/>
		
			<line   class="path"  fill="none" stroke="#fff" stroke-width="2" stroke-linecap="round" stroke-miterlimit="10" x1="111" y1="180.5" x2="111" y2="222.5"/>
		
			<line   class="path"  fill="none" stroke="#fff" stroke-width="2" stroke-linecap="round" stroke-miterlimit="10" x1="111" y1="231" x2="111" y2="263"/>
		
			<line   class="path"  fill="none" stroke="#fff" stroke-width="2" stroke-linecap="round" stroke-miterlimit="10" x1="111" y1="263" x2="93.8" y2="280.3"/>
		
			<line   class="path"  fill="none" stroke="#fff" stroke-width="2" stroke-linecap="round" stroke-miterlimit="10" x1="111" y1="263" x2="127.9" y2="279.9"/>
		<path   class="path"  fill="none" stroke="#fff" stroke-width="2" stroke-linecap="round" stroke-miterlimit="10" d="M218,228c0,1.7-1.3,3-3,3
			h-48c-1.7,0-3-1.3-3-3v-2.5c0-1.7,1.3-3,3-3h48c1.7,0,3,1.3,3,3V228z"/>
		
			<line  class="path"  fill="none" stroke="#fff" stroke-width="2" stroke-linecap="round" stroke-miterlimit="10" x1="191" y1="231" x2="191" y2="263"/>
		
			<line  class="path"  fill="none" stroke="#fff" stroke-width="2" stroke-linecap="round" stroke-miterlimit="10" x1="191" y1="263" x2="173.8" y2="280.3"/>
		
			<line  class="path"  fill="none" stroke="#fff" stroke-width="2" stroke-linecap="round" stroke-miterlimit="10" x1="191" y1="263" x2="207.9" y2="279.9"/>
		
			<line  class="path"  fill="none" stroke="#fff" stroke-width="2" stroke-linecap="round" stroke-miterlimit="10" x1="102.4" y1="180.5" x2="119.4" y2="180.5"/>
		
			<line  class="path"  fill="none" stroke="#fff" stroke-width="2" stroke-linecap="round" stroke-miterlimit="10" x1="45.5" y1="178.5" x2="45.5" y2="279.9"/>
		
			<line  class="path"  fill="none" stroke="#fff" stroke-width="2" stroke-linecap="round" stroke-miterlimit="10" x1="258.5" y1="178.5" x2="258.5" y2="279.9"/>
		<path  class="path"  fill="none" stroke="#fff" stroke-width="2" stroke-linecap="round" stroke-miterlimit="10" d="M247.5,151.5
			c0,1.7-1.3,3-3,3h-67.8c-1.7,0-3-1.3-3-3V114c0-1.7,1.3-3,3-3h67.8c1.7,0,3,1.3,3,3V151.5z"/>
		<path  class="path"  fill="none" stroke="#fff" stroke-width="2" stroke-linecap="round" stroke-miterlimit="10" d="M216,154.5
			c0,10.2,8.3,18.5,18.5,18.5"/>
		<path  class="path"  fill="none" stroke="#fff" stroke-width="2" stroke-linecap="round" stroke-miterlimit="10" d="M204.5,154.5
			c0,10.2-8.3,18.5-18.5,18.5"/>
		<path  class="path"  fill="none" stroke="#fff" stroke-width="2" stroke-linecap="round" stroke-miterlimit="10" d="M52.9,173
			c0-5.2,4.8-9.5,10.7-9.5s10.7,4.3,10.7,9.5"/>
		
			<line  class="path"  fill="none" stroke="#fff" stroke-width="2" stroke-linecap="round" stroke-miterlimit="10" x1="63.7" y1="163.5" x2="63.7" y2="122.5"/>
		
			<line  class="path"  fill="none" stroke="#fff" stroke-width="2" stroke-linecap="round" stroke-miterlimit="10" x1="63.7" y1="114.5" x2="93.8" y2="87"/>
		<path  class="path"  fill="none" stroke="#fff" stroke-width="2" stroke-linecap="round" stroke-miterlimit="10" d="M95,107.2
			c-3.5-4.7-2.6-11.4,2.1-14.9c4.7-3.5,11.4-2.6,14.9,2.1"/>
		<path  class="path"  fill="none" stroke="#fff" stroke-width="2" stroke-linecap="round" stroke-miterlimit="10" d="M93.8,94.8
			c-1.9-2.6-2-5.8-0.2-7.2c1.8-1.4,4.9-0.4,6.8,2.2"/>
		
			<line  class="path"  fill="none" stroke="#fff" stroke-width="2" stroke-linecap="round" stroke-miterlimit="10" x1="112" y1="94.4" x2="95" y2="107.2"/>
		
			<circle  class="path"  fill="none" stroke="#fff" stroke-width="2" stroke-linecap="round" stroke-miterlimit="10" cx="63.3" cy="118.5" r="4"/>
	</g>



	
</g>

</svg>
