<?xml version="1.0" encoding="utf-8"?>
<!-- Generator: Adobe Illustrator 16.0.0, SVG Export Plug-In . SVG Version: 6.00 Build 0)  -->
<!DOCTYPE svg PUBLIC "-//W3C//DTD SVG 1.1//EN" "http://www.w3.org/Graphics/SVG/1.1/DTD/svg11.dtd">
<svg version="1.1" xmlns="http://www.w3.org/2000/svg" xmlns:xlink="http://www.w3.org/1999/xlink" x="0px" y="0px" width="488px"
	 height="706px" viewBox="0 0 488 706" enable-background="new 0 0 488 706" xml:space="preserve">

<g id="Layer_2">

	<g>
		<ellipse fill="none" stroke="#3D1247" stroke-miterlimit="10" cx="248.2" cy="83.6" rx="44.4" ry="65.1"/>
		<path  d="M248.2,137c-23.1,0-42.1-25.9-44.2-58.9c-0.1,2-0.2,4.1-0.2,6.2c0,36,19.9,65.1,44.4,65.1
			c24.5,0,44.4-29.1,44.4-65.1c0-2.1-0.1-4.1-0.2-6.2C290.3,111.1,271.3,137,248.2,137z">
			<animate attributeName="fill" values="rgba(134, 40, 134, 0.96); rgba(134, 40, 134, 0.86); rgba(134, 40, 134, 0.76); rgba(134, 40, 134, 0.66); rgba(134, 40, 134, 0.96);" dur="5s" repeatCount="indefinite" />
		</path>
		<ellipse fill="none" stroke="#3D1247" stroke-miterlimit="10" cx="248.2" cy="83.6" rx="33.2" ry="48.7"/>
		 <path  d="M248.2,34.5c16.9,0,30.9,18.5,32.9,42.5c0.2-2,0.3-4.1,0.3-6.2c0-26.9-14.9-48.7-33.2-48.7
			C229.9,22.2,215,44,215,70.8c0,2.1,0.1,4.1,0.3,6.2C217.3,53,231.3,34.5,248.2,34.5z"><!--1st sketch -->
			<animate attributeName="fill" values="rgba(134, 40, 134, 0.96); rgba(134, 40, 134, 0.86); rgba(134, 40, 134, 0.76); rgba(134, 40, 134, 0.66); rgba(134, 40, 134, 0.96);" dur="5s" repeatCount="indefinite" />
		</path>
		<path fill="#ECE3CB" d="M463,474.4c-2.5-2-14.2,12.7-34.9,33.4c-20.8,20.8-52.9,37.5-50.1,44.6c1.9,4.9,16.7,0.5,20.3,5.6
			c3.5,5.1-11.3,16.7-27.8,28.9c-24.8,18.2-52.7,26.3-66.8,29.9c-14.2,3.5-22.8,3.5-25.8-6.1c-3-9.6-7.1-195.4-7.1-195.4
			s-5.8-172.5-2-198.7c0.9-6.4,5.3-9.1,9.9-9.3c20.6-0.9,81.2,0.3,81.2,0.3c3,7.8,10.6,13.3,19.5,13.3c11.5,0,20.9-9.4,20.9-20.9
			s-9.4-20.9-20.9-20.9c-6.8,0-12.9,3.3-16.7,8.3c-8-0.2-81.8-2.5-97.1-2.9c-1.1-42.5-2.2-74.8-2.8-78.2c-2-10.6-16.2-9.6-16.2-9.6
			h-1.5c0,0-14.2-1-16.2,9.6c-0.6,3.4-1.7,35.7-2.8,78.2c-14.9,0.4-89.3,2.7-97.3,2.9c-3.8-5-9.8-8.3-16.7-8.3
			c-11.5,0-20.9,9.4-20.9,20.9s9.4,20.9,20.9,20.9c8.9,0,16.4-5.5,19.5-13.3l76-0.3c0,0,12-1.9,16.1,7.8
			c4.2,9.8-2.9,200.2-2.9,200.2s-4.1,185.8-7.1,195.4c-3,9.6-11.6,9.6-25.8,6.1c-14.2-3.5-42-11.6-66.8-29.9
			C104.3,574.7,89.4,563,92.9,558c3.5-5.1,18.7-0.5,20.3-5.6c1.5-5.1-29.4-23.8-50.1-44.6c-20.8-20.8-32.4-35.4-34.9-33.4
			c-2.5,2-9.6,27.8,4,71.9c13.7,44,23.3,52.7,27.8,53.2c4.6,0.5,5.1-16.2,12.2-16.7c7.1-0.5,28.9,28.9,58.7,48.1
			c29.9,19.2,54.9,31.1,79.5,39.2c9.8,3.2,15.7,4,21.8,7.6c5.8,3.4,8.8,9.3,13,9.8c0,0,0.7,0,0.7,0c4.2-0.6,7.2-6.4,13-9.8
			c6.1-3.5,12-4.4,21.8-7.6c24.6-8.1,49.6-20,79.5-39.2c29.9-19.2,51.6-48.6,58.7-48.1c7.1,0.5,7.6,17.2,12.2,16.7
			c4.6-0.5,14.2-9.1,27.8-53.2C472.6,502.3,465.5,476.5,463,474.4">			
		</path> 
		 <path fill="#5C2260" d="M269.1,585.8c0,0-7.3,32.1,4.6,41.5c12.7,10,38.5-5.1,38.5-5.1s-23.2,7.2-34.4-1.3
			C269.6,614.9,269.1,585.8,269.1,585.8"> <!--2nd sketch -->
			<animate attributeName="fill" values="rgba(134, 40, 134, 0.96); rgba(134, 40, 134, 0.86); rgba(134, 40, 134, 0.76); rgba(134, 40, 134, 0.66); rgba(134, 40, 134, 0.96);" dur="5s" repeatCount="indefinite" />
		</path>
		<path fill="#5C2260" d="M224.9,586.6c0,0,7.3,32.1-4.6,41.5c-12.7,10-38.5-5.1-38.5-5.1s23.2,7.2,34.4-1.3
			C224.4,615.7,224.9,586.6,224.9,586.6"><!--3rd sketch -->
			<animate attributeName="fill" values="rgba(134, 40, 134, 0.96); rgba(134, 40, 134, 0.86); rgba(134, 40, 134, 0.76); rgba(134, 40, 134, 0.66); rgba(134, 40, 134, 0.96);" dur="5s" repeatCount="indefinite" />
		</path>
		 <path fill="#5C2260" d="M413.5,530c-9.5,7.6-23,15.4-24.1,17.3s7.2,1.3,11.4,3.2c4.2,1.9,4.6,6.8,4.6,6.8s14.9-15.4,23.7-27.3
			c9.1-12.3,17.7-28.3,17.7-28.3S424.7,521,413.5,530"> <!--4th sketch -->
			<animate attributeName="fill" values="rgba(134, 40, 134, 0.96); rgba(134, 40, 134, 0.86); rgba(134, 40, 134, 0.76); rgba(134, 40, 134, 0.66); rgba(134, 40, 134, 0.96);" dur="5s" repeatCount="indefinite" />
		</path>
		<path fill="#5C2260" d="M48.1,502.7c0,0,32.2,46.2,36.2,48.2c4,2,5.2-1.8,11.8-2.2c6.6-0.4,3.4-2.6-5.6-9
			c-9-6.4-18.2-14.8-25-21.6C58.7,511.3,53.1,507.3,48.1,502.7"><!--5th sketch -->
			<animate attributeName="fill" values="rgba(134, 40, 134, 0.96); rgba(134, 40, 134, 0.86); rgba(134, 40, 134, 0.76); rgba(134, 40, 134, 0.66); rgba(134, 40, 134, 0.96);" dur="5s" repeatCount="indefinite" />
		</path>
		 <path fill="#3D1247" d="M225.1,197.7c-7.7-2.8-102.8,1-102.8,1s-4.2,7-9.9,7.6c-5.7,0.6-11.9-3.7-11.9-9.4c0-8.9,9.2-13,9.2-13
			s-3.5-0.5-7.6,1.8c-4,2.3-7.1,7.3-7.2,13.3c-0.1,6,4,16.2,15.6,17c13.7,0.9,18.4-13.4,18.4-13.4s84.4-0.5,91.3,1.4
			c6.8,1.9,8.2,3.7,9.4,15.4c1.1,11.8,1.1,34.2,1.1,34.2s3.4-30,3.8-37.6C234.8,208.4,233.4,200.8,225.1,197.7"> <!--6th sketch -->
			<animate attributeName="fill" values="rgba(134, 40, 134, 0.96); rgba(134, 40, 134, 0.86); rgba(134, 40, 134, 0.76); rgba(134, 40, 134, 0.66); rgba(134, 40, 134, 0.96);" dur="5s" repeatCount="indefinite" />
		</path>
		 <path fill="#3D1247" d="M267.9,198.1c7.7-2.8,100.3,0.6,100.3,0.6s4.2,7,9.9,7.6c5.7,0.6,11.9-3.7,11.9-9.4c0-8.9-9.2-13-9.2-13
			s3.5-0.5,7.6,1.8c4,2.3,7.1,7.3,7.2,13.3c0.1,6-4.1,16.2-15.6,17c-13.7,0.9-18.4-13.4-18.4-13.4s-81.2-1.4-88,0.5
			c-6.8,1.9-8.4,10.3-9.5,22s-0.8,70.2-0.8,70.2s-2.7-64.2-3-71.8C259.9,216,259.5,201.2,267.9,198.1"> <!--7th sketch -->
			<animate attributeName="fill" values="rgba(134, 40, 134, 0.96); rgba(134, 40, 134, 0.86); rgba(134, 40, 134, 0.76); rgba(134, 40, 134, 0.66); rgba(134, 40, 134, 0.96);" dur="5s" repeatCount="indefinite" />
		</path>
		 <path fill="#3D1247" d="M463,472.1c0,0-15.7,48.1-42.5,83c-26.8,34.9-84,66.3-113.4,79c-2.6,1.1-5.1,2.1-7.5,3
			c-9.9,2.4-30.3,5.8-36.1-3.5c-4.1-6.6-5.7-23.4-6.3-37.3l-0.8-212.8L252,97.6l-7.2-0.9l0.4,528.1c-2.3,19.2-10.6,30.6-29.3,27.8
			c-14.5-2.1-38.1-11.4-51-16.8c-22.8-11.1-44.6-25.2-63.7-42.7c-32.4-29.9-71.6-109.4-71.6-109.4s0.5,11.1,1,22.8
			c0.8,17.7,7.1,39.7,12.7,55.9c5.6,16.2,11.6,29.2,15.7,26.2c4.1-3,4.3-10.1,7-12.8c6.5-6.7,22.4,12.7,33.5,22.3
			c11.1,9.6,30.4,24.3,49.1,36.5c18.7,12.2,60,29.4,76.7,33.9c16.6,4.5,18,14.1,20,16.2c0,0.2,0,0.3,0,0.3l0-0.2c0,0,0,0,0,0
			c0.5,0.5,0.9,0.1,1.2-1c2.8-2.8,10.2-9.2,21.1-12.7c14.2-4.6,65.8-22.3,96.7-45.6c30.9-23.3,49.5-47.6,54.6-45.1
			c5.1,2.5,7.1,16.7,12.2,16.7c5.1,0,16.7-18.2,25.4-47.6c8.6-29.4,9.1-36.5,10.1-47.6C467.6,490.8,463,472.1,463,472.1z"> <!--8th sketch -->
			<animate attributeName="fill" values="rgba(134, 40, 134, 0.96); rgba(134, 40, 134, 0.86); rgba(134, 40, 134, 0.76); rgba(134, 40, 134, 0.66); rgba(134, 40, 134, 0.96);" dur="5s" repeatCount="indefinite" />
		</path>
		 <path fill="none" stroke="#5C2260" stroke-miterlimit="10" d="M463,474.4c-2.5-2-14.2,12.7-34.9,33.4
			c-20.8,20.8-52.9,37.5-50.1,44.6c1.9,4.9,16.7,0.5,20.3,5.6c3.5,5.1-11.3,16.7-27.8,28.9c-24.8,18.2-52.7,26.3-66.8,29.9
			c-14.2,3.5-22.8,3.5-25.8-6.1c-3-9.6-7.1-195.4-7.1-195.4s-5.8-172.5-2-198.7c0.9-6.4,5.3-9.1,9.9-9.3c20.6-0.9,81.2,0.3,81.2,0.3
			c3,7.8,10.6,13.3,19.5,13.3c11.5,0,20.9-9.4,20.9-20.9s-9.4-20.9-20.9-20.9c-6.8,0-12.9,3.3-16.7,8.3c-8-0.2-81.8-2.5-97.1-2.9
			c-1.1-42.5-2.2-74.8-2.8-78.2c-2-10.6-16.2-9.6-16.2-9.6h-1.5c0,0-14.2-1-16.2,9.6c-0.6,3.4-1.7,35.7-2.8,78.2
			c-14.9,0.4-89.3,2.7-97.3,2.9c-3.8-5-9.8-8.3-16.7-8.3c-11.5,0-20.9,9.4-20.9,20.9s9.4,20.9,20.9,20.9c8.9,0,16.4-5.5,19.5-13.3
			l76-0.3c0,0,12-1.9,16.1,7.8c4.2,9.8-2.9,200.2-2.9,200.2s-4.1,185.8-7.1,195.4c-3,9.6-11.6,9.6-25.8,6.1
			c-14.2-3.5-42-11.6-66.8-29.9C104.3,574.7,89.4,563,92.9,558c3.5-5.1,18.7-0.5,20.3-5.6c1.5-5.1-29.4-23.8-50.1-44.6
			c-20.8-20.8-32.4-35.4-34.9-33.4c-2.5,2-9.6,27.8,4,71.9c13.7,44,23.3,52.7,27.8,53.2c4.6,0.5,5.1-16.2,12.2-16.7
			c7.1-0.5,28.9,28.9,58.7,48.1c29.9,19.2,54.9,31.1,79.5,39.2c9.8,3.2,15.7,4,21.8,7.6c5.8,3.4,8.8,9.3,13,9.8c0,0,0.7,0,0.7,0
			c4.2-0.6,7.2-6.4,13-9.8c6.1-3.5,12-4.4,21.8-7.6c24.6-8.1,49.6-20,79.5-39.2c29.9-19.2,51.6-48.6,58.7-48.1
			c7.1,0.5,7.6,17.2,12.2,16.7c4.6-0.5,14.2-9.1,27.8-53.2C472.6,502.3,465.5,476.5,463,474.4z"/> 
	</g>
	<animateTransform attributeName="transform" dur="1s" type="translate" values="0 15 ; 0 -15; 0 15" repeatCount="indefinite" begin="0.2"/>
</g>
</svg>
