<?xml version="1.0" encoding="utf-8"?>
<!-- Generator: Adobe Illustrator 16.0.0, SVG Export Plug-In . SVG Version: 6.00 Build 0)  -->
<!DOCTYPE svg PUBLIC "-//W3C//DTD SVG 1.1//EN" "http://www.w3.org/Graphics/SVG/1.1/DTD/svg11.dtd">
<svg version="1.1" id="Layer_1" xmlns="http://www.w3.org/2000/svg" xmlns:xlink="http://www.w3.org/1999/xlink" x="0px" y="0px"
	 width="1920px" height="1080px" viewBox="0 0 1920 1080" enable-background="new 0 0 1920 1080" xml:space="preserve">
<g opacity="0.7">
	<path d="M123.1,356.4c-9.7,0-17.6-7.9-17.6-17.6c0-9.7,7.9-17.6,17.6-17.6v1c-9.1,0-16.6,7.4-16.6,16.6s7.4,16.6,16.6,16.6V356.4z"
		/>
</g>
<g opacity="0.7">
	<path d="M1565.5,270.9c-6.2,0-11.3-5.1-11.3-11.3s5.1-11.3,11.3-11.3c6.2,0,11.3,5.1,11.3,11.3S1571.7,270.9,1565.5,270.9z
		 M1565.5,249.4c-5.7,0-10.3,4.6-10.3,10.3s4.6,10.3,10.3,10.3c5.7,0,10.3-4.6,10.3-10.3S1571.1,249.4,1565.5,249.4z"/>
</g>
<g opacity="0.7">
	<path d="M588.9,548.8c-6.9,0-12.5-5.6-12.5-12.5h1c0,6.4,5.2,11.5,11.5,11.5s11.5-5.2,11.5-11.5h1
		C601.4,543.1,595.8,548.8,588.9,548.8z"/>
</g>
<g opacity="0.7">
	<path d="M1555.3,818.4c-5.9,0-10.6-4.8-10.6-10.6h1c0,5.3,4.3,9.6,9.6,9.6c5.3,0,9.6-4.3,9.6-9.6h1
		C1566,813.6,1561.2,818.4,1555.3,818.4z"/>
</g>
<g opacity="0.7">
	<path d="M140.6,965.4h-1c0-7.8-6.3-14.1-14.1-14.1s-14.1,6.3-14.1,14.1h-1c0-8.3,6.8-15.1,15.1-15.1
		C133.9,950.3,140.6,957.1,140.6,965.4z"/>
</g>
<g opacity="0.7">
	<rect x="1704.7" y="511.1" width="26.6" height="1"/>
</g>
<g opacity="0.7">
	<rect x="1717.5" y="498.3" width="1" height="26.6"/>
</g>
<g opacity="0.7">
	<path d="M241.6,641.2l-10.6-5.6l-10.6,5.6l2-11.9l-8.6-8.4l11.9-1.7l5.3-10.8l5.3,10.8l11.9,1.7l-8.6,8.4L241.6,641.2z M231,634.4
		l9.3,4.9l-1.8-10.4l7.5-7.3l-10.4-1.5l-4.7-9.4l-4.7,9.4l-10.4,1.5l7.5,7.3l-1.8,10.4L231,634.4z"/>
</g>
<g opacity="0.7">
	<path d="M1586.8,281H1565v-21.9h21.9V281z M1566,280h19.9v-19.9H1566V280z"/>
</g>
<g opacity="0.7">
	<rect x="295.8" y="751.6" width="29.1" height="1"/>
</g>
<g opacity="0.7">
	<rect x="310.4" y="768" width="44.9" height="1"/>
</g>
<g opacity="0.7">
	<path d="M1094.7,934.8H1059l17.9-30.9L1094.7,934.8z M1060.7,933.8h32.3l-16.1-27.9L1060.7,933.8z"/>
</g>
<g opacity="0.7">
	<path d="M1253.2,47.2h-23.1l11.5-20L1253.2,47.2z M1231.9,46.2h19.6l-9.8-17L1231.9,46.2z"/>
</g>
<g opacity="0.7">
	<path d="M1263.2,47.2h-23.1l11.5-20L1263.2,47.2z M1241.9,46.2h19.6l-9.8-17L1241.9,46.2z"/>
</g>
</svg>
